<?xml version="1.0" encoding="UTF-8" standalone="no"?>
<!-- Created with Inkscape (http://www.inkscape.org/) -->

<svg
   width="35"
   height="48"
   viewBox="0 0 9.2604169 12.7"
   version="1.1"
   id="svg5"
   sodipodi:docname="&amp;.svg"
   inkscape:version="1.1.1 (3bf5ae0d25, 2021-09-20)"
   xmlns:inkscape="http://www.inkscape.org/namespaces/inkscape"
   xmlns:sodipodi="http://sodipodi.sourceforge.net/DTD/sodipodi-0.dtd"
   xmlns="http://www.w3.org/2000/svg"
   xmlns:svg="http://www.w3.org/2000/svg">
  <sodipodi:namedview
     id="namedview7"
     pagecolor="#ffffff"
     bordercolor="#666666"
     borderopacity="1.0"
     inkscape:pageshadow="2"
     inkscape:pageopacity="0.0"
     inkscape:pagecheckerboard="0"
     inkscape:document-units="mm"
     showgrid="true"
     showguides="true"
     inkscape:guide-bbox="true"
     units="px"
     width="32px"
     inkscape:zoom="17.557358"
     inkscape:cx="14.324479"
     inkscape:cy="16.488813"
     inkscape:window-width="1889"
     inkscape:window-height="1058"
     inkscape:window-x="31"
     inkscape:window-y="0"
     inkscape:window-maximized="1"
     inkscape:current-layer="layer1">
    <sodipodi:guide
       position="0,39.533332"
       orientation="0,1"
       id="guide824"
       inkscape:label=""
       inkscape:locked="false"
       inkscape:color="rgb(0,0,255)" />
    <inkscape:grid
       type="xygrid"
       id="grid826" />
    <sodipodi:guide
       position="2.3812494,4.2333301"
       orientation="0,1"
       id="guide905"
       inkscape:label=""
       inkscape:locked="false"
       inkscape:color="rgb(0,0,255)" />
  </sodipodi:namedview>
  <defs
     id="defs2" />
  <g
     inkscape:label="Layer 1"
     inkscape:groupmode="layer"
     id="layer1">
    <path
       id="path7653"
       style="fill:#000000;stroke:none;stroke-width:0.999999px;stroke-linecap:butt;stroke-linejoin:miter;stroke-opacity:1"
       d="M 11 0 C 11 0 2 2.519685e-08 2 1 L 2 9 C 2 9 7 13 7 14 L 7 15 L 0 19 L 0 32 L 18 32 C 19 32 20 30 20 30 L 21 30 L 23 32 L 34 32 C 35 32 35 31 35 31 C 35 31 35 30 34 30 L 33 30 C 32 30 32 31 31 31 L 28 31 L 23 27 L 23 25 L 28 17 L 35 17 C 35 17 35 15 33 15 L 19 15 C 18 15 18 16 18 16 C 18 16 18 17 19 17 L 26 17 L 22 24 L 21 24 L 12 14 L 20 9 L 20 8 C 20 7.0000001 19 6.0000003 19 5 C 19 4.0000001 20 3.9999999 20 3 C 20 2 20.535527 4.4408921e-16 18.267578 0 L 11 0 z M 7 2 L 16 2 L 16 10 L 11 13 L 7 9 L 7 2 z M 8 16 L 9 16 L 19 27 L 19 30 L 18 31 L 4 31 L 4 30 L 4 19 L 4 18 L 8 16 z "
       transform="scale(0.26458333)" />
  </g>
</svg>
