<?xml version="1.0" encoding="UTF-8" standalone="no"?>
<!-- Created with Inkscape (http://www.inkscape.org/) -->

<svg
   width="18"
   height="48"
   viewBox="0 0 4.7625001 12.7"
   version="1.1"
   id="svg5"
   sodipodi:docname="1.svg"
   inkscape:version="1.1.1 (3bf5ae0d25, 2021-09-20)"
   xmlns:inkscape="http://www.inkscape.org/namespaces/inkscape"
   xmlns:sodipodi="http://sodipodi.sourceforge.net/DTD/sodipodi-0.dtd"
   xmlns="http://www.w3.org/2000/svg"
   xmlns:svg="http://www.w3.org/2000/svg">
  <sodipodi:namedview
     id="namedview7"
     pagecolor="#ffffff"
     bordercolor="#666666"
     borderopacity="1.0"
     inkscape:pageshadow="2"
     inkscape:pageopacity="0.0"
     inkscape:pagecheckerboard="0"
     inkscape:document-units="mm"
     showgrid="true"
     showguides="true"
     inkscape:guide-bbox="true"
     units="px"
     width="32px"
     inkscape:zoom="22.627417"
     inkscape:cx="7.5793008"
     inkscape:cy="18.097514"
     inkscape:window-width="1889"
     inkscape:window-height="1058"
     inkscape:window-x="31"
     inkscape:window-y="0"
     inkscape:window-maximized="1"
     inkscape:current-layer="layer1">
    <sodipodi:guide
       position="0,39.533332"
       orientation="0,1"
       id="guide824"
       inkscape:label=""
       inkscape:locked="false"
       inkscape:color="rgb(0,0,255)" />
    <inkscape:grid
       type="xygrid"
       id="grid826" />
    <sodipodi:guide
       position="2.3812494,4.2333301"
       orientation="0,1"
       id="guide905"
       inkscape:label=""
       inkscape:locked="false"
       inkscape:color="rgb(0,0,255)" />
    <sodipodi:guide
       position="1.8520834,10.054167"
       orientation="0,-1"
       id="guide8143" />
    <sodipodi:guide
       position="3.1750001,12.170833"
       orientation="0,-1"
       id="guide8781" />
    <sodipodi:guide
       position="2.6458335,1.5875"
       orientation="0,-1"
       id="guide14907" />
  </sodipodi:namedview>
  <defs
     id="defs2" />
  <g
     inkscape:label="Layer 1"
     inkscape:groupmode="layer"
     id="layer1">
    <path
       style="fill:#000000;stroke:none;stroke-width:0.264583px;stroke-linecap:butt;stroke-linejoin:miter;stroke-opacity:1"
       d="m 0.26458333,8.2020832 c 0,0 0,0.264586 0.26458333,0.264586 H 4.4979166 c 0.2645833,0 0.2645833,-0.264586 0.2645833,-0.264586 0,0 0,-0.2645833 -0.2645833,-0.2645833 H 3.175 V 2.6458331 C 3.175,2.38125 3.4395833,1.5875 3.4395833,1.3229166 V 0.26458333 C 3.4395833,0 3.175,0 3.175,0 H 2.6458333 c 0,0 -1.5875,1.0583333 -2.38124997,1.8520833 -0.3012488,0.3012488 -0.007929,0.7217953 0.21807801,0.5127209 C 1.3229167,1.5875 2.38125,0.79374999 2.38125,0.79374999 V 1.5875 c 0,0.2645833 -0.2645834,0.5291662 -0.2645834,1.0583331 V 7.9374999 H 0.52916666 c -0.26458333,0 -0.26458333,0.2645833 -0.26458333,0.2645833 z"
       id="path21520"
       sodipodi:nodetypes="csscscsssccsscsscsc" />
  </g>
</svg>
