<?xml version="1.0" encoding="UTF-8" standalone="no"?>
<!-- Created with Inkscape (http://www.inkscape.org/) -->

<svg
   width="24"
   height="48"
   viewBox="0 0 6.3500001 12.7"
   version="1.1"
   id="svg5"
   sodipodi:docname="3.svg"
   inkscape:version="1.1.1 (3bf5ae0d25, 2021-09-20)"
   xmlns:inkscape="http://www.inkscape.org/namespaces/inkscape"
   xmlns:sodipodi="http://sodipodi.sourceforge.net/DTD/sodipodi-0.dtd"
   xmlns="http://www.w3.org/2000/svg"
   xmlns:svg="http://www.w3.org/2000/svg">
  <sodipodi:namedview
     id="namedview7"
     pagecolor="#ffffff"
     bordercolor="#666666"
     borderopacity="1.0"
     inkscape:pageshadow="2"
     inkscape:pageopacity="0.0"
     inkscape:pagecheckerboard="0"
     inkscape:document-units="mm"
     showgrid="true"
     showguides="true"
     inkscape:guide-bbox="true"
     units="px"
     width="32px"
     inkscape:zoom="16"
     inkscape:cx="16.28125"
     inkscape:cy="17.65625"
     inkscape:window-width="1889"
     inkscape:window-height="1058"
     inkscape:window-x="31"
     inkscape:window-y="0"
     inkscape:window-maximized="1"
     inkscape:current-layer="layer1">
    <sodipodi:guide
       position="0,39.533332"
       orientation="0,1"
       id="guide824"
       inkscape:label=""
       inkscape:locked="false"
       inkscape:color="rgb(0,0,255)" />
    <inkscape:grid
       type="xygrid"
       id="grid826" />
    <sodipodi:guide
       position="2.3812494,4.2333301"
       orientation="0,1"
       id="guide905"
       inkscape:label=""
       inkscape:locked="false"
       inkscape:color="rgb(0,0,255)" />
    <sodipodi:guide
       position="1.8520834,10.054167"
       orientation="0,-1"
       id="guide8143" />
    <sodipodi:guide
       position="3.1750001,12.170833"
       orientation="0,-1"
       id="guide8781" />
    <sodipodi:guide
       position="2.6458335,1.5875"
       orientation="0,-1"
       id="guide14907" />
  </sodipodi:namedview>
  <defs
     id="defs2" />
  <g
     inkscape:label="Layer 1"
     inkscape:groupmode="layer"
     id="layer1">
    <path
       style="fill:#000000;stroke:none;stroke-width:0.264583px;stroke-linecap:butt;stroke-linejoin:miter;stroke-opacity:1"
       d="M 0.52916666,5.0270833 H 0 c 0,0 0,2.910414 0,3.1749999 0,0.264586 0.52916666,0.264586 0.52916666,0.264586 0,0 5.02708324,-2.6e-6 5.29166664,-2.6e-6 0.2645833,0 0.2645833,-0.2645834 0.2645833,-0.2645834 0,0 0,-3.4395833 0,-3.7041666 0,-0.2645833 -0.79375,-0.2645833 -0.79375,-0.2645833 V 3.96875 c 0,0 -0.2645833,0 0,0 0.2645833,0 0.5291667,-0.2645834 0.5291667,-0.5291667 0,-0.2645833 0,-2.91041664 0,-3.17499997 C 5.8208333,0 5.5562499,0 5.5562499,0 c 0,0 -4.76249991,0 -5.02708324,0 C 0.26458333,0 0.26458333,0.26458333 0.26458333,0.26458333 V 2.9104166 H 1.5875 V 0.52916719 c 0,0 2.6458333,5.3e-7 2.9104166,0 0.2645833,-5.3e-7 0.2645833,0.2645828 0.2645833,0.2645828 V 3.96875 c 0,0 -1.5874999,0 -1.8520833,0 -0.2645833,0 -0.2645833,0.2645833 -0.2645833,0.2645833 0,0 0,0.2645833 0.2645833,0.2645833 0.2645834,0 0.2645834,-0.2645833 0.5291667,-0.2645833 0.2645833,0 1.0583333,0 1.3229166,0 0.2645834,0 0.2645834,0.2645833 0.2645834,0.2645833 V 7.9374999 H 1.3229166 V 5.0270833 H 0.52916666"
       id="path23535" />
  </g>
</svg>
