<?xml version="1.0" encoding="UTF-8" standalone="no"?>
<!-- Created with Inkscape (http://www.inkscape.org/) -->

<svg
   width="25"
   height="48"
   viewBox="0 0 6.6145834 12.7"
   version="1.1"
   id="svg5"
   sodipodi:docname="5.svg"
   inkscape:version="1.1.1 (3bf5ae0d25, 2021-09-20)"
   xmlns:inkscape="http://www.inkscape.org/namespaces/inkscape"
   xmlns:sodipodi="http://sodipodi.sourceforge.net/DTD/sodipodi-0.dtd"
   xmlns="http://www.w3.org/2000/svg"
   xmlns:svg="http://www.w3.org/2000/svg">
  <sodipodi:namedview
     id="namedview7"
     pagecolor="#ffffff"
     bordercolor="#666666"
     borderopacity="1.0"
     inkscape:pageshadow="2"
     inkscape:pageopacity="0.0"
     inkscape:pagecheckerboard="0"
     inkscape:document-units="mm"
     showgrid="true"
     showguides="true"
     inkscape:guide-bbox="true"
     units="px"
     width="32px"
     inkscape:zoom="22.627417"
     inkscape:cx="13.191961"
     inkscape:cy="15.313281"
     inkscape:window-width="1889"
     inkscape:window-height="1058"
     inkscape:window-x="31"
     inkscape:window-y="0"
     inkscape:window-maximized="1"
     inkscape:current-layer="layer1">
    <sodipodi:guide
       position="0,39.533332"
       orientation="0,1"
       id="guide824"
       inkscape:label=""
       inkscape:locked="false"
       inkscape:color="rgb(0,0,255)" />
    <inkscape:grid
       type="xygrid"
       id="grid826" />
    <sodipodi:guide
       position="2.3812494,4.2333301"
       orientation="0,1"
       id="guide905"
       inkscape:label=""
       inkscape:locked="false"
       inkscape:color="rgb(0,0,255)" />
    <sodipodi:guide
       position="1.8520834,10.054167"
       orientation="0,-1"
       id="guide8143" />
    <sodipodi:guide
       position="3.1750001,12.170833"
       orientation="0,-1"
       id="guide8781" />
    <sodipodi:guide
       position="2.6458335,1.5875"
       orientation="0,-1"
       id="guide14907" />
  </sodipodi:namedview>
  <defs
     id="defs2" />
  <g
     inkscape:label="Layer 1"
     inkscape:groupmode="layer"
     id="layer1">
    <path
       style="fill:#000000;stroke:none;stroke-width:0.264583px;stroke-linecap:butt;stroke-linejoin:miter;stroke-opacity:1"
       d="m 0,5.5562499 c 0,0 0,2.3812474 0,2.6458333 0,0.264586 0.26458333,0.264586 0.26458333,0.264586 H 5.8208333 V 3.96875 H 1.5875 L 2.9104166,0.52916666 c 0,0 3.175,5.3e-7 3.4395833,5.3e-7 0.2645833,0 0.2645833,-0.26458386 0.2645833,-0.26458386 0,0 0,-0.26458333 -0.2645833,-0.26458333 C 6.0854166,0 2.38125,0 2.1166666,0 1.8520833,0 0.26458333,3.96875 0.26458333,4.2333333 c 0,0.2645833 0.26458333,0.2645833 0.26458333,0.2645833 H 4.7624999 V 7.9374999 H 1.3229166 c 0,0 0,-1.8520833 0,-2.1166666 C 1.3229166,5.5562499 0,5.5562499 0,5.5562499 Z"
       id="path24318" />
  </g>
</svg>
