<?xml version="1.0" encoding="UTF-8" standalone="no"?>
<!-- Created with Inkscape (http://www.inkscape.org/) -->

<svg
   width="25"
   height="48"
   viewBox="0 0 6.6145834 12.7"
   version="1.1"
   id="svg5"
   sodipodi:docname="7.svg"
   inkscape:version="1.1.1 (3bf5ae0d25, 2021-09-20)"
   xmlns:inkscape="http://www.inkscape.org/namespaces/inkscape"
   xmlns:sodipodi="http://sodipodi.sourceforge.net/DTD/sodipodi-0.dtd"
   xmlns="http://www.w3.org/2000/svg"
   xmlns:svg="http://www.w3.org/2000/svg">
  <sodipodi:namedview
     id="namedview7"
     pagecolor="#ffffff"
     bordercolor="#666666"
     borderopacity="1.0"
     inkscape:pageshadow="2"
     inkscape:pageopacity="0.0"
     inkscape:pagecheckerboard="0"
     inkscape:document-units="mm"
     showgrid="true"
     showguides="true"
     inkscape:guide-bbox="true"
     units="px"
     width="32px"
     inkscape:zoom="22.627417"
     inkscape:cx="10.893864"
     inkscape:cy="18.495262"
     inkscape:window-width="1889"
     inkscape:window-height="1058"
     inkscape:window-x="31"
     inkscape:window-y="0"
     inkscape:window-maximized="1"
     inkscape:current-layer="layer1">
    <sodipodi:guide
       position="0,39.533332"
       orientation="0,1"
       id="guide824"
       inkscape:label=""
       inkscape:locked="false"
       inkscape:color="rgb(0,0,255)" />
    <inkscape:grid
       type="xygrid"
       id="grid826" />
    <sodipodi:guide
       position="2.3812494,4.2333301"
       orientation="0,1"
       id="guide905"
       inkscape:label=""
       inkscape:locked="false"
       inkscape:color="rgb(0,0,255)" />
    <sodipodi:guide
       position="1.8520834,10.054167"
       orientation="0,-1"
       id="guide8143" />
    <sodipodi:guide
       position="3.1750001,12.170833"
       orientation="0,-1"
       id="guide8781" />
    <sodipodi:guide
       position="2.6458335,1.5875"
       orientation="0,-1"
       id="guide14907" />
  </sodipodi:namedview>
  <defs
     id="defs2" />
  <g
     inkscape:label="Layer 1"
     inkscape:groupmode="layer"
     id="layer1">
    <path
       style="fill:#000000;stroke:none;stroke-width:0.264583px;stroke-linecap:butt;stroke-linejoin:miter;stroke-opacity:1"
       d="M 0.79374999,2.645833 H 0.26458333 C 0.26458333,2.645833 0,2.6458333 0,2.38125 0,2.1166666 0.52916666,0 0.52916666,0 H 6.3499999 c 0,0 0.2645833,-5.2499998e-7 0.2645833,0.26458333 0,0.26458386 -0.063697,0.35697812 -0.2645833,0.52916666 C 4.4979167,2.38125 3.175,6.6145833 3.175,7.9374999 h 1.8520833 c 0.2645833,0 0.2645833,0.2645833 0.2645833,0.2645833 0,0 0,0.264586 -0.2645833,0.264586 H 0.26458333 C 0,8.4666692 0,8.2020832 0,8.2020832 c 0,0 0,-0.2645833 0.26458333,-0.2645833 H 1.8520833 c 0,-1.8520832 2.5695837,-6.1471511 3.4395833,-7.14374991 0.1870742,-0.21429663 1e-7,-0.2645828 -0.2645833,-0.2645828 h -3.175 c 0,0 -0.5291667,1.58749971 -0.5291667,1.85208281 0,0.264583 -0.2645833,0.264583 -0.2645833,0.264583 z"
       id="path25167"
       sodipodi:nodetypes="ccsccsscscsscscsccscc" />
  </g>
</svg>
