<?xml version="1.0" encoding="UTF-8" standalone="no"?>
<!-- Created with Inkscape (http://www.inkscape.org/) -->

<svg
   width="41"
   height="48"
   viewBox="0 0 10.847916 12.7"
   version="1.1"
   id="svg5"
   inkscape:version="1.1.1 (3bf5ae0d25, 2021-09-20)"
   sodipodi:docname="A.svg"
   xmlns:inkscape="http://www.inkscape.org/namespaces/inkscape"
   xmlns:sodipodi="http://sodipodi.sourceforge.net/DTD/sodipodi-0.dtd"
   xmlns="http://www.w3.org/2000/svg"
   xmlns:svg="http://www.w3.org/2000/svg">
  <sodipodi:namedview
     id="namedview7"
     pagecolor="#ffffff"
     bordercolor="#666666"
     borderopacity="1.0"
     inkscape:pageshadow="2"
     inkscape:pageopacity="0.0"
     inkscape:pagecheckerboard="0"
     inkscape:document-units="mm"
     showgrid="true"
     showguides="true"
     inkscape:guide-bbox="true"
     units="px"
     width="32px"
     inkscape:zoom="12.414927"
     inkscape:cx="10.833733"
     inkscape:cy="18.244167"
     inkscape:window-width="1889"
     inkscape:window-height="1058"
     inkscape:window-x="31"
     inkscape:window-y="0"
     inkscape:window-maximized="1"
     inkscape:current-layer="layer1">
    <sodipodi:guide
       position="0,39.533332"
       orientation="0,1"
       id="guide824"
       inkscape:label=""
       inkscape:locked="false"
       inkscape:color="rgb(0,0,255)" />
    <inkscape:grid
       type="xygrid"
       id="grid826" />
  </sodipodi:namedview>
  <defs
     id="defs2" />
  <g
     inkscape:label="Layer 1"
     inkscape:groupmode="layer"
     id="layer1">
    <path
       id="path937"
       style="fill:#000000;stroke:none;stroke-width:0.999999px;stroke-linecap:butt;stroke-linejoin:miter;stroke-opacity:1"
       d="M 8,0 C 6.0000003,0 6,2 6,2 h 7.232422 L 7.2636719,29.845703 A 0.75,0.75 0 0 0 7.2519531,30 H 1 c 0,0 -1,0 -1,1 0,1 1,1 1,1 h 15 c 0,0 1,10e-7 1,-1 0,-1.000001 -1,-1 -1,-1 H 8.765625 L 11.337891,18 H 25.5 l 3,12 H 22 c 0,0 -1,-1e-6 -1,1 0,1.000001 1,1 1,1 h 8 c 0,0 1,0 1,-1 0,-1 1,1 2,1 h 7 c 0,0 1,10e-7 1,-1 0,-1.000001 -1,-1 -1,-1 H 32.548828 L 26,1 h 6 c 1,0 1,1 1,1 V 1 C 33,1.2598425e-8 32,0 32,0 Z m 6.75,2 H 21.5 L 25,16 H 11.767578 L 14.734375,2.15625 A 0.75,0.75 0 0 0 14.75,2 Z"
       transform="scale(0.26458333)" />
  </g>
</svg>
