<?xml version="1.0" encoding="UTF-8" standalone="no"?>
<!-- Created with Inkscape (http://www.inkscape.org/) -->

<svg
   width="34"
   height="48"
   viewBox="0 0 8.9958328 12.7"
   version="1.1"
   id="svg5"
   sodipodi:docname="B.svg"
   inkscape:version="1.1.1 (3bf5ae0d25, 2021-09-20)"
   xmlns:inkscape="http://www.inkscape.org/namespaces/inkscape"
   xmlns:sodipodi="http://sodipodi.sourceforge.net/DTD/sodipodi-0.dtd"
   xmlns="http://www.w3.org/2000/svg"
   xmlns:svg="http://www.w3.org/2000/svg">
  <sodipodi:namedview
     id="namedview7"
     pagecolor="#ffffff"
     bordercolor="#666666"
     borderopacity="1.0"
     inkscape:pageshadow="2"
     inkscape:pageopacity="0.0"
     inkscape:pagecheckerboard="0"
     inkscape:document-units="mm"
     showgrid="true"
     showguides="true"
     inkscape:guide-bbox="true"
     units="px"
     width="32px"
     inkscape:zoom="17.557358"
     inkscape:cx="19.393578"
     inkscape:cy="16.773594"
     inkscape:window-width="1889"
     inkscape:window-height="1058"
     inkscape:window-x="31"
     inkscape:window-y="0"
     inkscape:window-maximized="1"
     inkscape:current-layer="layer1">
    <sodipodi:guide
       position="0,39.533332"
       orientation="0,1"
       id="guide824"
       inkscape:label=""
       inkscape:locked="false"
       inkscape:color="rgb(0,0,255)" />
    <inkscape:grid
       type="xygrid"
       id="grid826" />
  </sodipodi:namedview>
  <defs
     id="defs2" />
  <g
     inkscape:label="Layer 1"
     inkscape:groupmode="layer"
     id="layer1">
    <path
       id="path1946"
       style="opacity:1;fill:#000000;stroke:none;stroke-width:0.999999px;stroke-linecap:butt;stroke-linejoin:miter;stroke-opacity:1"
       d="M 1,0 C 1,0 0,2.519685e-8 0,1 0,2 1,2 1,2 H 7 V 30 H 1 c 0,0 -1,0 -1,1 0,1 1,1 1,1 h 31 c 0,0 1,0 1,-1 V 18 c 0,-1 -1,-2 -4,-2 2,-1 2,-3 2,-3 V 2 C 31,1.2598425e-8 29,0 29,0 H 12 C 11,0 11,1 11,1 H 7 C 7,2.519685e-8 6,0 6,0 Z m 11,2 h 8 7 c 1,0 1,11 1,11 0,0 0,2 -1,2 H 12 c -1,0 -1,-7 -1,-7 0,0 0,-6 1,-6 z m 1,15 h 15 c 1,0 1,1 1,1 V 30 H 12 V 18 c 0,-1 1,-1 1,-1 z"
       transform="scale(0.26458333)" />
  </g>
</svg>
