<?xml version="1.0" encoding="UTF-8" standalone="no"?>
<!-- Created with Inkscape (http://www.inkscape.org/) -->

<svg
   width="24"
   height="48"
   viewBox="0 0 6.3500002 12.7"
   version="1.1"
   id="svg5"
   sodipodi:docname="b.svg"
   inkscape:version="1.1.1 (3bf5ae0d25, 2021-09-20)"
   xmlns:inkscape="http://www.inkscape.org/namespaces/inkscape"
   xmlns:sodipodi="http://sodipodi.sourceforge.net/DTD/sodipodi-0.dtd"
   xmlns="http://www.w3.org/2000/svg"
   xmlns:svg="http://www.w3.org/2000/svg">
  <sodipodi:namedview
     id="namedview7"
     pagecolor="#ffffff"
     bordercolor="#666666"
     borderopacity="1.0"
     inkscape:pageshadow="2"
     inkscape:pageopacity="0.0"
     inkscape:pagecheckerboard="0"
     inkscape:document-units="mm"
     showgrid="true"
     showguides="true"
     inkscape:guide-bbox="true"
     units="px"
     width="32px"
     inkscape:zoom="17.557358"
     inkscape:cx="7.0910441"
     inkscape:cy="10.793196"
     inkscape:window-width="1889"
     inkscape:window-height="1058"
     inkscape:window-x="31"
     inkscape:window-y="0"
     inkscape:window-maximized="1"
     inkscape:current-layer="layer1">
    <sodipodi:guide
       position="0,39.533332"
       orientation="0,1"
       id="guide824"
       inkscape:label=""
       inkscape:locked="false"
       inkscape:color="rgb(0,0,255)" />
    <inkscape:grid
       type="xygrid"
       id="grid826" />
    <sodipodi:guide
       position="2.3812494,4.2333301"
       orientation="0,1"
       id="guide905"
       inkscape:label=""
       inkscape:locked="false"
       inkscape:color="rgb(0,0,255)" />
    <sodipodi:guide
       position="1.8520834,10.054167"
       orientation="0,-1"
       id="guide8143" />
    <sodipodi:guide
       position="3.1750001,12.170833"
       orientation="0,-1"
       id="guide8781" />
  </sodipodi:namedview>
  <defs
     id="defs2" />
  <g
     inkscape:label="Layer 1"
     inkscape:groupmode="layer"
     id="layer1">
    <path
       style="fill:#000000;stroke:none;stroke-width:0.264583px;stroke-linecap:butt;stroke-linejoin:miter;stroke-opacity:1"
       d="m 0,0.79374999 c 0,0 0,-0.26458333 0.26458333,-0.26458333 0.26458333,0 2.11666667,5.3e-7 2.11666667,5.3e-7 0,0 0,7.14374941 0,7.40833271 0,0.2645833 0.2645833,0.2645833 0.2645833,0.2645833 0,0 1.8520833,0 2.1166666,0 0.2645834,0 0.2645834,-0.2645833 0.2645834,-0.2645833 0,0 0,-4.2333333 0,-4.4979166 C 5.0270833,3.175 4.7624999,3.175 4.7624999,3.175 c 0,0 -1.8520833,0 -2.1166666,0 C 2.38125,3.175 2.38125,2.9104166 2.38125,2.9104166 c 0,0 0,-0.2645835 0.2645833,-0.2645835 0.2645833,0 2.38125,0 2.9104166,0 0.5291667,0 0.5291667,0.5291669 0.5291667,0.5291669 v 4.7624999 c 0,0 0,0.5291693 -0.5291667,0.5291693 -0.5291666,0 -4.2333333,0 -4.2333333,0 V 1.0583333 c 0,0 -0.79374994,0 -1.05833327,0 C 0,1.0583333 0,0.79374999 0,0.79374999"
       id="path8816" />
  </g>
</svg>
