<?xml version="1.0" encoding="UTF-8" standalone="no"?>
<!-- Created with Inkscape (http://www.inkscape.org/) -->

<svg
   width="26"
   height="48"
   viewBox="0 0 6.8791663 12.7"
   version="1.1"
   id="svg5"
   sodipodi:docname="C.svg"
   inkscape:version="1.1.1 (3bf5ae0d25, 2021-09-20)"
   xmlns:inkscape="http://www.inkscape.org/namespaces/inkscape"
   xmlns:sodipodi="http://sodipodi.sourceforge.net/DTD/sodipodi-0.dtd"
   xmlns="http://www.w3.org/2000/svg"
   xmlns:svg="http://www.w3.org/2000/svg">
  <sodipodi:namedview
     id="namedview7"
     pagecolor="#ffffff"
     bordercolor="#666666"
     borderopacity="1.0"
     inkscape:pageshadow="2"
     inkscape:pageopacity="0.0"
     inkscape:pagecheckerboard="0"
     inkscape:document-units="mm"
     showgrid="true"
     showguides="true"
     inkscape:guide-bbox="true"
     units="px"
     width="32px"
     inkscape:zoom="17.557358"
     inkscape:cx="18.02663"
     inkscape:cy="19.22271"
     inkscape:window-width="1889"
     inkscape:window-height="1058"
     inkscape:window-x="31"
     inkscape:window-y="0"
     inkscape:window-maximized="1"
     inkscape:current-layer="layer1">
    <sodipodi:guide
       position="0,39.533332"
       orientation="0,1"
       id="guide824"
       inkscape:label=""
       inkscape:locked="false"
       inkscape:color="rgb(0,0,255)" />
    <inkscape:grid
       type="xygrid"
       id="grid826" />
  </sodipodi:namedview>
  <defs
     id="defs2" />
  <g
     inkscape:label="Layer 1"
     inkscape:groupmode="layer"
     id="layer1">
    <path
       style="fill:#000000;stroke:none;stroke-width:0.264583px;stroke-linecap:butt;stroke-linejoin:miter;stroke-opacity:1"
       d="m 0,0 v 8.4666666 c 0,0 6.0854166,2e-7 6.3499999,2e-7 0.2645833,0 0.2645833,-0.2645836 0.2645833,-0.2645836 V 5.5562499 H 5.2916666 c 0,0 0,1.8520833 0,2.1166667 0,0.2645833 -0.79375,0.2645833 -0.79375,0.2645833 0,0 -2.6458333,0 -2.9104166,0 -0.2645834,0 -0.2645834,-0.2645833 -0.2645834,-0.2645833 0,0 0,-6.0854166 0,-6.6145833 0,-0.52916664 2.6458334,-0.52916664 2.6458334,-0.52916664 0,0 1.3229166,0 1.3229166,0.26458333 0,0.26458331 0,2.11666661 0,2.11666661 h 1.3229166 c 0,0 0,-2.38124994 0,-2.64583327 C 6.6145832,0 6.0854166,0 6.0854166,0 Z"
       id="path2555" />
  </g>
</svg>
