<?xml version="1.0" encoding="UTF-8" standalone="no"?>
<!-- Created with Inkscape (http://www.inkscape.org/) -->

<svg
   width="20"
   height="48"
   viewBox="0 0 5.2916668 12.7"
   version="1.1"
   id="svg5"
   sodipodi:docname="c.svg"
   inkscape:version="1.1.1 (3bf5ae0d25, 2021-09-20)"
   xmlns:inkscape="http://www.inkscape.org/namespaces/inkscape"
   xmlns:sodipodi="http://sodipodi.sourceforge.net/DTD/sodipodi-0.dtd"
   xmlns="http://www.w3.org/2000/svg"
   xmlns:svg="http://www.w3.org/2000/svg">
  <sodipodi:namedview
     id="namedview7"
     pagecolor="#ffffff"
     bordercolor="#666666"
     borderopacity="1.0"
     inkscape:pageshadow="2"
     inkscape:pageopacity="0.0"
     inkscape:pagecheckerboard="0"
     inkscape:document-units="mm"
     showgrid="true"
     showguides="true"
     inkscape:guide-bbox="true"
     units="px"
     width="32px"
     inkscape:zoom="24.829854"
     inkscape:cx="5.9001555"
     inkscape:cy="21.002943"
     inkscape:window-width="1889"
     inkscape:window-height="1058"
     inkscape:window-x="31"
     inkscape:window-y="0"
     inkscape:window-maximized="1"
     inkscape:current-layer="layer1">
    <sodipodi:guide
       position="0,39.533332"
       orientation="0,1"
       id="guide824"
       inkscape:label=""
       inkscape:locked="false"
       inkscape:color="rgb(0,0,255)" />
    <inkscape:grid
       type="xygrid"
       id="grid826" />
    <sodipodi:guide
       position="2.3812494,4.2333301"
       orientation="0,1"
       id="guide905"
       inkscape:label=""
       inkscape:locked="false"
       inkscape:color="rgb(0,0,255)" />
    <sodipodi:guide
       position="1.8520834,10.054167"
       orientation="0,-1"
       id="guide8143" />
    <sodipodi:guide
       position="3.1750001,12.170833"
       orientation="0,-1"
       id="guide8781" />
  </sodipodi:namedview>
  <defs
     id="defs2" />
  <g
     inkscape:label="Layer 1"
     inkscape:groupmode="layer"
     id="layer1">
    <path
       style="fill:#000000;stroke:none;stroke-width:0.264583px;stroke-linecap:butt;stroke-linejoin:miter;stroke-opacity:1"
       d="M 2.38125,2.6458333 H 0 c 0,0 0,5.2916666 0,5.5562499 0,0.2645834 0.26458333,0.264586 0.26458333,0.264586 0,0 4.23333327,-2.6e-6 4.49791657,-2.6e-6 0.2645834,0 0.2645834,-0.2645834 0.2645834,-0.2645834 0,0 0,-0.2645833 0,-0.5291666 0,-0.2645834 -0.2645834,-0.2645834 -0.2645834,-0.5291667 0,-0.2645833 0,-1.0583333 0,-1.3229166 0,-0.2645834 -0.2645833,-0.2645834 -0.2645833,-0.2645834 H 3.96875 c 0,0 -0.2645834,0 -0.2645834,0.2645834 0,0.2645833 0.2645834,0.2645833 0.2645834,0.5291666 0,0.2645833 0,1.5875 0,1.5875 H 1.0583333 c 0,0 0,-4.4979166 0,-4.7624999 0,-0.2645834 0.2645833,-0.2645834 0.2645833,-0.2645834 0,0 1.8520834,0 2.1166667,0 0.2645833,0 0.2645833,0.2645834 0.2645833,0.2645834 v 1.5874999 h 1.0583333 c 0,0 0,-1.5874999 0,-1.8520833 0,-0.2645833 -0.2645833,-0.2645835 -0.2645833,-0.2645835 z"
       id="path9194" />
  </g>
</svg>
