<?xml version="1.0" encoding="UTF-8" standalone="no"?>
<!-- Created with Inkscape (http://www.inkscape.org/) -->

<svg
   width="32"
   height="48"
   viewBox="0 0 8.4666662 12.7"
   version="1.1"
   id="svg5"
   sodipodi:docname="E.svg"
   inkscape:version="1.1.1 (3bf5ae0d25, 2021-09-20)"
   xmlns:inkscape="http://www.inkscape.org/namespaces/inkscape"
   xmlns:sodipodi="http://sodipodi.sourceforge.net/DTD/sodipodi-0.dtd"
   xmlns="http://www.w3.org/2000/svg"
   xmlns:svg="http://www.w3.org/2000/svg">
  <sodipodi:namedview
     id="namedview7"
     pagecolor="#ffffff"
     bordercolor="#666666"
     borderopacity="1.0"
     inkscape:pageshadow="2"
     inkscape:pageopacity="0.0"
     inkscape:pagecheckerboard="0"
     inkscape:document-units="mm"
     showgrid="true"
     showguides="true"
     inkscape:guide-bbox="true"
     units="px"
     width="32px"
     inkscape:zoom="17.557358"
     inkscape:cx="25.487889"
     inkscape:cy="13.811873"
     inkscape:window-width="1889"
     inkscape:window-height="1058"
     inkscape:window-x="31"
     inkscape:window-y="0"
     inkscape:window-maximized="1"
     inkscape:current-layer="layer1">
    <sodipodi:guide
       position="0,39.533332"
       orientation="0,1"
       id="guide824"
       inkscape:label=""
       inkscape:locked="false"
       inkscape:color="rgb(0,0,255)" />
    <inkscape:grid
       type="xygrid"
       id="grid826" />
  </sodipodi:namedview>
  <defs
     id="defs2" />
  <g
     inkscape:label="Layer 1"
     inkscape:groupmode="layer"
     id="layer1">
    <path
       style="fill:#000000;stroke:none;stroke-width:0.264583px;stroke-linecap:butt;stroke-linejoin:miter;stroke-opacity:1"
       d="m 0,8.2020832 c 0,0.2645834 0.26458333,0.2645836 0.26458333,0.2645836 h 0.52916666 c 0.26458331,0 0.26458331,-0.2645836 0.52916661,-0.2645836 h 6.6145833 c 0.2645833,0 0.2645833,-0.2645833 0.2645833,-0.2645833 V 5.8208333 H 6.8791666 c 0,0 0.2645833,1.0583333 0.2645833,1.3229166 0,0.2645833 -0.2645833,0.5291667 -0.5291667,0.5291667 -0.2645833,0 -2.6458332,0.2645833 -3.1749999,0.2645833 -0.5291667,0 -0.5291667,-0.2645833 -0.5291667,-0.2645833 V 4.7624999 C 2.9104166,4.4979166 3.175,4.4979166 3.175,4.4979166 h 1.5874999 c 0.2645834,0 0.79375,0.2645833 0.79375,0 0,-0.2645833 -0.2645833,-0.5291666 -0.5291666,-0.5291666 h -0.79375 c 0,0 -0.5291667,0.2645833 -0.79375,0.2645833 C 3.175,4.2333333 3.175,3.96875 3.175,3.96875 c 0,0 -0.2645834,-1.8520834 -0.2645834,-2.6458334 V 0.76600889 c 0.061765,-0.37563548 3.96875,-0.50142556 3.96875,-0.50142556 0,0 0,1.24955567 0,2.11666667 0,0.2645833 0.2645833,0.2645833 0.2645833,0.2645833 h 0.79375 v -1.5875 c 0,-0.26458331 0.2645833,-0.26458331 0.2645833,-0.52916664 C 8.2020832,0.26458333 8.2020832,0 7.6729166,0 H 0.26458333 C 0.26458333,0 0,0 0,0.26458333 0,0.52916666 0.26458333,0.52916666 0.26458333,0.52916666 H 1.8520833 V 7.9374999 C 1.7674782,7.783641 0.42791701,7.4887888 0.26458333,7.6729166 0.08900529,7.8708476 0,8.2020832 0,8.2020832 Z"
       id="path3713"
       sodipodi:nodetypes="ccssscccssscscssscscccccccssscscccsc" />
  </g>
</svg>
