<?xml version="1.0" encoding="UTF-8" standalone="no"?>
<!-- Created with Inkscape (http://www.inkscape.org/) -->

<svg
   width="32"
   height="48"
   viewBox="0 0 8.4666662 12.7"
   version="1.1"
   id="svg5"
   sodipodi:docname="F.svg"
   inkscape:version="1.1.1 (3bf5ae0d25, 2021-09-20)"
   xmlns:inkscape="http://www.inkscape.org/namespaces/inkscape"
   xmlns:sodipodi="http://sodipodi.sourceforge.net/DTD/sodipodi-0.dtd"
   xmlns="http://www.w3.org/2000/svg"
   xmlns:svg="http://www.w3.org/2000/svg">
  <sodipodi:namedview
     id="namedview7"
     pagecolor="#ffffff"
     bordercolor="#666666"
     borderopacity="1.0"
     inkscape:pageshadow="2"
     inkscape:pageopacity="0.0"
     inkscape:pagecheckerboard="0"
     inkscape:document-units="mm"
     showgrid="true"
     showguides="true"
     inkscape:guide-bbox="true"
     units="px"
     width="32px"
     inkscape:zoom="17.557358"
     inkscape:cx="18.425323"
     inkscape:cy="18.596192"
     inkscape:window-width="1889"
     inkscape:window-height="1058"
     inkscape:window-x="31"
     inkscape:window-y="0"
     inkscape:window-maximized="1"
     inkscape:current-layer="layer1">
    <sodipodi:guide
       position="0,39.533332"
       orientation="0,1"
       id="guide824"
       inkscape:label=""
       inkscape:locked="false"
       inkscape:color="rgb(0,0,255)" />
    <inkscape:grid
       type="xygrid"
       id="grid826" />
  </sodipodi:namedview>
  <defs
     id="defs2" />
  <g
     inkscape:label="Layer 1"
     inkscape:groupmode="layer"
     id="layer1">
    <path
       style="fill:#000000;stroke:none;stroke-width:0.264583px;stroke-linecap:butt;stroke-linejoin:miter;stroke-opacity:1"
       d="m 0,8.2020832 c 0,0.2645836 0.26458333,0.2645836 0.26458333,0.2645836 0,0 1.58749997,0 1.85208327,0 0.2645834,0 0.2645834,-0.2645836 0.2645834,-0.2645836 0,0 0,0.2645836 0.2645833,0.2645836 0.2645833,0 1.5875,0 2.1166666,0 0.5291667,0 0.5291667,-0.5291669 0.5291667,-0.5291669 H 3.175 V 4.4979166 c 0,0 2.3812499,0 2.6458333,0 0.2645833,0 0.2645833,-0.2645833 0.2645833,-0.2645833 0,0 0,-0.2645833 -0.2645833,-0.2645833 -0.2645834,0 -2.1166667,0 -2.38125,0 C 3.175,3.96875 3.175,3.7041666 3.175,3.7041666 V 0.52916666 H 7.1437499 V 2.9104166 c 0,0 0.5291667,0 0.79375,0 0.2645833,0 0.2645833,-0.2645833 0.2645833,-0.2645833 0,0 0,0.2645833 0,0 0,-0.2645833 -0.2645833,-0.5291667 -0.2645833,-0.79375 0,-0.2645833 0.2645833,-1.05833331 0.2645833,-1.32291664 C 8.2020832,0.26458333 7.9374999,0 7.6729166,0 7.4083332,0 0.52916666,0 0.26458333,0 0,0 0,0.26458333 0,0.26458333 c 0,0 0,0.26458333 0.26458333,0.26458333 0.26458333,0 1.85208327,0 1.85208327,0 V 7.9374999 c 0,0 -1.58749994,0 -1.85208327,0 C 0,7.9374999 0,8.2020832 0,8.2020832 Z"
       id="path4636" />
  </g>
</svg>
