<?xml version="1.0" encoding="UTF-8" standalone="no"?>
<!-- Created with Inkscape (http://www.inkscape.org/) -->

<svg
   width="40"
   height="48"
   viewBox="0 0 10.583332 12.7"
   version="1.1"
   id="svg5"
   sodipodi:docname="H.svg"
   inkscape:version="1.1.1 (3bf5ae0d25, 2021-09-20)"
   xmlns:inkscape="http://www.inkscape.org/namespaces/inkscape"
   xmlns:sodipodi="http://sodipodi.sourceforge.net/DTD/sodipodi-0.dtd"
   xmlns="http://www.w3.org/2000/svg"
   xmlns:svg="http://www.w3.org/2000/svg">
  <sodipodi:namedview
     id="namedview7"
     pagecolor="#ffffff"
     bordercolor="#666666"
     borderopacity="1.0"
     inkscape:pageshadow="2"
     inkscape:pageopacity="0.0"
     inkscape:pagecheckerboard="0"
     inkscape:document-units="mm"
     showgrid="true"
     showguides="true"
     inkscape:guide-bbox="true"
     units="px"
     width="32px"
     inkscape:zoom="17.557358"
     inkscape:cx="20.361833"
     inkscape:cy="20.020096"
     inkscape:window-width="1889"
     inkscape:window-height="1058"
     inkscape:window-x="31"
     inkscape:window-y="0"
     inkscape:window-maximized="1"
     inkscape:current-layer="layer1">
    <sodipodi:guide
       position="0,39.533332"
       orientation="0,1"
       id="guide824"
       inkscape:label=""
       inkscape:locked="false"
       inkscape:color="rgb(0,0,255)" />
    <inkscape:grid
       type="xygrid"
       id="grid826" />
  </sodipodi:namedview>
  <defs
     id="defs2" />
  <g
     inkscape:label="Layer 1"
     inkscape:groupmode="layer"
     id="layer1">
    <path
       style="fill:#000000;stroke:none;stroke-width:0.0470958;stroke-linecap:butt;stroke-linejoin:miter;stroke-miterlimit:4;stroke-dasharray:none;stroke-opacity:1"
       d="M 4.7624999,0.26458333 C 4.7624999,0 4.4979166,0 4.4979166,0 H 0.26458333 C 0.26458333,0 0,0 0,0.26458333 0,0.52916666 0.26458333,0.52916666 0.26458333,0.52916666 H 1.8520833 V 7.9374999 H 0.26458333 C 0,7.9374999 0,8.2020832 0,8.2020832 c 0,0 0,0.2645836 0.26458333,0.2645836 0.26458333,0 4.49791657,-0.2645836 4.49791657,-0.2645836 0,0 0,-0.2645833 -0.2645833,-0.2645833 H 3.175 c 0,0 -0.2645834,-2.9104166 -0.2645834,-3.4395833 l 10e-8,0.2645834 V 4.365625 C 5.0270834,4.1010417 5.9793912,4.0840763 7.14375,4.1010417 l -10e-8,3.8364582 h -1.5875 c -0.2645833,0 -0.2645833,0.2645833 -0.2645833,0.2645833 H 10.31875 c 0,0 0,-0.2645833 -0.264583,-0.2645833 H 8.7312499 c -0.2645833,0 -0.2645833,-0.2645833 -0.2645833,-0.2645833 l 10e-8,-7.2760416 h 2.1166663 c 0,0 0,-0.396875 -0.529166,-0.396875 H 5.2916666 c 0,0 0.2645833,0 0,0 C 5.0270833,0 5.0270833,0.396875 5.0270833,0.396875 h 2.1166666 v 3.3072916 c 0,0 0,-0.5291666 0,0 -0.79375,0 -4.2333333,0.2645834 -4.2333333,0.2645834 V 0.79374999 C 2.9104166,0.52916666 3.175,0.52916666 3.175,0.52916666 L 4.7624999,0.26458333"
       id="path6837"
       sodipodi:nodetypes="cccscccscscscsccccsccsscccscscccccscc" />
  </g>
</svg>
