<?xml version="1.0" encoding="UTF-8" standalone="no"?>
<!-- Created with Inkscape (http://www.inkscape.org/) -->

<svg
   width="20"
   height="48"
   viewBox="0 0 5.2916666 12.7"
   version="1.1"
   id="svg5"
   sodipodi:docname="I.svg"
   inkscape:version="1.1.1 (3bf5ae0d25, 2021-09-20)"
   xmlns:inkscape="http://www.inkscape.org/namespaces/inkscape"
   xmlns:sodipodi="http://sodipodi.sourceforge.net/DTD/sodipodi-0.dtd"
   xmlns="http://www.w3.org/2000/svg"
   xmlns:svg="http://www.w3.org/2000/svg">
  <sodipodi:namedview
     id="namedview7"
     pagecolor="#ffffff"
     bordercolor="#666666"
     borderopacity="1.0"
     inkscape:pageshadow="2"
     inkscape:pageopacity="0.0"
     inkscape:pagecheckerboard="0"
     inkscape:document-units="mm"
     showgrid="true"
     showguides="true"
     inkscape:guide-bbox="true"
     units="px"
     width="32px"
     inkscape:zoom="12.414927"
     inkscape:cx="2.2956236"
     inkscape:cy="13.16963"
     inkscape:window-width="1889"
     inkscape:window-height="1058"
     inkscape:window-x="31"
     inkscape:window-y="0"
     inkscape:window-maximized="1"
     inkscape:current-layer="layer1">
    <sodipodi:guide
       position="0,39.533332"
       orientation="0,1"
       id="guide824"
       inkscape:label=""
       inkscape:locked="false"
       inkscape:color="rgb(0,0,255)" />
    <inkscape:grid
       type="xygrid"
       id="grid826" />
  </sodipodi:namedview>
  <defs
     id="defs2" />
  <g
     inkscape:label="Layer 1"
     inkscape:groupmode="layer"
     id="layer1">
    <path
       style="fill:#000000;stroke:none;stroke-width:0.264583px;stroke-linecap:butt;stroke-linejoin:miter;stroke-opacity:1"
       d="M 1.0583333,0 H 0.26458333 C 0,0 0,0.26458333 0,0.26458333 c 0,0 0,0.26458333 0.26458333,0.26458333 H 1.8520833 c 0,0 0.2645833,6.87916654 0.2645833,7.14374994 0,0.2645833 -0.2645833,0.2645833 -0.2645833,0.2645833 H 0.52916666 c -0.26458333,0 -0.26458333,0.2645833 -0.26458333,0.2645833 0,0 0,0.2645836 0.26458333,0.2645836 H 2.38125 c 0.5291666,0 0.2645833,-0.2645836 0.79375,-0.2645836 0.5291666,0 0.5291666,0.2645831 0.79375,0.2645834 l 1.0583333,2e-7 c 0.2645833,0 0.2645833,-0.2645836 0.2645833,-0.2645836 0,0 0,-0.2645833 -0.2645833,-0.2645833 H 3.175 c 0,0 -0.2645834,-0.5291666 -0.2645834,-1.3229167 V 0.52916666 h 1.8520833 c 0.2645834,0 0.2645834,-0.26458333 0.2645834,-0.26458333 0,0 0,-0.26458333 -0.2645834,-0.26458333 z"
       id="path9047"
       sodipodi:nodetypes="cscscscscssssscscscscsc" />
  </g>
</svg>
