<?xml version="1.0" encoding="UTF-8" standalone="no"?>
<!-- Created with Inkscape (http://www.inkscape.org/) -->

<svg
   width="24"
   height="48"
   viewBox="0 0 6.3499998 12.7"
   version="1.1"
   id="svg5"
   sodipodi:docname="J.svg"
   inkscape:version="1.1.1 (3bf5ae0d25, 2021-09-20)"
   xmlns:inkscape="http://www.inkscape.org/namespaces/inkscape"
   xmlns:sodipodi="http://sodipodi.sourceforge.net/DTD/sodipodi-0.dtd"
   xmlns="http://www.w3.org/2000/svg"
   xmlns:svg="http://www.w3.org/2000/svg">
  <sodipodi:namedview
     id="namedview7"
     pagecolor="#ffffff"
     bordercolor="#666666"
     borderopacity="1.0"
     inkscape:pageshadow="2"
     inkscape:pageopacity="0.0"
     inkscape:pagecheckerboard="0"
     inkscape:document-units="mm"
     showgrid="true"
     showguides="true"
     inkscape:guide-bbox="true"
     units="px"
     width="32px"
     inkscape:zoom="17.557358"
     inkscape:cx="9.2553788"
     inkscape:cy="16.204032"
     inkscape:window-width="1889"
     inkscape:window-height="1058"
     inkscape:window-x="31"
     inkscape:window-y="0"
     inkscape:window-maximized="1"
     inkscape:current-layer="layer1">
    <sodipodi:guide
       position="0,39.533332"
       orientation="0,1"
       id="guide824"
       inkscape:label=""
       inkscape:locked="false"
       inkscape:color="rgb(0,0,255)" />
    <inkscape:grid
       type="xygrid"
       id="grid826" />
  </sodipodi:namedview>
  <defs
     id="defs2" />
  <g
     inkscape:label="Layer 1"
     inkscape:groupmode="layer"
     id="layer1">
    <path
       style="fill:#000000;stroke:none;stroke-width:0.264583px;stroke-linecap:butt;stroke-linejoin:miter;stroke-opacity:1"
       d="M 3.96875,0 H 2.1166666 C 1.8520833,0 1.5875,0.26458333 1.5875,0.52916666 l 1.8520833,10e-9 c 0,2.38125003 0.032365,4.76250003 0.2645834,7.40833333 h -1.5875 C 1.5875,7.9375 1.8520833,8.2020833 1.5875,8.2020833 c -0.2645833,0 -0.2645833,0 -0.2645833,-0.2645833 V 5.8208333 H 0.26458333 C 0,5.8208333 0,6.0854167 0,6.0854167 V 7.9375 C 0,8.4666667 0.52916667,8.4666669 0.52916667,8.4666669 H 4.7625 V 0.52916667 h 1.3229167 c 0,0 0.2645833,0 0.2645833,-0.26458334 C 6.35,0 6.0854167,0 6.0854167,0 H 3.96875"
       id="path9513"
       sodipodi:nodetypes="cscccccscscsccccscc" />
  </g>
</svg>
