<?xml version="1.0" encoding="UTF-8" standalone="no"?>
<!-- Created with Inkscape (http://www.inkscape.org/) -->

<svg
   width="15"
   height="48"
   viewBox="0 0 3.9687501 12.7"
   version="1.1"
   id="svg5"
   sodipodi:docname="j.svg"
   inkscape:version="1.1.1 (3bf5ae0d25, 2021-09-20)"
   xmlns:inkscape="http://www.inkscape.org/namespaces/inkscape"
   xmlns:sodipodi="http://sodipodi.sourceforge.net/DTD/sodipodi-0.dtd"
   xmlns="http://www.w3.org/2000/svg"
   xmlns:svg="http://www.w3.org/2000/svg">
  <sodipodi:namedview
     id="namedview7"
     pagecolor="#ffffff"
     bordercolor="#666666"
     borderopacity="1.0"
     inkscape:pageshadow="2"
     inkscape:pageopacity="0.0"
     inkscape:pagecheckerboard="0"
     inkscape:document-units="mm"
     showgrid="true"
     showguides="true"
     inkscape:guide-bbox="true"
     units="px"
     width="32px"
     inkscape:zoom="12.414927"
     inkscape:cx="-2.9400092"
     inkscape:cy="23.963089"
     inkscape:window-width="1889"
     inkscape:window-height="1058"
     inkscape:window-x="31"
     inkscape:window-y="0"
     inkscape:window-maximized="1"
     inkscape:current-layer="layer1">
    <sodipodi:guide
       position="0,39.533332"
       orientation="0,1"
       id="guide824"
       inkscape:label=""
       inkscape:locked="false"
       inkscape:color="rgb(0,0,255)" />
    <inkscape:grid
       type="xygrid"
       id="grid826" />
    <sodipodi:guide
       position="2.3812494,4.2333301"
       orientation="0,1"
       id="guide905"
       inkscape:label=""
       inkscape:locked="false"
       inkscape:color="rgb(0,0,255)" />
    <sodipodi:guide
       position="1.8520834,10.054167"
       orientation="0,-1"
       id="guide8143" />
    <sodipodi:guide
       position="3.1750001,12.170833"
       orientation="0,-1"
       id="guide8781" />
  </sodipodi:namedview>
  <defs
     id="defs2" />
  <g
     inkscape:label="Layer 1"
     inkscape:groupmode="layer"
     id="layer1">
    <path
       id="path12049"
       style="fill:#000000;stroke:none;stroke-width:0.264583px;stroke-linecap:butt;stroke-linejoin:miter;stroke-opacity:1"
       d="m 3.7041666,2.6458333 c 0,0 -2.38125,0 -2.6458333,0 -0.26458331,0 -0.26458331,0.2645833 -0.26458331,0.2645833 0,0 0,0.2645834 0.26458331,0.2645834 0.2645833,0 1.5875,0 1.5875,0 v 7.408333 c 0,0 -1.0583333,0 -1.3229167,0 -0.2645833,0 -0.2645833,-0.529166 -0.2645833,-0.529166 0,0 0,-1.0583364 0,-1.3229171 0,-0.2645807 -0.26458331,-0.2645807 -0.26458331,-0.2645807 0,0 -0.26458333,0 -0.52916666,0 C 0,8.4666692 0,8.7312499 0,8.7312499 c 0,0 0,1.8520831 0,2.1166671 0,0.264583 0.26458333,0.264583 0.26458333,0.264583 0,0 2.91041667,0 3.17499997,0 0.2645833,0 0.2645833,-0.264583 0.2645833,-0.264583 z M 2.9104166,0 C 2.6458333,0 2.6458333,0.26458333 2.6458333,0.26458333 c 0,0 0,0.26458333 0,0.52916666 0,0.26458331 0.2645833,0.26458331 0.2645833,0.52916661 0,0.2645834 0,0.5291667 0,0.5291667 h 0.79375 c 0,0 0,-0.7937489 0,-1.32291611 C 3.7041666,0 3.175,0 3.175,0 Z" />
  </g>
</svg>
