<?xml version="1.0" encoding="UTF-8" standalone="no"?>
<!-- Created with Inkscape (http://www.inkscape.org/) -->

<svg
   width="44"
   height="48"
   viewBox="0 0 11.641664 12.7"
   version="1.1"
   id="svg5"
   sodipodi:docname="K.svg"
   inkscape:version="1.1.1 (3bf5ae0d25, 2021-09-20)"
   xmlns:inkscape="http://www.inkscape.org/namespaces/inkscape"
   xmlns:sodipodi="http://sodipodi.sourceforge.net/DTD/sodipodi-0.dtd"
   xmlns="http://www.w3.org/2000/svg"
   xmlns:svg="http://www.w3.org/2000/svg">
  <sodipodi:namedview
     id="namedview7"
     pagecolor="#ffffff"
     bordercolor="#666666"
     borderopacity="1.0"
     inkscape:pageshadow="2"
     inkscape:pageopacity="0.0"
     inkscape:pagecheckerboard="0"
     inkscape:document-units="mm"
     showgrid="true"
     showguides="true"
     inkscape:guide-bbox="true"
     units="px"
     width="32px"
     inkscape:zoom="17.557358"
     inkscape:cx="15.862295"
     inkscape:cy="18.824017"
     inkscape:window-width="1889"
     inkscape:window-height="1058"
     inkscape:window-x="31"
     inkscape:window-y="0"
     inkscape:window-maximized="1"
     inkscape:current-layer="layer1">
    <sodipodi:guide
       position="0,39.533332"
       orientation="0,1"
       id="guide824"
       inkscape:label=""
       inkscape:locked="false"
       inkscape:color="rgb(0,0,255)" />
    <inkscape:grid
       type="xygrid"
       id="grid826" />
  </sodipodi:namedview>
  <defs
     id="defs2" />
  <g
     inkscape:label="Layer 1"
     inkscape:groupmode="layer"
     id="layer1">
    <path
       style="opacity:1;fill:#000000;stroke:none;stroke-width:0.264583px;stroke-linecap:butt;stroke-linejoin:miter;stroke-opacity:1"
       d="M 2.6458333,0 H 0.26458333 C 0,0 0,0.26458333 0,0.26458333 c 0,0 0,0.26458333 0.26458333,0.26458333 H 2.1166666 V 7.1437499 c 0,0.2645833 0.2645834,0.2645835 0.2645834,0.5291668 0,0.2645834 0,0.2645832 -0.2645834,0.2645832 H 0.79374999 c -0.26458333,0 -0.26458333,-0.2645832 -0.52916666,-0.2645832 C 0,7.6729167 -0.00224978,7.9375 -0.00224978,8.2020833 c 0,0.2645833 0.26908289,0.264612 0.53366622,0.2646104 l 4.49566686,-2.69e-5 c 0.2645833,-1.6e-6 0.2645833,-0.2645836 0.2645833,-0.2645836 0,0 0,-0.2645833 -0.2645833,-0.2645833 h -1.5875 V 4.7625 L 4.8947917,3.571875 C 5.8484165,4.8057866 6.7225408,5.777879 7.9374999,7.9374999 H 6.0854166 c -0.2645833,0 -0.2645833,0.2645833 -0.2645833,0.2645833 0,0 0,0.2645836 0.2645833,0.2645836 h 5.5562504 c 0,0 0,-0.5291669 -0.529167,-0.5291669 H 9.5249999 L 5.953125,2.9104166 8.7312499,0.52916666 H 10.31875 c 0.264583,0 0.264583,-0.26458333 0.264583,-0.26458333 0,0 0,-0.26458333 -0.264583,-0.26458333 H 6.0854166 C 5.8208333,0 5.8208333,0.26458333 5.8208333,0.26458333 c 0,0 0,0.26458333 0.2645833,0.26458333 h 1.3229166 c 0.2645834,0 0.2645834,0.26458333 0.2645834,0.26458333 L 3.4395833,4.2333333 c 0,0 -0.2645833,0 -0.2645833,-0.2645833 V 0.79374999 c 0,-0.26458333 0.2645833,-0.26458333 0.2645833,-0.26458333 h 1.5875 c 0.2645833,0 0.2645833,-0.26458333 0.2645833,-0.26458333 0,0 0,-0.26458333 -0.2645833,-0.26458333 z"
       id="path10768"
       sodipodi:nodetypes="cscscsssssssscsccccscscscccscsscssccsscscsc" />
  </g>
</svg>
