<?xml version="1.0" encoding="UTF-8" standalone="no"?>
<!-- Created with Inkscape (http://www.inkscape.org/) -->

<svg
   width="28"
   height="48"
   viewBox="0 0 7.4083336 12.7"
   version="1.1"
   id="svg5"
   sodipodi:docname="k.svg"
   inkscape:version="1.1.1 (3bf5ae0d25, 2021-09-20)"
   xmlns:inkscape="http://www.inkscape.org/namespaces/inkscape"
   xmlns:sodipodi="http://sodipodi.sourceforge.net/DTD/sodipodi-0.dtd"
   xmlns="http://www.w3.org/2000/svg"
   xmlns:svg="http://www.w3.org/2000/svg">
  <sodipodi:namedview
     id="namedview7"
     pagecolor="#ffffff"
     bordercolor="#666666"
     borderopacity="1.0"
     inkscape:pageshadow="2"
     inkscape:pageopacity="0.0"
     inkscape:pagecheckerboard="0"
     inkscape:document-units="mm"
     showgrid="true"
     showguides="true"
     inkscape:guide-bbox="true"
     units="px"
     width="32px"
     inkscape:zoom="17.557358"
     inkscape:cx="8.2301676"
     inkscape:cy="19.22271"
     inkscape:window-width="1889"
     inkscape:window-height="1058"
     inkscape:window-x="31"
     inkscape:window-y="0"
     inkscape:window-maximized="1"
     inkscape:current-layer="layer1">
    <sodipodi:guide
       position="0,39.533332"
       orientation="0,1"
       id="guide824"
       inkscape:label=""
       inkscape:locked="false"
       inkscape:color="rgb(0,0,255)" />
    <inkscape:grid
       type="xygrid"
       id="grid826" />
    <sodipodi:guide
       position="2.3812494,4.2333301"
       orientation="0,1"
       id="guide905"
       inkscape:label=""
       inkscape:locked="false"
       inkscape:color="rgb(0,0,255)" />
    <sodipodi:guide
       position="1.8520834,10.054167"
       orientation="0,-1"
       id="guide8143" />
    <sodipodi:guide
       position="3.1750001,12.170833"
       orientation="0,-1"
       id="guide8781" />
  </sodipodi:namedview>
  <defs
     id="defs2" />
  <g
     inkscape:label="Layer 1"
     inkscape:groupmode="layer"
     id="layer1">
    <path
       style="opacity:1;fill:#000000;stroke:none;stroke-width:0.264583px;stroke-linecap:butt;stroke-linejoin:miter;stroke-opacity:1"
       d="m 2.38125,0.52916666 -2.11666667,5.3e-7 C 0,0.52916719 0,0.79374999 0,0.79374999 H 1.3229166 V 7.9374999 H 0.26458333 C 0,7.9374999 0,8.2020832 0,8.2020832 c 0,0 0,0.264586 0.26458333,0.264586 H 3.175 c 0.2645833,0 0.2645833,-0.264586 0.2645833,-0.264586 H 2.38125 c -0.2645834,0 -0.2645834,-0.2645833 -0.2645834,-0.2645833 V 6.6145833 L 3.4395833,5.2916666 h 0.2645833 l 1.3229167,2.6458333 h -0.79375 c -0.2645833,0 -0.2645833,0.2645833 -0.2645833,0.2645833 0,0 0,0.264586 0.2645833,0.264586 h 2.9104166 c 0.2645833,0 0.2645833,-0.264586 0.2645833,-0.264586 H 6.0854166 L 4.2333333,4.7624999 V 4.4979167 L 5.55625,3.175 h 1.3229166 c 0.2645832,0 0.2645833,-0.2645834 0.2645833,-0.2645834 0,0 0,-0.2645835 -0.2645833,-0.2645835 h -3.175 c -0.2645833,0 -0.2645833,0.2645835 -0.2645833,0.2645835 0,0 0,0.2645834 0.2645833,0.2645834 H 5.0270833 L 2.1166666,6.0854166 v -0.79375 c 0,-0.2645833 0.2645834,-0.5291667 0.2645834,-0.79375 z"
       id="path12438"
       sodipodi:nodetypes="cccccscsscscccccscsscccccscsscsccssc" />
  </g>
</svg>
