<?xml version="1.0" encoding="UTF-8" standalone="no"?>
<!-- Created with Inkscape (http://www.inkscape.org/) -->

<svg
   width="33"
   height="48"
   viewBox="0 0 8.731248 12.7"
   version="1.1"
   id="svg5"
   sodipodi:docname="L.svg"
   inkscape:version="1.1.1 (3bf5ae0d25, 2021-09-20)"
   xmlns:inkscape="http://www.inkscape.org/namespaces/inkscape"
   xmlns:sodipodi="http://sodipodi.sourceforge.net/DTD/sodipodi-0.dtd"
   xmlns="http://www.w3.org/2000/svg"
   xmlns:svg="http://www.w3.org/2000/svg">
  <sodipodi:namedview
     id="namedview7"
     pagecolor="#ffffff"
     bordercolor="#666666"
     borderopacity="1.0"
     inkscape:pageshadow="2"
     inkscape:pageopacity="0.0"
     inkscape:pagecheckerboard="0"
     inkscape:document-units="mm"
     showgrid="true"
     showguides="true"
     inkscape:guide-bbox="true"
     units="px"
     width="32px"
     inkscape:zoom="12.414927"
     inkscape:cx="19.774583"
     inkscape:cy="27.829402"
     inkscape:window-width="1889"
     inkscape:window-height="1058"
     inkscape:window-x="31"
     inkscape:window-y="0"
     inkscape:window-maximized="1"
     inkscape:current-layer="layer1">
    <sodipodi:guide
       position="0,39.533332"
       orientation="0,1"
       id="guide824"
       inkscape:label=""
       inkscape:locked="false"
       inkscape:color="rgb(0,0,255)" />
    <inkscape:grid
       type="xygrid"
       id="grid826" />
  </sodipodi:namedview>
  <defs
     id="defs2" />
  <g
     inkscape:label="Layer 1"
     inkscape:groupmode="layer"
     id="layer1">
    <path
       style="fill:#000000;stroke:none;stroke-width:0.264583px;stroke-linecap:butt;stroke-linejoin:miter;stroke-opacity:1"
       d="m 1.8520833,7.9374999 c 0,0 -1.32291664,0 -1.58749997,0 C 0,7.9374999 0,8.2020832 0,8.2020832 c 0,0 0,0.2645836 0.26458333,0.2645836 0.26458333,0 8.20208327,0 8.20208327,0 0,0 0,-3.1750002 -0.2645834,-3.1750002 -0.2645833,0 -0.79375,0 -1.0583333,0 -0.2645833,0 -0.2645833,0.2645833 -0.2645833,0.2645833 0,0 0,1.8520833 0,2.1166667 0,0.2645833 -0.2645834,0.2645833 -0.2645834,0.2645833 H 3.175 c 0,0 0,-6.8791666 0,-7.14374991 0,-0.26458333 0.2645833,-0.26458333 0.2645833,-0.26458333 0,0 1.0583333,0 1.3229166,0 0.2645834,0 0.2645834,-0.26458333 0.2645834,-0.26458333 0,0 0,-0.26458333 -0.2645834,-0.26458333 C 4.4979166,0 0.52916666,0 0.26458333,0 0,0 0,0.26458333 0,0.26458333 c 0,0 0,0.26458333 0.26458333,0.26458333 0.26458333,0 1.32291667,0 1.58749997,0 0.2645833,0 0.2645833,0.26458333 0.2645833,0.26458333 0,0 0,6.61458321 0,6.87916661 0,0.2645833 -0.2645833,0.2645833 -0.2645833,0.2645833"
       id="path12110" />
  </g>
</svg>
