<?xml version="1.0" encoding="UTF-8" standalone="no"?>
<!-- Created with Inkscape (http://www.inkscape.org/) -->

<svg
   width="49"
   height="48"
   viewBox="0 0 12.96458 12.7"
   version="1.1"
   id="svg5"
   sodipodi:docname="M.svg"
   inkscape:version="1.1.1 (3bf5ae0d25, 2021-09-20)"
   xmlns:inkscape="http://www.inkscape.org/namespaces/inkscape"
   xmlns:sodipodi="http://sodipodi.sourceforge.net/DTD/sodipodi-0.dtd"
   xmlns="http://www.w3.org/2000/svg"
   xmlns:svg="http://www.w3.org/2000/svg">
  <sodipodi:namedview
     id="namedview7"
     pagecolor="#ffffff"
     bordercolor="#666666"
     borderopacity="1.0"
     inkscape:pageshadow="2"
     inkscape:pageopacity="0.0"
     inkscape:pagecheckerboard="0"
     inkscape:document-units="mm"
     showgrid="true"
     showguides="true"
     inkscape:guide-bbox="true"
     units="px"
     width="32px"
     inkscape:zoom="12.414927"
     inkscape:cx="13.16963"
     inkscape:cy="25.010215"
     inkscape:window-width="1889"
     inkscape:window-height="1058"
     inkscape:window-x="31"
     inkscape:window-y="0"
     inkscape:window-maximized="1"
     inkscape:current-layer="layer1">
    <sodipodi:guide
       position="0,39.533332"
       orientation="0,1"
       id="guide824"
       inkscape:label=""
       inkscape:locked="false"
       inkscape:color="rgb(0,0,255)" />
    <inkscape:grid
       type="xygrid"
       id="grid826" />
  </sodipodi:namedview>
  <defs
     id="defs2" />
  <g
     inkscape:label="Layer 1"
     inkscape:groupmode="layer"
     id="layer1">
    <path
       style="fill:#000000;stroke:none;stroke-width:0.264583px;stroke-linecap:butt;stroke-linejoin:miter;stroke-opacity:1"
       d="m 1.8520833,8.4666666 -1.58749997,2e-7 C 0,8.4666668 0,8.2020832 0,8.2020832 c 0,0 0,-0.2645833 0.26458333,-0.2645833 H 1.8520833 c 0.2645833,0 0.2645833,-0.2645833 0.2645833,-0.2645833 V 0.26458333 H 0.52916666 C 0.26458333,0.26458333 0.26458333,0 0.52916666,0 H 3.7041666 C 3.96875,0 6.3499999,7.4083332 6.3499999,7.4083332 h 0.2645833 c 0,0 2.6458334,-7.14374987 2.9104167,-7.14374987 h 2.9104171 c 0.264583,0 0.264583,0.26458333 0,0.26458333 h -1.5875 V 6.6145832 c 0,0.7937501 -0.264584,1.3229167 -0.264584,1.3229167 H 12.7 c 0.264583,0 0.264583,0.2645833 0.264583,0.2645833 0,0 0,0.2645836 -0.264583,0.2645836 H 8.2020832 c -0.2645833,0 -0.2645833,-0.2645836 -0.2645833,-0.2645836 0,0 0,-0.2645833 0.2645833,-0.2645833 h 1.3229167 c 0.2645833,0 0.2645833,-0.2645833 0.2645833,-0.2645833 V 1.0583333 c 0,-0.26458331 -0.2645833,-0.26458331 -0.2645833,-0.26458331 L 6.6145832,8.4666666 5.5562499,8.4666668 2.9104166,0.79374999 H 2.6458333 V 6.3499999 c 0,0.7937501 -0.2645833,1.5875 -0.2645833,1.5875 h 1.5875 c 0.2645833,0 0.2645833,0.2645833 0.2645833,0.2645833 0,0 0,0.2645836 -0.2645833,0.2645836 z"
       id="path12600"
       sodipodi:nodetypes="cscssccsssccssscscscsscsscscccccscscsc" />
  </g>
</svg>
