<?xml version="1.0" encoding="UTF-8" standalone="no"?>
<!-- Created with Inkscape (http://www.inkscape.org/) -->

<svg
   width="38"
   height="48"
   viewBox="0 0 10.054167 12.7"
   version="1.1"
   id="svg5"
   sodipodi:docname="N.svg"
   inkscape:version="1.1.1 (3bf5ae0d25, 2021-09-20)"
   xmlns:inkscape="http://www.inkscape.org/namespaces/inkscape"
   xmlns:sodipodi="http://sodipodi.sourceforge.net/DTD/sodipodi-0.dtd"
   xmlns="http://www.w3.org/2000/svg"
   xmlns:svg="http://www.w3.org/2000/svg">
  <sodipodi:namedview
     id="namedview7"
     pagecolor="#ffffff"
     bordercolor="#666666"
     borderopacity="1.0"
     inkscape:pageshadow="2"
     inkscape:pageopacity="0.0"
     inkscape:pagecheckerboard="0"
     inkscape:document-units="mm"
     showgrid="true"
     showguides="true"
     inkscape:guide-bbox="true"
     units="px"
     width="32px"
     inkscape:zoom="12.414927"
     inkscape:cx="21.22445"
     inkscape:cy="18.969101"
     inkscape:window-width="1889"
     inkscape:window-height="1058"
     inkscape:window-x="31"
     inkscape:window-y="0"
     inkscape:window-maximized="1"
     inkscape:current-layer="layer1">
    <sodipodi:guide
       position="0,39.533332"
       orientation="0,1"
       id="guide824"
       inkscape:label=""
       inkscape:locked="false"
       inkscape:color="rgb(0,0,255)" />
    <inkscape:grid
       type="xygrid"
       id="grid826" />
    <sodipodi:guide
       position="2.3812494,4.2333301"
       orientation="0,1"
       id="guide905"
       inkscape:label=""
       inkscape:locked="false"
       inkscape:color="rgb(0,0,255)" />
  </sodipodi:namedview>
  <defs
     id="defs2" />
  <g
     inkscape:label="Layer 1"
     inkscape:groupmode="layer"
     id="layer1">
    <path
       style="fill:#000000;stroke:none;stroke-width:0.264583px;stroke-linecap:butt;stroke-linejoin:miter;stroke-opacity:1"
       d="m 0,8.2020832 c 0,0 0,0.2645834 0.26458333,0.2645834 0.26458333,0 2.91041667,0 3.17499997,0 0.2645833,0 0.2645833,-0.2645834 0.2645833,-0.2645834 0,0 0,-0.2645833 -0.2645833,-0.2645833 -0.2645833,0 -1.3229167,0 -1.3229167,0 V 0.52916666 H 2.38125 L 7.4083332,8.4666692 H 8.4666666 V 0.52916666 c 0,0 1.0583333,0 1.3229166,0 0.2645838,0 0.2645838,-0.26458333 0.2645838,-0.26458333 0,0 0,-0.26458333 -0.2645838,-0.26458333 -0.2645833,0 -3.175,0 -3.4395833,0 -0.2645833,0 -0.2645833,0.26458333 -0.2645833,0.26458333 0,0 0,0.26458333 0.2645833,0.26458333 0.2645833,0 1.5875,0 1.5875,0 V 6.8791666 H 7.4083332 C 7.4083332,6.8791666 3.7041666,0 3.4395833,0 3.175,0 0.52916666,0 0.26458333,0 0,0 0,0.26458333 0,0.26458333 c 0,0 0,0.26458333 0.26458333,0.26458333 0.26458333,0 0.79374997,0 1.05833327,0 0.2645834,0 0.2645834,0.26458333 0.2645834,0.26458333 0,0 0,2.11666661 0,2.38125001 0,0.2645833 -0.2645834,1.8520833 -0.2645834,2.1166666 0,0.2645833 0.2645834,1.0583333 0.2645834,1.3229166 0,0.2645834 0,0.79375 0,1.0583334 0,0.2645833 -0.2645834,0.2645833 -0.2645834,0.2645833 0,0 -0.79374994,0 -1.05833327,0 C 0,7.9374999 0,8.2020832 0,8.2020832"
       id="path940" />
  </g>
</svg>
