<?xml version="1.0" encoding="UTF-8" standalone="no"?>
<!-- Created with Inkscape (http://www.inkscape.org/) -->

<svg
   width="33"
   height="48"
   viewBox="0 0 8.7312502 12.7"
   version="1.1"
   id="svg5"
   sodipodi:docname="P.svg"
   inkscape:version="1.1.1 (3bf5ae0d25, 2021-09-20)"
   xmlns:inkscape="http://www.inkscape.org/namespaces/inkscape"
   xmlns:sodipodi="http://sodipodi.sourceforge.net/DTD/sodipodi-0.dtd"
   xmlns="http://www.w3.org/2000/svg"
   xmlns:svg="http://www.w3.org/2000/svg">
  <sodipodi:namedview
     id="namedview7"
     pagecolor="#ffffff"
     bordercolor="#666666"
     borderopacity="1.0"
     inkscape:pageshadow="2"
     inkscape:pageopacity="0.0"
     inkscape:pagecheckerboard="0"
     inkscape:document-units="mm"
     showgrid="true"
     showguides="true"
     inkscape:guide-bbox="true"
     units="px"
     width="32px"
     inkscape:zoom="12.414927"
     inkscape:cx="12.364148"
     inkscape:cy="11.478118"
     inkscape:window-width="1889"
     inkscape:window-height="1058"
     inkscape:window-x="31"
     inkscape:window-y="0"
     inkscape:window-maximized="1"
     inkscape:current-layer="layer1">
    <sodipodi:guide
       position="0,39.533332"
       orientation="0,1"
       id="guide824"
       inkscape:label=""
       inkscape:locked="false"
       inkscape:color="rgb(0,0,255)" />
    <inkscape:grid
       type="xygrid"
       id="grid826" />
    <sodipodi:guide
       position="2.3812494,4.2333301"
       orientation="0,1"
       id="guide905"
       inkscape:label=""
       inkscape:locked="false"
       inkscape:color="rgb(0,0,255)" />
  </sodipodi:namedview>
  <defs
     id="defs2" />
  <g
     inkscape:label="Layer 1"
     inkscape:groupmode="layer"
     id="layer1">
    <path
       id="path1760"
       style="fill:#000000;stroke:none;stroke-width:0.999999px;stroke-linecap:butt;stroke-linejoin:miter;stroke-opacity:1"
       d="M 1,0 C 1.2598425e-8,0 0,1 0,1 0,1 1.2598425e-8,2 1,2 h 6 v 28 c 0,0 -1e-7,1 -1,1 C 4.9999997,31 4.9999999,30 4,30 H 1 C 1.2598425e-8,30 0,31 0,31 c 0,0 1.2598425e-8,1 1,1 h 17 c 1,0 1,-1 1,-1 0,0 0,-1 -1,-1 h -6 c -1,0 -1,-1 -1,-1 v -5 c 0,-1 1,-1 1,-2 v -5 h 19 c 1,0 1,-13 1,-13 0,0 0,-4 -2,-4 z m 11,2 h 15 v 13 c 0,0 0,1 -1,1 H 12 Z"
       transform="scale(0.26458333)" />
  </g>
</svg>
