<?xml version="1.0" encoding="UTF-8" standalone="no"?>
<!-- Created with Inkscape (http://www.inkscape.org/) -->

<svg
   width="28"
   height="48"
   viewBox="0 0 7.4083339 12.7"
   version="1.1"
   id="svg5"
   sodipodi:docname="S.svg"
   inkscape:version="1.1.1 (3bf5ae0d25, 2021-09-20)"
   xmlns:inkscape="http://www.inkscape.org/namespaces/inkscape"
   xmlns:sodipodi="http://sodipodi.sourceforge.net/DTD/sodipodi-0.dtd"
   xmlns="http://www.w3.org/2000/svg"
   xmlns:svg="http://www.w3.org/2000/svg">
  <sodipodi:namedview
     id="namedview7"
     pagecolor="#ffffff"
     bordercolor="#666666"
     borderopacity="1.0"
     inkscape:pageshadow="2"
     inkscape:pageopacity="0.0"
     inkscape:pagecheckerboard="0"
     inkscape:document-units="mm"
     showgrid="true"
     showguides="true"
     inkscape:guide-bbox="true"
     units="px"
     width="32px"
     inkscape:zoom="17.557358"
     inkscape:cx="4.9836655"
     inkscape:cy="19.393578"
     inkscape:window-width="1889"
     inkscape:window-height="1058"
     inkscape:window-x="31"
     inkscape:window-y="0"
     inkscape:window-maximized="1"
     inkscape:current-layer="layer1">
    <sodipodi:guide
       position="0,39.533332"
       orientation="0,1"
       id="guide824"
       inkscape:label=""
       inkscape:locked="false"
       inkscape:color="rgb(0,0,255)" />
    <inkscape:grid
       type="xygrid"
       id="grid826" />
    <sodipodi:guide
       position="2.3812494,4.2333301"
       orientation="0,1"
       id="guide905"
       inkscape:label=""
       inkscape:locked="false"
       inkscape:color="rgb(0,0,255)" />
  </sodipodi:namedview>
  <defs
     id="defs2" />
  <g
     inkscape:label="Layer 1"
     inkscape:groupmode="layer"
     id="layer1">
    <path
       style="fill:#000000;stroke:none;stroke-width:0.264583px;stroke-linecap:butt;stroke-linejoin:miter;stroke-opacity:1"
       d="M 0.79374999,5.2916666 H 0.26458333 C 0,5.2916666 0,5.5562499 0,5.5562499 v 2.6458333 c 0,0.2645834 3.4395833,0.264586 3.4395833,0.264586 0,0 3.7041667,-2.5e-6 3.7041667,-0.2645859 V 5.2916667 L 1.5875,2.9104166 V 0.52916666 H 5.5562499 V 3.175 h 1.0583333 c 0.2645834,0 0.2645834,-0.2645834 0.2645834,-0.2645834 V 0.26458333 C 6.8791666,0 2.6458333,0 2.6458333,0 c 0,0 -2.38124997,0 -2.38124997,0.26458333 V 2.6458333 c 0,0.2645833 5.55624997,2.6458333 5.55624997,2.6458333 v 2.38125 c 0,0.2645833 -0.2645834,0.2645833 -0.2645834,0.2645833 H 1.3229166 V 5.2916666 H 0.79374999"
       id="path3992"
       sodipodi:nodetypes="cscscscccccscscsscscccc" />
  </g>
</svg>
