<?xml version="1.0" encoding="UTF-8" standalone="no"?>
<!-- Created with Inkscape (http://www.inkscape.org/) -->

<svg
   width="31"
   height="48"
   viewBox="0 0 8.2020841 12.7"
   version="1.1"
   id="svg5"
   sodipodi:docname="T.svg"
   inkscape:version="1.1.1 (3bf5ae0d25, 2021-09-20)"
   xmlns:inkscape="http://www.inkscape.org/namespaces/inkscape"
   xmlns:sodipodi="http://sodipodi.sourceforge.net/DTD/sodipodi-0.dtd"
   xmlns="http://www.w3.org/2000/svg"
   xmlns:svg="http://www.w3.org/2000/svg">
  <sodipodi:namedview
     id="namedview7"
     pagecolor="#ffffff"
     bordercolor="#666666"
     borderopacity="1.0"
     inkscape:pageshadow="2"
     inkscape:pageopacity="0.0"
     inkscape:pagecheckerboard="0"
     inkscape:document-units="mm"
     showgrid="true"
     showguides="true"
     inkscape:guide-bbox="true"
     units="px"
     width="32px"
     inkscape:zoom="17.557358"
     inkscape:cx="10.622327"
     inkscape:cy="14.096654"
     inkscape:window-width="1889"
     inkscape:window-height="1058"
     inkscape:window-x="31"
     inkscape:window-y="0"
     inkscape:window-maximized="1"
     inkscape:current-layer="layer1">
    <sodipodi:guide
       position="0,39.533332"
       orientation="0,1"
       id="guide824"
       inkscape:label=""
       inkscape:locked="false"
       inkscape:color="rgb(0,0,255)" />
    <inkscape:grid
       type="xygrid"
       id="grid826" />
    <sodipodi:guide
       position="2.3812494,4.2333301"
       orientation="0,1"
       id="guide905"
       inkscape:label=""
       inkscape:locked="false"
       inkscape:color="rgb(0,0,255)" />
  </sodipodi:namedview>
  <defs
     id="defs2" />
  <g
     inkscape:label="Layer 1"
     inkscape:groupmode="layer"
     id="layer1">
    <path
       style="fill:#000000;stroke:none;stroke-width:0.264583px;stroke-linecap:butt;stroke-linejoin:miter;stroke-opacity:1"
       d="m 3.96875,8.4666692 c 0,0 2.3812499,0 2.6458332,0 0.2645834,0 0.2645834,-0.264586 0.2645834,-0.264586 0,0 0,-0.2645833 -0.2645834,-0.2645833 -0.2645833,0 -1.3229166,0 -1.5874999,0 -0.2645834,0 -0.2645834,-0.2645833 -0.2645834,-0.2645833 0,0 0,-6.87916661 0,-7.14374994 0,-0.26458333 0.2645834,-0.26458333 0.2645834,-0.26458333 0,0 1.3229166,0 1.5874999,0 0.2645834,0 0.2645834,0.26458333 0.2645834,0.26458333 0,0 0,0.26458333 0,0.52916664 0,0.2645834 -0.2645834,0.2645834 -0.2645834,0.5291667 0,0.2645833 0,1.3229166 0,1.3229166 H 7.9374999 V 0 c 0,0 -7.40833324,0 -7.67291657,0 C 0,0 0,0.26458333 0,0.26458333 V 2.9104166 h 1.3229166 c 0,0 0,-2.11666661 0,-2.38124994 0,-0.26458333 2.1166667,-0.26458333 2.1166667,-0.26458333 V 7.9374999 c 0,0 -1.3229167,0 -1.5875,0 -0.2645833,0 -0.2645833,0.2645833 -0.2645833,0.2645833 0,0 0,0.2645834 0.2645833,0.2645834 0.2645833,0 2.1166667,0 2.1166667,0"
       id="path4499" />
  </g>
</svg>
