<?xml version="1.0" encoding="UTF-8" standalone="no"?>
<!-- Created with Inkscape (http://www.inkscape.org/) -->

<svg
   width="19"
   height="48"
   viewBox="0 0 5.0270836 12.7"
   version="1.1"
   id="svg5"
   sodipodi:docname="t.svg"
   inkscape:version="1.1.1 (3bf5ae0d25, 2021-09-20)"
   xmlns:inkscape="http://www.inkscape.org/namespaces/inkscape"
   xmlns:sodipodi="http://sodipodi.sourceforge.net/DTD/sodipodi-0.dtd"
   xmlns="http://www.w3.org/2000/svg"
   xmlns:svg="http://www.w3.org/2000/svg">
  <sodipodi:namedview
     id="namedview7"
     pagecolor="#ffffff"
     bordercolor="#666666"
     borderopacity="1.0"
     inkscape:pageshadow="2"
     inkscape:pageopacity="0.0"
     inkscape:pagecheckerboard="0"
     inkscape:document-units="mm"
     showgrid="true"
     showguides="true"
     inkscape:guide-bbox="true"
     units="px"
     width="32px"
     inkscape:zoom="24.829854"
     inkscape:cx="7.8333123"
     inkscape:cy="17.619918"
     inkscape:window-width="1889"
     inkscape:window-height="1058"
     inkscape:window-x="31"
     inkscape:window-y="0"
     inkscape:window-maximized="1"
     inkscape:current-layer="layer1">
    <sodipodi:guide
       position="0,39.533332"
       orientation="0,1"
       id="guide824"
       inkscape:label=""
       inkscape:locked="false"
       inkscape:color="rgb(0,0,255)" />
    <inkscape:grid
       type="xygrid"
       id="grid826" />
    <sodipodi:guide
       position="2.3812494,4.2333301"
       orientation="0,1"
       id="guide905"
       inkscape:label=""
       inkscape:locked="false"
       inkscape:color="rgb(0,0,255)" />
    <sodipodi:guide
       position="1.8520834,10.054167"
       orientation="0,-1"
       id="guide8143" />
    <sodipodi:guide
       position="3.1750001,12.170833"
       orientation="0,-1"
       id="guide8781" />
    <sodipodi:guide
       position="2.6458335,1.5875"
       orientation="0,-1"
       id="guide14907" />
  </sodipodi:namedview>
  <defs
     id="defs2" />
  <g
     inkscape:label="Layer 1"
     inkscape:groupmode="layer"
     id="layer1">
    <path
       style="fill:#000000;stroke:none;stroke-width:0.264583px;stroke-linecap:butt;stroke-linejoin:miter;stroke-opacity:1"
       d="m 2.6458333,2.6458333 c 0,0 0,-2.11666664 0,-2.38124997 C 2.6458333,0 2.1166666,0 2.1166666,0 c 0,0 -0.5291666,-5.2499998e-7 -0.5291666,0.26458333 0,0.26458386 0,2.38124977 0,2.38124977 0,0 -1.05833334,0 -1.32291667,0 C 0,2.6458331 0,2.9104166 0,2.9104166 c 0,0 0,0.2645834 0.26458333,0.2645834 0.26458333,0 1.32291667,0 1.32291667,0 0,0 0,4.7624999 0,5.0270832 0,0.2645834 0.2645833,0.264586 0.2645833,0.264586 H 4.7624999 V 5.8208333 c 0,0 -0.2645833,0 -0.5291666,0 -0.2645833,0 -0.2645833,0.2645833 -0.2645833,0.2645833 v 1.8520833 c 0,0 -0.79375,0 -1.0583334,0 -0.2645833,0 -0.2645833,-2.6458333 -0.2645833,-2.6458333 0,0 0,-1.8520833 0,-2.1166666 0,-0.2645834 0.2645833,-0.2645834 0.2645833,-0.2645834 0,0 0.2645834,0 0.5291667,0 0.2645833,0 0.2645833,0.2645834 0.5291667,0.2645834 0.2645833,0 0.2645833,0 0.5291666,0 0.2645833,0 0.2645833,-0.2645834 0.2645833,-0.2645834 0,0 0,-0.2645835 -0.2645833,-0.2645835 -0.2645833,0 -1.8520833,2e-7 -1.8520833,2e-7 z"
       id="path17237" />
  </g>
</svg>
