<?xml version="1.0" encoding="UTF-8" standalone="no"?>
<!-- Created with Inkscape (http://www.inkscape.org/) -->

<svg
   width="38"
   height="48"
   viewBox="0 0 10.054168 12.7"
   version="1.1"
   id="svg5"
   sodipodi:docname="U.svg"
   inkscape:version="1.1.1 (3bf5ae0d25, 2021-09-20)"
   xmlns:inkscape="http://www.inkscape.org/namespaces/inkscape"
   xmlns:sodipodi="http://sodipodi.sourceforge.net/DTD/sodipodi-0.dtd"
   xmlns="http://www.w3.org/2000/svg"
   xmlns:svg="http://www.w3.org/2000/svg">
  <sodipodi:namedview
     id="namedview7"
     pagecolor="#ffffff"
     bordercolor="#666666"
     borderopacity="1.0"
     inkscape:pageshadow="2"
     inkscape:pageopacity="0.0"
     inkscape:pagecheckerboard="0"
     inkscape:document-units="mm"
     showgrid="true"
     showguides="true"
     inkscape:guide-bbox="true"
     units="px"
     width="32px"
     inkscape:zoom="17.557358"
     inkscape:cx="21.614869"
     inkscape:cy="14.210566"
     inkscape:window-width="1889"
     inkscape:window-height="1058"
     inkscape:window-x="31"
     inkscape:window-y="0"
     inkscape:window-maximized="1"
     inkscape:current-layer="layer1">
    <sodipodi:guide
       position="0,39.533332"
       orientation="0,1"
       id="guide824"
       inkscape:label=""
       inkscape:locked="false"
       inkscape:color="rgb(0,0,255)" />
    <inkscape:grid
       type="xygrid"
       id="grid826" />
    <sodipodi:guide
       position="2.3812494,4.2333301"
       orientation="0,1"
       id="guide905"
       inkscape:label=""
       inkscape:locked="false"
       inkscape:color="rgb(0,0,255)" />
  </sodipodi:namedview>
  <defs
     id="defs2" />
  <g
     inkscape:label="Layer 1"
     inkscape:groupmode="layer"
     id="layer1">
    <path
       style="fill:#000000;stroke:none;stroke-width:0.264583px;stroke-linecap:butt;stroke-linejoin:miter;stroke-opacity:1"
       d="m 0.79374999,0 c 0,0 -0.26458333,0 -0.52916666,0 C 0,0 0,0.26458333 0,0.26458333 c 0,0 0,0.26458333 0.26458333,0.26458333 0.26458333,0 1.58749997,0 1.58749997,0 0,0 0,7.40833064 0,7.67291654 0,0.264586 4.4979166,0.264586 4.4979166,0.264586 0,0 1.8520833,-2.6e-6 1.8520833,-0.264586 0,-0.2645833 0,-7.1437499 0,-7.40833321 0,-0.26458333 0.2645834,-0.26458333 0.2645834,-0.26458333 0,0 1.0583333,0 1.3229166,0 0.2645838,0 0.2645838,-0.26458333 0.2645838,-0.26458333 0,0 0,-0.26458333 -0.2645838,-0.26458333 C 9.5249999,0 6.3499999,0 6.0854166,0 5.8208333,0 5.8208333,0.26458333 5.8208333,0.26458333 c 0,0 0,0.26458333 0.2645833,0.26458333 0.2645833,0 1.8520833,0 1.8520833,0 V 7.9374999 H 2.9104166 V 0.52916666 c 0,0 1.3229167,0 1.5875,0 0.2645833,0 0.2645833,-0.26458333 0.2645833,-0.26458333 0,0 0,-0.26458333 -0.2645833,-0.26458333 C 4.2333333,0 0.79374999,0 0.79374999,0"
       id="path5008" />
  </g>
</svg>
