<?xml version="1.0" encoding="UTF-8" standalone="no"?>
<!-- Created with Inkscape (http://www.inkscape.org/) -->

<svg
   width="42"
   height="48"
   viewBox="0 0 11.112501 12.7"
   version="1.1"
   id="svg5"
   sodipodi:docname="V.svg"
   inkscape:version="1.1.1 (3bf5ae0d25, 2021-09-20)"
   xmlns:inkscape="http://www.inkscape.org/namespaces/inkscape"
   xmlns:sodipodi="http://sodipodi.sourceforge.net/DTD/sodipodi-0.dtd"
   xmlns="http://www.w3.org/2000/svg"
   xmlns:svg="http://www.w3.org/2000/svg">
  <sodipodi:namedview
     id="namedview7"
     pagecolor="#ffffff"
     bordercolor="#666666"
     borderopacity="1.0"
     inkscape:pageshadow="2"
     inkscape:pageopacity="0.0"
     inkscape:pagecheckerboard="0"
     inkscape:document-units="mm"
     showgrid="true"
     showguides="true"
     inkscape:guide-bbox="true"
     units="px"
     width="32px"
     inkscape:zoom="12.414927"
     inkscape:cx="36.045319"
     inkscape:cy="16.069366"
     inkscape:window-width="1889"
     inkscape:window-height="1058"
     inkscape:window-x="31"
     inkscape:window-y="0"
     inkscape:window-maximized="1"
     inkscape:current-layer="layer1">
    <sodipodi:guide
       position="0,39.533332"
       orientation="0,1"
       id="guide824"
       inkscape:label=""
       inkscape:locked="false"
       inkscape:color="rgb(0,0,255)" />
    <inkscape:grid
       type="xygrid"
       id="grid826" />
    <sodipodi:guide
       position="2.3812494,4.2333301"
       orientation="0,1"
       id="guide905"
       inkscape:label=""
       inkscape:locked="false"
       inkscape:color="rgb(0,0,255)" />
  </sodipodi:namedview>
  <defs
     id="defs2" />
  <g
     inkscape:label="Layer 1"
     inkscape:groupmode="layer"
     id="layer1">
    <path
       style="fill:#000000;stroke:none;stroke-width:0.264583px;stroke-linecap:butt;stroke-linejoin:miter;stroke-opacity:1"
       d="M 0,0.26458333 C 0,0.26458333 0,0 0.26458333,0 0.52916666,0 1.3229166,0 1.5875,0 c 0.2645833,0 0.2645833,0.26458333 0.5291666,0.26458333 0.2645834,0 0.5291667,0 0.79375,0 C 3.175,0.26458333 3.175,0 3.4395833,0 c 0.2645833,0 1.0583333,0 1.3229166,0 0.2645834,0 0.2645834,0.26458333 0.2645834,0.26458333 0,0 0,0.26458333 -0.2645834,0.26458333 -0.2645833,0 -1.5874999,0 -1.5874999,0 V 0.79374999 L 6.0854166,7.9374999 h 0.5291666 l 2.38125,-7.40833324 c 0,0 -1.5875,0 -1.8520833,0 -0.2645833,0 -0.2645833,-0.26458333 -0.2645833,-0.26458333 0,0 0,-0.26458333 0.2645833,-0.26458333 0.2645833,0 3.4395831,0 3.7041671,0 0.264583,0 0.264583,0.26458333 0.264583,0.26458333 0,0 0,0.26458333 -0.264583,0.26458333 -0.264584,0 -1.3229171,0 -1.3229171,0 l -2.38125,7.40833324 c 0,0 1.0583333,0 1.3229167,0 0.2645833,0 0.2645833,0.2645833 0.2645833,0.2645833 0,0 0,0.2645834 -0.2645833,0.2645834 -0.2645834,0 -4.7625,0 -5.0270833,0 C 3.175,8.4666666 3.175,8.2020832 3.175,8.2020832 c 0,0 0,-0.2645833 0.2645833,-0.2645833 0.2645833,0 1.5875,0 1.5875,0 l -3.175,-7.40833324 c 0,0 -1.32291664,0 -1.58749997,0 C 0,0.52916666 0,0.26458333 0,0.26458333"
       id="path5375" />
  </g>
</svg>
