<?xml version="1.0" encoding="UTF-8" standalone="no"?>
<!-- Created with Inkscape (http://www.inkscape.org/) -->

<svg
   width="53"
   height="48"
   viewBox="0 0 14.022917 12.7"
   version="1.1"
   id="svg5"
   sodipodi:docname="w.svg"
   inkscape:version="1.1.1 (3bf5ae0d25, 2021-09-20)"
   xmlns:inkscape="http://www.inkscape.org/namespaces/inkscape"
   xmlns:sodipodi="http://sodipodi.sourceforge.net/DTD/sodipodi-0.dtd"
   xmlns="http://www.w3.org/2000/svg"
   xmlns:svg="http://www.w3.org/2000/svg">
  <sodipodi:namedview
     id="namedview7"
     pagecolor="#ffffff"
     bordercolor="#666666"
     borderopacity="1.0"
     inkscape:pageshadow="2"
     inkscape:pageopacity="0.0"
     inkscape:pagecheckerboard="0"
     inkscape:document-units="mm"
     showgrid="true"
     showguides="true"
     inkscape:guide-bbox="true"
     units="px"
     width="32px"
     inkscape:zoom="12.414927"
     inkscape:cx="23.399252"
     inkscape:cy="26.057342"
     inkscape:window-width="1889"
     inkscape:window-height="1058"
     inkscape:window-x="31"
     inkscape:window-y="0"
     inkscape:window-maximized="1"
     inkscape:current-layer="layer1">
    <sodipodi:guide
       position="0,39.533332"
       orientation="0,1"
       id="guide824"
       inkscape:label=""
       inkscape:locked="false"
       inkscape:color="rgb(0,0,255)" />
    <inkscape:grid
       type="xygrid"
       id="grid826" />
    <sodipodi:guide
       position="2.3812494,4.2333301"
       orientation="0,1"
       id="guide905"
       inkscape:label=""
       inkscape:locked="false"
       inkscape:color="rgb(0,0,255)" />
    <sodipodi:guide
       position="1.8520834,10.054167"
       orientation="0,-1"
       id="guide8143" />
    <sodipodi:guide
       position="3.1750001,12.170833"
       orientation="0,-1"
       id="guide8781" />
    <sodipodi:guide
       position="2.6458335,1.5875"
       orientation="0,-1"
       id="guide14907" />
  </sodipodi:namedview>
  <defs
     id="defs2" />
  <g
     inkscape:label="Layer 1"
     inkscape:groupmode="layer"
     id="layer1">
    <path
       style="fill:#000000;stroke:none;stroke-width:0.264583px;stroke-linecap:butt;stroke-linejoin:miter;stroke-opacity:1"
       d="m 0,2.9104166 c 0,0 0,0.2645834 0.26458333,0.2645834 0.26458333,0 1.58749997,0 1.58749997,0 L 3.96875,8.4666666 c 0,0 1.5874999,2.6e-6 1.8520833,2.6e-6 0.2645833,0 1.3229166,-2.9104193 1.3229166,-2.9104193 h 0.2645833 c 0,0 0.5291667,2.38125 0.79375,2.6458333 0.2645834,0.2645834 0.2645834,0.2645834 0.2645834,0.2645834 0,0 1.3229166,0 1.5875004,0 0.264583,0 0.264583,-0.2645834 0.264583,-0.2645834 V 7.6729166 L 12.435417,3.175 c 0,0 1.058333,0 1.322916,0 0.264583,0 0.264583,-0.2645834 0.264583,-0.2645834 0,0 0,-0.2645835 -0.264583,-0.2645835 -0.264583,0 -3.175,0 -3.439583,0 -0.264583,0 -0.264583,0.2645835 -0.264583,0.2645835 0,0 0,0.2645834 0.264583,0.2645834 0.264583,0 1.5875,0 1.5875,0 L 9.7895832,7.9374999 h -0.79375 L 7.6729166,3.175 c 0,0 1.0583333,0 1.3229166,0 0.2645834,0 0.2645834,-0.2645834 0.2645834,-0.2645834 0,0 0,-0.264583 -0.2645834,-0.2645833 -0.2645833,-2e-7 -3.4395833,-2e-7 -3.7041666,-2e-7 -0.2645833,0 -0.2645833,0.2645835 -0.2645833,0.2645835 0,0 0,0.2645834 0.2645833,0.2645834 0.2645833,0 1.3229166,0 1.3229166,0 l 0.5291667,1.3229166 v 0.2645833 l -1.3229166,3.175 H 4.7624999 L 3.175,3.4395833 V 3.175 c 0,0 1.0583333,0 1.3229166,0 0.2645833,0 0.2645833,-0.2645834 0.2645833,-0.2645834 0,0 0,-0.2645835 -0.2645833,-0.2645835 -0.2645833,0 -3.96874994,0 -4.23333327,0 C 0,2.6458331 0,2.9104166 0,2.9104166 Z"
       id="path18370" />
  </g>
</svg>
