<?xml version="1.0" encoding="UTF-8" standalone="no"?>
<!-- Created with Inkscape (http://www.inkscape.org/) -->

<svg
   width="62"
   height="48"
   viewBox="0 0 16.404168 12.7"
   version="1.1"
   id="svg5"
   sodipodi:docname="W.svg"
   inkscape:version="1.1.1 (3bf5ae0d25, 2021-09-20)"
   xmlns:inkscape="http://www.inkscape.org/namespaces/inkscape"
   xmlns:sodipodi="http://sodipodi.sourceforge.net/DTD/sodipodi-0.dtd"
   xmlns="http://www.w3.org/2000/svg"
   xmlns:svg="http://www.w3.org/2000/svg">
  <sodipodi:namedview
     id="namedview7"
     pagecolor="#ffffff"
     bordercolor="#666666"
     borderopacity="1.0"
     inkscape:pageshadow="2"
     inkscape:pageopacity="0.0"
     inkscape:pagecheckerboard="0"
     inkscape:document-units="mm"
     showgrid="true"
     showguides="true"
     inkscape:guide-bbox="true"
     units="px"
     width="32px"
     inkscape:zoom="8.7786791"
     inkscape:cx="20.219443"
     inkscape:cy="7.0056098"
     inkscape:window-width="1889"
     inkscape:window-height="1058"
     inkscape:window-x="31"
     inkscape:window-y="0"
     inkscape:window-maximized="1"
     inkscape:current-layer="layer1">
    <sodipodi:guide
       position="0,39.533332"
       orientation="0,1"
       id="guide824"
       inkscape:label=""
       inkscape:locked="false"
       inkscape:color="rgb(0,0,255)" />
    <inkscape:grid
       type="xygrid"
       id="grid826" />
    <sodipodi:guide
       position="2.3812494,4.2333301"
       orientation="0,1"
       id="guide905"
       inkscape:label=""
       inkscape:locked="false"
       inkscape:color="rgb(0,0,255)" />
  </sodipodi:namedview>
  <defs
     id="defs2" />
  <g
     inkscape:label="Layer 1"
     inkscape:groupmode="layer"
     id="layer1">
    <path
       style="fill:#000000;stroke:none;stroke-width:0.264583px;stroke-linecap:butt;stroke-linejoin:miter;stroke-opacity:1"
       d="M 0,0.26458333 C 0,0.26458333 0,0 0.26458333,0 0.52916666,0 4.2333333,0 4.4979166,0 c 0.2645833,0 0.2645833,0.26458333 0.2645833,0.26458333 0,0 0,0.26458333 -0.2645833,0.26458333 -0.2645833,0 -1.5875,0 -1.5875,0 L 5.5562499,7.6729166 7.6729166,2.1166666 7.1437499,0.52916666 c 0,0 -1.3229166,0 -1.5875,0 -0.2645833,0 -0.2645833,-0.26458333 -0.2645833,-0.26458333 0,0 0,-0.26458333 0.2645833,-0.26458333 0.2645834,0 4.4979171,0 4.7625001,0 0.264583,0 0.264583,0.26458333 0.264583,0.26458333 0,0 0,0.26458333 -0.264583,0.26458333 -0.264583,0 -1.8520834,0 -1.8520834,0 L 10.583333,7.6729166 h 0.264584 l 2.910416,-7.14374994 c 0,0 -1.322916,0 -1.5875,0 -0.264583,0 -0.264583,-0.26458333 -0.264583,-0.26458333 0,0 0,-0.26458333 0.264583,-0.26458333 0.264584,0 3.175,0 3.704167,0 0.529166,0 0.529166,0.52916666 0.529166,0.52916666 H 14.2875 l -3.175,7.40833324 c 0,0 1.322917,0 1.5875,0 0.264583,0 0.264583,0.2645833 0.264583,0.2645833 0,0 -5e-6,0.264586 -0.264586,0.264586 -0.26458,0 -4.2333304,0 -4.4979138,0 -0.2645833,0 -0.2645833,-0.264586 -0.2645833,-0.264586 0,0 0,-0.2645833 0.2645833,-0.2645833 0.2645834,0 1.3229167,0 1.3229167,0 l -1.5875,-5.0270833 H 7.6729166 L 5.8208333,7.9374999 c 0,0 1.0583333,0 1.3229166,0 0.2645833,0 0.2645833,0.2645833 0.2645833,0.2645833 0,0 0,0.264586 -0.2645833,0.264586 -0.2645833,0 -3.7041666,0 -3.9687499,0 -0.2645834,0 -0.2645834,-0.264586 -0.2645834,-0.264586 0,0 0,-0.2645833 0.2645834,-0.2645833 0.2645833,0 1.0583333,0 1.0583333,0 L 1.5875,0.52916666 c 0,0 -1.05833334,0 -1.32291667,0 C 0,0.52916666 0,0.26458333 0,0.26458333 Z"
       id="path5777" />
  </g>
</svg>
