<?xml version="1.0" encoding="UTF-8" standalone="no"?>
<!-- Created with Inkscape (http://www.inkscape.org/) -->

<svg
   width="42"
   height="48"
   viewBox="0 0 11.1125 12.7"
   version="1.1"
   id="svg5"
   sodipodi:docname="X.svg"
   inkscape:version="1.1.1 (3bf5ae0d25, 2021-09-20)"
   xmlns:inkscape="http://www.inkscape.org/namespaces/inkscape"
   xmlns:sodipodi="http://sodipodi.sourceforge.net/DTD/sodipodi-0.dtd"
   xmlns="http://www.w3.org/2000/svg"
   xmlns:svg="http://www.w3.org/2000/svg">
  <sodipodi:namedview
     id="namedview7"
     pagecolor="#ffffff"
     bordercolor="#666666"
     borderopacity="1.0"
     inkscape:pageshadow="2"
     inkscape:pageopacity="0.0"
     inkscape:pagecheckerboard="0"
     inkscape:document-units="mm"
     showgrid="true"
     showguides="true"
     inkscape:guide-bbox="true"
     units="px"
     width="32px"
     inkscape:zoom="12.414927"
     inkscape:cx="37.978475"
     inkscape:cy="2.3761718"
     inkscape:window-width="1889"
     inkscape:window-height="1058"
     inkscape:window-x="31"
     inkscape:window-y="0"
     inkscape:window-maximized="1"
     inkscape:current-layer="layer1">
    <sodipodi:guide
       position="0,39.533332"
       orientation="0,1"
       id="guide824"
       inkscape:label=""
       inkscape:locked="false"
       inkscape:color="rgb(0,0,255)" />
    <inkscape:grid
       type="xygrid"
       id="grid826" />
    <sodipodi:guide
       position="2.3812494,4.2333301"
       orientation="0,1"
       id="guide905"
       inkscape:label=""
       inkscape:locked="false"
       inkscape:color="rgb(0,0,255)" />
  </sodipodi:namedview>
  <defs
     id="defs2" />
  <g
     inkscape:label="Layer 1"
     inkscape:groupmode="layer"
     id="layer1">
    <path
       style="fill:#000000;stroke:none;stroke-width:0.264583px;stroke-linecap:butt;stroke-linejoin:miter;stroke-opacity:1"
       d="m 0,8.2020832 c 0,0 5.3782317e-6,0.264586 0.26458603,0.264586 H 4.4979166 c 0.2645833,0 0.2645833,-0.264586 0.2645833,-0.264586 0,0 0,-0.2645833 -0.2645833,-0.2645833 H 2.6458333 L 5.2916666,4.4979166 h 0.2645833 l 2.38125,3.4395833 H 6.0854166 c -0.2645833,0 -0.2645833,0.2645833 -0.2645833,0.2645833 0,0 0,0.2645834 0.2645833,0.2645834 h 4.7625004 c 0.264583,0 0.264583,-0.2645834 0.264583,-0.2645834 V 7.9374999 c 0,0 0,-0.2645833 -0.264583,-0.2645833 H 10.31875 c -0.264583,0 -0.264583,0.2645833 -0.5291668,0.2645833 h -0.79375 L 6.0854166,3.7041666 8.7312499,0.52916666 h 1.8520831 c 0.264584,0 0.264584,-0.26458333 0.264584,-0.26458333 0,0 0,-0.26458333 -0.264584,-0.26458333 H 6.3499999 C 6.0854166,0 6.0854166,0.26458333 6.0854166,0.26458333 c 0,0 0,0.26458333 0.2645833,0.26458333 H 8.2020833 L 5.953125,3.175 H 5.8208333 L 3.96875,0.52916666 h 1.3229166 c 0.2645833,0 0.2645833,-0.26458333 0.2645833,-0.26458333 0,0 0,-0.26458333 -0.2645833,-0.26458333 H 0.79374999 C 0.52916666,0 0.52916666,0.26458333 0.52916666,0.26458333 c 0,0 0,0.26458333 0.26458333,0.26458333 H 2.6458333 c 0.2645833,0 2.38125,3.43958334 2.38125,3.43958334 V 4.2333333 L 2.1166666,7.9374999 H 0.26458333 C 0,7.9374999 0,8.2020832 0,8.2020832 Z"
       id="path6218"
       sodipodi:nodetypes="csscsccccscssccssscccscsscsccccscsscsscccsc" />
  </g>
</svg>
