<?xml version="1.0" encoding="UTF-8" standalone="no"?>
<!-- Created with Inkscape (http://www.inkscape.org/) -->

<svg
   width="41"
   height="48"
   viewBox="0 0 10.847917 12.7"
   version="1.1"
   id="svg5"
   sodipodi:docname="Y.svg"
   inkscape:version="1.1.1 (3bf5ae0d25, 2021-09-20)"
   xmlns:inkscape="http://www.inkscape.org/namespaces/inkscape"
   xmlns:sodipodi="http://sodipodi.sourceforge.net/DTD/sodipodi-0.dtd"
   xmlns="http://www.w3.org/2000/svg"
   xmlns:svg="http://www.w3.org/2000/svg">
  <sodipodi:namedview
     id="namedview7"
     pagecolor="#ffffff"
     bordercolor="#666666"
     borderopacity="1.0"
     inkscape:pageshadow="2"
     inkscape:pageopacity="0.0"
     inkscape:pagecheckerboard="0"
     inkscape:document-units="mm"
     showgrid="true"
     showguides="true"
     inkscape:guide-bbox="true"
     units="px"
     width="32px"
     inkscape:zoom="17.557358"
     inkscape:cx="22.070519"
     inkscape:cy="12.331012"
     inkscape:window-width="1889"
     inkscape:window-height="1058"
     inkscape:window-x="31"
     inkscape:window-y="0"
     inkscape:window-maximized="1"
     inkscape:current-layer="layer1">
    <sodipodi:guide
       position="0,39.533332"
       orientation="0,1"
       id="guide824"
       inkscape:label=""
       inkscape:locked="false"
       inkscape:color="rgb(0,0,255)" />
    <inkscape:grid
       type="xygrid"
       id="grid826" />
    <sodipodi:guide
       position="2.3812494,4.2333301"
       orientation="0,1"
       id="guide905"
       inkscape:label=""
       inkscape:locked="false"
       inkscape:color="rgb(0,0,255)" />
  </sodipodi:namedview>
  <defs
     id="defs2" />
  <g
     inkscape:label="Layer 1"
     inkscape:groupmode="layer"
     id="layer1">
    <path
       style="fill:#000000;stroke:none;stroke-width:0.264583px;stroke-linecap:butt;stroke-linejoin:miter;stroke-opacity:1"
       d="M 0.26458333,0 C 0,0 0,0.26458333 0,0.26458333 c 0,0 0,0.26458333 0.26458333,0.26458333 0.26458333,0 1.85208327,0 1.85208327,0 L 4.7624999,4.4979166 c 0,0 0,2.9104166 0,3.175 0,0.2645833 -0.2645833,0.2645833 -0.2645833,0.2645833 0,0 -1.3229166,0 -1.5875,0 -0.2645833,0 -0.2645833,0.2645833 -0.2645833,0.2645833 0,0 0,0.2645834 0.2645833,0.2645834 0.2645834,0 1.0583334,0 1.3229167,0 0.2645833,0 0.2645833,-0.2645834 0.5291666,-0.2645834 0.2645834,0 1.3229167,0 1.5875,0 0.2645833,0 0.1227937,0.2645834 0.4582718,0.2645834 0.3354782,0 1.1292282,0 1.1292282,0 V 7.9374999 H 5.8208333 v -3.175 c 0,0 2.9104166,-4.23333324 3.1749999,-4.23333324 0.2645834,0 1.3229168,0 1.5874998,0 0.264584,0 0.264584,-0.26458333 0.264584,-0.26458333 0,0 0,-0.26458333 -0.264584,-0.26458333 C 10.31875,0 6.6145832,0 6.3499999,0 6.0854166,0 6.0854166,0.26458333 6.0854166,0.26458333 c 0,0 0,0.26458333 0.2645833,0.26458333 0.2645833,0 1.8520833,0 1.8520833,0 V 0.79374999 L 5.8208333,3.96875 3.4395833,0.52916666 c 0,0 1.3229166,0 1.5875,0 0.2645833,0 0.2645833,-0.26458333 0.2645833,-0.26458333 0,0 0,-0.26458333 -0.2645833,-0.26458333 C 4.7624999,0 4.4979166,0 4.2333333,0 3.96875,0 3.96875,0.26458333 3.7041666,0.26458333 c -0.2645833,0 -1.5875,0 -1.8520833,0 C 1.5875,0.26458333 1.5875,0 1.3229166,0 1.0583333,0 0.26458333,0 0.26458333,0 Z"
       id="path6877" />
  </g>
</svg>
