<?xml version="1.0" encoding="UTF-8" standalone="no"?>
<!-- Created with Inkscape (http://www.inkscape.org/) -->

<svg
   width="29"
   height="48"
   viewBox="0 0 7.6729169 12.7"
   version="1.1"
   id="svg5"
   sodipodi:docname="y.svg"
   inkscape:version="1.1.1 (3bf5ae0d25, 2021-09-20)"
   xmlns:inkscape="http://www.inkscape.org/namespaces/inkscape"
   xmlns:sodipodi="http://sodipodi.sourceforge.net/DTD/sodipodi-0.dtd"
   xmlns="http://www.w3.org/2000/svg"
   xmlns:svg="http://www.w3.org/2000/svg">
  <sodipodi:namedview
     id="namedview7"
     pagecolor="#ffffff"
     bordercolor="#666666"
     borderopacity="1.0"
     inkscape:pageshadow="2"
     inkscape:pageopacity="0.0"
     inkscape:pagecheckerboard="0"
     inkscape:document-units="mm"
     showgrid="true"
     showguides="true"
     inkscape:guide-bbox="true"
     units="px"
     width="32px"
     inkscape:zoom="17.557358"
     inkscape:cx="16.431857"
     inkscape:cy="26.171363"
     inkscape:window-width="1889"
     inkscape:window-height="1058"
     inkscape:window-x="31"
     inkscape:window-y="0"
     inkscape:window-maximized="1"
     inkscape:current-layer="layer1">
    <sodipodi:guide
       position="0,39.533332"
       orientation="0,1"
       id="guide824"
       inkscape:label=""
       inkscape:locked="false"
       inkscape:color="rgb(0,0,255)" />
    <inkscape:grid
       type="xygrid"
       id="grid826" />
    <sodipodi:guide
       position="2.3812494,4.2333301"
       orientation="0,1"
       id="guide905"
       inkscape:label=""
       inkscape:locked="false"
       inkscape:color="rgb(0,0,255)" />
    <sodipodi:guide
       position="1.8520834,10.054167"
       orientation="0,-1"
       id="guide8143" />
    <sodipodi:guide
       position="3.1750001,12.170833"
       orientation="0,-1"
       id="guide8781" />
    <sodipodi:guide
       position="2.6458335,1.5875"
       orientation="0,-1"
       id="guide14907" />
  </sodipodi:namedview>
  <defs
     id="defs2" />
  <g
     inkscape:label="Layer 1"
     inkscape:groupmode="layer"
     id="layer1">
    <path
       style="fill:#000000;stroke:none;stroke-width:0.264583px;stroke-linecap:butt;stroke-linejoin:miter;stroke-opacity:1"
       d="M 0.26458333,2.6458331 C 0,2.6458331 0,2.9104166 0,2.9104166 0,2.9104166 0,3.175 0.26458333,3.175 H 1.3229166 L 3.4395833,8.4666666 2.38125,10.583333 H 1.8520833 V 8.4666692 H 0.79374999 v 0.529164 c 0,0.2645834 0,2.1166668 0.26458331,2.1166668 h 1.5875 c 0.2645833,0 3.7041666,-7.9375 3.7041666,-7.9375 h 1.0583333 c 0.2645834,0 0.2645834,-0.2645834 0.2645834,-0.2645834 0,0 0,-0.2645835 -0.2645834,-0.2645835 H 4.7624999 c -0.2645833,2e-7 -0.2645833,0.2645835 -0.2645833,0.2645835 0,0 0,0.2645834 0.2645833,0.2645834 h 1.0583334 l -1.5875,3.7041666 H 3.96875 L 2.6458333,3.4395833 V 3.175 H 3.7041666 C 3.96875,3.175 3.96875,2.9104166 3.96875,2.9104166 c 0,0 0,-0.2645835 -0.2645834,-0.2645835 z"
       id="path19326"
       sodipodi:nodetypes="scsccccccssscscsccscccccscss" />
  </g>
</svg>
