<?xml version="1.0" encoding="UTF-8" standalone="no"?>
<!-- Created with Inkscape (http://www.inkscape.org/) -->

<svg
   width="22"
   height="48"
   viewBox="0 0 5.8208335 12.7"
   version="1.1"
   id="svg5"
   sodipodi:docname="z.svg"
   inkscape:version="1.1.1 (3bf5ae0d25, 2021-09-20)"
   xmlns:inkscape="http://www.inkscape.org/namespaces/inkscape"
   xmlns:sodipodi="http://sodipodi.sourceforge.net/DTD/sodipodi-0.dtd"
   xmlns="http://www.w3.org/2000/svg"
   xmlns:svg="http://www.w3.org/2000/svg">
  <sodipodi:namedview
     id="namedview7"
     pagecolor="#ffffff"
     bordercolor="#666666"
     borderopacity="1.0"
     inkscape:pageshadow="2"
     inkscape:pageopacity="0.0"
     inkscape:pagecheckerboard="0"
     inkscape:document-units="mm"
     showgrid="true"
     showguides="true"
     inkscape:guide-bbox="true"
     units="px"
     width="32px"
     inkscape:zoom="22.627417"
     inkscape:cx="7.4909124"
     inkscape:cy="26.980543"
     inkscape:window-width="1889"
     inkscape:window-height="1058"
     inkscape:window-x="31"
     inkscape:window-y="0"
     inkscape:window-maximized="1"
     inkscape:current-layer="layer1">
    <sodipodi:guide
       position="0,39.533332"
       orientation="0,1"
       id="guide824"
       inkscape:label=""
       inkscape:locked="false"
       inkscape:color="rgb(0,0,255)" />
    <inkscape:grid
       type="xygrid"
       id="grid826" />
    <sodipodi:guide
       position="2.3812494,4.2333301"
       orientation="0,1"
       id="guide905"
       inkscape:label=""
       inkscape:locked="false"
       inkscape:color="rgb(0,0,255)" />
    <sodipodi:guide
       position="1.8520834,10.054167"
       orientation="0,-1"
       id="guide8143" />
    <sodipodi:guide
       position="3.1750001,12.170833"
       orientation="0,-1"
       id="guide8781" />
    <sodipodi:guide
       position="2.6458335,1.5875"
       orientation="0,-1"
       id="guide14907" />
  </sodipodi:namedview>
  <defs
     id="defs2" />
  <g
     inkscape:label="Layer 1"
     inkscape:groupmode="layer"
     id="layer1">
    <path
       style="fill:#000000;stroke:none;stroke-width:0.264583px;stroke-linecap:butt;stroke-linejoin:miter;stroke-opacity:1"
       d="m 2.6458333,2.6458333 -1.85208331,-2e-7 c -0.26458333,0 -0.26458333,0.2645835 -0.26458333,0.2645835 v 1.8520833 c 0,0.2645834 0.26458333,0.2645834 0.26458333,0.2645834 H 1.3229166 v -1.5875 C 1.3229166,3.175 1.5875,3.175 1.5875,3.175 H 3.96875 V 3.4395833 C 3.418495,4.4752251 0,7.6729167 0,8.2020832 0,8.4666692 0.26458333,8.4666666 0.26458333,8.4666666 l 5.29166657,2.6e-6 V 7.1437499 c 0,-0.2645833 0,-1.3229166 -0.2645833,-1.3229166 H 4.7624999 c -0.2645833,0 -0.2645833,0.2645833 -0.2645833,0.2645833 v 1.0583333 c 0,0.2645833 0.2645833,0.2645833 0.2645833,0.5291667 0,0.2645833 -0.2645833,0.2645833 -0.2645833,0.2645833 H 1.8520833 C 1.5875,7.9374999 1.5875,7.6729166 1.5875,7.6729166 L 5.2916666,3.175 c 0.1348402,-0.1637346 0.5291667,-0.5291669 0,-0.5291667 z"
       id="path20115"
       sodipodi:nodetypes="cscsccsccccccssscsscscscc" />
  </g>
</svg>
