<?xml version="1.0" encoding="UTF-8" standalone="no"?>
<!-- Created with Inkscape (http://www.inkscape.org/) -->

<svg
   width="27"
   height="48"
   viewBox="0 0 7.1437502 12.7"
   version="1.1"
   id="svg5"
   sodipodi:docname="Z.svg"
   inkscape:version="1.1.1 (3bf5ae0d25, 2021-09-20)"
   xmlns:inkscape="http://www.inkscape.org/namespaces/inkscape"
   xmlns:sodipodi="http://sodipodi.sourceforge.net/DTD/sodipodi-0.dtd"
   xmlns="http://www.w3.org/2000/svg"
   xmlns:svg="http://www.w3.org/2000/svg">
  <sodipodi:namedview
     id="namedview7"
     pagecolor="#ffffff"
     bordercolor="#666666"
     borderopacity="1.0"
     inkscape:pageshadow="2"
     inkscape:pageopacity="0.0"
     inkscape:pagecheckerboard="0"
     inkscape:document-units="mm"
     showgrid="true"
     showguides="true"
     inkscape:guide-bbox="true"
     units="px"
     width="32px"
     inkscape:zoom="17.557358"
     inkscape:cx="10.394502"
     inkscape:cy="14.666216"
     inkscape:window-width="1889"
     inkscape:window-height="1058"
     inkscape:window-x="31"
     inkscape:window-y="0"
     inkscape:window-maximized="1"
     inkscape:current-layer="layer1">
    <sodipodi:guide
       position="0,39.533332"
       orientation="0,1"
       id="guide824"
       inkscape:label=""
       inkscape:locked="false"
       inkscape:color="rgb(0,0,255)" />
    <inkscape:grid
       type="xygrid"
       id="grid826" />
    <sodipodi:guide
       position="2.3812494,4.2333301"
       orientation="0,1"
       id="guide905"
       inkscape:label=""
       inkscape:locked="false"
       inkscape:color="rgb(0,0,255)" />
  </sodipodi:namedview>
  <defs
     id="defs2" />
  <g
     inkscape:label="Layer 1"
     inkscape:groupmode="layer"
     id="layer1">
    <path
       style="fill:#000000;stroke:none;stroke-width:0.264583px;stroke-linecap:butt;stroke-linejoin:miter;stroke-opacity:1"
       d="m 6.8791666,5.2916666 c 0,0 0,2.6458333 0,2.9104166 0,0.2645834 -0.2645834,0.264586 -0.2645834,0.264586 H 0 V 8.2020832 L 5.0270833,0.79374999 V 0.52916666 H 1.5875 c 0,0 0,1.85208334 0,2.11666664 0,0.2645833 -0.2645834,0.2645833 -0.2645834,0.2645833 0,0 -0.52916661,0 -0.79374994,0 -0.26458333,0 -0.26458333,-0.2645833 -0.26458333,-0.2645833 0,0 0,-2.11666664 0,-2.38124997 C 0.26458333,0 1.5875,0 1.5875,0 H 6.8791666 V 0.26458333 L 1.5875,7.6729166 v 0.2645833 c 0,0 0,-0.2645833 0,0 0,0.2645833 0.2645833,0.2645833 0.2645833,0.2645833 0,0 0,0 0.2645833,0 0.2645834,0 0.5291667,-0.2645833 0.79375,-0.2645833 0.2645834,0 2.38125,0 2.6458333,0 0.2645834,0 0.2645834,-0.2645833 0.2645834,-0.2645833 0,0 0,0 0,-0.2645834 0,-0.2645833 -0.2645834,-0.2645833 -0.2645834,-0.5291666 0,-0.2645834 0,-1.5875 0,-1.5875 0,0 0,-0.2645833 0.2645834,-0.2645833 0.2645833,0 0.2645833,0.2645833 0.5291666,0.2645833 0.2645833,0 0.5291667,0 0.5291667,0"
       id="path7279" />
  </g>
</svg>
