<?xml version="1.0" encoding="UTF-8" standalone="no"?>
<!-- Created with Inkscape (http://www.inkscape.org/) -->

<svg
   width="21"
   height="44"
   viewBox="0 0 5.5562502 11.641667"
   version="1.1"
   id="svg5"
   inkscape:version="1.1.1 (3bf5ae0d25, 2021-09-20)"
   sodipodi:docname="v.svg"
   xmlns:inkscape="http://www.inkscape.org/namespaces/inkscape"
   xmlns:sodipodi="http://sodipodi.sourceforge.net/DTD/sodipodi-0.dtd"
   xmlns="http://www.w3.org/2000/svg"
   xmlns:svg="http://www.w3.org/2000/svg">
  <sodipodi:namedview
     id="namedview7"
     pagecolor="#ffffff"
     bordercolor="#666666"
     borderopacity="1.0"
     inkscape:pageshadow="2"
     inkscape:pageopacity="0.0"
     inkscape:pagecheckerboard="0"
     inkscape:document-units="px"
     showgrid="false"
     units="px"
     width="32px"
     showguides="true"
     inkscape:guide-bbox="true"
     inkscape:zoom="32"
     inkscape:cx="10.828125"
     inkscape:cy="21.921875"
     inkscape:window-width="1889"
     inkscape:window-height="1058"
     inkscape:window-x="31"
     inkscape:window-y="0"
     inkscape:window-maximized="1"
     inkscape:current-layer="layer1">
    <sodipodi:guide
       position="0.26458333,0.26458333"
       orientation="0,1"
       id="guide9"
       inkscape:label=""
       inkscape:locked="false"
       inkscape:color="rgb(0,0,255)" />
    <sodipodi:guide
       position="0.26458333,8.2020834"
       orientation="0,1"
       id="guide11"
       inkscape:label=""
       inkscape:locked="false"
       inkscape:color="rgb(0,0,255)" />
    <sodipodi:guide
       position="1,-21.533333"
       orientation="0,1"
       id="guide15"
       inkscape:label=""
       inkscape:locked="false"
       inkscape:color="rgb(0,0,255)" />
    <sodipodi:guide
       position="8.2020834,0.26458333"
       orientation="-1,0"
       id="guide17"
       inkscape:label=""
       inkscape:locked="false"
       inkscape:color="rgb(0,0,255)" />
    <sodipodi:guide
       position="6.35,8.2020834"
       orientation="-1,0"
       id="guide159"
       inkscape:label=""
       inkscape:locked="false"
       inkscape:color="rgb(0,0,255)" />
    <sodipodi:guide
       position="4.7625,8.2020834"
       orientation="-1,0"
       id="guide188"
       inkscape:label=""
       inkscape:locked="false"
       inkscape:color="rgb(0,0,255)" />
    <sodipodi:guide
       position="0.26458333,7.6729167"
       orientation="0,1"
       id="guide13603"
       inkscape:label=""
       inkscape:locked="false"
       inkscape:color="rgb(0,0,255)" />
    <sodipodi:guide
       position="0.26458333,0.79375"
       orientation="0,1"
       id="guide13605"
       inkscape:label=""
       inkscape:locked="false"
       inkscape:color="rgb(0,0,255)" />
    <sodipodi:guide
       position="-1.5200954,7.6729169"
       orientation="0.70710678,-0.70710678"
       id="guide13607" />
    <sodipodi:guide
       position="0.79375,8.2020834"
       orientation="-1,0"
       id="guide13609"
       inkscape:label=""
       inkscape:locked="false"
       inkscape:color="rgb(0,0,255)" />
    <sodipodi:guide
       position="0.26458333,3.96875"
       orientation="0,1"
       id="guide14834"
       inkscape:label=""
       inkscape:locked="false"
       inkscape:color="rgb(0,0,255)" />
    <sodipodi:guide
       position="-1.5200956,7.6729169"
       orientation="0.70710678,-0.70710678"
       id="guide14836" />
    <sodipodi:guide
       position="5.8208334,8.2020834"
       orientation="-1,0"
       id="guide14838"
       inkscape:label=""
       inkscape:locked="false"
       inkscape:color="rgb(0,0,255)" />
    <sodipodi:guide
       position="-3.6014568,4.2333334"
       orientation="0,1"
       id="guide15362"
       inkscape:label=""
       inkscape:locked="false"
       inkscape:color="rgb(0,0,255)" />
    <sodipodi:guide
       position="-1.5200958,7.6729169"
       orientation="0.70710678,-0.70710678"
       id="guide17428" />
    <sodipodi:guide
       position="7.4083334,8.2020834"
       orientation="-1,0"
       id="guide17430"
       inkscape:label=""
       inkscape:locked="false"
       inkscape:color="rgb(0,0,255)" />
    <sodipodi:guide
       position="2.1166667,8.2020834"
       orientation="-1,0"
       id="guide18164"
       inkscape:label=""
       inkscape:locked="false"
       inkscape:color="rgb(0,0,255)" />
    <sodipodi:guide
       position="0.26458333,1.3229167"
       orientation="0,1"
       id="guide19470"
       inkscape:label=""
       inkscape:locked="false"
       inkscape:color="rgb(0,0,255)" />
    <sodipodi:guide
       position="-1.520096,7.6729169"
       orientation="0.70710678,-0.70710678"
       id="guide20069" />
    <sodipodi:guide
       position="5.2916667,8.2020834"
       orientation="-1,0"
       id="guide20071"
       inkscape:label=""
       inkscape:locked="false"
       inkscape:color="rgb(0,0,255)" />
    <sodipodi:guide
       position="3.4230468,6.2011721"
       orientation="1,0"
       id="guide22138" />
    <sodipodi:guide
       position="3.175,8.2020834"
       orientation="-1,0"
       id="guide24199"
       inkscape:label=""
       inkscape:locked="false"
       inkscape:color="rgb(0,0,255)" />
    <sodipodi:guide
       position="-0.62838542,0.52916667"
       orientation="0,1"
       id="guide25196"
       inkscape:label=""
       inkscape:locked="false"
       inkscape:color="rgb(0,0,255)" />
    <sodipodi:guide
       position="2.5135417,8.2020834"
       orientation="-1,0"
       id="guide25790"
       inkscape:label=""
       inkscape:locked="false"
       inkscape:color="rgb(0,0,255)" />
    <sodipodi:guide
       position="-0.23386083,7.14375"
       orientation="0,1"
       id="guide26598"
       inkscape:label=""
       inkscape:locked="false"
       inkscape:color="rgb(0,0,255)" />
    <sodipodi:guide
       position="1.3229167,8.2020834"
       orientation="-1,0"
       id="guide27289"
       inkscape:label=""
       inkscape:locked="false"
       inkscape:color="rgb(0,0,255)" />
    <sodipodi:guide
       position="0.26458333,3.175"
       orientation="0,1"
       id="guide1061"
       inkscape:label=""
       inkscape:locked="false"
       inkscape:color="rgb(0,0,255)" />
    <sodipodi:guide
       position="0.26458333,5.2916667"
       orientation="0,1"
       id="guide1063"
       inkscape:label=""
       inkscape:locked="false"
       inkscape:color="rgb(0,0,255)" />
    <sodipodi:guide
       position="4.2333334,4.2333335"
       orientation="-1,0"
       id="guide1065"
       inkscape:label=""
       inkscape:locked="false"
       inkscape:color="rgb(0,0,255)" />
    <sodipodi:guide
       position="-1.5200962,7.6729169"
       orientation="0.70710678,-0.70710678"
       id="guide3397" />
    <sodipodi:guide
       position="3.7041667,7.1437502"
       orientation="-1,0"
       id="guide3399"
       inkscape:label=""
       inkscape:locked="false"
       inkscape:color="rgb(0,0,255)" />
    <sodipodi:guide
       position="0.26458331,-1.3229167"
       orientation="0,1"
       id="guide3897"
       inkscape:label=""
       inkscape:locked="false"
       inkscape:color="rgb(0,0,255)" />
    <sodipodi:guide
       position="2.9104167,5.2916668"
       orientation="-1,0"
       id="guide3967"
       inkscape:label=""
       inkscape:locked="false"
       inkscape:color="rgb(0,0,255)" />
    <sodipodi:guide
       position="1.3229167,6.8791667"
       orientation="0,1"
       id="guide4049"
       inkscape:label=""
       inkscape:locked="false"
       inkscape:color="rgb(0,0,255)" />
    <sodipodi:guide
       position="0.26458333,5.55625"
       orientation="0,1"
       id="guide4166"
       inkscape:label=""
       inkscape:locked="false"
       inkscape:color="rgb(0,0,255)" />
    <sodipodi:guide
       position="1.3229167,2.5135417"
       orientation="0,1"
       id="guide4168"
       inkscape:label=""
       inkscape:locked="false"
       inkscape:color="rgb(0,0,255)" />
    <sodipodi:guide
       position="7.6729167,5.8006533"
       orientation="-1,0"
       id="guide11179"
       inkscape:label=""
       inkscape:locked="false"
       inkscape:color="rgb(0,0,255)" />
    <sodipodi:guide
       position="0.26458331,5.8208334"
       orientation="0,1"
       id="guide12086"
       inkscape:label=""
       inkscape:locked="false"
       inkscape:color="rgb(0,0,255)" />
    <sodipodi:guide
       position="0.26458332,1.3229167"
       orientation="1,0"
       id="guide12771" />
    <sodipodi:guide
       position="-2.7712509,-2.1166667"
       orientation="0,1"
       id="guide13793"
       inkscape:label=""
       inkscape:locked="false"
       inkscape:color="rgb(0,0,255)" />
    <sodipodi:guide
       position="4.2333334,3.7041667"
       orientation="0,1"
       id="guide14842"
       inkscape:label=""
       inkscape:locked="false"
       inkscape:color="rgb(0,0,255)" />
  </sodipodi:namedview>
  <defs
     id="defs2" />
  <g
     inkscape:label="Layer 1"
     inkscape:groupmode="layer"
     id="layer1">
    <path
       id="path16283"
       style="color:#000000;fill:#000000;stroke-width:3.77953;stroke-linecap:round;stroke-linejoin:round;-inkscape-stroke:none"
       d="m 2.9335938,10.001953 a 2.0000001,2.0000001 0 0 0 -0.6152344,0.119141 2.0000001,2.0000001 0 0 0 -1.1972656,2.560547 l 6.4863281,17.96875 0.00977,0.0293 a 2.0000001,2.0000001 0 0 0 0.013672,0.03125 2.0000001,2.0000001 0 0 0 0.1171875,0.253906 2.0000001,2.0000001 0 0 0 0.1503906,0.230468 2.0000001,2.0000001 0 0 0 0.050781,0.06445 2.0000001,2.0000001 0 0 0 0.15625,0.171875 2.0000001,2.0000001 0 0 0 0.035156,0.03711 2.0000001,2.0000001 0 0 0 0.00391,0.0039 2.0000001,2.0000001 0 0 0 0.2070313,0.164063 2.0000001,2.0000001 0 0 0 0.037109,0.02539 2.0000001,2.0000001 0 0 0 0.2226562,0.128907 2.0000001,2.0000001 0 0 0 0.068359,0.0332 2.0000001,2.0000001 0 0 0 0.2363281,0.08789 2.0000001,2.0000001 0 0 0 0.050781,0.01563 2.0000001,2.0000001 0 0 0 0.2402343,0.04883 2.0000001,2.0000001 0 0 0 0.082031,0.01172 A 2.0000001,2.0000001 0 0 0 9.5,32 h 0.064453 1.433594 a 2.0000001,2.0000001 0 0 0 0.169922,-0.0059 2.0000001,2.0000001 0 0 0 0.111328,-0.01367 2.0000001,2.0000001 0 0 0 0.181641,-0.0332 2.0000001,2.0000001 0 0 0 0.113281,-0.03125 2.0000001,2.0000001 0 0 0 0.162109,-0.05664 2.0000001,2.0000001 0 0 0 0.13086,-0.05664 2.0000001,2.0000001 0 0 0 0.160156,-0.08789 2.0000001,2.0000001 0 0 0 0.08398,-0.05078 2.0000001,2.0000001 0 0 0 0.01563,-0.01172 2.0000001,2.0000001 0 0 0 0.0293,-0.02148 2.0000001,2.0000001 0 0 0 0.132812,-0.101562 2.0000001,2.0000001 0 0 0 0.08399,-0.07617 2.0000001,2.0000001 0 0 0 0.154297,-0.162109 2.0000001,2.0000001 0 0 0 0.05469,-0.06836 2.0000001,2.0000001 0 0 0 0.125,-0.179687 2.0000001,2.0000001 0 0 0 0.04297,-0.07422 2.0000001,2.0000001 0 0 0 0.101562,-0.212891 2.0000001,2.0000001 0 0 0 0.01563,-0.0332 l 6.998046,-17.996094 a 2.0000001,2.0000001 0 0 0 -1.136718,-2.591796 2.0000001,2.0000001 0 0 0 -2.591797,1.136718 L 10.292969,26.306641 4.8789062,11.324219 A 2.0000001,2.0000001 0 0 0 2.9335938,10.001953 Z"
       transform="scale(0.26458333)" />
  </g>
</svg>
