<?xml version="1.0" encoding="UTF-8" standalone="no"?>
<!-- Created with Inkscape (http://www.inkscape.org/) -->

<svg
   width="30"
   height="48"
   viewBox="0 0 7.9375043 12.7"
   version="1.1"
   id="svg5"
   sodipodi:docname="&amp;.svg"
   inkscape:version="1.1.1 (3bf5ae0d25, 2021-09-20)"
   xmlns:inkscape="http://www.inkscape.org/namespaces/inkscape"
   xmlns:sodipodi="http://sodipodi.sourceforge.net/DTD/sodipodi-0.dtd"
   xmlns="http://www.w3.org/2000/svg"
   xmlns:svg="http://www.w3.org/2000/svg">
  <sodipodi:namedview
     id="namedview7"
     pagecolor="#ffffff"
     bordercolor="#666666"
     borderopacity="1.0"
     inkscape:pageshadow="2"
     inkscape:pageopacity="0.0"
     inkscape:pagecheckerboard="0"
     inkscape:document-units="mm"
     showgrid="true"
     units="px"
     width="32px"
     showguides="true"
     inkscape:guide-bbox="true"
     inkscape:zoom="16"
     inkscape:cx="9.96875"
     inkscape:cy="21.09375"
     inkscape:window-width="1889"
     inkscape:window-height="1058"
     inkscape:window-x="31"
     inkscape:window-y="0"
     inkscape:window-maximized="1"
     inkscape:current-layer="layer1">
    <sodipodi:guide
       position="0,12.7"
       orientation="0,1"
       id="guide824"
       inkscape:label=""
       inkscape:locked="false"
       inkscape:color="rgb(0,0,255)" />
    <sodipodi:guide
       position="0,4.2333333"
       orientation="0,1"
       id="guide826"
       inkscape:label=""
       inkscape:locked="false"
       inkscape:color="rgb(0,0,255)" />
    <inkscape:grid
       type="xygrid"
       id="grid828" />
    <sodipodi:guide
       position="0,11.1125"
       orientation="0,-1"
       id="guide906" />
    <sodipodi:guide
       position="-0.26458333,5.8208333"
       orientation="0,-1"
       id="guide908" />
  </sodipodi:namedview>
  <defs
     id="defs2" />
  <g
     inkscape:label="Layer 1"
     inkscape:groupmode="layer"
     id="layer1">
    <path
       id="path32826"
       style="opacity:1;fill:#000000;stroke:none;stroke-width:0.999999px;stroke-linecap:butt;stroke-linejoin:miter;stroke-opacity:1"
       d="m 1,0 v 7 l 4,5 -5,5 v 13 c 0,1 1,2 2,2 h 14 l 3,-3 h 0.5 l 2.5,3 h 6 c 1,0 2,-1 2,-2 v -2 c 0,-1 -1,-2 -2,-2 h -3 l -2,-2 v -2 l 3,-6 3,0 c 1,0 1.000001,0 1.000001,-1 L 30,13 c 0,-1 0,-1 -1,-1 H 18 c -1,0 -1,0 -1,1 v 2 c 0,1 0,1 1,1 h 2 l -1.5,3 H 18 l -5,-5 v -2 h 2 L 17,9 V 0 Z m 11,4 1,2 -3,2 H 9 L 6,6 Z m -3,13 6,7 v 1 l -2,2 H 6 v -7 z"
       transform="scale(0.26458333)"
       sodipodi:nodetypes="ccccssccccssssccccsssssssscccccccccccccccccccccc" />
  </g>
</svg>
