<?xml version="1.0" encoding="UTF-8" standalone="no"?>
<!-- Created with Inkscape (http://www.inkscape.org/) -->

<svg
   width="39"
   height="48"
   viewBox="0 0 10.318749 12.7"
   version="1.1"
   id="svg5"
   inkscape:version="1.1.1 (3bf5ae0d25, 2021-09-20)"
   sodipodi:docname="A.svg"
   xmlns:inkscape="http://www.inkscape.org/namespaces/inkscape"
   xmlns:sodipodi="http://sodipodi.sourceforge.net/DTD/sodipodi-0.dtd"
   xmlns="http://www.w3.org/2000/svg"
   xmlns:svg="http://www.w3.org/2000/svg">
  <sodipodi:namedview
     id="namedview7"
     pagecolor="#ffffff"
     bordercolor="#666666"
     borderopacity="1.0"
     inkscape:pageshadow="2"
     inkscape:pageopacity="0.0"
     inkscape:pagecheckerboard="0"
     inkscape:document-units="mm"
     showgrid="true"
     units="px"
     width="32px"
     showguides="true"
     inkscape:guide-bbox="true"
     inkscape:zoom="12.414927"
     inkscape:cx="16.955396"
     inkscape:cy="16.874847"
     inkscape:window-width="1889"
     inkscape:window-height="1058"
     inkscape:window-x="31"
     inkscape:window-y="0"
     inkscape:window-maximized="1"
     inkscape:current-layer="layer1">
    <sodipodi:guide
       position="0,12.7"
       orientation="0,1"
       id="guide824"
       inkscape:label=""
       inkscape:locked="false"
       inkscape:color="rgb(0,0,255)" />
    <sodipodi:guide
       position="0,4.2333333"
       orientation="0,1"
       id="guide826"
       inkscape:label=""
       inkscape:locked="false"
       inkscape:color="rgb(0,0,255)" />
    <inkscape:grid
       type="xygrid"
       id="grid828" />
    <sodipodi:guide
       position="0,11.1125"
       orientation="0,-1"
       id="guide906" />
    <sodipodi:guide
       position="-0.26458333,5.8208333"
       orientation="0,-1"
       id="guide908" />
  </sodipodi:namedview>
  <defs
     id="defs2" />
  <g
     inkscape:label="Layer 1"
     inkscape:groupmode="layer"
     id="layer1">
    <path
       id="path968"
       style="opacity:1;fill:#000000;stroke:none;stroke-width:0.999999px;stroke-linecap:butt;stroke-linejoin:miter;stroke-opacity:1"
       d="m 6,0 v 6 h 6 L 5,26 H 0 v 6 h 17 v -6 h -5 c 0.387647,-1.949262 0.965287,-3.810844 3,-5 h 8 c 2.252577,1.374313 2.560031,3.202621 3,5 h -6 v 6 H 39 V 26 H 32 L 26,6 h 7 V 0 C 22,-4.7244096e-7 22,-4.7244096e-7 22,1 22,-4.7244096e-7 22,-4.7244096e-7 6,0 Z m 13,6 c 1,2.0000001 3,5 3,10 -24.934917,5e-6 -3.666667,0 -6,0 0,-5 2,-7.9999999 3,-10 z"
       transform="scale(0.26458333)"
       sodipodi:nodetypes="cccccccccccccccccccccccccc" />
  </g>
</svg>
