<?xml version="1.0" encoding="UTF-8" standalone="no"?>
<!-- Created with Inkscape (http://www.inkscape.org/) -->

<svg
   width="39"
   height="48"
   viewBox="0 0 10.318749 12.7"
   version="1.1"
   id="svg5"
   sodipodi:docname="H.svg"
   inkscape:version="1.1.1 (3bf5ae0d25, 2021-09-20)"
   xmlns:inkscape="http://www.inkscape.org/namespaces/inkscape"
   xmlns:sodipodi="http://sodipodi.sourceforge.net/DTD/sodipodi-0.dtd"
   xmlns="http://www.w3.org/2000/svg"
   xmlns:svg="http://www.w3.org/2000/svg">
  <sodipodi:namedview
     id="namedview7"
     pagecolor="#ffffff"
     bordercolor="#666666"
     borderopacity="1.0"
     inkscape:pageshadow="2"
     inkscape:pageopacity="0.0"
     inkscape:pagecheckerboard="0"
     inkscape:document-units="mm"
     showgrid="true"
     units="px"
     width="32px"
     showguides="true"
     inkscape:guide-bbox="true"
     inkscape:zoom="16"
     inkscape:cx="11.78125"
     inkscape:cy="20.03125"
     inkscape:window-width="1889"
     inkscape:window-height="1058"
     inkscape:window-x="31"
     inkscape:window-y="0"
     inkscape:window-maximized="1"
     inkscape:current-layer="layer1">
    <sodipodi:guide
       position="0,12.7"
       orientation="0,1"
       id="guide824"
       inkscape:label=""
       inkscape:locked="false"
       inkscape:color="rgb(0,0,255)" />
    <sodipodi:guide
       position="0,4.2333333"
       orientation="0,1"
       id="guide826"
       inkscape:label=""
       inkscape:locked="false"
       inkscape:color="rgb(0,0,255)" />
    <inkscape:grid
       type="xygrid"
       id="grid828" />
    <sodipodi:guide
       position="0,11.1125"
       orientation="0,-1"
       id="guide906" />
    <sodipodi:guide
       position="-0.26458333,5.8208333"
       orientation="0,-1"
       id="guide908" />
  </sodipodi:namedview>
  <defs
     id="defs2" />
  <g
     inkscape:label="Layer 1"
     inkscape:groupmode="layer"
     id="layer1">
    <path
       style="fill:#000000;stroke:none;stroke-width:0.264583px;stroke-linecap:butt;stroke-linejoin:miter;stroke-opacity:1"
       d="M 3.4395833,1.5875 H 4.7624999 V 0.26458333 C 4.7624999,0 4.7625,0 4.4979166,0 H 0.26458333 C 0,0 0,0 0,0.26458333 V 1.5874999 h 1.5875 c 0.2645833,0 0.2645833,10e-8 0.2645833,0.2645834 V 6.8791666 H 0 v 1.5875 h 4.7624999 v -1.5875 H 3.4395833 V 4.7624999 h 3.4395833 v 1.8520833 c 0,0.2645835 1e-7,0.2645834 -0.2645834,0.2645834 H 5.5562499 c -0.2645832,0 -0.2645833,1e-7 -0.2645833,0.2645833 v 1.0583333 c 0,0.2645835 1e-7,0.2645834 0.2645833,0.2645834 H 10.31875 v -1.5875 H 8.4666666 V 1.5874999 H 10.31875 V -1.25e-7 L 5.5562499,0 5.2916666,-1.25e-7 V 1.5874999 h 1.5875 V 3.4395833 H 3.4395833 Z"
       id="path8777"
       sodipodi:nodetypes="cccccccccccccccccccccccccccccccccccc" />
  </g>
</svg>
