<?xml version="1.0" encoding="UTF-8" standalone="no"?>
<!-- Created with Inkscape (http://www.inkscape.org/) -->

<svg
   width="42"
   height="48"
   viewBox="0 0 11.1125 12.7"
   version="1.1"
   id="svg5"
   sodipodi:docname="K.svg"
   inkscape:version="1.1.1 (3bf5ae0d25, 2021-09-20)"
   xmlns:inkscape="http://www.inkscape.org/namespaces/inkscape"
   xmlns:sodipodi="http://sodipodi.sourceforge.net/DTD/sodipodi-0.dtd"
   xmlns="http://www.w3.org/2000/svg"
   xmlns:svg="http://www.w3.org/2000/svg">
  <sodipodi:namedview
     id="namedview7"
     pagecolor="#ffffff"
     bordercolor="#666666"
     borderopacity="1.0"
     inkscape:pageshadow="2"
     inkscape:pageopacity="0.0"
     inkscape:pagecheckerboard="0"
     inkscape:document-units="mm"
     showgrid="true"
     units="px"
     width="32px"
     showguides="true"
     inkscape:guide-bbox="true"
     inkscape:zoom="16"
     inkscape:cx="19.53125"
     inkscape:cy="17.46875"
     inkscape:window-width="1889"
     inkscape:window-height="1058"
     inkscape:window-x="31"
     inkscape:window-y="0"
     inkscape:window-maximized="1"
     inkscape:current-layer="layer1">
    <sodipodi:guide
       position="0,12.7"
       orientation="0,1"
       id="guide824"
       inkscape:label=""
       inkscape:locked="false"
       inkscape:color="rgb(0,0,255)" />
    <sodipodi:guide
       position="0,4.2333333"
       orientation="0,1"
       id="guide826"
       inkscape:label=""
       inkscape:locked="false"
       inkscape:color="rgb(0,0,255)" />
    <inkscape:grid
       type="xygrid"
       id="grid828" />
    <sodipodi:guide
       position="0,11.1125"
       orientation="0,-1"
       id="guide906" />
    <sodipodi:guide
       position="-0.26458333,5.8208333"
       orientation="0,-1"
       id="guide908" />
  </sodipodi:namedview>
  <defs
     id="defs2" />
  <g
     inkscape:label="Layer 1"
     inkscape:groupmode="layer"
     id="layer1">
    <path
       style="fill:#000000;stroke:none;stroke-width:0.264583px;stroke-linecap:butt;stroke-linejoin:miter;stroke-opacity:1"
       d="m 0,6.8791666 v 1.5875 h 5.0270833 v -1.5875 H 3.7041666 v -0.79375 L 5.159375,5.0270833 7.1437499,6.8791666 H 5.8208333 v 1.5875 h 5.0270837 c 0.264583,0 0.264583,10e-8 0.264583,-0.2645834 V 7.1437499 c 0,-0.2645832 0,-0.2645833 -0.264583,-0.2645833 H 9.2604166 l -2.6458334,-3.175 2.38125,-2.1166667 h 1.5874998 c 0.264584,0 0.264584,10e-8 0.264584,-0.2645833 V 0 L 5.8208333,-1.25e-7 c -0.2645833,0 -0.2645834,0 -0.2645834,0.264583455 V 1.5874999 L 6.6145832,1.5875 3.7041666,4.2333333 V 1.5875 l 1.0583333,-10e-8 c 0.2645834,0 0.2645834,10e-8 0.2645834,-0.2645833 V -1.25e-7 H 0.26458333 V 1.3229166 c 0,0.2645834 0,0.2645833 0.26458333,0.2645833 H 1.8520833 c 0.2645834,0 0.2645833,10e-8 0.2645833,0.2645834 v 4.7624999 c 0,0.2645835 1e-7,0.2645834 -0.2645833,0.2645834 H 0"
       id="path12354"
       sodipodi:nodetypes="ccccccccccccccccccccccccccccccccccccc" />
  </g>
</svg>
