<?xml version="1.0" encoding="UTF-8" standalone="no"?>
<!-- Created with Inkscape (http://www.inkscape.org/) -->

<svg
   width="47"
   height="48"
   viewBox="0 0 12.435418 12.7"
   version="1.1"
   id="svg5"
   sodipodi:docname="M.svg"
   inkscape:version="1.1.1 (3bf5ae0d25, 2021-09-20)"
   xmlns:inkscape="http://www.inkscape.org/namespaces/inkscape"
   xmlns:sodipodi="http://sodipodi.sourceforge.net/DTD/sodipodi-0.dtd"
   xmlns="http://www.w3.org/2000/svg"
   xmlns:svg="http://www.w3.org/2000/svg">
  <sodipodi:namedview
     id="namedview7"
     pagecolor="#ffffff"
     bordercolor="#666666"
     borderopacity="1.0"
     inkscape:pageshadow="2"
     inkscape:pageopacity="0.0"
     inkscape:pagecheckerboard="0"
     inkscape:document-units="mm"
     showgrid="true"
     units="px"
     width="32px"
     showguides="true"
     inkscape:guide-bbox="true"
     inkscape:zoom="16"
     inkscape:cx="27.15625"
     inkscape:cy="13.90625"
     inkscape:window-width="1889"
     inkscape:window-height="1058"
     inkscape:window-x="31"
     inkscape:window-y="0"
     inkscape:window-maximized="1"
     inkscape:current-layer="layer1">
    <sodipodi:guide
       position="0,12.7"
       orientation="0,1"
       id="guide824"
       inkscape:label=""
       inkscape:locked="false"
       inkscape:color="rgb(0,0,255)" />
    <sodipodi:guide
       position="0,4.2333333"
       orientation="0,1"
       id="guide826"
       inkscape:label=""
       inkscape:locked="false"
       inkscape:color="rgb(0,0,255)" />
    <inkscape:grid
       type="xygrid"
       id="grid828" />
    <sodipodi:guide
       position="0,11.1125"
       orientation="0,-1"
       id="guide906" />
    <sodipodi:guide
       position="-0.26458333,5.8208333"
       orientation="0,-1"
       id="guide908" />
  </sodipodi:namedview>
  <defs
     id="defs2" />
  <g
     inkscape:label="Layer 1"
     inkscape:groupmode="layer"
     id="layer1">
    <path
       style="opacity:1;fill:#000000;stroke:none;stroke-width:0.264583px;stroke-linecap:butt;stroke-linejoin:miter;stroke-opacity:1"
       d="M 0.26458333,-1.25e-7 V 1.3229166 c 0,0.2645834 0,0.2645833 0.26458333,0.2645833 H 1.8520833 v 5.0270833 c 0,0.2645835 0,0.2645834 -0.2645833,0.2645834 H 0.26458333 C 0,6.8791666 0,6.8791666 0,7.1437499 V 8.2020832 C 0,8.4666667 0,8.4666666 0.26458333,8.4666666 H 4.4979166 v -1.5875 H 3.4395833 v -4.7625 h 0.2645833 l 1.8520833,6.35 1.0583334,10e-8 2.3812499,-6.8791668 V 6.8791666 H 7.6729166 c -0.2645833,0 -0.2645834,1e-7 -0.2645834,0.2645833 V 8.4666666 H 11.90625 c 0.264583,-0.00543 0.264583,10e-8 0.264583,-0.2645834 V 6.8791666 h -1.5875 V 1.8520833 c 0,-0.2645833 0,-0.2645833 0.264584,-0.2645833 l 1.5875,-10e-8 V -1.25e-7 H 7.9374999 L 6.2177083,5.0270833 5.0270833,-1.25e-7 0.26458333,0"
       id="path15832"
       sodipodi:nodetypes="cccccccccccccccccccccccccccccccccc" />
  </g>
</svg>
