<?xml version="1.0" encoding="UTF-8" standalone="no"?>
<!-- Created with Inkscape (http://www.inkscape.org/) -->

<svg
   width="30"
   height="48"
   viewBox="0 0 7.9375046 12.7"
   version="1.1"
   id="svg5"
   sodipodi:docname="n.svg"
   inkscape:version="1.1.1 (3bf5ae0d25, 2021-09-20)"
   xmlns:inkscape="http://www.inkscape.org/namespaces/inkscape"
   xmlns:sodipodi="http://sodipodi.sourceforge.net/DTD/sodipodi-0.dtd"
   xmlns="http://www.w3.org/2000/svg"
   xmlns:svg="http://www.w3.org/2000/svg">
  <sodipodi:namedview
     id="namedview7"
     pagecolor="#ffffff"
     bordercolor="#666666"
     borderopacity="1.0"
     inkscape:pageshadow="2"
     inkscape:pageopacity="0.0"
     inkscape:pagecheckerboard="0"
     inkscape:document-units="mm"
     showgrid="true"
     units="px"
     width="32px"
     showguides="true"
     inkscape:guide-bbox="true"
     inkscape:zoom="11.313709"
     inkscape:cx="12.506951"
     inkscape:cy="20.373514"
     inkscape:window-width="1889"
     inkscape:window-height="1058"
     inkscape:window-x="31"
     inkscape:window-y="0"
     inkscape:window-maximized="1"
     inkscape:current-layer="layer1">
    <sodipodi:guide
       position="0,12.7"
       orientation="0,1"
       id="guide824"
       inkscape:label=""
       inkscape:locked="false"
       inkscape:color="rgb(0,0,255)" />
    <sodipodi:guide
       position="0,4.2333333"
       orientation="0,1"
       id="guide826"
       inkscape:label=""
       inkscape:locked="false"
       inkscape:color="rgb(0,0,255)" />
    <inkscape:grid
       type="xygrid"
       id="grid828" />
    <sodipodi:guide
       position="0,11.1125"
       orientation="0,-1"
       id="guide906" />
    <sodipodi:guide
       position="-0.26458333,5.8208333"
       orientation="0,-1"
       id="guide908" />
    <sodipodi:guide
       position="0,10.054169"
       orientation="0,1"
       id="guide33954"
       inkscape:label=""
       inkscape:locked="false"
       inkscape:color="rgb(0,0,255)" />
  </sodipodi:namedview>
  <defs
     id="defs2" />
  <g
     inkscape:label="Layer 1"
     inkscape:groupmode="layer"
     id="layer1">
    <path
       style="fill:#000000;stroke:none;stroke-width:0.264583px;stroke-linecap:butt;stroke-linejoin:miter;stroke-opacity:1"
       d="m 0.26458333,2.38125 c 0,0 5.82083327,0 6.08541657,0 0.2645833,0 0.2645833,0 0.2645833,0.2645833 0,0.2645833 0,3.9687499 0,4.2333333 0,0.2645833 0.081862,0.5291666 0.3055147,0.5291666 0.223652,0 1.017402,0 1.017402,0 V 8.4666666 H 4.2333333 V 7.1437499 h 0.79375 c 0,0 0,-2.9104166 0,-3.1749999 0,-0.2645834 0,-0.2645834 -0.2645834,-0.2645834 -0.2645833,0 -1.8520833,0 -1.8520833,0 v 3.4395833 h 0.79375 v 1.3229167 c 0,0 -3.17499994,0 -3.43958327,0 C 0,8.4666666 0,8.4666666 0,8.2020832 0,7.9374999 0,7.6729166 0,7.4083332 0,7.1437499 1.6666678e-8,7.1437499 0.26458333,7.1437499 c 0.26458333,0 0.79374997,0 1.05833327,0 0.2645834,0 0.2645834,0 0.2645834,-0.2645833 0,-0.2645834 0,-2.9104166 0,-3.175 0,-0.2645833 0,-0.2645833 -0.2645834,-0.2645833 -0.2645833,0 -0.52916661,0 -0.79374994,0 -0.26458333,0 -0.26458333,0 -0.26458333,-0.2645833 0,-0.2645834 0,-0.79375 0,-0.79375 z"
       id="path43043" />
  </g>
</svg>
