<?xml version="1.0" encoding="UTF-8" standalone="no"?>
<!-- Created with Inkscape (http://www.inkscape.org/) -->

<svg
   width="34"
   height="48"
   viewBox="0 0 8.9958374 12.7"
   version="1.1"
   id="svg5"
   sodipodi:docname="P.svg"
   inkscape:version="1.1.1 (3bf5ae0d25, 2021-09-20)"
   xmlns:inkscape="http://www.inkscape.org/namespaces/inkscape"
   xmlns:sodipodi="http://sodipodi.sourceforge.net/DTD/sodipodi-0.dtd"
   xmlns="http://www.w3.org/2000/svg"
   xmlns:svg="http://www.w3.org/2000/svg">
  <sodipodi:namedview
     id="namedview7"
     pagecolor="#ffffff"
     bordercolor="#666666"
     borderopacity="1.0"
     inkscape:pageshadow="2"
     inkscape:pageopacity="0.0"
     inkscape:pagecheckerboard="0"
     inkscape:document-units="mm"
     showgrid="true"
     units="px"
     width="32px"
     showguides="true"
     inkscape:guide-bbox="true"
     inkscape:zoom="16"
     inkscape:cx="12.46875"
     inkscape:cy="18.34375"
     inkscape:window-width="1889"
     inkscape:window-height="1058"
     inkscape:window-x="31"
     inkscape:window-y="0"
     inkscape:window-maximized="1"
     inkscape:current-layer="layer1">
    <sodipodi:guide
       position="0,12.7"
       orientation="0,1"
       id="guide824"
       inkscape:label=""
       inkscape:locked="false"
       inkscape:color="rgb(0,0,255)" />
    <sodipodi:guide
       position="0,4.2333333"
       orientation="0,1"
       id="guide826"
       inkscape:label=""
       inkscape:locked="false"
       inkscape:color="rgb(0,0,255)" />
    <inkscape:grid
       type="xygrid"
       id="grid828" />
    <sodipodi:guide
       position="0,11.1125"
       orientation="0,-1"
       id="guide906" />
    <sodipodi:guide
       position="-0.26458333,5.8208333"
       orientation="0,-1"
       id="guide908" />
  </sodipodi:namedview>
  <defs
     id="defs2" />
  <g
     inkscape:label="Layer 1"
     inkscape:groupmode="layer"
     id="layer1">
    <path
       id="path20407"
       style="fill:#000000;stroke:none;stroke-width:0.999999px;stroke-linecap:butt;stroke-linejoin:miter;stroke-opacity:1"
       d="M 0 0 L 0 6 L 6 6 C 6.9999999 6 7 6.0000001 7 7 L 7 26 L 1 26 C 1.2598425e-08 26 0 26.000001 0 27 L 0 32 L 20 32 L 20 27 C 20 26.000001 20 26 19 26 L 14 26 L 13 26 L 13 20 C 13 19 13 19 14 19 L 32 19 C 33 19 33 19 33 18 L 33 0 L 0 0 z M 15 6 L 26 6 L 26 13 L 14 13 C 13 13 13 13 13 12 L 13 8 C 13 7.0000001 14 6 15 6 z "
       transform="scale(0.26458333)" />
  </g>
</svg>
