<?xml version="1.0" encoding="UTF-8" standalone="no"?>
<!-- Created with Inkscape (http://www.inkscape.org/) -->

<svg
   width="19"
   height="48"
   viewBox="0 0 5.0270863 12.7"
   version="1.1"
   id="svg5"
   sodipodi:docname="s.svg"
   inkscape:version="1.1.1 (3bf5ae0d25, 2021-09-20)"
   xmlns:inkscape="http://www.inkscape.org/namespaces/inkscape"
   xmlns:sodipodi="http://sodipodi.sourceforge.net/DTD/sodipodi-0.dtd"
   xmlns="http://www.w3.org/2000/svg"
   xmlns:svg="http://www.w3.org/2000/svg">
  <sodipodi:namedview
     id="namedview7"
     pagecolor="#ffffff"
     bordercolor="#666666"
     borderopacity="1.0"
     inkscape:pageshadow="2"
     inkscape:pageopacity="0.0"
     inkscape:pagecheckerboard="0"
     inkscape:document-units="mm"
     showgrid="true"
     units="px"
     width="32px"
     showguides="true"
     inkscape:guide-bbox="true"
     inkscape:zoom="22.627417"
     inkscape:cx="5.8115338"
     inkscape:cy="17.876543"
     inkscape:window-width="1889"
     inkscape:window-height="1058"
     inkscape:window-x="31"
     inkscape:window-y="0"
     inkscape:window-maximized="1"
     inkscape:current-layer="layer1">
    <sodipodi:guide
       position="0,12.7"
       orientation="0,1"
       id="guide824"
       inkscape:label=""
       inkscape:locked="false"
       inkscape:color="rgb(0,0,255)" />
    <sodipodi:guide
       position="0,4.2333333"
       orientation="0,1"
       id="guide826"
       inkscape:label=""
       inkscape:locked="false"
       inkscape:color="rgb(0,0,255)" />
    <inkscape:grid
       type="xygrid"
       id="grid828" />
    <sodipodi:guide
       position="0,11.1125"
       orientation="0,-1"
       id="guide906" />
    <sodipodi:guide
       position="-0.26458333,5.8208333"
       orientation="0,-1"
       id="guide908" />
    <sodipodi:guide
       position="0,10.054169"
       orientation="0,1"
       id="guide33954"
       inkscape:label=""
       inkscape:locked="false"
       inkscape:color="rgb(0,0,255)" />
  </sodipodi:namedview>
  <defs
     id="defs2" />
  <g
     inkscape:label="Layer 1"
     inkscape:groupmode="layer"
     id="layer1">
    <path
       style="fill:#000000;stroke:none;stroke-width:0.264583px;stroke-linecap:butt;stroke-linejoin:miter;stroke-opacity:1"
       d="m 2.38125,2.38125 c 0,0 -1.85208334,0 -2.11666667,0 C 0,2.38125 -3.8999916e-7,2.3812507 -3.8999916e-7,2.6458336 -3.8999916e-7,2.9104166 0,5.8208333 0,5.8208333 c 0,0 2.9104166,0 3.175,0 0.2645833,0 0.2645833,0 0.2645833,0.2645833 0,0.2645833 0,0.5291666 0,0.79375 0,0.2645833 0,0.2645833 -0.2645833,0.2645833 -0.2645834,0 -1.8520834,0 -1.8520834,0 V 6.6145832 c 0,0 -0.79374994,0 -1.05833327,0 C 0,6.6145832 0,6.6145832 0,6.8791666 c 0,0.2645833 0,1.5875 0,1.5875 h 4.7624999 c 0,0 0,-3.175 0,-3.4395833 0,-0.2645834 0,-0.2645834 -0.2645833,-0.2645834 -0.2645833,0 -2.6458333,0 -2.9104166,0 -0.2645834,0 -0.2645834,0 -0.2645834,-0.2645833 0,-0.2645833 0,-0.2645833 0,-0.5291666 0,-0.2645834 0,-0.2645834 0.2645834,-0.2645834 0.2645833,0 1.3229166,0 1.5875,0 0.2645833,0 0.2645833,0 0.2645833,0.2645834 0,0.2645833 0,0.2645833 0,0.2645833 0,0 0.79375,0 1.0583333,0 0.2645833,0 0.2645833,0 0.2645833,-0.2645833 0,-0.2645834 0,-1.0583334 0,-1.3229167 0,-0.2645833 0,-0.2645833 -0.2645833,-0.2645833 -0.2645833,0 -2.1166666,0 -2.1166666,0 z"
       id="path45180" />
  </g>
</svg>
