<?xml version="1.0" encoding="UTF-8" standalone="no"?>
<!-- Created with Inkscape (http://www.inkscape.org/) -->

<svg
   width="17"
   height="48"
   viewBox="0 0 4.4979193 12.7"
   version="1.1"
   id="svg5"
   sodipodi:docname="t.svg"
   inkscape:version="1.1.1 (3bf5ae0d25, 2021-09-20)"
   xmlns:inkscape="http://www.inkscape.org/namespaces/inkscape"
   xmlns:sodipodi="http://sodipodi.sourceforge.net/DTD/sodipodi-0.dtd"
   xmlns="http://www.w3.org/2000/svg"
   xmlns:svg="http://www.w3.org/2000/svg">
  <sodipodi:namedview
     id="namedview7"
     pagecolor="#ffffff"
     bordercolor="#666666"
     borderopacity="1.0"
     inkscape:pageshadow="2"
     inkscape:pageopacity="0.0"
     inkscape:pagecheckerboard="0"
     inkscape:document-units="mm"
     showgrid="true"
     units="px"
     width="32px"
     showguides="true"
     inkscape:guide-bbox="true"
     inkscape:zoom="22.627417"
     inkscape:cx="5.8115339"
     inkscape:cy="17.876543"
     inkscape:window-width="1889"
     inkscape:window-height="1058"
     inkscape:window-x="31"
     inkscape:window-y="0"
     inkscape:window-maximized="1"
     inkscape:current-layer="layer1">
    <sodipodi:guide
       position="0,12.7"
       orientation="0,1"
       id="guide824"
       inkscape:label=""
       inkscape:locked="false"
       inkscape:color="rgb(0,0,255)" />
    <sodipodi:guide
       position="0,4.2333333"
       orientation="0,1"
       id="guide826"
       inkscape:label=""
       inkscape:locked="false"
       inkscape:color="rgb(0,0,255)" />
    <inkscape:grid
       type="xygrid"
       id="grid828" />
    <sodipodi:guide
       position="0,11.1125"
       orientation="0,-1"
       id="guide906" />
    <sodipodi:guide
       position="-0.26458333,5.8208333"
       orientation="0,-1"
       id="guide908" />
    <sodipodi:guide
       position="0,10.054169"
       orientation="0,1"
       id="guide33954"
       inkscape:label=""
       inkscape:locked="false"
       inkscape:color="rgb(0,0,255)" />
  </sodipodi:namedview>
  <defs
     id="defs2" />
  <g
     inkscape:label="Layer 1"
     inkscape:groupmode="layer"
     id="layer1">
    <path
       style="fill:#000000;stroke:none;stroke-width:0.264583px;stroke-linecap:butt;stroke-linejoin:miter;stroke-opacity:1"
       d="m 2.9104166,0.26458333 h -1.5875 c 0,0 0,1.85208287 0,2.11666667 0,0.2645836 -7e-7,0.2645836 -0.2645837,0.2645836 -0.26458291,0 -1.0583329,0 -1.0583329,0 V 3.96875 h 1.3229166 c 0,0 0,3.9687499 0,4.2333332 0,0.2645834 0,0.2645834 0.2645834,0.2645834 0.2645833,0 2.9104166,0 2.9104166,0 V 7.1437499 c 0,0 -1.0583333,0 -1.3229166,0 -0.2645834,0 -0.2645834,0 -0.2645834,-0.2645833 0,-0.2645834 0,-2.9104166 0,-2.9104166 0,0 1.0583334,0 1.3229167,0 0.2645833,0 0.2645833,0 0.2645833,-0.2645834 0,-0.2645833 0,-1.058333 0,-1.058333 l -1.5875,-3e-7 z"
       id="path45532" />
  </g>
</svg>
