<?xml version="1.0" encoding="UTF-8" standalone="no"?>
<!-- Created with Inkscape (http://www.inkscape.org/) -->

<svg
   width="28"
   height="48"
   viewBox="0 0 7.4083377 12.7"
   version="1.1"
   id="svg5"
   sodipodi:docname="u.svg"
   inkscape:version="1.1.1 (3bf5ae0d25, 2021-09-20)"
   xmlns:inkscape="http://www.inkscape.org/namespaces/inkscape"
   xmlns:sodipodi="http://sodipodi.sourceforge.net/DTD/sodipodi-0.dtd"
   xmlns="http://www.w3.org/2000/svg"
   xmlns:svg="http://www.w3.org/2000/svg">
  <sodipodi:namedview
     id="namedview7"
     pagecolor="#ffffff"
     bordercolor="#666666"
     borderopacity="1.0"
     inkscape:pageshadow="2"
     inkscape:pageopacity="0.0"
     inkscape:pagecheckerboard="0"
     inkscape:document-units="mm"
     showgrid="true"
     units="px"
     width="32px"
     showguides="true"
     inkscape:guide-bbox="true"
     inkscape:zoom="16"
     inkscape:cx="19.53125"
     inkscape:cy="20.21875"
     inkscape:window-width="1889"
     inkscape:window-height="1058"
     inkscape:window-x="31"
     inkscape:window-y="0"
     inkscape:window-maximized="1"
     inkscape:current-layer="layer1">
    <sodipodi:guide
       position="0,12.7"
       orientation="0,1"
       id="guide824"
       inkscape:label=""
       inkscape:locked="false"
       inkscape:color="rgb(0,0,255)" />
    <sodipodi:guide
       position="0,4.2333333"
       orientation="0,1"
       id="guide826"
       inkscape:label=""
       inkscape:locked="false"
       inkscape:color="rgb(0,0,255)" />
    <inkscape:grid
       type="xygrid"
       id="grid828" />
    <sodipodi:guide
       position="0,11.1125"
       orientation="0,-1"
       id="guide906" />
    <sodipodi:guide
       position="-0.26458333,5.8208333"
       orientation="0,-1"
       id="guide908" />
    <sodipodi:guide
       position="0,10.054169"
       orientation="0,1"
       id="guide33954"
       inkscape:label=""
       inkscape:locked="false"
       inkscape:color="rgb(0,0,255)" />
  </sodipodi:namedview>
  <defs
     id="defs2" />
  <g
     inkscape:label="Layer 1"
     inkscape:groupmode="layer"
     id="layer1">
    <path
       style="fill:#000000;stroke:none;stroke-width:0.264583px;stroke-linecap:butt;stroke-linejoin:miter;stroke-opacity:1"
       d="m 0,2.6458338 c 0,0 2.1166666,0 2.38125,0 0.2645833,0 0.2645827,-5e-7 0.2645827,0.2645828 0,0.2645834 0,3.7041701 0,3.9687518 0,0.2645815 6e-7,0.2645839 0.2645839,0.2645839 0.2645834,0 1.8520833,-2.4e-6 1.8520833,-2.4e-6 V 3.96875 H 3.7041666 c 0,0 0,-0.79375 0,-1.0583334 0,-0.2645833 -1.3e-6,-0.2645828 0.2645828,-0.2645828 0.2645839,0 2.1166672,0 2.1166672,0 v 4.4979161 h 1.3229166 v 1.322918 c 0,0 -5.5562499,0 -5.8208332,0 -0.2645834,0 -0.5291667,-0.264582 -0.5291667,-0.5291667 0,-0.2645846 0,-3.9687512 0,-3.9687512 0,0 -0.52916664,0 -0.79374997,0 C 0,3.96875 0,3.96875 0,3.7041666 0,3.4395833 0,2.6458338 0,2.6458338 Z"
       id="path1061" />
  </g>
</svg>
