<?xml version="1.0" encoding="UTF-8" standalone="no"?>
<!-- Created with Inkscape (http://www.inkscape.org/) -->

<svg
   width="39"
   height="48"
   viewBox="0 0 10.318755 12.7"
   version="1.1"
   id="svg5"
   sodipodi:docname="U.svg"
   inkscape:version="1.1.1 (3bf5ae0d25, 2021-09-20)"
   xmlns:inkscape="http://www.inkscape.org/namespaces/inkscape"
   xmlns:sodipodi="http://sodipodi.sourceforge.net/DTD/sodipodi-0.dtd"
   xmlns="http://www.w3.org/2000/svg"
   xmlns:svg="http://www.w3.org/2000/svg">
  <sodipodi:namedview
     id="namedview7"
     pagecolor="#ffffff"
     bordercolor="#666666"
     borderopacity="1.0"
     inkscape:pageshadow="2"
     inkscape:pageopacity="0.0"
     inkscape:pagecheckerboard="0"
     inkscape:document-units="mm"
     showgrid="true"
     units="px"
     width="32px"
     showguides="true"
     inkscape:guide-bbox="true"
     inkscape:zoom="16"
     inkscape:cx="22.96875"
     inkscape:cy="16.65625"
     inkscape:window-width="1889"
     inkscape:window-height="1058"
     inkscape:window-x="31"
     inkscape:window-y="0"
     inkscape:window-maximized="1"
     inkscape:current-layer="layer1">
    <sodipodi:guide
       position="0,12.7"
       orientation="0,1"
       id="guide824"
       inkscape:label=""
       inkscape:locked="false"
       inkscape:color="rgb(0,0,255)" />
    <sodipodi:guide
       position="0,4.2333333"
       orientation="0,1"
       id="guide826"
       inkscape:label=""
       inkscape:locked="false"
       inkscape:color="rgb(0,0,255)" />
    <inkscape:grid
       type="xygrid"
       id="grid828" />
    <sodipodi:guide
       position="0,11.1125"
       orientation="0,-1"
       id="guide906" />
    <sodipodi:guide
       position="-0.26458333,5.8208333"
       orientation="0,-1"
       id="guide908" />
  </sodipodi:namedview>
  <defs
     id="defs2" />
  <g
     inkscape:label="Layer 1"
     inkscape:groupmode="layer"
     id="layer1">
    <path
       style="fill:#000000;stroke:none;stroke-width:0.264583px;stroke-linecap:butt;stroke-linejoin:miter;stroke-opacity:1"
       d="M 4.7624999,-1.25e-7 H 0.26458333 C 0.26458333,-1.25e-7 0,-2.5e-7 0,0.26458321 V 1.3229166 c 0,0 -2.1875e-7,0.2645833 0.26458322,0.2645833 l 1.58750008,10e-8 v 6.8791666 h 6.3499999 c 0.2645834,0 0.2645834,-0.1227937 0.2645834,-0.4582719 V 1.8520833 c 0,-0.2645834 2e-7,-0.2645834 0.2645833,-0.2645834 H 10.054167 V -1.25e-7 L 5.8208333,0 C 5.55625,-1.25e-7 5.5618488,0 5.5609353,0.25901771 l -0.00469,1.32848219 h 1.0583333 v 5.0270833 c 0,0.2645834 4.7e-6,0.2645835 -0.2645786,0.2645835 -0.2645833,0 -2.1166667,0 -2.3812546,0 -0.2645787,0 -0.2645787,0 -0.2645787,-0.2645834 v -4.7625 C 3.7041667,1.5875 3.694833,1.5875 3.96875,1.5875 l 0.7937453,1e-7 z"
       id="path27448"
       sodipodi:nodetypes="ccscsccsssscccsccsssssscc" />
  </g>
</svg>
