<?xml version="1.0" encoding="UTF-8" standalone="no"?>
<!-- Created with Inkscape (http://www.inkscape.org/) -->

<svg
   width="42"
   height="48"
   viewBox="0 0 11.112507 12.7"
   version="1.1"
   id="svg5"
   sodipodi:docname="w.svg"
   inkscape:version="1.1.1 (3bf5ae0d25, 2021-09-20)"
   xmlns:inkscape="http://www.inkscape.org/namespaces/inkscape"
   xmlns:sodipodi="http://sodipodi.sourceforge.net/DTD/sodipodi-0.dtd"
   xmlns="http://www.w3.org/2000/svg"
   xmlns:svg="http://www.w3.org/2000/svg">
  <sodipodi:namedview
     id="namedview7"
     pagecolor="#ffffff"
     bordercolor="#666666"
     borderopacity="1.0"
     inkscape:pageshadow="2"
     inkscape:pageopacity="0.0"
     inkscape:pagecheckerboard="0"
     inkscape:document-units="mm"
     showgrid="true"
     units="px"
     width="32px"
     showguides="true"
     inkscape:guide-bbox="true"
     inkscape:zoom="11.313709"
     inkscape:cx="13.214058"
     inkscape:cy="13.302446"
     inkscape:window-width="1889"
     inkscape:window-height="1058"
     inkscape:window-x="31"
     inkscape:window-y="0"
     inkscape:window-maximized="1"
     inkscape:current-layer="layer1">
    <sodipodi:guide
       position="0,12.7"
       orientation="0,1"
       id="guide824"
       inkscape:label=""
       inkscape:locked="false"
       inkscape:color="rgb(0,0,255)" />
    <sodipodi:guide
       position="0,4.2333333"
       orientation="0,1"
       id="guide826"
       inkscape:label=""
       inkscape:locked="false"
       inkscape:color="rgb(0,0,255)" />
    <inkscape:grid
       type="xygrid"
       id="grid828" />
    <sodipodi:guide
       position="0,11.1125"
       orientation="0,-1"
       id="guide906" />
    <sodipodi:guide
       position="-0.26458333,5.8208333"
       orientation="0,-1"
       id="guide908" />
    <sodipodi:guide
       position="0,10.054169"
       orientation="0,1"
       id="guide33954"
       inkscape:label=""
       inkscape:locked="false"
       inkscape:color="rgb(0,0,255)" />
  </sodipodi:namedview>
  <defs
     id="defs2" />
  <g
     inkscape:label="Layer 1"
     inkscape:groupmode="layer"
     id="layer1">
    <path
       style="fill:#000000;stroke:none;stroke-width:0.264583px;stroke-linecap:butt;stroke-linejoin:miter;stroke-opacity:1"
       d="m 0,2.6458338 3.4395833,10e-8 V 3.96875 h -0.79375 l 0.79375,2.9104184 H 3.7041666 L 4.7624999,5.2916666 V 3.96875 H 3.96875 c -0.2645834,0 -0.2645834,0 -0.2645834,-0.2645834 V 2.6458333 l 3.4395833,5e-7 v 1.0583328 c 0,0.2645834 0,0.2645834 -0.2645833,0.2645834 h -0.79375 L 7.1437499,6.8791684 H 7.4083332 L 8.4666666,4.2333333 V 3.96875 h -0.79375 c -0.2645834,0 -0.2645834,0 -0.2645834,-0.2645834 V 2.6458338 h 3.4395838 c 0.264583,0 0.264583,8e-7 0.264583,0.2645834 v 0.5291661 c 0,0.2645833 -0.264583,0.5291667 -0.529167,0.5291667 H 9.7895832 l -1.5875,4.4979179 c -0.041511,0.1176152 0,0.2645833 -0.2645833,0.2645833 L 6.6145832,8.7312499 5.6885417,6.6145832 5.5562499,6.3499999 4.4979166,8.4666679 c -0.055779,0.1115581 1e-7,0.2645833 -0.2645833,0.2645833 H 2.9104166 c -0.2645833,0 -0.2645833,-0.2645833 -0.2645833,-0.2645833 L 1.0583333,3.96875 H 0 Z"
       id="path3359"
       sodipodi:nodetypes="ccccccccssccsscccccsscsssscsscccssscccc" />
  </g>
</svg>
