<?xml version="1.0" encoding="UTF-8" standalone="no"?>
<!-- Created with Inkscape (http://www.inkscape.org/) -->

<svg
   width="40"
   height="48"
   viewBox="0 0 10.583338 12.7"
   version="1.1"
   id="svg5"
   sodipodi:docname="X.svg"
   inkscape:version="1.1.1 (3bf5ae0d25, 2021-09-20)"
   xmlns:inkscape="http://www.inkscape.org/namespaces/inkscape"
   xmlns:sodipodi="http://sodipodi.sourceforge.net/DTD/sodipodi-0.dtd"
   xmlns="http://www.w3.org/2000/svg"
   xmlns:svg="http://www.w3.org/2000/svg">
  <sodipodi:namedview
     id="namedview7"
     pagecolor="#ffffff"
     bordercolor="#666666"
     borderopacity="1.0"
     inkscape:pageshadow="2"
     inkscape:pageopacity="0.0"
     inkscape:pagecheckerboard="0"
     inkscape:document-units="mm"
     showgrid="true"
     units="px"
     width="32px"
     showguides="true"
     inkscape:guide-bbox="true"
     inkscape:zoom="11.313709"
     inkscape:cx="12.065009"
     inkscape:cy="21.876116"
     inkscape:window-width="1889"
     inkscape:window-height="1058"
     inkscape:window-x="31"
     inkscape:window-y="0"
     inkscape:window-maximized="1"
     inkscape:current-layer="layer1">
    <sodipodi:guide
       position="0,12.7"
       orientation="0,1"
       id="guide824"
       inkscape:label=""
       inkscape:locked="false"
       inkscape:color="rgb(0,0,255)" />
    <sodipodi:guide
       position="0,4.2333333"
       orientation="0,1"
       id="guide826"
       inkscape:label=""
       inkscape:locked="false"
       inkscape:color="rgb(0,0,255)" />
    <inkscape:grid
       type="xygrid"
       id="grid828" />
    <sodipodi:guide
       position="0,11.1125"
       orientation="0,-1"
       id="guide906" />
    <sodipodi:guide
       position="-0.26458333,5.8208333"
       orientation="0,-1"
       id="guide908" />
  </sodipodi:namedview>
  <defs
     id="defs2" />
  <g
     inkscape:label="Layer 1"
     inkscape:groupmode="layer"
     id="layer1">
    <path
       style="opacity:1;fill:#000000;stroke:none;stroke-width:0.264583px;stroke-linecap:butt;stroke-linejoin:miter;stroke-opacity:1"
       d="M 1.7197917,1.5874999 H 0.26458333 C 0,1.5874999 0,1.5874998 0,1.3229165 V 1.0583333 0.26458333 C 0,0 0,0 0.26458333,0 H 5.0270833 V 1.5874999 H 3.96875 L 5.2916667,3.175 6.746875,1.5874999 H 5.8208333 V 0.26458333 C 5.8208333,-1.25e-7 5.8208333,0 6.0854166,0 L 10.31875,-1.25e-7 V 1.5874999 H 8.7312499 l -2.1166667,2.6458334 2.38125,2.6458333 h 1.5874998 v 1.5875 H 5.5562499 v -1.5875 H 6.6145832 V 6.6145832 L 5.5562499,5.2916666 H 5.0270833 L 3.96875,6.6145832 v 0.2645834 h 0.5291666 c 0.5291667,0 0.5291667,0 0.5291667,0.5291666 V 8.4666666 H 0 v -1.5875 h 1.6933333 l 2.0108333,-2.38125 V 3.96875 Z"
       id="path30640"
       sodipodi:nodetypes="csscssccccccsscccccccccccccccssccccccc" />
  </g>
</svg>
