<?xml version="1.0" encoding="UTF-8" standalone="no"?>
<!-- Created with Inkscape (http://www.inkscape.org/) -->

<svg
   width="42"
   height="48"
   viewBox="0 0 11.112507 12.7"
   version="1.1"
   id="svg5"
   sodipodi:docname="x.svg"
   inkscape:version="1.1.1 (3bf5ae0d25, 2021-09-20)"
   xmlns:inkscape="http://www.inkscape.org/namespaces/inkscape"
   xmlns:sodipodi="http://sodipodi.sourceforge.net/DTD/sodipodi-0.dtd"
   xmlns="http://www.w3.org/2000/svg"
   xmlns:svg="http://www.w3.org/2000/svg">
  <sodipodi:namedview
     id="namedview7"
     pagecolor="#ffffff"
     bordercolor="#666666"
     borderopacity="1.0"
     inkscape:pageshadow="2"
     inkscape:pageopacity="0.0"
     inkscape:pagecheckerboard="0"
     inkscape:document-units="mm"
     showgrid="true"
     units="px"
     width="32px"
     showguides="true"
     inkscape:guide-bbox="true"
     inkscape:zoom="16"
     inkscape:cx="9.46875"
     inkscape:cy="15.03125"
     inkscape:window-width="1889"
     inkscape:window-height="1058"
     inkscape:window-x="31"
     inkscape:window-y="0"
     inkscape:window-maximized="1"
     inkscape:current-layer="layer1">
    <sodipodi:guide
       position="0,12.7"
       orientation="0,1"
       id="guide824"
       inkscape:label=""
       inkscape:locked="false"
       inkscape:color="rgb(0,0,255)" />
    <sodipodi:guide
       position="0,4.2333333"
       orientation="0,1"
       id="guide826"
       inkscape:label=""
       inkscape:locked="false"
       inkscape:color="rgb(0,0,255)" />
    <inkscape:grid
       type="xygrid"
       id="grid828" />
    <sodipodi:guide
       position="0,11.1125"
       orientation="0,-1"
       id="guide906" />
    <sodipodi:guide
       position="-0.26458333,5.8208333"
       orientation="0,-1"
       id="guide908" />
    <sodipodi:guide
       position="0,10.054169"
       orientation="0,1"
       id="guide33954"
       inkscape:label=""
       inkscape:locked="false"
       inkscape:color="rgb(0,0,255)" />
  </sodipodi:namedview>
  <defs
     id="defs2" />
  <g
     inkscape:label="Layer 1"
     inkscape:groupmode="layer"
     id="layer1">
    <path
       style="fill:#000000;stroke:none;stroke-width:0.264583px;stroke-linecap:butt;stroke-linejoin:miter;stroke-opacity:1"
       d="M 3.7041666,2.6458338 V 3.7041666 H 3.175 V 3.96875 L 3.7041666,4.7624999 H 4.2333333 L 4.7624999,3.96875 V 3.7041666 H 4.2333333 V 2.6458338 H 7.6729166 V 3.96875 H 6.3499999 L 5.0270833,5.5562499 6.6145832,7.4083332 c 0,0 0.79375,0 1.0583334,0 0.2645833,0 0.2645833,0 0.2645833,0.2645834 0,0.2645833 0,0.7937513 0,0.7937513 H 4.2333333 V 7.4083332 H 4.7624999 V 7.1437499 L 3.96875,6.3499999 2.9104166,7.4083332 h 0.79375 c 0,0 0,0.5291667 0,0.79375 0,0.2645834 -2.6e-6,0.2645847 -0.2645846,0.2645847 -0.264582,0 -3.439582,0 -3.439582,0 V 7.4083332 h 1.0583333 l 1.5875,-1.5874999 V 5.2916666 l -1.3229167,-1.5875 c 0,0 -0.79374994,0 -1.05833327,0 C 0,3.7041666 0,3.7041666 0,3.4395833 0,3.175 0,2.6458333 0,2.6458333 l 3.7041666,5e-7"
       id="path4198" />
  </g>
</svg>
