<?xml version="1.0" encoding="UTF-8" standalone="no"?>
<!-- Created with Inkscape (http://www.inkscape.org/) -->

<svg
   width="38"
   height="48"
   viewBox="0 0 10.054172 12.7"
   version="1.1"
   id="svg5"
   sodipodi:docname="Y.svg"
   inkscape:version="1.1.1 (3bf5ae0d25, 2021-09-20)"
   xmlns:inkscape="http://www.inkscape.org/namespaces/inkscape"
   xmlns:sodipodi="http://sodipodi.sourceforge.net/DTD/sodipodi-0.dtd"
   xmlns="http://www.w3.org/2000/svg"
   xmlns:svg="http://www.w3.org/2000/svg">
  <sodipodi:namedview
     id="namedview7"
     pagecolor="#ffffff"
     bordercolor="#666666"
     borderopacity="1.0"
     inkscape:pageshadow="2"
     inkscape:pageopacity="0.0"
     inkscape:pagecheckerboard="0"
     inkscape:document-units="mm"
     showgrid="true"
     units="px"
     width="32px"
     showguides="true"
     inkscape:guide-bbox="true"
     inkscape:zoom="16"
     inkscape:cx="20.78125"
     inkscape:cy="11.09375"
     inkscape:window-width="1889"
     inkscape:window-height="1058"
     inkscape:window-x="31"
     inkscape:window-y="0"
     inkscape:window-maximized="1"
     inkscape:current-layer="layer1">
    <sodipodi:guide
       position="0,12.7"
       orientation="0,1"
       id="guide824"
       inkscape:label=""
       inkscape:locked="false"
       inkscape:color="rgb(0,0,255)" />
    <sodipodi:guide
       position="0,4.2333333"
       orientation="0,1"
       id="guide826"
       inkscape:label=""
       inkscape:locked="false"
       inkscape:color="rgb(0,0,255)" />
    <inkscape:grid
       type="xygrid"
       id="grid828" />
    <sodipodi:guide
       position="0,11.1125"
       orientation="0,-1"
       id="guide906" />
    <sodipodi:guide
       position="-0.26458333,5.8208333"
       orientation="0,-1"
       id="guide908" />
  </sodipodi:namedview>
  <defs
     id="defs2" />
  <g
     inkscape:label="Layer 1"
     inkscape:groupmode="layer"
     id="layer1">
    <path
       style="opacity:1;fill:#000000;stroke:none;stroke-width:0.264583px;stroke-linecap:butt;stroke-linejoin:miter;stroke-opacity:1"
       d="M 0,0 4.7624999,-1.25e-7 V 1.5874999 H 3.7041666 v 0.2645834 l 1.3229167,1.5875 h 0.2645833 l 1.3229167,-1.8520834 -0.2645834,0 h -0.79375 c -0.2645833,0 -0.2645833,-1e-7 -0.2645833,-0.2645834 V 0 L 10.054167,-1.25e-7 V 1.5874999 H 8.4666666 l -2.38125,3.175 c -0.1643501,0.2191335 -0.2126848,0.5291667 -0.2126848,0.79375 0,0.2645834 -0.051899,1.3229167 -0.051899,1.3229167 h 1.3229166 c 0.5291667,0 0.5291667,0.081862 0.5291667,0.3055144 V 8.4666666 H 2.38125 V 7.1437499 c 0,-0.2645833 0,-0.2645833 0.2645833,-0.2645833 h 1.5875 V 5.0270833 C 4.2333333,4.7625 4.042894,4.6659693 3.9278186,4.4979166 3.2244699,3.4707672 1.5875,1.5874999 1.5875,1.5874999 H 0 Z"
       id="path31281"
       sodipodi:nodetypes="cccccccccssccccsscssccsscssccc" />
  </g>
</svg>
