<?xml version="1.0" encoding="UTF-8" standalone="no"?>
<!-- Created with Inkscape (http://www.inkscape.org/) -->

<svg
   width="27"
   height="48"
   viewBox="0 0 7.1437538 12.7"
   version="1.1"
   id="svg5"
   sodipodi:docname="Z.svg"
   inkscape:version="1.1.1 (3bf5ae0d25, 2021-09-20)"
   xmlns:inkscape="http://www.inkscape.org/namespaces/inkscape"
   xmlns:sodipodi="http://sodipodi.sourceforge.net/DTD/sodipodi-0.dtd"
   xmlns="http://www.w3.org/2000/svg"
   xmlns:svg="http://www.w3.org/2000/svg">
  <sodipodi:namedview
     id="namedview7"
     pagecolor="#ffffff"
     bordercolor="#666666"
     borderopacity="1.0"
     inkscape:pageshadow="2"
     inkscape:pageopacity="0.0"
     inkscape:pagecheckerboard="0"
     inkscape:document-units="mm"
     showgrid="true"
     units="px"
     width="32px"
     showguides="true"
     inkscape:guide-bbox="true"
     inkscape:zoom="16"
     inkscape:cx="20.78125"
     inkscape:cy="11.09375"
     inkscape:window-width="1889"
     inkscape:window-height="1058"
     inkscape:window-x="31"
     inkscape:window-y="0"
     inkscape:window-maximized="1"
     inkscape:current-layer="layer1">
    <sodipodi:guide
       position="0,12.7"
       orientation="0,1"
       id="guide824"
       inkscape:label=""
       inkscape:locked="false"
       inkscape:color="rgb(0,0,255)" />
    <sodipodi:guide
       position="0,4.2333333"
       orientation="0,1"
       id="guide826"
       inkscape:label=""
       inkscape:locked="false"
       inkscape:color="rgb(0,0,255)" />
    <inkscape:grid
       type="xygrid"
       id="grid828" />
    <sodipodi:guide
       position="0,11.1125"
       orientation="0,-1"
       id="guide906" />
    <sodipodi:guide
       position="-0.26458333,5.8208333"
       orientation="0,-1"
       id="guide908" />
  </sodipodi:namedview>
  <defs
     id="defs2" />
  <g
     inkscape:label="Layer 1"
     inkscape:groupmode="layer"
     id="layer1">
    <path
       style="fill:#000000;stroke:none;stroke-width:0.264583px;stroke-linecap:butt;stroke-linejoin:miter;stroke-opacity:1"
       d="m 0,-1.25e-7 c 0,0 6.3499999,0 6.6145832,0 0.2645834,0 0.2645834,1.25e-7 0.2645834,0.264583455 0,0.26458333 0,1.58749997 0,1.58749997 L 2.6458333,6.3499999 v 0.5291667 h 2.6458333 c 0,0 0,-1.0583333 0,-1.3229167 0,-0.2645833 0,-0.2645833 0.2645833,-0.2645833 0.2645834,0 1.3229167,0 1.3229167,0 v 3.175 H 0 V 6.6145832 L 4.4979166,1.8520833 V 1.5874999 c 0,0 -2.38125,0 -2.6458333,0 -0.2645833,0 -0.2645833,-1e-7 -0.2645833,0.2645833 0,0.2645834 0,1.3229168 0,1.3229168 H 0 Z"
       id="path32448" />
  </g>
</svg>
