<?xml version="1.0" encoding="UTF-8" standalone="no"?>
<!-- Created with Inkscape (http://www.inkscape.org/) -->

<svg
   width="38"
   height="32"
   viewBox="0 0 10.054166 8.4666669"
   version="1.1"
   id="svg5"
   inkscape:version="1.1.1 (3bf5ae0d25, 2021-09-20)"
   sodipodi:docname="&amp;.svg"
   xmlns:inkscape="http://www.inkscape.org/namespaces/inkscape"
   xmlns:sodipodi="http://sodipodi.sourceforge.net/DTD/sodipodi-0.dtd"
   xmlns="http://www.w3.org/2000/svg"
   xmlns:svg="http://www.w3.org/2000/svg">
  <sodipodi:namedview
     id="namedview7"
     pagecolor="#ffffff"
     bordercolor="#666666"
     borderopacity="1.0"
     inkscape:pageshadow="2"
     inkscape:pageopacity="0.0"
     inkscape:pagecheckerboard="0"
     inkscape:document-units="px"
     showgrid="false"
     showguides="true"
     inkscape:guide-bbox="true"
     units="px"
     height="44px"
     inkscape:zoom="2"
     inkscape:cx="-101.25"
     inkscape:cy="188.5"
     inkscape:window-width="1889"
     inkscape:window-height="1029"
     inkscape:window-x="31"
     inkscape:window-y="29"
     inkscape:window-maximized="1"
     inkscape:current-layer="layer1">
    <sodipodi:guide
       position="15.343824,43.735416"
       orientation="0,1"
       id="guide824"
       inkscape:label=""
       inkscape:locked="false"
       inkscape:color="rgb(0,0,255)" />
    <sodipodi:guide
       position="0.26458333,10.230742"
       orientation="-1,0"
       id="guide826"
       inkscape:label=""
       inkscape:locked="false"
       inkscape:color="rgb(0,0,255)" />
    <sodipodi:guide
       position="8.2020831,11.377083"
       orientation="-1,0"
       id="guide828"
       inkscape:label=""
       inkscape:locked="false"
       inkscape:color="rgb(0,0,255)" />
    <sodipodi:guide
       position="7.0325855,3.4395832"
       orientation="0,1"
       id="guide830"
       inkscape:label=""
       inkscape:locked="false"
       inkscape:color="rgb(0,0,255)" />
    <sodipodi:guide
       position="1.8520833,6.0815986"
       orientation="-1,0"
       id="guide941"
       inkscape:label=""
       inkscape:locked="false"
       inkscape:color="rgb(0,0,255)" />
    <sodipodi:guide
       position="4.3960077,6.8791665"
       orientation="0,1"
       id="guide943"
       inkscape:label=""
       inkscape:locked="false"
       inkscape:color="rgb(0,0,255)" />
    <sodipodi:guide
       position="4.5207172,1.8520833"
       orientation="0,1"
       id="guide945"
       inkscape:label=""
       inkscape:locked="false"
       inkscape:color="rgb(0,0,255)" />
    <sodipodi:guide
       position="5.3001512,5.0270832"
       orientation="0,1"
       id="guide947"
       inkscape:label=""
       inkscape:locked="false"
       inkscape:color="rgb(0,0,255)" />
    <sodipodi:guide
       position="4.72337,3.8364582"
       orientation="0,1"
       id="guide949"
       inkscape:label=""
       inkscape:locked="false"
       inkscape:color="rgb(0,0,255)" />
    <sodipodi:guide
       position="5.3936832,2.3812499"
       orientation="0,1"
       id="guide951"
       inkscape:label=""
       inkscape:locked="false"
       inkscape:color="rgb(0,0,255)" />
    <sodipodi:guide
       position="6.6145831,4.6632814"
       orientation="-1,0"
       id="guide16941"
       inkscape:label=""
       inkscape:locked="false"
       inkscape:color="rgb(0,0,255)" />
    <sodipodi:guide
       position="5.0270832,6.8791669"
       orientation="-1,0"
       id="guide18538"
       inkscape:label=""
       inkscape:locked="false"
       inkscape:color="rgb(0,0,255)" />
    <sodipodi:guide
       position="8.2020831,8.2020831"
       orientation="0,1"
       id="guide834"
       inkscape:label=""
       inkscape:locked="false"
       inkscape:color="rgb(0,0,255)" />
    <sodipodi:guide
       position="6.6145827,0.26458333"
       orientation="0,1"
       id="guide836"
       inkscape:label=""
       inkscape:locked="false"
       inkscape:color="rgb(0,0,255)" />
    <sodipodi:guide
       position="3.73008,0.26458335"
       orientation="0,-1"
       id="guide838" />
    <sodipodi:guide
       position="3.7300798,0.26458337"
       orientation="0,-1"
       id="guide840" />
    <sodipodi:guide
       position="0.26458333,0.13229166"
       orientation="0,1"
       id="guide842"
       inkscape:label=""
       inkscape:locked="false"
       inkscape:color="rgb(0,0,255)" />
    <sodipodi:guide
       position="-1.8190104,8.2020836"
       orientation="0,-1"
       id="guide12237" />
    <sodipodi:guide
       position="-1.6371094,8.3343751"
       orientation="0,1"
       id="guide12239"
       inkscape:label=""
       inkscape:locked="false"
       inkscape:color="rgb(0,0,255)" />
    <sodipodi:guide
       position="7.9375001,8.2020836"
       orientation="-1,0"
       id="guide15049"
       inkscape:label=""
       inkscape:locked="false"
       inkscape:color="rgb(0,0,255)" />
  </sodipodi:namedview>
  <defs
     id="defs2" />
  <g
     inkscape:label="Layer 1"
     inkscape:groupmode="layer"
     id="layer1">
    <path
       style="color:#000000;opacity:1;fill:#000000;stroke-linejoin:round;-inkscape-stroke:none"
       d="m 5.0232613,0.12789974 c -0.3952408,0 -0.8620577,0.0710179 -1.3396675,0.32913151 C 3.2059839,0.71514488 2.6914063,1.2442848 2.6914063,1.9765625 c 0,0.4676497 0.2282907,0.8444509 0.3925781,1.2480469 C 2.5649883,3.4020983 2.032083,3.5496136 1.5664062,3.8769531 0.88564061,4.3554857 0.26157373,5.1108446 0.26157373,6.0804583 c 0,0.8022111 0.41305063,1.514359 1.00405127,1.8570417 0.5910006,0.3426827 1.2705349,0.3986414 2.0295388,0.3986414 1.3292465,0 2.1665174,-0.4760544 2.8808593,-1.0429687 0.4447747,0.3598157 0.9021881,0.7117468 1.4841331,0.9802648 0.2620957,0.1217508 0.5728885,0.059276 0.7675782,-0.1542969 L 9.8710938,6.53125 8.8925781,5.640625 7.8261719,6.8125 C 7.5933365,6.6803248 7.3799103,6.535003 7.1757812,6.3808594 7.7860009,5.6402617 7.9374999,4.7156246 7.9374999,3.9666599 l -1.3229167,0.00418 C 6.6145833,4.4892151 6.4460989,5.1074592 6.171875,5.4824219 5.9615356,5.2500094 5.7272085,5.0277155 5.5449219,4.7871094 5.3151826,4.4838688 5.115002,4.1832267 4.9023437,3.8808594 5.2352371,3.7562787 5.5588575,3.6793517 5.8789062,3.4765625 6.4532191,3.1126665 7.0234375,2.5282469 7.0234375,1.7109375 c 0,-0.596038 -0.3937068,-0.97796449 -0.765625,-1.21875 C 5.8858943,0.25140199 5.4703186,0.12789974 5.0232613,0.12789974 Z m 0.00408,1.29983466 c 0.2633014,0 0.354352,0.067653 0.5117188,0.1738281 C 5.9373473,1.8203295 5.3815753,2.2240148 5.171875,2.359375 4.926,2.5151662 4.5977663,2.6098376 4.2851562,2.7207031 4.1813426,2.4685446 4.0136719,2.2005215 4.0136719,1.9765625 4.0136719,1.8229699 4.0809549,1.7462271 4.3125,1.6210937 4.5440451,1.4959604 4.7571722,1.4277344 5.0273437,1.4277344 Z M 3.6289039,4.4121094 C 3.9210352,4.8261618 4.2281,5.2399407 4.490232,5.5859375 4.6984101,5.8607188 4.9849913,6.1370178 5.240232,6.4160156 4.7765191,6.7632135 4.2465993,7.0058594 3.2949219,7.0058594 2.62151,7.0058594 2.1407512,6.9153508 1.9296875,6.7929687 1.7186238,6.6705867 1.6367188,6.5879272 1.6367187,6.0859375 c 0,-0.4855932 0.2256691,-0.800944 0.6894532,-1.1269531 C 2.661692,4.7231362 3.1581477,4.5703973 3.6289063,4.4121094 Z"
       id="path20989"
       sodipodi:nodetypes="ssscssssccccccccccscssssccccssscscssssccs" />
  </g>
</svg>
