<?xml version="1.0" encoding="UTF-8" standalone="no"?>
<!-- Created with Inkscape (http://www.inkscape.org/) -->

<svg
   width="25"
   height="48"
   viewBox="0 0 6.6145841 12.7"
   version="1.1"
   id="svg5"
   sodipodi:docname="2.svg"
   inkscape:version="1.1.1 (3bf5ae0d25, 2021-09-20)"
   xmlns:inkscape="http://www.inkscape.org/namespaces/inkscape"
   xmlns:sodipodi="http://sodipodi.sourceforge.net/DTD/sodipodi-0.dtd"
   xmlns="http://www.w3.org/2000/svg"
   xmlns:svg="http://www.w3.org/2000/svg">
  <sodipodi:namedview
     id="namedview7"
     pagecolor="#ffffff"
     bordercolor="#666666"
     borderopacity="1.0"
     inkscape:pageshadow="2"
     inkscape:pageopacity="0.0"
     inkscape:pagecheckerboard="0"
     inkscape:document-units="px"
     showgrid="true"
     units="px"
     showguides="true"
     inkscape:guide-bbox="true"
     inkscape:zoom="16"
     inkscape:cx="4.59375"
     inkscape:cy="12.34375"
     inkscape:window-width="1889"
     inkscape:window-height="1058"
     inkscape:window-x="31"
     inkscape:window-y="0"
     inkscape:window-maximized="1"
     inkscape:current-layer="layer1">
    <sodipodi:guide
       position="0.26458333,12.43542"
       orientation="0,1"
       id="guide824"
       inkscape:label=""
       inkscape:locked="false"
       inkscape:color="rgb(0,0,255)" />
    <sodipodi:guide
       position="0.26458333,12.435417"
       orientation="-1,0"
       id="guide826"
       inkscape:label=""
       inkscape:locked="false"
       inkscape:color="rgb(0,0,255)" />
    <sodipodi:guide
       position="0.26458333,4.7625"
       orientation="0,1"
       id="guide828"
       inkscape:label=""
       inkscape:locked="false"
       inkscape:color="rgb(0,0,255)" />
    <inkscape:grid
       type="xygrid"
       id="grid906" />
    <sodipodi:guide
       position="0.26458333,2.38125"
       orientation="0,-1"
       id="guide908" />
    <sodipodi:guide
       position="0.26458333,9.7895833"
       orientation="0,-1"
       id="guide910" />
    <sodipodi:guide
       position="0.26458328,7.9375"
       orientation="0,-1"
       id="guide1037" />
  </sodipodi:namedview>
  <defs
     id="defs2" />
  <g
     inkscape:label="Layer 1"
     inkscape:groupmode="layer"
     id="layer1">
    <path
       style="color:#000000;fill:#000000;stroke-linecap:round;stroke-linejoin:round;-inkscape-stroke:none"
       d="M 0.79296875,0 A 0.26460981,0.26460981 0 0 0 0.52929687,0.26367188 V 2.3808594 A 0.26458335,0.26458335 0 0 0 0.79296875,2.6464844 0.26458335,0.26458335 0 0 0 1.0585937,2.3808594 V 0.52929687 H 5.8203125 V 3.3105469 L 0.10351562,7.7285156 A 0.26460981,0.26460981 0 0 0 0.26367188,8.2011719 H 6.0859375 A 0.26460981,0.26460981 0 0 0 6.3496094,7.9375 V 6.0859375 A 0.26458335,0.26458335 0 0 0 6.0859375,5.8203125 0.26458335,0.26458335 0 0 0 5.8203125,6.0859375 V 7.6738281 H 1.0371094 L 6.2480469,3.6484375 A 0.26460981,0.26460981 0 0 0 6.3496094,3.4394531 V 0.26367188 A 0.26460981,0.26460981 0 0 0 6.0859375,0 Z"
       id="path36351" />
  </g>
</svg>
