<?xml version="1.0" encoding="UTF-8" standalone="no"?>
<!-- Created with Inkscape (http://www.inkscape.org/) -->

<svg
   width="23"
   height="48"
   viewBox="0 0 6.0854173 12.7"
   version="1.1"
   id="svg5"
   sodipodi:docname="6.svg"
   inkscape:version="1.1.1 (3bf5ae0d25, 2021-09-20)"
   xmlns:inkscape="http://www.inkscape.org/namespaces/inkscape"
   xmlns:sodipodi="http://sodipodi.sourceforge.net/DTD/sodipodi-0.dtd"
   xmlns="http://www.w3.org/2000/svg"
   xmlns:svg="http://www.w3.org/2000/svg">
  <sodipodi:namedview
     id="namedview7"
     pagecolor="#ffffff"
     bordercolor="#666666"
     borderopacity="1.0"
     inkscape:pageshadow="2"
     inkscape:pageopacity="0.0"
     inkscape:pagecheckerboard="0"
     inkscape:document-units="px"
     showgrid="true"
     units="px"
     showguides="true"
     inkscape:guide-bbox="true"
     inkscape:zoom="22.627417"
     inkscape:cx="14.56198"
     inkscape:cy="15.666835"
     inkscape:window-width="1889"
     inkscape:window-height="1058"
     inkscape:window-x="31"
     inkscape:window-y="0"
     inkscape:window-maximized="1"
     inkscape:current-layer="layer1">
    <sodipodi:guide
       position="0.26458333,12.43542"
       orientation="0,1"
       id="guide824"
       inkscape:label=""
       inkscape:locked="false"
       inkscape:color="rgb(0,0,255)" />
    <sodipodi:guide
       position="0.26458333,12.435417"
       orientation="-1,0"
       id="guide826"
       inkscape:label=""
       inkscape:locked="false"
       inkscape:color="rgb(0,0,255)" />
    <sodipodi:guide
       position="0.26458333,4.7625"
       orientation="0,1"
       id="guide828"
       inkscape:label=""
       inkscape:locked="false"
       inkscape:color="rgb(0,0,255)" />
    <inkscape:grid
       type="xygrid"
       id="grid906" />
    <sodipodi:guide
       position="0.26458333,2.38125"
       orientation="0,-1"
       id="guide908" />
    <sodipodi:guide
       position="0.26458333,9.7895833"
       orientation="0,-1"
       id="guide910" />
    <sodipodi:guide
       position="0.26458328,7.9375"
       orientation="0,-1"
       id="guide1037" />
  </sodipodi:namedview>
  <defs
     id="defs2" />
  <g
     inkscape:label="Layer 1"
     inkscape:groupmode="layer"
     id="layer1">
    <path
       style="color:#000000;fill:#000000;stroke-linecap:round;stroke-linejoin:round;-inkscape-stroke:none"
       d="M 0.26367188,0 A 0.26460981,0.26460981 0 0 0 0,0.26367188 V 4.2324219 7.9375 A 0.26460981,0.26460981 0 0 0 0.26367188,8.2011719 H 5.5566406 A 0.26460981,0.26460981 0 0 0 5.8203125,7.9375 V 4.2324219 A 0.26460981,0.26460981 0 0 0 5.5566406,3.96875 H 0.52929687 V 0.52929687 H 5.2226562 c 0.010101,0.0268657 0.025152,0.0684073 0.037109,0.1640625 0.029034,0.23227048 0.03125,0.62903693 0.03125,1.15820313 a 0.26458335,0.26458335 0 0 0 0.265625,0.265625 0.26458335,0.26458335 0 0 0 0.2636719,-0.265625 c 0,-0.5291662 0.00196,-0.92576057 -0.035156,-1.22265625 C 5.7666003,0.48045841 5.7437811,0.35526359 5.6757812,0.234375 5.6077814,0.11348641 5.4453558,0 5.2910156,0 Z M 0.52929687,4.4980469 H 5.2910156 V 7.6738281 H 0.52929687 Z"
       id="path39216" />
  </g>
</svg>
