<?xml version="1.0" encoding="UTF-8" standalone="no"?>
<!-- Created with Inkscape (http://www.inkscape.org/) -->

<svg
   width="24"
   height="48"
   viewBox="0 0 6.3500007 12.7"
   version="1.1"
   id="svg5"
   sodipodi:docname="8.svg"
   inkscape:version="1.1.1 (3bf5ae0d25, 2021-09-20)"
   xmlns:inkscape="http://www.inkscape.org/namespaces/inkscape"
   xmlns:sodipodi="http://sodipodi.sourceforge.net/DTD/sodipodi-0.dtd"
   xmlns="http://www.w3.org/2000/svg"
   xmlns:svg="http://www.w3.org/2000/svg">
  <sodipodi:namedview
     id="namedview7"
     pagecolor="#ffffff"
     bordercolor="#666666"
     borderopacity="1.0"
     inkscape:pageshadow="2"
     inkscape:pageopacity="0.0"
     inkscape:pagecheckerboard="0"
     inkscape:document-units="px"
     showgrid="true"
     units="px"
     showguides="true"
     inkscape:guide-bbox="true"
     inkscape:zoom="11.313709"
     inkscape:cx="-11.799844"
     inkscape:cy="5.7894368"
     inkscape:window-width="1889"
     inkscape:window-height="1058"
     inkscape:window-x="31"
     inkscape:window-y="0"
     inkscape:window-maximized="1"
     inkscape:current-layer="layer1">
    <sodipodi:guide
       position="0.26458333,12.43542"
       orientation="0,1"
       id="guide824"
       inkscape:label=""
       inkscape:locked="false"
       inkscape:color="rgb(0,0,255)" />
    <sodipodi:guide
       position="0.26458333,12.435417"
       orientation="-1,0"
       id="guide826"
       inkscape:label=""
       inkscape:locked="false"
       inkscape:color="rgb(0,0,255)" />
    <sodipodi:guide
       position="0.26458333,4.7625"
       orientation="0,1"
       id="guide828"
       inkscape:label=""
       inkscape:locked="false"
       inkscape:color="rgb(0,0,255)" />
    <inkscape:grid
       type="xygrid"
       id="grid906" />
    <sodipodi:guide
       position="0.26458333,2.38125"
       orientation="0,-1"
       id="guide908" />
    <sodipodi:guide
       position="0.26458333,9.7895833"
       orientation="0,-1"
       id="guide910" />
    <sodipodi:guide
       position="0.26458328,7.9375"
       orientation="0,-1"
       id="guide1037" />
  </sodipodi:namedview>
  <defs
     id="defs2" />
  <g
     inkscape:label="Layer 1"
     inkscape:groupmode="layer"
     id="layer1">
    <path
       id="path40869"
       style="color:#000000;fill:#000000;stroke-width:3.77953;stroke-linecap:round;stroke-linejoin:round;-inkscape-stroke:none"
       d="M 2.9960938 0 A 1.0001 1.0001 0 0 0 2 0.99609375 L 2 15.191406 C 1.5865146 15.35444 1.2211018 15.61093 0.91601562 15.916016 C 0.56488544 16.267145 0.46543603 16.796747 0.31054688 17.289062 A 1 1 0 0 0 0 17.996094 L 0 28 C 0 28.833332 0.38388134 29.549897 0.91601562 30.082031 C 1.4481499 30.614166 2.1627612 30.996094 2.9960938 30.996094 L 19.998047 30.996094 C 20.831379 30.996094 21.547944 30.614166 22.080078 30.082031 C 22.612213 29.549897 23.001953 28.833333 23.001953 28 L 23.001953 17.996094 C 23.001953 17.162762 22.612212 16.448149 22.080078 15.916016 C 22.053853 15.88979 22.025159 15.863365 21.998047 15.837891 L 21.998047 0.99609375 A 1.0001 1.0001 0 0 0 21.001953 0 L 2.9960938 0 z M 4.0019531 2 L 19.998047 2 L 19.998047 15 L 4.0019531 15 L 4.0019531 2 z M 2.9960938 17 L 19.998047 17 C 20.164713 17 20.452057 17.114164 20.669922 17.332031 C 20.887789 17.549895 21.001953 17.829431 21.001953 17.996094 L 21.001953 28 C 21.001953 28.166666 20.887789 28.45401 20.669922 28.671875 C 20.452055 28.889742 20.164713 29.003906 19.998047 29.003906 L 2.9960938 29.003906 C 2.8294272 29.003906 2.5498962 28.889742 2.3320312 28.671875 C 2.1141663 28.454009 2 28.166667 2 28 L 2 17.996094 C 2 17.829432 2.1141664 17.549896 2.3320312 17.332031 C 2.5498964 17.114168 2.8294271 16.999998 2.9960938 17 z "
       transform="scale(0.26458335)" />
  </g>
</svg>
