<?xml version="1.0" encoding="UTF-8" standalone="no"?>
<!-- Created with Inkscape (http://www.inkscape.org/) -->

<svg
   width="19"
   height="48"
   viewBox="0 0 5.0270819 12.7"
   version="1.1"
   id="svg5"
   sodipodi:docname="c.svg"
   inkscape:version="1.1.1 (3bf5ae0d25, 2021-09-20)"
   xmlns:inkscape="http://www.inkscape.org/namespaces/inkscape"
   xmlns:sodipodi="http://sodipodi.sourceforge.net/DTD/sodipodi-0.dtd"
   xmlns="http://www.w3.org/2000/svg"
   xmlns:svg="http://www.w3.org/2000/svg">
  <sodipodi:namedview
     id="namedview7"
     pagecolor="#ffffff"
     bordercolor="#666666"
     borderopacity="1.0"
     inkscape:pageshadow="2"
     inkscape:pageopacity="0.0"
     inkscape:pagecheckerboard="0"
     inkscape:document-units="mm"
     showgrid="true"
     units="px"
     showguides="true"
     inkscape:guide-bbox="true"
     inkscape:zoom="16"
     inkscape:cx="0.40625"
     inkscape:cy="15.71875"
     inkscape:window-width="1889"
     inkscape:window-height="1058"
     inkscape:window-x="31"
     inkscape:window-y="0"
     inkscape:window-maximized="1"
     inkscape:current-layer="layer1">
    <sodipodi:guide
       position="0.26458333,12.43542"
       orientation="0,1"
       id="guide824"
       inkscape:label=""
       inkscape:locked="false"
       inkscape:color="rgb(0,0,255)" />
    <sodipodi:guide
       position="0.26458333,12.435417"
       orientation="-1,0"
       id="guide826"
       inkscape:label=""
       inkscape:locked="false"
       inkscape:color="rgb(0,0,255)" />
    <sodipodi:guide
       position="0.26458333,4.7625"
       orientation="0,1"
       id="guide828"
       inkscape:label=""
       inkscape:locked="false"
       inkscape:color="rgb(0,0,255)" />
    <inkscape:grid
       type="xygrid"
       id="grid906" />
    <sodipodi:guide
       position="0.26458333,2.38125"
       orientation="0,-1"
       id="guide908" />
    <sodipodi:guide
       position="0.26458333,9.7895833"
       orientation="0,-1"
       id="guide910" />
    <sodipodi:guide
       position="0.26458328,7.9375"
       orientation="0,-1"
       id="guide1037" />
  </sodipodi:namedview>
  <defs
     id="defs2" />
  <g
     inkscape:label="Layer 1"
     inkscape:groupmode="layer"
     id="layer1">
    <path
       style="color:#000000;fill:#000000;stroke-linecap:round;stroke-linejoin:round;-inkscape-stroke:none"
       d="M 0.26367188,2.6464844 A 0.26460981,0.26460981 0 0 0 0,2.9101563 V 7.9375 A 0.26460981,0.26460981 0 0 0 0.26367188,8.2011719 H 4.2324219 A 0.26460981,0.26460981 0 0 0 4.4980469,7.9375 V 6.6152344 A 0.26458335,0.26458335 0 0 0 4.2324219,6.3496094 0.26458335,0.26458335 0 0 0 3.96875,6.6152344 V 7.6738281 H 0.52929687 V 3.1757813 H 4.1503906 c 0.016847,0.044941 0.039356,0.1234373 0.052734,0.2304687 0.029707,0.237656 0.029297,0.5615889 0.029297,0.8261719 a 0.26458335,0.26458335 0 0 0 0.265625,0.265625 0.26458335,0.26458335 0 0 0 0.2636718,-0.265625 c 10e-8,-0.2645831 0.00128,-0.6010678 -0.035156,-0.8925781 C 4.7083431,3.1940886 4.6840242,3.0604185 4.6269531,2.9335938 4.5984176,2.8701814 4.5623444,2.8057835 4.4980469,2.7480469 4.4337493,2.6903103 4.3316406,2.6464844 4.2324219,2.6464844 Z"
       id="path21401" />
  </g>
</svg>
