<?xml version="1.0" encoding="UTF-8" standalone="no"?>
<!-- Created with Inkscape (http://www.inkscape.org/) -->

<svg
   width="34"
   height="48"
   viewBox="0 0 8.9958328 12.7"
   version="1.1"
   id="svg5"
   sodipodi:docname="E.svg"
   inkscape:version="1.1.1 (3bf5ae0d25, 2021-09-20)"
   xmlns:inkscape="http://www.inkscape.org/namespaces/inkscape"
   xmlns:sodipodi="http://sodipodi.sourceforge.net/DTD/sodipodi-0.dtd"
   xmlns="http://www.w3.org/2000/svg"
   xmlns:svg="http://www.w3.org/2000/svg">
  <sodipodi:namedview
     id="namedview7"
     pagecolor="#ffffff"
     bordercolor="#666666"
     borderopacity="1.0"
     inkscape:pageshadow="2"
     inkscape:pageopacity="0.0"
     inkscape:pagecheckerboard="0"
     inkscape:document-units="mm"
     showgrid="true"
     units="px"
     showguides="true"
     inkscape:guide-bbox="true"
     inkscape:zoom="17.557358"
     inkscape:cx="13.754917"
     inkscape:cy="12.160144"
     inkscape:window-width="1889"
     inkscape:window-height="1058"
     inkscape:window-x="31"
     inkscape:window-y="0"
     inkscape:window-maximized="1"
     inkscape:current-layer="layer1">
    <sodipodi:guide
       position="0.26458333,12.43542"
       orientation="0,1"
       id="guide824"
       inkscape:label=""
       inkscape:locked="false"
       inkscape:color="rgb(0,0,255)" />
    <sodipodi:guide
       position="0.26458333,12.435417"
       orientation="-1,0"
       id="guide826"
       inkscape:label=""
       inkscape:locked="false"
       inkscape:color="rgb(0,0,255)" />
    <sodipodi:guide
       position="0.26458333,4.7625"
       orientation="0,1"
       id="guide828"
       inkscape:label=""
       inkscape:locked="false"
       inkscape:color="rgb(0,0,255)" />
    <inkscape:grid
       type="xygrid"
       id="grid906" />
    <sodipodi:guide
       position="0.26458333,2.38125"
       orientation="0,-1"
       id="guide908" />
    <sodipodi:guide
       position="0.26458333,9.7895833"
       orientation="0,-1"
       id="guide910" />
    <sodipodi:guide
       position="0.26458328,7.9375"
       orientation="0,-1"
       id="guide1037" />
  </sodipodi:namedview>
  <defs
     id="defs2" />
  <g
     inkscape:label="Layer 1"
     inkscape:groupmode="layer"
     id="layer1">
    <path
       id="path4428"
       style="color:#000000;fill:#000000;stroke-width:3.77953;stroke-linecap:round;stroke-linejoin:round;-inkscape-stroke:none"
       d="M 0.99609375 0 A 1.0000001 1.0000001 0 0 0 0 0.99609375 A 1.0000001 1.0000001 0 0 0 0.99609375 2 L 8.0019531 2 L 8.0019531 29.003906 L 0.99609375 29.003906 A 1.0000001 1.0000001 0 0 0 0 30 A 1.0000001 1.0000001 0 0 0 0.99609375 30.996094 L 8.9980469 30.996094 L 30.996094 30.996094 C 31.454426 30.996094 31.889597 30.719391 32.111328 30.443359 C 32.333058 30.167325 32.439078 29.890751 32.53125 29.59375 C 32.715596 28.999748 32.805886 28.300814 32.871094 27.453125 C 33.001506 25.757746 32.996094 23.501951 32.996094 21.001953 A 1.0000001 1.0000001 0 0 0 32 19.998047 A 1.0000001 1.0000001 0 0 0 30.996094 21.001953 C 30.996094 23.501951 30.998492 25.74421 30.878906 27.298828 C 30.819114 28.076137 30.716044 28.691659 30.619141 29.003906 L 10.001953 29.003906 L 10.001953 15.996094 L 21.998047 15.996094 A 1.0000001 1.0000001 0 0 0 23.001953 15 A 1.0000001 1.0000001 0 0 0 21.998047 14.003906 L 10.001953 14.003906 L 10.001953 2 L 30 2 L 30 8.9980469 A 1.0000001 1.0000001 0 0 0 30.996094 10.001953 A 1.0000001 1.0000001 0 0 0 32 8.9980469 L 32 0.99609375 A 1.0000001 1.0000001 0 0 0 31.976562 0.79492188 A 1.0000001 1.0000001 0 0 0 31.96875 0.75390625 A 1.0000001 1.0000001 0 0 0 31.90625 0.578125 A 1.0000001 1.0000001 0 0 0 31.880859 0.53125 A 1.0000001 1.0000001 0 0 0 31.791016 0.39257812 A 1.0000001 1.0000001 0 0 0 31.771484 0.36523438 A 1.0000001 1.0000001 0 0 0 31.628906 0.22460938 A 1.0000001 1.0000001 0 0 0 31.603516 0.20507812 A 1.0000001 1.0000001 0 0 0 31.431641 0.09765625 A 1.0000001 1.0000001 0 0 0 31.427734 0.095703125 A 1.0000001 1.0000001 0 0 0 31.240234 0.03125 A 1.0000001 1.0000001 0 0 0 31.189453 0.01953125 A 1.0000001 1.0000001 0 0 0 30.996094 0 L 0.99609375 0 z "
       transform="scale(0.26458333)" />
  </g>
</svg>
