<?xml version="1.0" encoding="UTF-8" standalone="no"?>
<!-- Created with Inkscape (http://www.inkscape.org/) -->

<svg
   width="39"
   height="48"
   viewBox="0 0 10.318748 12.7"
   version="1.1"
   id="svg5"
   sodipodi:docname="N.svg"
   inkscape:version="1.1.1 (3bf5ae0d25, 2021-09-20)"
   xmlns:inkscape="http://www.inkscape.org/namespaces/inkscape"
   xmlns:sodipodi="http://sodipodi.sourceforge.net/DTD/sodipodi-0.dtd"
   xmlns="http://www.w3.org/2000/svg"
   xmlns:svg="http://www.w3.org/2000/svg">
  <sodipodi:namedview
     id="namedview7"
     pagecolor="#ffffff"
     bordercolor="#666666"
     borderopacity="1.0"
     inkscape:pageshadow="2"
     inkscape:pageopacity="0.0"
     inkscape:pagecheckerboard="0"
     inkscape:document-units="mm"
     showgrid="true"
     units="px"
     showguides="true"
     inkscape:guide-bbox="true"
     inkscape:zoom="11.313709"
     inkscape:cx="11.711456"
     inkscape:cy="5.7010484"
     inkscape:window-width="1889"
     inkscape:window-height="1058"
     inkscape:window-x="31"
     inkscape:window-y="0"
     inkscape:window-maximized="1"
     inkscape:current-layer="layer1">
    <sodipodi:guide
       position="0.26458333,12.43542"
       orientation="0,1"
       id="guide824"
       inkscape:label=""
       inkscape:locked="false"
       inkscape:color="rgb(0,0,255)" />
    <sodipodi:guide
       position="0.26458333,12.435417"
       orientation="-1,0"
       id="guide826"
       inkscape:label=""
       inkscape:locked="false"
       inkscape:color="rgb(0,0,255)" />
    <sodipodi:guide
       position="0.26458333,4.7625"
       orientation="0,1"
       id="guide828"
       inkscape:label=""
       inkscape:locked="false"
       inkscape:color="rgb(0,0,255)" />
    <inkscape:grid
       type="xygrid"
       id="grid906" />
    <sodipodi:guide
       position="0.26458333,2.38125"
       orientation="0,-1"
       id="guide908" />
    <sodipodi:guide
       position="0.26458333,9.7895833"
       orientation="0,-1"
       id="guide910" />
    <sodipodi:guide
       position="0.26458328,7.9375"
       orientation="0,-1"
       id="guide1037" />
  </sodipodi:namedview>
  <defs
     id="defs2" />
  <g
     inkscape:label="Layer 1"
     inkscape:groupmode="layer"
     id="layer1">
    <path
       style="color:#000000;fill:#000000;stroke-linecap:round;stroke-linejoin:round;-inkscape-stroke:none"
       d="m 0.26367188,0 a 0.26464844,0.26464844 0 0 0 0,0.52929687 H 1.8515625 V 7.6738281 H 0.26367188 A 0.2645835,0.2645835 0 0 0 0,7.9375 0.2645835,0.2645835 0 0 0 0.26367188,8.2011719 H 2.1171875 3.96875 a 0.26460996,0.26460996 0 0 0 0,-0.5273438 H 2.3808594 V 0.52929687 h 0.265625 c 0.1968372,10e-9 0.2353504,0.0376217 0.3105469,0.1484375 L 7.9824219,8.0859375 A 0.26460996,0.26460996 0 0 0 8.4667969,7.9375 V 0.52929687 H 10.054688 A 0.2645835,0.2645835 0 0 0 10.318359,0.26367188 0.2645835,0.2645835 0 0 0 10.054688,0 H 8.2011719 6.3496094 a 0.26464844,0.26464844 0 0 0 0,0.52929687 H 7.9375 V 7.0761719 L 3.3945313,0.38085938 C 3.2485573,0.16573979 2.9788134,1.2560465e-8 2.6464844,0 H 2.1171875 Z"
       id="path11028" />
  </g>
</svg>
