<?xml version="1.0" encoding="UTF-8" standalone="no"?>
<!-- Created with Inkscape (http://www.inkscape.org/) -->

<svg
   width="31"
   height="48"
   viewBox="0 0 8.2020829 12.7"
   version="1.1"
   id="svg5"
   sodipodi:docname="n.svg"
   inkscape:version="1.1.1 (3bf5ae0d25, 2021-09-20)"
   xmlns:inkscape="http://www.inkscape.org/namespaces/inkscape"
   xmlns:sodipodi="http://sodipodi.sourceforge.net/DTD/sodipodi-0.dtd"
   xmlns="http://www.w3.org/2000/svg"
   xmlns:svg="http://www.w3.org/2000/svg">
  <sodipodi:namedview
     id="namedview7"
     pagecolor="#ffffff"
     bordercolor="#666666"
     borderopacity="1.0"
     inkscape:pageshadow="2"
     inkscape:pageopacity="0.0"
     inkscape:pagecheckerboard="0"
     inkscape:document-units="px"
     showgrid="true"
     units="px"
     showguides="true"
     inkscape:guide-bbox="true"
     inkscape:zoom="22.627417"
     inkscape:cx="15.976194"
     inkscape:cy="18.672038"
     inkscape:window-width="1889"
     inkscape:window-height="1058"
     inkscape:window-x="31"
     inkscape:window-y="0"
     inkscape:window-maximized="1"
     inkscape:current-layer="layer1">
    <sodipodi:guide
       position="0.26458333,12.43542"
       orientation="0,1"
       id="guide824"
       inkscape:label=""
       inkscape:locked="false"
       inkscape:color="rgb(0,0,255)" />
    <sodipodi:guide
       position="0.26458333,12.435417"
       orientation="-1,0"
       id="guide826"
       inkscape:label=""
       inkscape:locked="false"
       inkscape:color="rgb(0,0,255)" />
    <sodipodi:guide
       position="0.26458333,4.7625"
       orientation="0,1"
       id="guide828"
       inkscape:label=""
       inkscape:locked="false"
       inkscape:color="rgb(0,0,255)" />
    <inkscape:grid
       type="xygrid"
       id="grid906" />
    <sodipodi:guide
       position="0.26458333,2.38125"
       orientation="0,-1"
       id="guide908" />
    <sodipodi:guide
       position="0.26458333,9.7895833"
       orientation="0,-1"
       id="guide910" />
    <sodipodi:guide
       position="0.26458328,7.9375"
       orientation="0,-1"
       id="guide1037" />
  </sodipodi:namedview>
  <defs
     id="defs2" />
  <g
     inkscape:label="Layer 1"
     inkscape:groupmode="layer"
     id="layer1">
    <path
       id="path27301"
       style="color:#000000;fill:#000000;stroke-width:3.77953;stroke-linecap:round;stroke-linejoin:round;-inkscape-stroke:none"
       d="M 0.99609375 10.001953 A 0.99999998 0.99999998 0 0 0 0 10.998047 A 0.99999998 0.99999998 0 0 0 0.99609375 12.003906 L 6.9980469 12.003906 L 6.9980469 29.003906 L 0.99609375 29.003906 A 0.99999998 0.99999998 0 0 0 0 30 A 0.99999998 0.99999998 0 0 0 0.99609375 30.996094 L 13 30.996094 A 0.99999998 0.99999998 0 0 0 14.003906 30 A 0.99999998 0.99999998 0 0 0 13 29.003906 L 8.9980469 29.003906 L 8.9980469 12.003906 L 21.998047 12.003906 C 22.164713 12.003906 22.452057 12.11807 22.669922 12.335938 C 22.887785 12.553801 23.001953 12.833333 23.001953 13 L 23.001953 29.003906 L 17 29.003906 A 0.99999998 0.99999998 0 0 0 15.996094 30 A 0.99999998 0.99999998 0 0 0 17 30.996094 L 23.998047 30.996094 L 30 30.996094 A 0.99999998 0.99999998 0 0 0 30.996094 30 A 0.99999998 0.99999998 0 0 0 30 29.003906 L 25.001953 29.003906 L 25.001953 13 C 25.001953 12.166668 24.612213 11.450103 24.080078 10.917969 C 23.547944 10.385834 22.831381 10.001952 21.998047 10.001953 L 0.99609375 10.001953 z "
       transform="scale(0.26458333)" />
  </g>
</svg>
