<?xml version="1.0" encoding="UTF-8" standalone="no"?>
<!-- Created with Inkscape (http://www.inkscape.org/) -->

<svg
   width="23"
   height="48"
   viewBox="0 0 6.0854163 12.7"
   version="1.1"
   id="svg5"
   sodipodi:docname="r.svg"
   inkscape:version="1.1.1 (3bf5ae0d25, 2021-09-20)"
   xmlns:inkscape="http://www.inkscape.org/namespaces/inkscape"
   xmlns:sodipodi="http://sodipodi.sourceforge.net/DTD/sodipodi-0.dtd"
   xmlns="http://www.w3.org/2000/svg"
   xmlns:svg="http://www.w3.org/2000/svg">
  <sodipodi:namedview
     id="namedview7"
     pagecolor="#ffffff"
     bordercolor="#666666"
     borderopacity="1.0"
     inkscape:pageshadow="2"
     inkscape:pageopacity="0.0"
     inkscape:pagecheckerboard="0"
     inkscape:document-units="px"
     showgrid="true"
     units="px"
     showguides="true"
     inkscape:guide-bbox="true"
     inkscape:zoom="22.627417"
     inkscape:cx="13.810679"
     inkscape:cy="21.146912"
     inkscape:window-width="1889"
     inkscape:window-height="1058"
     inkscape:window-x="31"
     inkscape:window-y="0"
     inkscape:window-maximized="1"
     inkscape:current-layer="layer1">
    <sodipodi:guide
       position="0.26458333,12.43542"
       orientation="0,1"
       id="guide824"
       inkscape:label=""
       inkscape:locked="false"
       inkscape:color="rgb(0,0,255)" />
    <sodipodi:guide
       position="0.26458333,12.435417"
       orientation="-1,0"
       id="guide826"
       inkscape:label=""
       inkscape:locked="false"
       inkscape:color="rgb(0,0,255)" />
    <sodipodi:guide
       position="0.26458333,4.7625"
       orientation="0,1"
       id="guide828"
       inkscape:label=""
       inkscape:locked="false"
       inkscape:color="rgb(0,0,255)" />
    <inkscape:grid
       type="xygrid"
       id="grid906" />
    <sodipodi:guide
       position="0.26458333,2.38125"
       orientation="0,-1"
       id="guide908" />
    <sodipodi:guide
       position="0.26458333,9.7895833"
       orientation="0,-1"
       id="guide910" />
    <sodipodi:guide
       position="0.26458328,7.9375"
       orientation="0,-1"
       id="guide1037" />
  </sodipodi:namedview>
  <defs
     id="defs2" />
  <g
     inkscape:label="Layer 1"
     inkscape:groupmode="layer"
     id="layer1">
    <path
       id="path29957"
       style="color:#000000;fill:#000000;stroke-width:3.77953;stroke-linecap:round;stroke-linejoin:round;-inkscape-stroke:none"
       d="M 0.99609375 10.001953 A 0.99999998 0.99999998 0 0 0 0 10.998047 A 0.99999998 0.99999998 0 0 0 0.99609375 12.003906 L 6.0019531 12.003906 L 6.0019531 29.003906 L 0.99609375 29.003906 A 1.0001 1.0001 0 0 0 0.99609375 30.996094 L 6.9980469 30.996094 L 14.003906 30.996094 A 0.99999998 0.99999998 0 0 0 15 30 A 0.99999998 0.99999998 0 0 0 14.003906 29.003906 L 8.0019531 29.003906 L 8.0019531 12.003906 L 19.886719 12.003906 C 19.889525 12.011191 19.888804 12.01478 19.888672 12.015625 C 19.886952 12.017793 19.885895 12.027116 19.894531 12.070312 C 19.979302 12.494168 19.998047 13.500001 19.998047 15 A 0.99999998 0.99999998 0 0 0 21.001953 15.996094 A 0.99999998 0.99999998 0 0 0 21.998047 15 C 21.998047 13.500001 22.022659 12.503878 21.857422 11.677734 C 21.774806 11.264662 21.631387 10.846231 21.28125 10.496094 C 20.931112 10.145956 20.414713 10.001953 19.998047 10.001953 L 6.9980469 10.001953 L 0.99609375 10.001953 z "
       transform="scale(0.26458333)" />
  </g>
</svg>
