<?xml version="1.0" encoding="UTF-8" standalone="no"?>
<!-- Created with Inkscape (http://www.inkscape.org/) -->

<svg
   width="44"
   height="48"
   viewBox="0 0 11.641665 12.7"
   version="1.1"
   id="svg5"
   sodipodi:docname="w.svg"
   inkscape:version="1.1.1 (3bf5ae0d25, 2021-09-20)"
   xmlns:inkscape="http://www.inkscape.org/namespaces/inkscape"
   xmlns:sodipodi="http://sodipodi.sourceforge.net/DTD/sodipodi-0.dtd"
   xmlns="http://www.w3.org/2000/svg"
   xmlns:svg="http://www.w3.org/2000/svg">
  <sodipodi:namedview
     id="namedview7"
     pagecolor="#ffffff"
     bordercolor="#666666"
     borderopacity="1.0"
     inkscape:pageshadow="2"
     inkscape:pageopacity="0.0"
     inkscape:pagecheckerboard="0"
     inkscape:document-units="px"
     showgrid="true"
     units="px"
     showguides="true"
     inkscape:guide-bbox="true"
     inkscape:zoom="16"
     inkscape:cx="27.90625"
     inkscape:cy="21.84375"
     inkscape:window-width="1889"
     inkscape:window-height="1058"
     inkscape:window-x="31"
     inkscape:window-y="0"
     inkscape:window-maximized="1"
     inkscape:current-layer="layer1">
    <sodipodi:guide
       position="0.26458333,12.43542"
       orientation="0,1"
       id="guide824"
       inkscape:label=""
       inkscape:locked="false"
       inkscape:color="rgb(0,0,255)" />
    <sodipodi:guide
       position="0.26458333,12.435417"
       orientation="-1,0"
       id="guide826"
       inkscape:label=""
       inkscape:locked="false"
       inkscape:color="rgb(0,0,255)" />
    <sodipodi:guide
       position="0.26458333,4.7625"
       orientation="0,1"
       id="guide828"
       inkscape:label=""
       inkscape:locked="false"
       inkscape:color="rgb(0,0,255)" />
    <inkscape:grid
       type="xygrid"
       id="grid906" />
    <sodipodi:guide
       position="0.26458333,2.38125"
       orientation="0,-1"
       id="guide908" />
    <sodipodi:guide
       position="0.26458333,9.7895833"
       orientation="0,-1"
       id="guide910" />
    <sodipodi:guide
       position="0.26458328,7.9375"
       orientation="0,-1"
       id="guide1037" />
  </sodipodi:namedview>
  <defs
     id="defs2" />
  <g
     inkscape:label="Layer 1"
     inkscape:groupmode="layer"
     id="layer1">
    <path
       id="path33032"
       style="color:#000000;fill:#000000;stroke-width:3.77953;stroke-linecap:round;stroke-linejoin:round;-inkscape-stroke:none"
       d="M 0.99609375 10.001953 A 1.0000007 1.0000007 0 0 0 0 10.998047 A 1.0000007 1.0000007 0 0 0 0.99609375 12.003906 L 6.2675781 12.003906 L 12.046875 30.302734 A 1.0001007 1.0001007 0 0 0 13 30.996094 L 17 30.996094 A 1.0001007 1.0001007 0 0 0 17.945312 30.339844 L 22.25 18.279297 L 26.042969 30.302734 A 1.0001007 1.0001007 0 0 0 27.003906 30.996094 L 30.996094 30.996094 A 1.0001007 1.0001007 0 0 0 31.941406 30.347656 L 38.697266 12.003906 L 43 12.003906 A 1.0000007 1.0000007 0 0 0 44.003906 10.998047 A 1.0000007 1.0000007 0 0 0 43 10.001953 L 32 10.001953 A 1.0000007 1.0000007 0 0 0 30.996094 10.998047 A 1.0000007 1.0000007 0 0 0 32 12.003906 L 36.566406 12.003906 L 30.302734 29.003906 L 27.734375 29.003906 L 22.365234 12.003906 L 28 12.003906 A 1.0000007 1.0000007 0 0 0 29.003906 10.998047 A 1.0000007 1.0000007 0 0 0 28 10.001953 L 17 10.001953 A 1.0000007 1.0000007 0 0 0 15.996094 10.998047 A 1.0000007 1.0000007 0 0 0 17 12.003906 L 20.271484 12.003906 L 21.304688 15.283203 A 1.0000007 1.0000007 0 0 0 21.060547 15.664062 L 16.291016 29.003906 L 13.730469 29.003906 L 8.3632812 12.003906 L 13 12.003906 A 1.0000007 1.0000007 0 0 0 14.003906 10.998047 A 1.0000007 1.0000007 0 0 0 13 10.001953 L 0.99609375 10.001953 z "
       transform="scale(0.26458331)" />
  </g>
</svg>
