<?xml version="1.0" encoding="UTF-8" standalone="no"?>
<!-- Created with Inkscape (http://www.inkscape.org/) -->

<svg
   width="56"
   height="48"
   viewBox="0 0 14.816663 12.7"
   version="1.1"
   id="svg5"
   sodipodi:docname="W.svg"
   inkscape:version="1.1.1 (3bf5ae0d25, 2021-09-20)"
   xmlns:inkscape="http://www.inkscape.org/namespaces/inkscape"
   xmlns:sodipodi="http://sodipodi.sourceforge.net/DTD/sodipodi-0.dtd"
   xmlns="http://www.w3.org/2000/svg"
   xmlns:svg="http://www.w3.org/2000/svg">
  <sodipodi:namedview
     id="namedview7"
     pagecolor="#ffffff"
     bordercolor="#666666"
     borderopacity="1.0"
     inkscape:pageshadow="2"
     inkscape:pageopacity="0.0"
     inkscape:pagecheckerboard="0"
     inkscape:document-units="mm"
     showgrid="true"
     units="px"
     showguides="true"
     inkscape:guide-bbox="true"
     inkscape:zoom="11.313709"
     inkscape:cx="25.146485"
     inkscape:cy="20.108349"
     inkscape:window-width="1889"
     inkscape:window-height="1058"
     inkscape:window-x="31"
     inkscape:window-y="0"
     inkscape:window-maximized="1"
     inkscape:current-layer="layer1">
    <sodipodi:guide
       position="0.26458333,12.43542"
       orientation="0,1"
       id="guide824"
       inkscape:label=""
       inkscape:locked="false"
       inkscape:color="rgb(0,0,255)" />
    <sodipodi:guide
       position="0.26458333,12.435417"
       orientation="-1,0"
       id="guide826"
       inkscape:label=""
       inkscape:locked="false"
       inkscape:color="rgb(0,0,255)" />
    <sodipodi:guide
       position="0.26458333,4.7625"
       orientation="0,1"
       id="guide828"
       inkscape:label=""
       inkscape:locked="false"
       inkscape:color="rgb(0,0,255)" />
    <inkscape:grid
       type="xygrid"
       id="grid906" />
    <sodipodi:guide
       position="0.26458333,2.38125"
       orientation="0,-1"
       id="guide908" />
    <sodipodi:guide
       position="0.26458333,9.7895833"
       orientation="0,-1"
       id="guide910" />
    <sodipodi:guide
       position="0.26458328,7.9375"
       orientation="0,-1"
       id="guide1037" />
  </sodipodi:namedview>
  <defs
     id="defs2" />
  <g
     inkscape:label="Layer 1"
     inkscape:groupmode="layer"
     id="layer1">
    <path
       id="path16887"
       style="color:#000000;fill:#000000;stroke-width:3.77953;stroke-linecap:round;stroke-linejoin:round;-inkscape-stroke:none"
       d="M 0.99609375,0 C 0.44685579,0.00214136 0.00214136,0.44685579 0,0.99609375 -0.00216153,1.5483802 0.44380726,1.9978468 0.99609375,2 H 7.2382812 L 14.689453,29.003906 H 8.9980469 C 8.4488088,29.006047 8.0040943,29.450762 8.0019531,30 c 0.00214,0.549238 0.4468557,0.993953 0.9960938,0.996094 h 6.9609371 c 0.02928,0.0013 0.05861,0.0013 0.08789,0 h 4.859375 c 0.03708,0.0021 0.07425,0.0021 0.111328,0 h 4.980469 c 0.553048,0.0032 1.003708,-0.443041 1.005859,-0.996094 -0.0022,-0.553053 -0.452811,-0.999338 -1.005859,-0.996094 H 22.34375 l 5.599609,-18.375 5.701172,18.375 H 30 C 29.450762,29.006047 29.006047,29.450762 29.003906,30 29.006047,30.549238 29.450762,30.993953 30,30.996094 h 8.9375 c 0.03838,0.0022 0.07686,0.0022 0.115234,0 h 6.94336 C 46.54838,30.998255 46.997847,30.552286 47,30 46.997847,29.447714 46.54838,29.001745 45.996094,29.003906 H 40.3125 L 47.763672,2 h 7.238281 C 55.55424,1.9978469 56.000209,1.5483803 55.998047,0.99609375 55.995906,0.44685569 55.551191,0.00214122 55.001953,0 h -15 C 39.449667,-0.00216139 39.0002,0.44380736 38.998047,0.99609375 38.995873,1.5514336 39.446613,2.0021734 40.001953,2 h 5.681641 l -7.44336,27.003906 h -2.5 L 28.978516,7.2128906 28.6875,6.2753906 27.361328,2 h 6.640625 C 34.55424,1.9978469 35.000209,1.5483803 34.998047,0.99609375 34.995906,0.44685569 34.551191,0.00214122 34.001953,0 H 19.998047 C 19.448809,0.00214122 19.004094,0.44685569 19.001953,0.99609375 18.999791,1.5483803 19.44576,1.9978469 19.998047,2 h 5.265625 l 1.621094,5.2207031 -6.628907,21.7832029 h -3.49414 L 9.3105469,2 H 15.996094 C 16.551434,2.0021734 17.002174,1.5514336 17,0.99609375 16.997847,0.44380736 16.54838,-0.00216139 15.996094,0 Z"
       transform="scale(0.26458333)"
       sodipodi:nodetypes="cccccccccccccccccccccccccccccsccccccccccccccccccccccccc" />
  </g>
</svg>
