<?xml version="1.0" encoding="UTF-8" standalone="no"?>
<!-- Created with Inkscape (http://www.inkscape.org/) -->

<svg
   width="31"
   height="48"
   viewBox="0 0 8.2020838 12.7"
   version="1.1"
   id="svg5"
   sodipodi:docname="y.svg"
   inkscape:version="1.1.1 (3bf5ae0d25, 2021-09-20)"
   xmlns:inkscape="http://www.inkscape.org/namespaces/inkscape"
   xmlns:sodipodi="http://sodipodi.sourceforge.net/DTD/sodipodi-0.dtd"
   xmlns="http://www.w3.org/2000/svg"
   xmlns:svg="http://www.w3.org/2000/svg">
  <sodipodi:namedview
     id="namedview7"
     pagecolor="#ffffff"
     bordercolor="#666666"
     borderopacity="1.0"
     inkscape:pageshadow="2"
     inkscape:pageopacity="0.0"
     inkscape:pagecheckerboard="0"
     inkscape:document-units="px"
     showgrid="true"
     units="px"
     showguides="true"
     inkscape:guide-bbox="true"
     inkscape:zoom="16"
     inkscape:cx="13.15625"
     inkscape:cy="19.90625"
     inkscape:window-width="1889"
     inkscape:window-height="1058"
     inkscape:window-x="31"
     inkscape:window-y="0"
     inkscape:window-maximized="1"
     inkscape:current-layer="layer1">
    <sodipodi:guide
       position="0.26458333,12.43542"
       orientation="0,1"
       id="guide824"
       inkscape:label=""
       inkscape:locked="false"
       inkscape:color="rgb(0,0,255)" />
    <sodipodi:guide
       position="0.26458333,12.435417"
       orientation="-1,0"
       id="guide826"
       inkscape:label=""
       inkscape:locked="false"
       inkscape:color="rgb(0,0,255)" />
    <sodipodi:guide
       position="0.26458333,4.7625"
       orientation="0,1"
       id="guide828"
       inkscape:label=""
       inkscape:locked="false"
       inkscape:color="rgb(0,0,255)" />
    <inkscape:grid
       type="xygrid"
       id="grid906" />
    <sodipodi:guide
       position="0.26458333,2.38125"
       orientation="0,-1"
       id="guide908" />
    <sodipodi:guide
       position="0.26458333,9.7895833"
       orientation="0,-1"
       id="guide910" />
    <sodipodi:guide
       position="0.26458328,7.9375"
       orientation="0,-1"
       id="guide1037" />
  </sodipodi:namedview>
  <defs
     id="defs2" />
  <g
     inkscape:label="Layer 1"
     inkscape:groupmode="layer"
     id="layer1">
    <path
       id="path34458"
       style="color:#000000;fill:#000000;stroke-width:3.77953;stroke-linecap:round;stroke-linejoin:round;-inkscape-stroke:none"
       d="M 0.99609375 10.001953 A 1 1 0 0 0 0 10.998047 A 1 1 0 0 0 0.99609375 12.003906 L 6.3828125 12.003906 L 14.880859 29.001953 L 10.378906 38.001953 L 4.0019531 38.001953 A 1 1 0 0 0 2.9960938 38.998047 A 1 1 0 0 0 4.0019531 40.001953 L 10.998047 40.001953 A 1.0001 1.0001 0 0 0 11.892578 39.449219 L 16.861328 29.513672 A 1 1 0 0 0 16.865234 29.507812 A 1 1 0 0 0 16.921875 29.392578 A 1 1 0 0 0 16.925781 29.384766 L 25.619141 12.003906 L 30 12.003906 A 1 1 0 0 0 30.996094 10.998047 A 1 1 0 0 0 30 10.001953 L 17.996094 10.001953 A 1 1 0 0 0 17 10.998047 A 1 1 0 0 0 17.996094 12.003906 L 23.384766 12.003906 L 16.001953 26.763672 L 8.6152344 12.003906 L 14.003906 12.003906 A 1 1 0 0 0 15 10.998047 A 1 1 0 0 0 14.003906 10.001953 L 0.99609375 10.001953 z "
       transform="scale(0.26458334)" />
  </g>
</svg>
