<?xml version="1.0" encoding="UTF-8" standalone="no"?>
<!-- Created with Inkscape (http://www.inkscape.org/) -->

<svg
   width="19"
   height="48"
   viewBox="0 0 5.0270836 12.7"
   version="1.1"
   id="svg5"
   sodipodi:docname="z.svg"
   inkscape:version="1.1.1 (3bf5ae0d25, 2021-09-20)"
   xmlns:inkscape="http://www.inkscape.org/namespaces/inkscape"
   xmlns:sodipodi="http://sodipodi.sourceforge.net/DTD/sodipodi-0.dtd"
   xmlns="http://www.w3.org/2000/svg"
   xmlns:svg="http://www.w3.org/2000/svg">
  <sodipodi:namedview
     id="namedview7"
     pagecolor="#ffffff"
     bordercolor="#666666"
     borderopacity="1.0"
     inkscape:pageshadow="2"
     inkscape:pageopacity="0.0"
     inkscape:pagecheckerboard="0"
     inkscape:document-units="px"
     showgrid="true"
     units="px"
     showguides="true"
     inkscape:guide-bbox="true"
     inkscape:zoom="16"
     inkscape:cx="6.71875"
     inkscape:cy="24.46875"
     inkscape:window-width="1889"
     inkscape:window-height="1058"
     inkscape:window-x="31"
     inkscape:window-y="0"
     inkscape:window-maximized="1"
     inkscape:current-layer="layer1">
    <sodipodi:guide
       position="0.26458333,12.43542"
       orientation="0,1"
       id="guide824"
       inkscape:label=""
       inkscape:locked="false"
       inkscape:color="rgb(0,0,255)" />
    <sodipodi:guide
       position="0.26458333,12.435417"
       orientation="-1,0"
       id="guide826"
       inkscape:label=""
       inkscape:locked="false"
       inkscape:color="rgb(0,0,255)" />
    <sodipodi:guide
       position="0.26458333,4.7625"
       orientation="0,1"
       id="guide828"
       inkscape:label=""
       inkscape:locked="false"
       inkscape:color="rgb(0,0,255)" />
    <inkscape:grid
       type="xygrid"
       id="grid906" />
    <sodipodi:guide
       position="0.26458333,2.38125"
       orientation="0,-1"
       id="guide908" />
    <sodipodi:guide
       position="0.26458333,9.7895833"
       orientation="0,-1"
       id="guide910" />
    <sodipodi:guide
       position="0.26458328,7.9375"
       orientation="0,-1"
       id="guide1037" />
  </sodipodi:namedview>
  <defs
     id="defs2" />
  <g
     inkscape:label="Layer 1"
     inkscape:groupmode="layer"
     id="layer1">
    <path
       style="color:#000000;fill:#000000;stroke-linecap:round;stroke-linejoin:round;-inkscape-stroke:none"
       d="m 0.52929687,2.6464844 c -0.0992187,0 -0.19937433,0.043826 -0.26367187,0.1015625 C 0.20132746,2.8057835 0.16330118,2.8701814 0.13476562,2.9335938 0.07769452,3.0604185 0.05337564,3.1940886 0.03515625,3.3398438 -0.00128253,3.6313541 0,3.9678388 0,4.2324219 a 0.26458335,0.26458335 0 0 0 0.26367188,0.265625 0.26458335,0.26458335 0 0 0 0.26562499,-0.265625 c 0,-0.2645831 0.001543,-0.5885158 0.03125,-0.8261719 0.0133766,-0.1070126 0.0339354,-0.1855202 0.0507813,-0.2304687 H 3.8886719 L 0.06054687,7.7675781 A 0.26460981,0.26460981 0 0 0 0.26367188,8.2011719 H 4.2324219 C 4.3316405,8.2011719 4.4352284,8.1571404 4.5,8.0976563 4.5647716,8.0381721 4.6007189,7.9720205 4.6289062,7.90625 4.685281,7.774709 4.7105539,7.6323587 4.7285156,7.4707031 4.7644391,7.1473921 4.7617187,6.746484 4.7617187,6.3496094 A 0.26458335,0.26458335 0 0 0 4.4980469,6.0859375 0.26458335,0.26458335 0 0 0 4.2324219,6.3496094 c 0,0.3968746 -0.00103,0.7904991 -0.03125,1.0625 -0.013879,0.1249078 -0.037094,0.2136142 -0.054687,0.2617187 H 0.83007813 L 4.4375,3.34375 A 0.26460981,0.26460981 0 0 0 4.4980469,3.1757813 V 2.9101563 A 0.26460981,0.26460981 0 0 0 4.2324219,2.6464844 Z"
       id="path35138" />
  </g>
</svg>
