<?xml version="1.0" encoding="UTF-8" standalone="no"?>
<!-- Created with Inkscape (http://www.inkscape.org/) -->

<svg
   width="41"
   height="42"
   viewBox="0 0 10.847917 11.112508"
   version="1.1"
   id="svg5"
   sodipodi:docname="a.svg"
   inkscape:version="1.1.1 (3bf5ae0d25, 2021-09-20)"
   xmlns:inkscape="http://www.inkscape.org/namespaces/inkscape"
   xmlns:sodipodi="http://sodipodi.sourceforge.net/DTD/sodipodi-0.dtd"
   xmlns="http://www.w3.org/2000/svg"
   xmlns:svg="http://www.w3.org/2000/svg">
  <sodipodi:namedview
     id="namedview7"
     pagecolor="#ffffff"
     bordercolor="#666666"
     borderopacity="1.0"
     inkscape:pageshadow="2"
     inkscape:pageopacity="0.0"
     inkscape:pagecheckerboard="0"
     inkscape:document-units="mm"
     showgrid="false"
     units="px"
     width="24px"
     showguides="true"
     inkscape:guide-bbox="true"
     inkscape:zoom="11.313708"
     inkscape:cx="18.870912"
     inkscape:cy="27.179417"
     inkscape:window-width="1889"
     inkscape:window-height="1058"
     inkscape:window-x="31"
     inkscape:window-y="0"
     inkscape:window-maximized="1"
     inkscape:current-layer="layer1">
    <sodipodi:guide
       position="0.26458341,10.847923"
       orientation="0,1"
       id="guide900"
       inkscape:label=""
       inkscape:locked="false"
       inkscape:color="rgb(0,0,255)" />
    <sodipodi:guide
       position="0,8.9958334"
       orientation="0,1"
       id="guide902"
       inkscape:label=""
       inkscape:locked="false"
       inkscape:color="rgb(0,0,255)" />
    <sodipodi:guide
       position="11.573495,12.352159"
       orientation="0,-1"
       id="guide904" />
    <sodipodi:guide
       position="0.26458342,10.84792"
       orientation="0.96592583,0.25881905"
       id="guide906"
       inkscape:label=""
       inkscape:locked="false"
       inkscape:color="rgb(0,0,255)" />
    <sodipodi:guide
       position="3.70417,16.66875"
       orientation="0.70710678,0.70710678"
       id="guide908"
       inkscape:label=""
       inkscape:locked="false"
       inkscape:color="rgb(0,0,255)" />
    <sodipodi:guide
       position="8.4666728,10.84792"
       orientation="0.96592583,0.25881905"
       id="guide1534"
       inkscape:label=""
       inkscape:locked="false"
       inkscape:color="rgb(0,0,255)" />
    <sodipodi:guide
       position="1.5875005,10.84792"
       orientation="0.96592583,0.25881905"
       id="guide3052"
       inkscape:label=""
       inkscape:locked="false"
       inkscape:color="rgb(0,0,255)" />
    <sodipodi:guide
       position="9.789583,10.847927"
       orientation="0.96592583,0.25881905"
       id="guide3260"
       inkscape:label=""
       inkscape:locked="false"
       inkscape:color="rgb(0,0,255)" />
    <sodipodi:guide
       position="10.054173,10.84792"
       orientation="0.96592583,0.25881905"
       id="guide3490"
       inkscape:label=""
       inkscape:locked="false"
       inkscape:color="rgb(0,0,255)" />
    <sodipodi:guide
       position="12.700004,3.175001"
       orientation="0.96592583,0.25881905"
       id="guide4438"
       inkscape:label=""
       inkscape:locked="false"
       inkscape:color="rgb(0,0,255)" />
    <sodipodi:guide
       position="5.0270848,10.84792"
       orientation="0.96592583,0.25881905"
       id="guide6657"
       inkscape:label=""
       inkscape:locked="false"
       inkscape:color="rgb(0,0,255)" />
    <sodipodi:guide
       position="5.5562516,10.84792"
       orientation="0.96592583,0.25881905"
       id="guide6751"
       inkscape:label=""
       inkscape:locked="false"
       inkscape:color="rgb(0,0,255)" />
    <sodipodi:guide
       position="13.493754,10.84792"
       orientation="0.96592583,0.25881905"
       id="guide8066"
       inkscape:label=""
       inkscape:locked="false"
       inkscape:color="rgb(0,0,255)" />
    <sodipodi:guide
       position="0,1.8520841"
       orientation="0,1"
       id="guide10712"
       inkscape:label=""
       inkscape:locked="false"
       inkscape:color="rgb(0,0,255)" />
    <sodipodi:guide
       position="3.0986563,7.1437528"
       orientation="0,1"
       id="guide11902"
       inkscape:label=""
       inkscape:locked="false"
       inkscape:color="rgb(0,0,255)" />
    <sodipodi:guide
       position="10.318754,10.847921"
       orientation="0.96592583,0.25881905"
       id="guide12888"
       inkscape:label=""
       inkscape:locked="false"
       inkscape:color="rgb(0,0,255)" />
    <sodipodi:guide
       position="15.875006,10.847921"
       orientation="0.96592583,0.25881905"
       id="guide18920"
       inkscape:label=""
       inkscape:locked="false"
       inkscape:color="rgb(0,0,255)" />
    <sodipodi:guide
       position="6.0854182,10.847919"
       orientation="0.96592583,0.25881905"
       id="guide20231"
       inkscape:label=""
       inkscape:locked="false"
       inkscape:color="rgb(0,0,255)" />
    <sodipodi:guide
       position="0,7.4083355"
       orientation="0,1"
       id="guide21176"
       inkscape:label=""
       inkscape:locked="false"
       inkscape:color="rgb(0,0,255)" />
    <sodipodi:guide
       position="11.64167,10.84792"
       orientation="0.96592583,0.25881905"
       id="guide21230"
       inkscape:label=""
       inkscape:locked="false"
       inkscape:color="rgb(0,0,255)" />
    <sodipodi:guide
       position="9.5250022,1.8520838"
       orientation="0.96592583,0.25881905"
       id="guide21635"
       inkscape:label=""
       inkscape:locked="false"
       inkscape:color="rgb(0,0,255)" />
    <sodipodi:guide
       position="7.408335,5.8208347"
       orientation="0,1"
       id="guide22865"
       inkscape:label=""
       inkscape:locked="false"
       inkscape:color="rgb(0,0,255)" />
  </sodipodi:namedview>
  <defs
     id="defs2" />
  <g
     inkscape:label="Layer 1"
     inkscape:groupmode="layer"
     id="layer1">
    <path
       id="path21750"
       style="color:#000000;fill:#000000;stroke-width:3.77953;stroke-linecap:round;stroke-linejoin:round;-inkscape-stroke:none"
       d="M 7.7871094 11.220703 A 1.0001006 1.0001006 0 0 0 7.1152344 11.478516 L 4.0742188 14.261719 A 1.0001006 1.0001006 0 0 0 3.7871094 15.257812 L 4.3554688 17.392578 A 1.0000006 1.0000006 0 0 0 5.5800781 18.099609 A 1.0000006 1.0000006 0 0 0 6.2890625 16.875 L 5.8769531 15.324219 L 8.1796875 13.220703 L 9.0058594 13.220703 L 23.689453 13.220703 L 30.40625 17.990234 L 30.677734 19.001953 L 11.087891 19.001953 C 9.3646653 19.001953 7.900045 19.63998 7.0429688 20.802734 C 6.1858928 21.965489 6.0014465 23.536688 6.4375 25.164062 C 6.9522078 27.084979 8.5181836 28.443633 10.001953 29.386719 C 10.743838 29.858262 11.482491 30.217124 12.113281 30.472656 C 12.744072 30.728188 13.153897 30.908203 13.744141 30.908203 L 28.744141 30.908203 A 1.0001006 1.0001006 0 0 0 29.482422 30.576172 L 32.802734 26.933594 L 33.667969 30.162109 A 1.0001006 1.0001006 0 0 0 34.636719 30.908203 L 39.744141 30.908203 A 1.0000006 1.0000006 0 0 0 40.748047 29.904297 A 1.0000006 1.0000006 0 0 0 39.744141 28.908203 L 35.404297 28.908203 L 34.273438 24.693359 A 1.0000006 1.0000006 0 0 0 34.255859 24.623047 L 32.958984 19.791016 A 1.0000006 1.0000006 0 0 0 32.947266 19.748047 L 32.244141 17.126953 A 1.0001006 1.0001006 0 0 0 31.859375 16.572266 L 24.582031 11.404297 A 1.0001006 1.0001006 0 0 0 24.005859 11.220703 L 9.0058594 11.220703 L 7.7871094 11.220703 z M 11.087891 21.001953 L 31.212891 21.001953 L 32.1875 24.638672 L 28.302734 28.908203 L 13.744141 28.908203 C 13.88472 28.908203 13.382628 28.827944 12.867188 28.619141 C 12.351748 28.410338 11.709285 28.09719 11.080078 27.697266 C 9.8216644 26.897416 8.6678022 25.755769 8.3710938 24.648438 C 8.0500335 23.450225 8.2226134 22.565417 8.6523438 21.982422 C 9.0820741 21.399427 9.8294383 21.001953 11.087891 21.001953 z "
       transform="scale(0.26458333)" />
  </g>
</svg>
