<?xml version="1.0" encoding="UTF-8" standalone="no"?>
<!-- Created with Inkscape (http://www.inkscape.org/) -->

<svg
   width="46"
   height="42"
   viewBox="0 0 12.170832 11.112508"
   version="1.1"
   id="svg5"
   sodipodi:docname="B.svg"
   inkscape:version="1.1.1 (3bf5ae0d25, 2021-09-20)"
   xmlns:inkscape="http://www.inkscape.org/namespaces/inkscape"
   xmlns:sodipodi="http://sodipodi.sourceforge.net/DTD/sodipodi-0.dtd"
   xmlns="http://www.w3.org/2000/svg"
   xmlns:svg="http://www.w3.org/2000/svg">
  <sodipodi:namedview
     id="namedview7"
     pagecolor="#ffffff"
     bordercolor="#666666"
     borderopacity="1.0"
     inkscape:pageshadow="2"
     inkscape:pageopacity="0.0"
     inkscape:pagecheckerboard="0"
     inkscape:document-units="mm"
     showgrid="false"
     units="px"
     width="24px"
     showguides="true"
     inkscape:guide-bbox="true"
     inkscape:zoom="8.7786791"
     inkscape:cx="28.30722"
     inkscape:cy="11.334279"
     inkscape:window-width="1889"
     inkscape:window-height="1058"
     inkscape:window-x="31"
     inkscape:window-y="0"
     inkscape:window-maximized="1"
     inkscape:current-layer="layer1">
    <sodipodi:guide
       position="0,16.66875"
       orientation="0,1"
       id="guide900"
       inkscape:label=""
       inkscape:locked="false"
       inkscape:color="rgb(0,0,255)" />
    <sodipodi:guide
       position="0,8.9958334"
       orientation="0,1"
       id="guide902"
       inkscape:label=""
       inkscape:locked="false"
       inkscape:color="rgb(0,0,255)" />
    <sodipodi:guide
       position="11.573495,12.352159"
       orientation="0,-1"
       id="guide904" />
    <sodipodi:guide
       position="0.26458342,10.84792"
       orientation="0.96592583,0.25881905"
       id="guide906"
       inkscape:label=""
       inkscape:locked="false"
       inkscape:color="rgb(0,0,255)" />
    <sodipodi:guide
       position="3.70417,16.66875"
       orientation="0.70710678,0.70710678"
       id="guide908"
       inkscape:label=""
       inkscape:locked="false"
       inkscape:color="rgb(0,0,255)" />
    <sodipodi:guide
       position="0,7.1437524"
       orientation="0,1"
       id="guide1510"
       inkscape:label=""
       inkscape:locked="false"
       inkscape:color="rgb(0,0,255)" />
    <sodipodi:guide
       position="8.4666728,10.84792"
       orientation="0.96592583,0.25881905"
       id="guide1534"
       inkscape:label=""
       inkscape:locked="false"
       inkscape:color="rgb(0,0,255)" />
  </sodipodi:namedview>
  <defs
     id="defs2" />
  <g
     inkscape:label="Layer 1"
     inkscape:groupmode="layer"
     id="layer1">
    <path
       style="color:#000000;fill:#000000;stroke-linecap:round;stroke-linejoin:round;-inkscape-stroke:none"
       d="M 0.26367188,0 A 0.2645835,0.2645835 0 0 0 0.23046875,0.01367188 0.2645835,0.2645835 0 0 0 0.1953125,0.00976563 0.2645835,0.2645835 0 0 0 0.18164062,0.03515625 0.2645835,0.2645835 0 0 0 0,0.26367188 0.2645835,0.2645835 0 0 0 0.02148438,0.31445313 0.2645835,0.2645835 0 0 0 0.00976563,0.33398438 L 2.0644531,8.0058594 a 0.26460996,0.26460996 0 0 0 0.2558594,0.1953125 h 8.2031255 c 0.592787,0 1.032433,-0.497983 1.289062,-1.0449219 0.256629,-0.5469389 0.366131,-1.1959482 0.08008,-1.6914063 C 11.656446,5.0558515 11.280057,4.6324805 10.851563,4.296875 10.557135,4.0662739 10.222049,3.989124 9.8945313,3.890625 10.155282,3.7251552 10.468027,3.6310621 10.599609,3.3339844 10.812288,2.8538139 10.86548,2.2620493 10.587891,1.78125 10.365489,1.3960391 10.040435,0.97086562 9.6757813,0.62695312 9.311128,0.28304063 8.9129875,0 8.4667969,0 Z M 0.609375,0.52929687 h 7.8574219 c 0.1882706,0 0.5271345,0.18197282 0.8457031,0.48242183 0.3185686,0.3004491 0.6219627,0.6983701 0.816406,1.0351563 0.162131,0.2808185 0.144295,0.71562 -0.01367,1.0722656 C 9.957268,3.4757863 9.686361,3.7050781 9.4589844,3.7050781 H 1.4609375 Z M 1.6015625,4.2324219 h 7.8574219 c 0.2813023,0 0.6918526,0.1871112 1.0664066,0.4804687 0.374553,0.2933576 0.716373,0.6853199 0.908203,1.0175781 0.139007,0.2407673 0.104468,0.7620698 -0.101563,1.2011719 C 11.126,7.3707427 10.785114,7.6738281 10.523438,7.6738281 H 2.5234375 Z"
       id="path1581" />
  </g>
</svg>
