<?xml version="1.0" encoding="UTF-8" standalone="no"?>
<!-- Created with Inkscape (http://www.inkscape.org/) -->

<svg
   width="46"
   height="42"
   viewBox="0 0 12.170832 11.112508"
   version="1.1"
   id="svg5"
   sodipodi:docname="C.svg"
   inkscape:version="1.1.1 (3bf5ae0d25, 2021-09-20)"
   xmlns:inkscape="http://www.inkscape.org/namespaces/inkscape"
   xmlns:sodipodi="http://sodipodi.sourceforge.net/DTD/sodipodi-0.dtd"
   xmlns="http://www.w3.org/2000/svg"
   xmlns:svg="http://www.w3.org/2000/svg">
  <sodipodi:namedview
     id="namedview7"
     pagecolor="#ffffff"
     bordercolor="#666666"
     borderopacity="1.0"
     inkscape:pageshadow="2"
     inkscape:pageopacity="0.0"
     inkscape:pagecheckerboard="0"
     inkscape:document-units="mm"
     showgrid="false"
     units="px"
     width="24px"
     showguides="true"
     inkscape:guide-bbox="true"
     inkscape:zoom="8.7786791"
     inkscape:cx="34.002838"
     inkscape:cy="17.371634"
     inkscape:window-width="1889"
     inkscape:window-height="1058"
     inkscape:window-x="31"
     inkscape:window-y="0"
     inkscape:window-maximized="1"
     inkscape:current-layer="layer1">
    <sodipodi:guide
       position="0.26458341,10.847923"
       orientation="0,1"
       id="guide900"
       inkscape:label=""
       inkscape:locked="false"
       inkscape:color="rgb(0,0,255)" />
    <sodipodi:guide
       position="0,8.9958334"
       orientation="0,1"
       id="guide902"
       inkscape:label=""
       inkscape:locked="false"
       inkscape:color="rgb(0,0,255)" />
    <sodipodi:guide
       position="11.573495,12.352159"
       orientation="0,-1"
       id="guide904" />
    <sodipodi:guide
       position="0.26458342,10.84792"
       orientation="0.96592583,0.25881905"
       id="guide906"
       inkscape:label=""
       inkscape:locked="false"
       inkscape:color="rgb(0,0,255)" />
    <sodipodi:guide
       position="3.70417,16.66875"
       orientation="0.70710678,0.70710678"
       id="guide908"
       inkscape:label=""
       inkscape:locked="false"
       inkscape:color="rgb(0,0,255)" />
    <sodipodi:guide
       position="0,7.1437524"
       orientation="0,1"
       id="guide1510"
       inkscape:label=""
       inkscape:locked="false"
       inkscape:color="rgb(0,0,255)" />
    <sodipodi:guide
       position="8.4666728,10.84792"
       orientation="0.96592583,0.25881905"
       id="guide1534"
       inkscape:label=""
       inkscape:locked="false"
       inkscape:color="rgb(0,0,255)" />
    <sodipodi:guide
       position="1.5875005,10.84792"
       orientation="0.96592583,0.25881905"
       id="guide3052"
       inkscape:label=""
       inkscape:locked="false"
       inkscape:color="rgb(0,0,255)" />
    <sodipodi:guide
       position="9.789583,10.847927"
       orientation="0.96592583,0.25881905"
       id="guide3260"
       inkscape:label=""
       inkscape:locked="false"
       inkscape:color="rgb(0,0,255)" />
    <sodipodi:guide
       position="10.054173,10.84792"
       orientation="0.96592583,0.25881905"
       id="guide3490"
       inkscape:label=""
       inkscape:locked="false"
       inkscape:color="rgb(0,0,255)" />
  </sodipodi:namedview>
  <defs
     id="defs2" />
  <g
     inkscape:label="Layer 1"
     inkscape:groupmode="layer"
     id="layer1">
    <path
       style="color:#000000;fill:#000000;stroke-linecap:round;stroke-linejoin:round;-inkscape-stroke:none"
       d="M 1.5878906,0 A 0.26460981,0.26460981 0 0 0 1.3671875,0.1171875 l -0.9453125,1.40625 a 0.26460981,0.26460981 0 0 0 -0.0351563,0.2167969 l 1.22070315,4.5625 a 0.26460981,0.26460981 0 0 0 0.074219,0.1210937 l 1.7792969,1.7050782 a 0.26460981,0.26460981 0 0 0 0.1816406,0.072266 H 10.875 a 0.26460981,0.26460981 0 0 0 0.236328,-0.1464844 l 0.800781,-1.6210938 a 0.26460981,0.26460981 0 0 0 0.01953,-0.1855468 l -0.31836,-1.1894532 a 0.26458335,0.26458335 0 0 0 -0.324218,-0.1875 0.26458335,0.26458335 0 0 0 -0.1875,0.3242188 l 0.292968,1.09375 -0.683593,1.3847656 H 3.75 L 2.0996094,6.09375 0.92773438,1.71875 1.7285156,0.52929687 H 8.3925781 L 9.8164063,1.3886719 10.123047,2.5332031 a 0.26458335,0.26458335 0 0 0 0.324219,0.1875 0.26458335,0.26458335 0 0 0 0.1875,-0.3242187 L 10.300781,1.1484375 A 0.26460981,0.26460981 0 0 0 10.181641,0.99023438 L 8.6035156,0.03710937 A 0.26460981,0.26460981 0 0 0 8.4667969,0 Z"
       id="path3087" />
  </g>
</svg>
