<?xml version="1.0" encoding="UTF-8" standalone="no"?>
<!-- Created with Inkscape (http://www.inkscape.org/) -->

<svg
   width="45"
   height="42"
   viewBox="0 0 11.906249 11.112508"
   version="1.1"
   id="svg5"
   sodipodi:docname="G.svg"
   inkscape:version="1.1.1 (3bf5ae0d25, 2021-09-20)"
   xmlns:inkscape="http://www.inkscape.org/namespaces/inkscape"
   xmlns:sodipodi="http://sodipodi.sourceforge.net/DTD/sodipodi-0.dtd"
   xmlns="http://www.w3.org/2000/svg"
   xmlns:svg="http://www.w3.org/2000/svg">
  <sodipodi:namedview
     id="namedview7"
     pagecolor="#ffffff"
     bordercolor="#666666"
     borderopacity="1.0"
     inkscape:pageshadow="2"
     inkscape:pageopacity="0.0"
     inkscape:pagecheckerboard="0"
     inkscape:document-units="mm"
     showgrid="false"
     units="px"
     width="24px"
     showguides="true"
     inkscape:guide-bbox="true"
     inkscape:zoom="12.414927"
     inkscape:cx="32.702568"
     inkscape:cy="10.108799"
     inkscape:window-width="1889"
     inkscape:window-height="1058"
     inkscape:window-x="31"
     inkscape:window-y="0"
     inkscape:window-maximized="1"
     inkscape:current-layer="layer1">
    <sodipodi:guide
       position="0.26458341,10.847923"
       orientation="0,1"
       id="guide900"
       inkscape:label=""
       inkscape:locked="false"
       inkscape:color="rgb(0,0,255)" />
    <sodipodi:guide
       position="0,8.9958334"
       orientation="0,1"
       id="guide902"
       inkscape:label=""
       inkscape:locked="false"
       inkscape:color="rgb(0,0,255)" />
    <sodipodi:guide
       position="11.573495,12.352159"
       orientation="0,-1"
       id="guide904" />
    <sodipodi:guide
       position="0.26458342,10.84792"
       orientation="0.96592583,0.25881905"
       id="guide906"
       inkscape:label=""
       inkscape:locked="false"
       inkscape:color="rgb(0,0,255)" />
    <sodipodi:guide
       position="3.70417,16.66875"
       orientation="0.70710678,0.70710678"
       id="guide908"
       inkscape:label=""
       inkscape:locked="false"
       inkscape:color="rgb(0,0,255)" />
    <sodipodi:guide
       position="0,7.1437524"
       orientation="0,1"
       id="guide1510"
       inkscape:label=""
       inkscape:locked="false"
       inkscape:color="rgb(0,0,255)" />
    <sodipodi:guide
       position="8.4666728,10.84792"
       orientation="0.96592583,0.25881905"
       id="guide1534"
       inkscape:label=""
       inkscape:locked="false"
       inkscape:color="rgb(0,0,255)" />
    <sodipodi:guide
       position="1.5875005,10.84792"
       orientation="0.96592583,0.25881905"
       id="guide3052"
       inkscape:label=""
       inkscape:locked="false"
       inkscape:color="rgb(0,0,255)" />
    <sodipodi:guide
       position="9.789583,10.847927"
       orientation="0.96592583,0.25881905"
       id="guide3260"
       inkscape:label=""
       inkscape:locked="false"
       inkscape:color="rgb(0,0,255)" />
    <sodipodi:guide
       position="10.054173,10.84792"
       orientation="0.96592583,0.25881905"
       id="guide3490"
       inkscape:label=""
       inkscape:locked="false"
       inkscape:color="rgb(0,0,255)" />
    <sodipodi:guide
       position="12.700004,3.175001"
       orientation="0.96592583,0.25881905"
       id="guide4438"
       inkscape:label=""
       inkscape:locked="false"
       inkscape:color="rgb(0,0,255)" />
  </sodipodi:namedview>
  <defs
     id="defs2" />
  <g
     inkscape:label="Layer 1"
     inkscape:groupmode="layer"
     id="layer1">
    <path
       style="color:#000000;fill:#000000;stroke-linecap:round;stroke-linejoin:round;-inkscape-stroke:none"
       d="M 1.5878906,0 A 0.26460981,0.26460981 0 0 0 1.3710937,0.11132812 L 0.41015625,1.4628906 A 0.26460981,0.26460981 0 0 0 0.37109375,1.6835937 L 1.5957031,6.2578125 a 0.26460981,0.26460981 0 0 0 0.072266,0.1191406 l 1.7910157,1.75 a 0.26460981,0.26460981 0 0 0 0.1835937,0.074219 h 6.8808595 a 0.26460981,0.26460981 0 0 0 0.216796,-0.1132813 l 1.146485,-1.6464844 a 0.26460981,0.26460981 0 0 0 0.03711,-0.2207031 L 11.466797,4.5117187 A 0.26460981,0.26460981 0 0 0 11.210938,4.3164062 H 5.6855469 A 0.26458335,0.26458335 0 0 0 5.421875,4.5820312 0.26458335,0.26458335 0 0 0 5.6855469,4.8457031 h 5.3222661 l 0.373046,1.3945313 -0.996093,1.4335937 H 3.7519531 L 2.0878906,6.0488281 0.9140625,1.6679687 1.7246094,0.52929687 H 8.3710938 L 9.9375,1.8398437 10.240234,2.96875 a 0.26458335,0.26458335 0 0 0 0.324219,0.1875 0.26458335,0.26458335 0 0 0 0.1875,-0.3242187 L 10.427734,1.6230469 A 0.26460981,0.26460981 0 0 0 10.341797,1.4882812 L 8.6367188,0.0625 A 0.26460981,0.26460981 0 0 0 8.4667969,0 Z"
       id="path5408" />
  </g>
</svg>
