<?xml version="1.0" encoding="UTF-8" standalone="no"?>
<!-- Created with Inkscape (http://www.inkscape.org/) -->

<svg
   width="48"
   height="42"
   viewBox="0 0 12.699998 11.112508"
   version="1.1"
   id="svg5"
   sodipodi:docname="Q.svg"
   inkscape:version="1.1.1 (3bf5ae0d25, 2021-09-20)"
   xmlns:inkscape="http://www.inkscape.org/namespaces/inkscape"
   xmlns:sodipodi="http://sodipodi.sourceforge.net/DTD/sodipodi-0.dtd"
   xmlns="http://www.w3.org/2000/svg"
   xmlns:svg="http://www.w3.org/2000/svg">
  <sodipodi:namedview
     id="namedview7"
     pagecolor="#ffffff"
     bordercolor="#666666"
     borderopacity="1.0"
     inkscape:pageshadow="2"
     inkscape:pageopacity="0.0"
     inkscape:pagecheckerboard="0"
     inkscape:document-units="mm"
     showgrid="false"
     units="px"
     width="24px"
     showguides="true"
     inkscape:guide-bbox="true"
     inkscape:zoom="11.313709"
     inkscape:cx="17.36831"
     inkscape:cy="10.827573"
     inkscape:window-width="1889"
     inkscape:window-height="1058"
     inkscape:window-x="31"
     inkscape:window-y="0"
     inkscape:window-maximized="1"
     inkscape:current-layer="layer1">
    <sodipodi:guide
       position="0.26458341,10.847923"
       orientation="0,1"
       id="guide900"
       inkscape:label=""
       inkscape:locked="false"
       inkscape:color="rgb(0,0,255)" />
    <sodipodi:guide
       position="0,8.9958334"
       orientation="0,1"
       id="guide902"
       inkscape:label=""
       inkscape:locked="false"
       inkscape:color="rgb(0,0,255)" />
    <sodipodi:guide
       position="11.573495,12.352159"
       orientation="0,-1"
       id="guide904" />
    <sodipodi:guide
       position="0.26458342,10.84792"
       orientation="0.96592583,0.25881905"
       id="guide906"
       inkscape:label=""
       inkscape:locked="false"
       inkscape:color="rgb(0,0,255)" />
    <sodipodi:guide
       position="3.70417,16.66875"
       orientation="0.70710678,0.70710678"
       id="guide908"
       inkscape:label=""
       inkscape:locked="false"
       inkscape:color="rgb(0,0,255)" />
    <sodipodi:guide
       position="8.4666728,10.84792"
       orientation="0.96592583,0.25881905"
       id="guide1534"
       inkscape:label=""
       inkscape:locked="false"
       inkscape:color="rgb(0,0,255)" />
    <sodipodi:guide
       position="1.5875005,10.84792"
       orientation="0.96592583,0.25881905"
       id="guide3052"
       inkscape:label=""
       inkscape:locked="false"
       inkscape:color="rgb(0,0,255)" />
    <sodipodi:guide
       position="9.789583,10.847927"
       orientation="0.96592583,0.25881905"
       id="guide3260"
       inkscape:label=""
       inkscape:locked="false"
       inkscape:color="rgb(0,0,255)" />
    <sodipodi:guide
       position="10.054173,10.84792"
       orientation="0.96592583,0.25881905"
       id="guide3490"
       inkscape:label=""
       inkscape:locked="false"
       inkscape:color="rgb(0,0,255)" />
    <sodipodi:guide
       position="12.700004,3.175001"
       orientation="0.96592583,0.25881905"
       id="guide4438"
       inkscape:label=""
       inkscape:locked="false"
       inkscape:color="rgb(0,0,255)" />
    <sodipodi:guide
       position="5.0270848,10.84792"
       orientation="0.96592583,0.25881905"
       id="guide6657"
       inkscape:label=""
       inkscape:locked="false"
       inkscape:color="rgb(0,0,255)" />
    <sodipodi:guide
       position="5.5562516,10.84792"
       orientation="0.96592583,0.25881905"
       id="guide6751"
       inkscape:label=""
       inkscape:locked="false"
       inkscape:color="rgb(0,0,255)" />
    <sodipodi:guide
       position="13.493754,10.84792"
       orientation="0.96592583,0.25881905"
       id="guide8066"
       inkscape:label=""
       inkscape:locked="false"
       inkscape:color="rgb(0,0,255)" />
    <sodipodi:guide
       position="0,1.8520841"
       orientation="0,1"
       id="guide10712"
       inkscape:label=""
       inkscape:locked="false"
       inkscape:color="rgb(0,0,255)" />
  </sodipodi:namedview>
  <defs
     id="defs2" />
  <g
     inkscape:label="Layer 1"
     inkscape:groupmode="layer"
     id="layer1">
    <path
       id="path10708"
       style="color:#000000;fill:#000000;stroke-width:3.77953;stroke-linecap:round;stroke-linejoin:round;-inkscape-stroke:none"
       d="M 6.0019531 0 A 1.0001006 1.0001006 0 0 0 5.1894531 0.4140625 L 1.5429688 5.4472656 A 1.0001006 1.0001006 0 0 0 1.3808594 6.2890625 L 6.0019531 23.525391 A 1.0001006 1.0001006 0 0 0 6.2597656 23.976562 L 13.066406 30.708984 A 1.0001006 1.0001006 0 0 0 13.767578 30.996094 L 26.001953 30.996094 L 27.142578 35.255859 A 1.0001006 1.0001006 0 0 0 28.109375 36.001953 L 47.111328 36.001953 A 1.0000006 1.0000006 0 0 0 48.107422 34.998047 A 1.0000006 1.0000006 0 0 0 47.111328 34.001953 L 28.878906 34.001953 L 28.074219 30.996094 L 39.773438 30.996094 A 1.0001006 1.0001006 0 0 0 40.636719 30.501953 L 44.046875 24.574219 A 1.0001006 1.0001006 0 0 0 44.150391 23.814453 L 39.722656 7.2929688 A 1.0001006 1.0001006 0 0 0 39.457031 6.8359375 L 32.695312 0.28125 A 1.0001006 1.0001006 0 0 0 32 0 L 6.0019531 0 z M 6.5117188 2 L 31.59375 2 L 37.861328 8.0839844 L 42.113281 23.931641 L 39.191406 29.003906 L 27.541016 29.003906 L 24.818359 18.837891 A 1.0000006 1.0000006 0 0 0 23.591797 18.130859 A 1.0000006 1.0000006 0 0 0 22.884766 19.355469 L 25.46875 29.003906 L 14.1875 29.003906 L 7.8613281 22.744141 L 3.4394531 6.2382812 L 6.5117188 2 z "
       transform="scale(0.26458333)" />
  </g>
</svg>
