<?xml version="1.0" encoding="UTF-8" standalone="no"?>
<!-- Created with Inkscape (http://www.inkscape.org/) -->

<svg
   width="41"
   height="42"
   viewBox="0 0 10.847917 11.112508"
   version="1.1"
   id="svg5"
   sodipodi:docname="R.svg"
   inkscape:version="1.1.1 (3bf5ae0d25, 2021-09-20)"
   xmlns:inkscape="http://www.inkscape.org/namespaces/inkscape"
   xmlns:sodipodi="http://sodipodi.sourceforge.net/DTD/sodipodi-0.dtd"
   xmlns="http://www.w3.org/2000/svg"
   xmlns:svg="http://www.w3.org/2000/svg">
  <sodipodi:namedview
     id="namedview7"
     pagecolor="#ffffff"
     bordercolor="#666666"
     borderopacity="1.0"
     inkscape:pageshadow="2"
     inkscape:pageopacity="0.0"
     inkscape:pagecheckerboard="0"
     inkscape:document-units="mm"
     showgrid="false"
     units="px"
     width="24px"
     showguides="true"
     inkscape:guide-bbox="true"
     inkscape:zoom="16"
     inkscape:cx="18.09375"
     inkscape:cy="17.21875"
     inkscape:window-width="1889"
     inkscape:window-height="1058"
     inkscape:window-x="31"
     inkscape:window-y="0"
     inkscape:window-maximized="1"
     inkscape:current-layer="layer1">
    <sodipodi:guide
       position="0.26458341,10.847923"
       orientation="0,1"
       id="guide900"
       inkscape:label=""
       inkscape:locked="false"
       inkscape:color="rgb(0,0,255)" />
    <sodipodi:guide
       position="0,8.9958334"
       orientation="0,1"
       id="guide902"
       inkscape:label=""
       inkscape:locked="false"
       inkscape:color="rgb(0,0,255)" />
    <sodipodi:guide
       position="11.573495,12.352159"
       orientation="0,-1"
       id="guide904" />
    <sodipodi:guide
       position="0.26458342,10.84792"
       orientation="0.96592583,0.25881905"
       id="guide906"
       inkscape:label=""
       inkscape:locked="false"
       inkscape:color="rgb(0,0,255)" />
    <sodipodi:guide
       position="3.70417,16.66875"
       orientation="0.70710678,0.70710678"
       id="guide908"
       inkscape:label=""
       inkscape:locked="false"
       inkscape:color="rgb(0,0,255)" />
    <sodipodi:guide
       position="8.4666728,10.84792"
       orientation="0.96592583,0.25881905"
       id="guide1534"
       inkscape:label=""
       inkscape:locked="false"
       inkscape:color="rgb(0,0,255)" />
    <sodipodi:guide
       position="1.5875005,10.84792"
       orientation="0.96592583,0.25881905"
       id="guide3052"
       inkscape:label=""
       inkscape:locked="false"
       inkscape:color="rgb(0,0,255)" />
    <sodipodi:guide
       position="9.789583,10.847927"
       orientation="0.96592583,0.25881905"
       id="guide3260"
       inkscape:label=""
       inkscape:locked="false"
       inkscape:color="rgb(0,0,255)" />
    <sodipodi:guide
       position="10.054173,10.84792"
       orientation="0.96592583,0.25881905"
       id="guide3490"
       inkscape:label=""
       inkscape:locked="false"
       inkscape:color="rgb(0,0,255)" />
    <sodipodi:guide
       position="12.700004,3.175001"
       orientation="0.96592583,0.25881905"
       id="guide4438"
       inkscape:label=""
       inkscape:locked="false"
       inkscape:color="rgb(0,0,255)" />
    <sodipodi:guide
       position="5.0270848,10.84792"
       orientation="0.96592583,0.25881905"
       id="guide6657"
       inkscape:label=""
       inkscape:locked="false"
       inkscape:color="rgb(0,0,255)" />
    <sodipodi:guide
       position="5.5562516,10.84792"
       orientation="0.96592583,0.25881905"
       id="guide6751"
       inkscape:label=""
       inkscape:locked="false"
       inkscape:color="rgb(0,0,255)" />
    <sodipodi:guide
       position="13.493754,10.84792"
       orientation="0.96592583,0.25881905"
       id="guide8066"
       inkscape:label=""
       inkscape:locked="false"
       inkscape:color="rgb(0,0,255)" />
    <sodipodi:guide
       position="0,1.8520841"
       orientation="0,1"
       id="guide10712"
       inkscape:label=""
       inkscape:locked="false"
       inkscape:color="rgb(0,0,255)" />
    <sodipodi:guide
       position="3.0986563,7.1437528"
       orientation="0,1"
       id="guide11902"
       inkscape:label=""
       inkscape:locked="false"
       inkscape:color="rgb(0,0,255)" />
  </sodipodi:namedview>
  <defs
     id="defs2" />
  <g
     inkscape:label="Layer 1"
     inkscape:groupmode="layer"
     id="layer1">
    <path
       id="path12017"
       style="color:#000000;fill:#000000;stroke-width:3.77953;stroke-linecap:round;stroke-linejoin:round;-inkscape-stroke:none"
       d="M 0.99609375 0 A 1.0001006 1.0001006 0 0 0 0.037109375 1.2617188 L 7.8027344 30.257812 A 1.0000006 1.0000006 0 0 0 9.0273438 30.966797 A 1.0000006 1.0000006 0 0 0 9.7363281 29.742188 L 6.0527344 15.996094 L 27.505859 15.996094 L 38.984375 30.619141 A 1.0000006 1.0000006 0 0 0 40.386719 30.789062 A 1.0000006 1.0000006 0 0 0 40.556641 29.380859 L 30.056641 15.996094 L 35.75 15.996094 C 36.623917 15.996094 37.082576 15.523999 37.574219 15.015625 C 38.065862 14.507251 38.531623 13.854415 38.939453 13.125 C 39.755117 11.66617 40.419673 9.9148956 39.980469 8.2597656 C 39.377782 5.9885466 37.78263 4.0152297 36.208984 2.546875 C 35.422162 1.8126977 34.632009 1.2124284 33.941406 0.77539062 C 33.596104 0.55687172 33.278827 0.3778808 32.974609 0.24414062 C 32.670392 0.11040049 32.409305 3.7007434e-17 32 0 L 0.99609375 0 z M 2.3027344 2 L 32 2 C 31.863861 2 31.99428 1.9969985 32.169922 2.0742188 C 32.345572 2.151439 32.589295 2.2865119 32.871094 2.4648438 C 33.434691 2.8215076 34.142328 3.3551439 34.841797 4.0078125 C 36.240736 5.3131494 37.603274 7.1056394 38.046875 8.7773438 C 38.228028 9.4600878 37.866692 10.953119 37.197266 12.150391 C 36.862556 12.749026 36.472884 13.277594 36.142578 13.619141 C 35.812272 13.960687 35.479469 14.003906 35.75 14.003906 L 28.128906 14.003906 A 1.0000006 1.0000006 0 0 0 27.888672 14.003906 L 5.5214844 14.003906 L 2.3027344 2 z "
       transform="scale(0.26458333)" />
  </g>
</svg>
