<?xml version="1.0" encoding="UTF-8" standalone="no"?>
<!-- Created with Inkscape (http://www.inkscape.org/) -->

<svg
   width="46"
   height="42"
   viewBox="0 0 12.170832 11.112508"
   version="1.1"
   id="svg5"
   sodipodi:docname="S.svg"
   inkscape:version="1.1.1 (3bf5ae0d25, 2021-09-20)"
   xmlns:inkscape="http://www.inkscape.org/namespaces/inkscape"
   xmlns:sodipodi="http://sodipodi.sourceforge.net/DTD/sodipodi-0.dtd"
   xmlns="http://www.w3.org/2000/svg"
   xmlns:svg="http://www.w3.org/2000/svg">
  <sodipodi:namedview
     id="namedview7"
     pagecolor="#ffffff"
     bordercolor="#666666"
     borderopacity="1.0"
     inkscape:pageshadow="2"
     inkscape:pageopacity="0.0"
     inkscape:pagecheckerboard="0"
     inkscape:document-units="mm"
     showgrid="false"
     units="px"
     width="24px"
     showguides="true"
     inkscape:guide-bbox="true"
     inkscape:zoom="16"
     inkscape:cx="35.09375"
     inkscape:cy="17.09375"
     inkscape:window-width="1889"
     inkscape:window-height="1058"
     inkscape:window-x="31"
     inkscape:window-y="0"
     inkscape:window-maximized="1"
     inkscape:current-layer="layer1">
    <sodipodi:guide
       position="0.26458341,10.847923"
       orientation="0,1"
       id="guide900"
       inkscape:label=""
       inkscape:locked="false"
       inkscape:color="rgb(0,0,255)" />
    <sodipodi:guide
       position="0,8.9958334"
       orientation="0,1"
       id="guide902"
       inkscape:label=""
       inkscape:locked="false"
       inkscape:color="rgb(0,0,255)" />
    <sodipodi:guide
       position="11.573495,12.352159"
       orientation="0,-1"
       id="guide904" />
    <sodipodi:guide
       position="0.26458342,10.84792"
       orientation="0.96592583,0.25881905"
       id="guide906"
       inkscape:label=""
       inkscape:locked="false"
       inkscape:color="rgb(0,0,255)" />
    <sodipodi:guide
       position="3.70417,16.66875"
       orientation="0.70710678,0.70710678"
       id="guide908"
       inkscape:label=""
       inkscape:locked="false"
       inkscape:color="rgb(0,0,255)" />
    <sodipodi:guide
       position="8.4666728,10.84792"
       orientation="0.96592583,0.25881905"
       id="guide1534"
       inkscape:label=""
       inkscape:locked="false"
       inkscape:color="rgb(0,0,255)" />
    <sodipodi:guide
       position="1.5875005,10.84792"
       orientation="0.96592583,0.25881905"
       id="guide3052"
       inkscape:label=""
       inkscape:locked="false"
       inkscape:color="rgb(0,0,255)" />
    <sodipodi:guide
       position="9.789583,10.847927"
       orientation="0.96592583,0.25881905"
       id="guide3260"
       inkscape:label=""
       inkscape:locked="false"
       inkscape:color="rgb(0,0,255)" />
    <sodipodi:guide
       position="10.054173,10.84792"
       orientation="0.96592583,0.25881905"
       id="guide3490"
       inkscape:label=""
       inkscape:locked="false"
       inkscape:color="rgb(0,0,255)" />
    <sodipodi:guide
       position="12.700004,3.175001"
       orientation="0.96592583,0.25881905"
       id="guide4438"
       inkscape:label=""
       inkscape:locked="false"
       inkscape:color="rgb(0,0,255)" />
    <sodipodi:guide
       position="5.0270848,10.84792"
       orientation="0.96592583,0.25881905"
       id="guide6657"
       inkscape:label=""
       inkscape:locked="false"
       inkscape:color="rgb(0,0,255)" />
    <sodipodi:guide
       position="5.5562516,10.84792"
       orientation="0.96592583,0.25881905"
       id="guide6751"
       inkscape:label=""
       inkscape:locked="false"
       inkscape:color="rgb(0,0,255)" />
    <sodipodi:guide
       position="13.493754,10.84792"
       orientation="0.96592583,0.25881905"
       id="guide8066"
       inkscape:label=""
       inkscape:locked="false"
       inkscape:color="rgb(0,0,255)" />
    <sodipodi:guide
       position="0,1.8520841"
       orientation="0,1"
       id="guide10712"
       inkscape:label=""
       inkscape:locked="false"
       inkscape:color="rgb(0,0,255)" />
    <sodipodi:guide
       position="3.0986563,7.1437528"
       orientation="0,1"
       id="guide11902"
       inkscape:label=""
       inkscape:locked="false"
       inkscape:color="rgb(0,0,255)" />
    <sodipodi:guide
       position="10.318754,10.847921"
       orientation="0.96592583,0.25881905"
       id="guide12888"
       inkscape:label=""
       inkscape:locked="false"
       inkscape:color="rgb(0,0,255)" />
  </sodipodi:namedview>
  <defs
     id="defs2" />
  <g
     inkscape:label="Layer 1"
     inkscape:groupmode="layer"
     id="layer1">
    <path
       style="color:#000000;fill:#000000;stroke-linecap:round;stroke-linejoin:round;-inkscape-stroke:none"
       d="M 1.5878906,0 C 1.3622617,0 1.2500331,0.11697635 1.1191406,0.24609375 0.98824813,0.37521115 0.86091335,0.54375362 0.75,0.7421875 0.52817329,1.1390553 0.3649471,1.6610849 0.50390625,2.1796875 0.66221752,2.7705131 1.0376159,3.2689074 1.4316406,3.6289063 1.628653,3.8089057 1.8315849,3.9540531 2.0234375,4.0585937 2.2152901,4.1631344 2.3888525,4.2324219 2.5800781,4.2324219 h 6.8789063 a 0.26460996,0.26460996 0 0 0 0.068359,-0.00781 c -0.055503,0.014872 0.116963,0.00623 0.3046875,0.072266 0.1877247,0.066033 0.4246037,0.1789987 0.6601567,0.3320312 0.471105,0.3060652 0.929205,0.7714425 1.082031,1.3417969 0.132683,0.495182 -0.02187,0.9073206 -0.275391,1.21875 -0.253521,0.3114295 -0.631255,0.484375 -0.77539,0.484375 H 3.7402344 l -1.5742188,-1.3359375 -0.21875,-0.8125 A 0.2645835,0.2645835 0 0 0 1.625,5.3378906 0.2645835,0.2645835 0 0 0 1.4375,5.6621094 L 1.6757812,6.5546875 A 0.26460996,0.26460996 0 0 0 1.7597656,6.6875 l 1.7128907,1.4511719 a 0.26460996,0.26460996 0 0 0 0.1699218,0.0625 h 6.8808599 c 0.417233,0 0.847942,-0.2630151 1.185546,-0.6777344 0.337605,-0.4147193 0.554823,-1.0183473 0.375,-1.6894531 C 11.882882,5.0834582 11.321959,4.5381006 10.779297,4.1855469 10.507966,4.00927 10.240232,3.8805825 10.007813,3.7988281 9.7753927,3.7170738 9.6117329,3.6536452 9.390625,3.7128906 l 0.068359,-0.00781 H 2.5800781 c -0.029094,0 -0.1577127,-0.031241 -0.3046875,-0.1113281 C 2.1284159,3.5136633 1.9570564,3.3917681 1.7890625,3.2382813 1.4530748,2.9313076 1.1380704,2.4999411 1.015625,2.0429688 0.92899639,1.7196664 1.0344136,1.3177701 1.2109375,1.0019531 1.2991995,0.84404462 1.4035383,0.70856721 1.4902344,0.62304687 c 0.086696,-0.0855203 0.1789976,-0.09375 0.097656,-0.09375 h 6.7929688 l 1.8300786,1.34179683 0.199218,0.7460938 a 0.2645835,0.2645835 0 0 0 0.324219,0.1875 0.2645835,0.2645835 0 0 0 0.1875,-0.3242187 L 10.697266,1.6445312 A 0.26460996,0.26460996 0 0 0 10.599609,1.5 L 8.6230469,0.05078125 A 0.26460996,0.26460996 0 0 0 8.4667969,0 Z"
       id="path12923" />
  </g>
</svg>
