<?xml version="1.0" encoding="UTF-8" standalone="no"?>
<!-- Created with Inkscape (http://www.inkscape.org/) -->

<svg
   width="31"
   height="52"
   viewBox="0 0 8.2020829 13.758334"
   version="1.1"
   id="svg5"
   sodipodi:docname="&amp;.svg"
   inkscape:version="1.1.1 (3bf5ae0d25, 2021-09-20)"
   xmlns:inkscape="http://www.inkscape.org/namespaces/inkscape"
   xmlns:sodipodi="http://sodipodi.sourceforge.net/DTD/sodipodi-0.dtd"
   xmlns="http://www.w3.org/2000/svg"
   xmlns:svg="http://www.w3.org/2000/svg">
  <sodipodi:namedview
     id="namedview7"
     pagecolor="#ffffff"
     bordercolor="#666666"
     borderopacity="1.0"
     inkscape:pageshadow="2"
     inkscape:pageopacity="0.0"
     inkscape:pagecheckerboard="0"
     inkscape:document-units="mm"
     showgrid="false"
     showguides="true"
     inkscape:guide-bbox="true"
     units="px"
     inkscape:zoom="11.313709"
     inkscape:cx="11.976621"
     inkscape:cy="31.333669"
     inkscape:window-width="1889"
     inkscape:window-height="1058"
     inkscape:window-x="31"
     inkscape:window-y="0"
     inkscape:window-maximized="1"
     inkscape:current-layer="layer1"
     width="32px">
    <sodipodi:guide
       position="0,3.7041666"
       orientation="0,1"
       id="guide900"
       inkscape:label=""
       inkscape:locked="false"
       inkscape:color="rgb(0,0,255)" />
    <sodipodi:guide
       position="2.7778435,10.585458"
       orientation="0,1"
       id="guide902"
       inkscape:label=""
       inkscape:locked="false"
       inkscape:color="rgb(0,0,255)" />
  </sodipodi:namedview>
  <defs
     id="defs2" />
  <g
     inkscape:label="Layer 1"
     inkscape:groupmode="layer"
     id="layer1">
    <path
       id="path44640"
       style="opacity:1;fill:#000000;stroke:none;stroke-width:0.999999px;stroke-linecap:butt;stroke-linejoin:miter;stroke-opacity:1"
       d="M 20.107422 10.78125 C 19.609961 11.404477 19.209265 11.992187 18.369141 11.992188 L 8.8066406 11.992188 C 7.7039223 11.992187 7.2684442 11.444154 6.6464844 10.960938 L 6.2460938 11.992188 C 7.480219 15.112793 9.3242611 17.863775 11.009766 20.710938 C 11.009766 20.710938 4.3242188 26.447938 4.3242188 31.982422 C 4.3242188 35.062213 7.0863678 38 10.832031 38 C 13.605991 38 18.189453 34.511719 18.189453 34.511719 L 26.429688 50.158203 L 28.392578 50.158203 L 19.775391 32.078125 C 22.107363 28.278031 24.108691 23.838437 28.013672 23.085938 L 26.910156 21.177734 C 26.351765 21.177734 25.704589 21.317564 24.943359 21.986328 C 23.593447 20.798398 21.306032 21.431641 18.832031 21.431641 L 20.945312 25.691406 L 18.333984 30 C 18.333984 30 14.216797 23.494456 14.216797 21.503906 C 14.216797 19.38225 21.941406 11.992188 21.941406 11.992188 L 20.107422 10.78125 z M 10.542969 13.689453 L 16.742188 13.689453 L 13.105469 18.341797 C 11.698256 17.529342 10.542969 15.478578 10.542969 13.689453 z M 12.078125 23.162109 L 16.988281 32.078125 C 15.769003 34.164795 13.886598 36.21875 11.34375 36.21875 C 8.8442282 36.21875 6.7722015 33.883563 6.7148438 31.736328 C 6.6152502 28.007952 9.7470621 24.788673 12.078125 23.162109 z "
       transform="scale(0.26458333)" />
  </g>
</svg>
