<?xml version="1.0" encoding="UTF-8" standalone="no"?>
<!-- Created with Inkscape (http://www.inkscape.org/) -->

<svg
   width="27"
   height="52"
   viewBox="0 0 7.1437497 13.758334"
   version="1.1"
   id="svg5"
   sodipodi:docname="0.svg"
   inkscape:version="1.1.1 (3bf5ae0d25, 2021-09-20)"
   xmlns:inkscape="http://www.inkscape.org/namespaces/inkscape"
   xmlns:sodipodi="http://sodipodi.sourceforge.net/DTD/sodipodi-0.dtd"
   xmlns="http://www.w3.org/2000/svg"
   xmlns:svg="http://www.w3.org/2000/svg">
  <sodipodi:namedview
     id="namedview7"
     pagecolor="#ffffff"
     bordercolor="#666666"
     borderopacity="1.0"
     inkscape:pageshadow="2"
     inkscape:pageopacity="0.0"
     inkscape:pagecheckerboard="0"
     inkscape:document-units="mm"
     showgrid="false"
     showguides="true"
     inkscape:guide-bbox="true"
     units="px"
     inkscape:zoom="22.627417"
     inkscape:cx="5.7231455"
     inkscape:cy="34.272582"
     inkscape:window-width="1889"
     inkscape:window-height="1058"
     inkscape:window-x="31"
     inkscape:window-y="0"
     inkscape:window-maximized="1"
     inkscape:current-layer="layer1"
     width="32px">
    <sodipodi:guide
       position="0,3.7041666"
       orientation="0,1"
       id="guide900"
       inkscape:label=""
       inkscape:locked="false"
       inkscape:color="rgb(0,0,255)" />
    <sodipodi:guide
       position="2.7778435,10.585458"
       orientation="0,1"
       id="guide902"
       inkscape:label=""
       inkscape:locked="false"
       inkscape:color="rgb(0,0,255)" />
    <sodipodi:guide
       position="-0.04960937,8.4666666"
       orientation="0,1"
       id="guide847"
       inkscape:label=""
       inkscape:locked="false"
       inkscape:color="rgb(0,0,255)" />
  </sodipodi:namedview>
  <defs
     id="defs2" />
  <g
     inkscape:label="Layer 1"
     inkscape:groupmode="layer"
     id="layer1">
    <path
       id="path13350"
       style="opacity:1;fill:#000000;stroke:none;stroke-width:2;stroke-linecap:round;stroke-linejoin:round;paint-order:stroke fill markers"
       d="M 13.712891 19.009766 A 8.7026137 9.9768538 0 0 0 5.0097656 28.986328 A 8.7026137 9.9768538 0 0 0 13.712891 38.962891 A 8.7026137 9.9768538 0 0 0 22.416016 28.986328 A 8.7026137 9.9768538 0 0 0 13.712891 19.009766 z M 13.878906 20.919922 A 6.1595513 8.1755096 0 0 1 20.039062 29.095703 A 6.1595513 8.1755096 0 0 1 13.878906 37.271484 A 6.1595513 8.1755096 0 0 1 7.71875 29.095703 A 6.1595513 8.1755096 0 0 1 13.878906 20.919922 z "
       transform="scale(0.26458333)" />
  </g>
</svg>
