<?xml version="1.0" encoding="UTF-8" standalone="no"?>
<!-- Created with Inkscape (http://www.inkscape.org/) -->

<svg
   width="30"
   height="52"
   viewBox="0 0 7.9374994 13.758334"
   version="1.1"
   id="svg5"
   sodipodi:docname="D.svg"
   inkscape:version="1.1.1 (3bf5ae0d25, 2021-09-20)"
   xmlns:inkscape="http://www.inkscape.org/namespaces/inkscape"
   xmlns:sodipodi="http://sodipodi.sourceforge.net/DTD/sodipodi-0.dtd"
   xmlns="http://www.w3.org/2000/svg"
   xmlns:svg="http://www.w3.org/2000/svg">
  <sodipodi:namedview
     id="namedview7"
     pagecolor="#ffffff"
     bordercolor="#666666"
     borderopacity="1.0"
     inkscape:pageshadow="2"
     inkscape:pageopacity="0.0"
     inkscape:pagecheckerboard="0"
     inkscape:document-units="mm"
     showgrid="false"
     showguides="true"
     inkscape:guide-bbox="true"
     units="px"
     inkscape:zoom="16"
     inkscape:cx="7.09375"
     inkscape:cy="29.03125"
     inkscape:window-width="1889"
     inkscape:window-height="1058"
     inkscape:window-x="31"
     inkscape:window-y="0"
     inkscape:window-maximized="1"
     inkscape:current-layer="layer1"
     width="32px">
    <sodipodi:guide
       position="0,3.7041666"
       orientation="0,1"
       id="guide900"
       inkscape:label=""
       inkscape:locked="false"
       inkscape:color="rgb(0,0,255)" />
    <sodipodi:guide
       position="0,10.583333"
       orientation="0,1"
       id="guide902"
       inkscape:label=""
       inkscape:locked="false"
       inkscape:color="rgb(0,0,255)" />
  </sodipodi:namedview>
  <defs
     id="defs2" />
  <g
     inkscape:label="Layer 1"
     inkscape:groupmode="layer"
     id="layer1">
    <path
       id="path3655"
       style="opacity:1;fill:#000000;stroke:none;stroke-width:0.999999px;stroke-linecap:butt;stroke-linejoin:miter;stroke-opacity:1"
       d="m 13.398438,4.3867188 c -6.1915602,0 -9.414063,4.9570312 -9.414063,4.9570312 l 1.4648438,0.6484375 c 0,0 2.1087697,-3.1503906 6.7148432,-3.1503906 8.990245,0 10.962891,7.6284181 10.962891,15.5644531 0,6.263098 -1.917528,13.136719 -8.191406,13.136719 H 10.912109 C 10.14879,29.981507 10.103516,20.924545 10.103516,13.308594 L 9.1660156,12 H 4.4921875 l -0.6894531,1.212891 c 2.6143748,1.443884 2.9490918,3.126256 3.8125,4.34375 L 7.859375,33.060547 C 7.0234062,34.002004 6.4672487,35.46334 4.5429688,36.427734 L 4.5292969,38 h 3.8027343 l 0.3574219,-0.837891 h 9.2499999 c 4.654914,0 8.382813,-7.645076 8.382813,-14.80664 0,-6.508155 -2.068695,-17.9687502 -12.923828,-17.9687502 z M 16.388672,21.871094 C 15.238535,21.900233 14.316406,22.842841 14.316406,24 c 10e-7,1.175526 0.95338,2.126953 2.128906,2.126953 1.175527,0 2.126954,-0.951427 2.126954,-2.126953 0,-1.175526 -0.951427,-2.128906 -2.126954,-2.128906 -0.01837,0 -0.03838,-4.63e-4 -0.05664,0 z"
       transform="scale(0.26458333)" />
  </g>
</svg>
