<?xml version="1.0" encoding="UTF-8" standalone="no"?>
<!-- Created with Inkscape (http://www.inkscape.org/) -->

<svg
   width="31"
   height="52"
   viewBox="0 0 8.2020827 13.758334"
   version="1.1"
   id="svg5"
   sodipodi:docname="E-variant.svg"
   inkscape:version="1.1.1 (3bf5ae0d25, 2021-09-20)"
   xmlns:inkscape="http://www.inkscape.org/namespaces/inkscape"
   xmlns:sodipodi="http://sodipodi.sourceforge.net/DTD/sodipodi-0.dtd"
   xmlns="http://www.w3.org/2000/svg"
   xmlns:svg="http://www.w3.org/2000/svg">
  <sodipodi:namedview
     id="namedview7"
     pagecolor="#ffffff"
     bordercolor="#666666"
     borderopacity="1.0"
     inkscape:pageshadow="2"
     inkscape:pageopacity="0.0"
     inkscape:pagecheckerboard="0"
     inkscape:document-units="mm"
     showgrid="false"
     showguides="true"
     inkscape:guide-bbox="true"
     units="px"
     inkscape:zoom="16"
     inkscape:cx="25.03125"
     inkscape:cy="26.15625"
     inkscape:window-width="1889"
     inkscape:window-height="1058"
     inkscape:window-x="31"
     inkscape:window-y="0"
     inkscape:window-maximized="1"
     inkscape:current-layer="layer1"
     width="32px">
    <sodipodi:guide
       position="0,3.7041666"
       orientation="0,1"
       id="guide900"
       inkscape:label=""
       inkscape:locked="false"
       inkscape:color="rgb(0,0,255)" />
    <sodipodi:guide
       position="0,10.583333"
       orientation="0,1"
       id="guide902"
       inkscape:label=""
       inkscape:locked="false"
       inkscape:color="rgb(0,0,255)" />
  </sodipodi:namedview>
  <defs
     id="defs2" />
  <g
     inkscape:label="Layer 1"
     inkscape:groupmode="layer"
     id="layer1">
    <path
       style="opacity:1;fill:#000000;stroke:none;stroke-width:0.264583px;stroke-linecap:butt;stroke-linejoin:miter;stroke-opacity:1"
       d="M 1.3066945,9.7696233 1.9414432,9.1068262 V 4.4929324 c 0,-0.1339335 -0.248627,-0.7545365 -0.9397121,-0.9397122 V 3.175 h 4.6665016 c 0.1130703,0 0.278795,-0.1162068 0.384688,-0.2220998 L 7.1079735,4.7803053 6.8650957,4.9481015 C 6.5311897,4.5098396 6.2517626,4.2105232 5.7454715,3.9699173 5.566001,3.8846271 5.2019607,3.8167526 4.9022163,3.8167526 H 2.7241539 v 1.8690998 h 2.3756837 c 0.1099163,0 0.2740542,-0.25785 0.350929,-0.5403689 L 6.4121275,6.8301774 6.1144574,7.0056757 C 5.7864827,6.5960835 5.4055597,6.2570828 5.1536097,6.2570828 H 2.6833118 v 2.9647004 c 0.095589,0.1655643 0.468571,0.2474274 0.923412,0.2474274 0.5293274,0 1.6534382,-0.1475478 2.3851056,-0.519702 C 6.4414258,8.7208265 6.6872012,8.3774638 6.9345619,7.8957662 H 7.2042275 L 6.401828,10.054167 H 1.9568174 c -0.194988,0 -0.2412717,0.06888 -0.322718,0.130575"
       id="path7362"
       sodipodi:nodetypes="cccccccccsccccccccccssccccc" />
  </g>
</svg>
