<?xml version="1.0" encoding="UTF-8" standalone="no"?>
<!-- Created with Inkscape (http://www.inkscape.org/) -->

<svg
   width="30"
   height="52"
   viewBox="0 0 7.9374994 13.758334"
   version="1.1"
   id="svg5"
   sodipodi:docname="E.svg"
   inkscape:version="1.1.1 (3bf5ae0d25, 2021-09-20)"
   xmlns:inkscape="http://www.inkscape.org/namespaces/inkscape"
   xmlns:sodipodi="http://sodipodi.sourceforge.net/DTD/sodipodi-0.dtd"
   xmlns="http://www.w3.org/2000/svg"
   xmlns:svg="http://www.w3.org/2000/svg">
  <sodipodi:namedview
     id="namedview7"
     pagecolor="#ffffff"
     bordercolor="#666666"
     borderopacity="1.0"
     inkscape:pageshadow="2"
     inkscape:pageopacity="0.0"
     inkscape:pagecheckerboard="0"
     inkscape:document-units="mm"
     showgrid="false"
     showguides="true"
     inkscape:guide-bbox="true"
     units="px"
     inkscape:zoom="16"
     inkscape:cx="8.96875"
     inkscape:cy="24.28125"
     inkscape:window-width="1889"
     inkscape:window-height="1058"
     inkscape:window-x="31"
     inkscape:window-y="0"
     inkscape:window-maximized="1"
     inkscape:current-layer="layer1"
     width="32px">
    <sodipodi:guide
       position="0,3.7041666"
       orientation="0,1"
       id="guide900"
       inkscape:label=""
       inkscape:locked="false"
       inkscape:color="rgb(0,0,255)" />
    <sodipodi:guide
       position="0,10.583333"
       orientation="0,1"
       id="guide902"
       inkscape:label=""
       inkscape:locked="false"
       inkscape:color="rgb(0,0,255)" />
  </sodipodi:namedview>
  <defs
     id="defs2" />
  <g
     inkscape:label="Layer 1"
     inkscape:groupmode="layer"
     id="layer1">
    <path
       style="opacity:1;fill:#000000;stroke:none;stroke-width:0.264583px;stroke-linecap:butt;stroke-linejoin:miter;stroke-opacity:1"
       d="M 6.3294132,4.7037611 6.5828256,4.5574534 C 6.3185549,4.0609265 5.9995121,3.6613311 5.9367726,2.8081488 L 5.3868608,3.1750001 c 0,0 -0.5538422,-0.2864031 -1.4097148,-0.2864031 -1.9168198,0 -2.8860844,1.6672749 -2.8860844,3.5571376 0,2.630274 1.617989,3.6084324 3.0849068,3.6084324 1.5183115,0 2.4700558,-1.0485065 2.8330599,-1.4986332 V 7.6565692 C 6.4327135,8.5041125 5.4451318,9.4430237 4.3027846,9.4602762 3.0559191,9.4791073 1.8285127,7.8579052 1.8285127,6.6325743 c 1.3745048,0 2.9023578,-0.1579882 3.5562647,0.7478068 l 0.195757,-0.169731 C 5.2070342,6.6497436 4.9596481,6.0614284 4.8355964,5.4463089 L 4.3298795,6.0986606 H 1.8285127 c 0.00759,-1.2528821 0.8927882,-2.5949254 2.5383008,-2.5949254 0.9064567,0 1.4456459,0.6474139 1.9625997,1.2000259 z"
       id="path5480"
       sodipodi:nodetypes="ccccsssccsccccccsc" />
  </g>
</svg>
