<?xml version="1.0" encoding="UTF-8" standalone="no"?>
<!-- Created with Inkscape (http://www.inkscape.org/) -->

<svg
   width="31"
   height="52"
   viewBox="0 0 8.2020829 13.758334"
   version="1.1"
   id="svg5"
   sodipodi:docname="O.svg"
   inkscape:version="1.1.1 (3bf5ae0d25, 2021-09-20)"
   xmlns:inkscape="http://www.inkscape.org/namespaces/inkscape"
   xmlns:sodipodi="http://sodipodi.sourceforge.net/DTD/sodipodi-0.dtd"
   xmlns="http://www.w3.org/2000/svg"
   xmlns:svg="http://www.w3.org/2000/svg">
  <sodipodi:namedview
     id="namedview7"
     pagecolor="#ffffff"
     bordercolor="#666666"
     borderopacity="1.0"
     inkscape:pageshadow="2"
     inkscape:pageopacity="0.0"
     inkscape:pagecheckerboard="0"
     inkscape:document-units="mm"
     showgrid="false"
     showguides="true"
     inkscape:guide-bbox="true"
     units="px"
     inkscape:zoom="16"
     inkscape:cx="13.46875"
     inkscape:cy="34.90625"
     inkscape:window-width="1889"
     inkscape:window-height="1058"
     inkscape:window-x="31"
     inkscape:window-y="0"
     inkscape:window-maximized="1"
     inkscape:current-layer="layer1"
     width="32px">
    <sodipodi:guide
       position="0,3.7041666"
       orientation="0,1"
       id="guide900"
       inkscape:label=""
       inkscape:locked="false"
       inkscape:color="rgb(0,0,255)" />
    <sodipodi:guide
       position="0,10.583333"
       orientation="0,1"
       id="guide902"
       inkscape:label=""
       inkscape:locked="false"
       inkscape:color="rgb(0,0,255)" />
  </sodipodi:namedview>
  <defs
     id="defs2" />
  <g
     inkscape:label="Layer 1"
     inkscape:groupmode="layer"
     id="layer1">
    <path
       id="path23503"
       style="opacity:1;fill:#000000;stroke:none;stroke-width:2;stroke-linecap:round;stroke-linejoin:round;paint-order:stroke fill markers"
       d="M 15.576172 12 A 11.566917 13.871604 0 0 0 4.0097656 25.871094 A 11.566917 13.871604 0 0 0 15.576172 39.744141 A 11.566917 13.871604 0 0 0 27.142578 25.871094 A 11.566917 13.871604 0 0 0 15.576172 12 z M 15.40625 13.890625 A 8.6895204 11.955921 0 0 1 24.095703 25.845703 A 8.6895204 11.955921 0 0 1 15.40625 37.802734 A 8.6895204 11.955921 0 0 1 6.7167969 25.845703 A 8.6895204 11.955921 0 0 1 15.40625 13.890625 z M 15.576172 23.275391 A 2.0683173 2.0683173 0 0 0 13.507812 25.34375 A 2.0683173 2.0683173 0 0 0 15.576172 27.412109 A 2.0683173 2.0683173 0 0 0 17.644531 25.34375 A 2.0683173 2.0683173 0 0 0 15.576172 23.275391 z "
       transform="scale(0.26458333)" />
  </g>
</svg>
