<?xml version="1.0" encoding="UTF-8" standalone="no"?>
<!-- Created with Inkscape (http://www.inkscape.org/) -->

<svg
   width="31"
   height="52"
   viewBox="0 0 8.2020829 13.758334"
   version="1.1"
   id="svg5"
   sodipodi:docname="P.svg"
   inkscape:version="1.1.1 (3bf5ae0d25, 2021-09-20)"
   xmlns:inkscape="http://www.inkscape.org/namespaces/inkscape"
   xmlns:sodipodi="http://sodipodi.sourceforge.net/DTD/sodipodi-0.dtd"
   xmlns="http://www.w3.org/2000/svg"
   xmlns:svg="http://www.w3.org/2000/svg">
  <sodipodi:namedview
     id="namedview7"
     pagecolor="#ffffff"
     bordercolor="#666666"
     borderopacity="1.0"
     inkscape:pageshadow="2"
     inkscape:pageopacity="0.0"
     inkscape:pagecheckerboard="0"
     inkscape:document-units="mm"
     showgrid="false"
     showguides="true"
     inkscape:guide-bbox="true"
     units="px"
     inkscape:zoom="16"
     inkscape:cx="16.40625"
     inkscape:cy="25.53125"
     inkscape:window-width="1889"
     inkscape:window-height="1058"
     inkscape:window-x="31"
     inkscape:window-y="0"
     inkscape:window-maximized="1"
     inkscape:current-layer="layer1"
     width="32px">
    <sodipodi:guide
       position="0,3.7041666"
       orientation="0,1"
       id="guide900"
       inkscape:label=""
       inkscape:locked="false"
       inkscape:color="rgb(0,0,255)" />
    <sodipodi:guide
       position="0,10.583333"
       orientation="0,1"
       id="guide902"
       inkscape:label=""
       inkscape:locked="false"
       inkscape:color="rgb(0,0,255)" />
  </sodipodi:namedview>
  <defs
     id="defs2" />
  <g
     inkscape:label="Layer 1"
     inkscape:groupmode="layer"
     id="layer1">
    <path
       style="opacity:1;fill:#000000;stroke:none;stroke-width:0.264583px;stroke-linecap:butt;stroke-linejoin:miter;stroke-opacity:1"
       d="M 1.6360752,10.054167 1.4007877,9.7804559 C 1.7053734,9.541964 2.2281446,9.2317249 2.2281446,8.9566188 V 4.1893355 L 1.3874832,3.4846143 V 3.175 h 3.6333392 c 1.2250109,0 1.950514,0.847994 1.9450944,2.0021742 -0.00691,1.4706404 -1.5668926,2.0174585 -2.8649956,2.6066634 L 4.1584065,8.364797 3.9164588,8.6175812 3.0769679,7.848516 c 0,0 1.638858,-0.667349 2.245896,-1.2785717 C 5.7250973,6.1649381 6.1485501,5.6392656 6.159823,5.0759915 6.191634,3.4864831 3.5571707,3.5332532 2.9580363,3.8791636 V 9.084851 L 3.7819988,9.7971561 3.5249884,10.054167 c -0.5201011,-0.1956002 -1.0316904,-0.4064 -1.8889132,0 z"
       id="path24057"
       sodipodi:nodetypes="ccccccssccccssccccc" />
  </g>
</svg>
