<?xml version="1.0" encoding="UTF-8" standalone="no"?>
<!-- Created with Inkscape (http://www.inkscape.org/) -->

<svg
   width="36"
   height="48"
   viewBox="0 0 9.5249997 12.7"
   version="1.1"
   id="svg5"
   inkscape:version="1.1.1 (3bf5ae0d25, 2021-09-20)"
   sodipodi:docname="&amp;.svg"
   xmlns:inkscape="http://www.inkscape.org/namespaces/inkscape"
   xmlns:sodipodi="http://sodipodi.sourceforge.net/DTD/sodipodi-0.dtd"
   xmlns="http://www.w3.org/2000/svg"
   xmlns:svg="http://www.w3.org/2000/svg">
  <sodipodi:namedview
     id="namedview7"
     pagecolor="#ffffff"
     bordercolor="#666666"
     borderopacity="1.0"
     inkscape:pageshadow="2"
     inkscape:pageopacity="0.0"
     inkscape:pagecheckerboard="0"
     inkscape:document-units="mm"
     showgrid="false"
     units="px"
     width="32px"
     showguides="true"
     inkscape:guide-bbox="true"
     inkscape:zoom="2.1946698"
     inkscape:cx="-83.611668"
     inkscape:cy="122.79752"
     inkscape:window-width="1889"
     inkscape:window-height="1058"
     inkscape:window-x="31"
     inkscape:window-y="0"
     inkscape:window-maximized="1"
     inkscape:current-layer="layer1">
    <sodipodi:guide
       position="0,4.2333333"
       orientation="0,1"
       id="guide824"
       inkscape:label=""
       inkscape:locked="false"
       inkscape:color="rgb(0,0,255)" />
  </sodipodi:namedview>
  <defs
     id="defs2" />
  <g
     inkscape:label="Layer 1"
     inkscape:groupmode="layer"
     id="layer1">
    <path
       style="opacity:1;fill:#000000;stroke-width:0.0776201"
       d="M 1.075119,4.7720698 C 0.73128596,5.0769633 0.60481751,6.2863701 0.83032651,6.6828701 1.2898637,7.2426116 1.9924173,7.347942 2.6318736,7.3023657 3.267503,7.2570622 3.7971794,7.2156148 4.3785207,7.051231 4.6913457,6.5890012 4.8020414,5.9972299 5.0124723,5.5391102 4.6983,5.1174948 4.4190095,4.4448006 4.1488187,4.0351283 c 0,0 -0.9945123,0.035928 -1.2959099,0.086144 C 2.1166483,4.2439415 1.5613572,4.3408987 1.075119,4.7720698 Z M 4.0006169,3.6732557 C 3.6236422,3.0947203 3.3129669,2.283117 3.0154006,1.7469867 2.9314145,1.5956675 2.8226926,1.4032407 2.6272996,1.4032407 2.304327,1.3592287 2.2843434,1.1636643 2.3168176,0.93751962 c 0.2123201,-0.21393835 0.23286,-0.44543416 0.23286,-0.776201 h 2.053292 2.053293 C 6.8165891,0.4880288 6.9494849,0.87473044 6.9208974,1.1313727 6.7199405,1.2458749 6.2699163,1.2480007 5.0628306,1.2480007 h -1.736952 v 0.17393 c 0,0.399981 0.5836154,1.3622491 0.970251,2.149493 1.0138046,0.097799 1.9451869,-0.1839199 2.2436581,-1.002506 0.07558,-0.2072855 0.1068334,-0.595523 -0.08053,-0.6496333 -0.1426178,-0.041188 -0.2682124,0.3660024 -0.3839177,0.4993215 -0.2205588,0.2541344 -0.286728,0.254704 -0.556699,0.120996 l 5.4e-6,8e-7 c -0.18205,-0.09016 -0.266027,-0.670645 -0.09703,-0.670645 0.04269,0 0.07762,0.03493 0.07762,0.07762 0,0.04269 0.155116,0.07762 0.344711,0.07762 0.1317489,0 0.2422251,0.075299 0.2951772,0.031349 l 0.2915628,-0.241996 c 0.082922,-0.068825 0.1250779,0.011574 0.2244604,0.1648653 0.1228929,0.1895546 0.2105754,0.2947073 0.1366936,0.4982217 -0.46421,1.2787099 -1.35183,1.350065 -2.1549518,1.435636 0.1271552,0.4726108 0.2836824,0.8958658 0.6037981,1.2724947 0,0 0.2376446,-0.2683443 0.6520567,-0.6728553 0.6631529,-0.5906755 1.2185502,-1.0112578 2.016004,-1.24579 0.263862,0 0.398045,0.4380991 0.227328,0.6127351 C 8.0217804,4.1932227 8.0580911,4.2812673 8.0335238,4.4839743 7.1546975,4.5723175 6.474158,4.5443757 5.8289606,5.1643981 5.6156384,5.3631919 5.4606404,5.6534919 5.4606404,5.6534919 5.9878306,6.775366 6.5791917,7.1471381 7.5826166,7.1471381 h 0.686379 c 0.2434608,0.3894363 0.3377372,0.7651372 0.296246,1.203108 0,0 -0.4650228,0.015123 -0.697534,0.02269 -0.459666,0.01496 -0.7671151,-0.00537 -0.891692,-0.07762 C 6.0025954,7.7307578 5.7413378,6.7894018 5.2539349,6.0578343 4.7853461,6.6169897 4.7105944,7.6018767 4.503758,8.2943991 4.2080618,8.4666667 3.957199,8.5181366 2.9258596,8.5442987 1.3943052,8.5831498 0.25094786,7.9587722 0.2210746,6.2156837 0.2886302,5.5336576 0.4303241,5.0283928 0.9125894,4.4988522 1.6386434,3.7016249 3.1091184,3.8452176 4.0006169,3.6732557 Z"
       id="path1132"
       sodipodi:nodetypes="scscccsscsccccccscscssssssssssssccccccccsccssccscsc" />
  </g>
</svg>
