<?xml version="1.0" encoding="UTF-8" standalone="no"?>
<!-- Created with Inkscape (http://www.inkscape.org/) -->

<svg
   width="32"
   height="48"
   viewBox="0 0 8.4666665 12.7"
   version="1.1"
   id="svg5"
   inkscape:version="1.1.1 (3bf5ae0d25, 2021-09-20)"
   sodipodi:docname="2.svg"
   xmlns:inkscape="http://www.inkscape.org/namespaces/inkscape"
   xmlns:sodipodi="http://sodipodi.sourceforge.net/DTD/sodipodi-0.dtd"
   xmlns="http://www.w3.org/2000/svg"
   xmlns:svg="http://www.w3.org/2000/svg">
  <sodipodi:namedview
     id="namedview7"
     pagecolor="#ffffff"
     bordercolor="#666666"
     borderopacity="1.0"
     inkscape:pageshadow="2"
     inkscape:pageopacity="0.0"
     inkscape:pagecheckerboard="0"
     inkscape:document-units="mm"
     showgrid="false"
     units="px"
     width="32px"
     showguides="true"
     inkscape:guide-bbox="true"
     inkscape:zoom="17.557358"
     inkscape:cx="15.007953"
     inkscape:cy="13.868829"
     inkscape:window-width="1889"
     inkscape:window-height="1058"
     inkscape:window-x="31"
     inkscape:window-y="0"
     inkscape:window-maximized="1"
     inkscape:current-layer="layer1"
     inkscape:snap-smooth-nodes="true">
    <sodipodi:guide
       position="0,4.2333333"
       orientation="0,1"
       id="guide824"
       inkscape:label=""
       inkscape:locked="false"
       inkscape:color="rgb(0,0,255)" />
  </sodipodi:namedview>
  <defs
     id="defs2" />
  <g
     inkscape:label="Layer 1"
     inkscape:groupmode="layer"
     id="layer1">
    <path
       style="opacity:1;fill:#000000;stroke-width:0.0776201"
       d="M 0.5599098,8.4475977 C 0.14516029,6.7538193 1.3635239,5.7426625 2.6325398,5.0364367 3.7162979,4.4333095 5.7743875,3.762965 5.7388003,2.6118871 5.7206129,2.0236113 5.1950247,1.4764067 4.6409988,1.4384102 3.7254441,1.4124888 3.0143871,1.4226554 2.0153198,1.4226554 2.0240193,1.0855745 1.8192304,0.56235263 1.6608589,0.35571065 c 1.0879707,-0.050448 1.7763457,-0.037485 3.1488109,0.0578757 0.6743977,0.046858 1.4020845,1.21866905 1.39708,1.97473105 -0.00834,1.2605947 -1.4063786,1.9916274 -2.41497,2.4789043 -0.5093093,0.2460607 -3.09052218,1.3872637 -2.74972,2.501466 1.6982608,0.21044 3.8883399,-0.094358 5.50444,0.04885 C 6.5056173,7.8451035 5.8504032,8.1890863 5.634896,8.4666667 4.0058209,8.6974095 2.2629435,8.7116258 0.5599198,8.4475867 Z"
       id="path1132"
       sodipodi:nodetypes="csscccsssccccc" />
  </g>
</svg>
