<?xml version="1.0" encoding="UTF-8" standalone="no"?>
<!-- Created with Inkscape (http://www.inkscape.org/) -->

<svg
   width="23"
   height="48"
   viewBox="0 0 6.0854168 12.7"
   version="1.1"
   id="svg5"
   inkscape:version="1.1.1 (3bf5ae0d25, 2021-09-20)"
   sodipodi:docname="3.svg"
   xmlns:inkscape="http://www.inkscape.org/namespaces/inkscape"
   xmlns:sodipodi="http://sodipodi.sourceforge.net/DTD/sodipodi-0.dtd"
   xmlns="http://www.w3.org/2000/svg"
   xmlns:svg="http://www.w3.org/2000/svg">
  <sodipodi:namedview
     id="namedview7"
     pagecolor="#ffffff"
     bordercolor="#666666"
     borderopacity="1.0"
     inkscape:pageshadow="2"
     inkscape:pageopacity="0.0"
     inkscape:pagecheckerboard="0"
     inkscape:document-units="mm"
     showgrid="false"
     units="px"
     width="32px"
     showguides="true"
     inkscape:guide-bbox="true"
     inkscape:zoom="12.414927"
     inkscape:cx="19.613486"
     inkscape:cy="20.821709"
     inkscape:window-width="1889"
     inkscape:window-height="1058"
     inkscape:window-x="31"
     inkscape:window-y="0"
     inkscape:window-maximized="1"
     inkscape:current-layer="layer1">
    <sodipodi:guide
       position="0,4.2333333"
       orientation="0,1"
       id="guide824"
       inkscape:label=""
       inkscape:locked="false"
       inkscape:color="rgb(0,0,255)" />
  </sodipodi:namedview>
  <defs
     id="defs2" />
  <g
     inkscape:label="Layer 1"
     inkscape:groupmode="layer"
     id="layer1">
    <path
       style="opacity:1;fill:#000000;stroke-width:0.0776201"
       d="m 0.4257032,7.3799727 c 0.9197756,0.00363 1.8377758,-0.00225 2.75551,-0.07762 1.076617,-0.088416 1.7602654,-0.3955667 1.90165,-1.397166 C 4.9704542,4.8000891 4.3268705,4.4321302 3.1234256,4.4321302 2.3146735,4.4321302 2.122269,4.7366744 1.806283,4.9893518 1.5906631,4.5559 1.6383743,3.9955608 1.3606033,3.5720364 c 0.506634,0.08626 1.0738006,0.5478923 1.6609099,0.5478923 1.054542,0 1.6849225,-0.6257079 1.68892,-1.490303 C 4.6379406,2.1194144 4.1249884,1.4519116 3.7026939,1.4718344 3.1797835,1.4333527 0.9965295,1.416745 0.9965295,1.416745 0.86621651,1.0534599 0.73634323,0.7689838 0.73634323,0.39417232 H 4.0829632 C 4.6611119,1.0057087 5.1924207,1.6358627 5.1646053,2.4649704 5.1344443,3.1946587 4.7166173,3.943259 4.4006592,4.1400708 5.1592528,4.3363919 5.4974038,5.5657275 5.4902632,6.0492514 5.4736721,7.1727096 5.1561945,8.4263073 3.6324448,8.444818 2.5023531,8.4585465 1.7339853,8.466668 0.2703432,8.466668 0.2057561,8.0556053 0.4257032,7.7548455 0.4257032,7.379974 Z"
       id="path1132"
       sodipodi:nodetypes="cscsccscccccccssccc" />
  </g>
</svg>
