<?xml version="1.0" encoding="UTF-8" standalone="no"?>
<!-- Created with Inkscape (http://www.inkscape.org/) -->

<svg
   width="35"
   height="48"
   viewBox="0 0 9.2604164 12.7"
   version="1.1"
   id="svg5"
   inkscape:version="1.1.1 (3bf5ae0d25, 2021-09-20)"
   sodipodi:docname="A.svg"
   xmlns:inkscape="http://www.inkscape.org/namespaces/inkscape"
   xmlns:sodipodi="http://sodipodi.sourceforge.net/DTD/sodipodi-0.dtd"
   xmlns="http://www.w3.org/2000/svg"
   xmlns:svg="http://www.w3.org/2000/svg">
  <sodipodi:namedview
     id="namedview7"
     pagecolor="#ffffff"
     bordercolor="#666666"
     borderopacity="1.0"
     inkscape:pageshadow="2"
     inkscape:pageopacity="0.0"
     inkscape:pagecheckerboard="0"
     inkscape:document-units="mm"
     showgrid="false"
     units="px"
     width="32px"
     showguides="true"
     inkscape:guide-bbox="true"
     inkscape:zoom="17.557358"
     inkscape:cx="14.694694"
     inkscape:cy="12.274056"
     inkscape:window-width="1889"
     inkscape:window-height="1058"
     inkscape:window-x="31"
     inkscape:window-y="0"
     inkscape:window-maximized="1"
     inkscape:current-layer="layer1">
    <sodipodi:guide
       position="0,4.2333333"
       orientation="0,1"
       id="guide824"
       inkscape:label=""
       inkscape:locked="false"
       inkscape:color="rgb(0,0,255)" />
  </sodipodi:namedview>
  <defs
     id="defs2" />
  <g
     inkscape:label="Layer 1"
     inkscape:groupmode="layer"
     id="layer1">
    <path
       style="opacity:1;fill:#000000;stroke-width:0.0776201"
       d="M 0.0938734,8.330831 C 0.09952958,8.0843577 0.43640552,7.4039088 0.53613029,7.4375253 1.0737569,7.2512252 1.8913134,7.2724797 2.1864992,7.0352754 2.3186444,6.4054055 2.8495824,5.6133954 2.8422754,5.0403181 2.3880022,4.8878015 1.9648399,5.0296012 1.4491081,5.0125715 L 1.395624,4.527688 C 1.3662075,4.2610023 1.3204846,4.0077667 1.2940177,3.9649422 1.186378,3.7907782 1.9745559,3.9847493 2.6013399,4.2866744 2.7654661,4.3657354 2.9401113,4.4298036 2.9894405,4.4290491 3.4226792,3.5396256 3.9830303,2.468174 4.1710475,1.5047163 3.7679688,1.4890124 3.3953907,1.4914833 3.0212159,1.3978286 2.7596285,1.125514 2.7036495,0.6279669 2.6159873,0.37794884 3.704102,0.10536526 6.3588164,0.05524984 6.3588164,0.05524984 6.3954828,0.75317797 6.3798154,1.0615235 6.1352814,1.414016 5.6383276,1.6093373 5.1767212,1.4431639 4.6897934,1.5665233 c 1.0056494,1.832044 1.3795152,3.6926894 2.2455031,5.5391162 0,0 1.1256032,0.1389597 1.8877219,0.157916 l 0.02149,0.3104804 c 0.01182,0.1707642 0.060122,0.3867141 0.1073393,0.4798894 0.074302,0.1466225 0.037191,0.3034155 0.037191,0.3034155 C 7.616816,8.4220054 6.2804201,8.4666667 4.8255826,8.4666667 4.8692616,7.9908529 4.9808226,7.7111144 4.9808226,7.2247445 5.4921699,7.2350664 6.5314419,7.1049689 6.5314419,7.1049689 6.3445937,6.625102 6.1714657,5.9531564 5.8768498,5.4721815 5.1064185,5.3584431 4.1301042,5.0410401 3.309332,5.0395388 3.0060346,5.7811333 2.73731,6.3933823 2.4894134,7.0851885 3.054236,7.3192322 3.4940744,7.245819 4.1658126,7.2635548 4.28058,7.7167431 4.3598616,7.9905925 4.3598616,8.4666664 h -2.134553 c -1.98234854,0 -2.13433082,-0.00969 -2.1314352,-0.1358354 z M 5.6308974,5.0370952 C 5.3408967,4.2051811 4.9556053,2.7720067 4.5131311,2.1051889 4.1151222,2.6133603 3.6857799,3.9064393 3.549326,4.5852112 4.0515327,4.7499327 5.2735198,4.9743991 5.6308974,5.0370952 Z"
       id="path1132"
       sodipodi:nodetypes="sccccssscccccccccsscccccccccsscccc" />
  </g>
</svg>
