<?xml version="1.0" encoding="UTF-8" standalone="no"?>
<!-- Created with Inkscape (http://www.inkscape.org/) -->

<svg
   width="32"
   height="48"
   viewBox="0 0 8.4666665 12.7"
   version="1.1"
   id="svg5"
   inkscape:version="1.1.1 (3bf5ae0d25, 2021-09-20)"
   sodipodi:docname="B.svg"
   xmlns:inkscape="http://www.inkscape.org/namespaces/inkscape"
   xmlns:sodipodi="http://sodipodi.sourceforge.net/DTD/sodipodi-0.dtd"
   xmlns="http://www.w3.org/2000/svg"
   xmlns:svg="http://www.w3.org/2000/svg">
  <sodipodi:namedview
     id="namedview7"
     pagecolor="#ffffff"
     bordercolor="#666666"
     borderopacity="1.0"
     inkscape:pageshadow="2"
     inkscape:pageopacity="0.0"
     inkscape:pagecheckerboard="0"
     inkscape:document-units="mm"
     showgrid="false"
     units="px"
     width="32px"
     showguides="true"
     inkscape:guide-bbox="true"
     inkscape:zoom="17.557358"
     inkscape:cx="11.590582"
     inkscape:cy="16.09012"
     inkscape:window-width="1889"
     inkscape:window-height="1058"
     inkscape:window-x="31"
     inkscape:window-y="0"
     inkscape:window-maximized="1"
     inkscape:current-layer="layer1">
    <sodipodi:guide
       position="0,4.2333333"
       orientation="0,1"
       id="guide824"
       inkscape:label=""
       inkscape:locked="false"
       inkscape:color="rgb(0,0,255)" />
  </sodipodi:namedview>
  <defs
     id="defs2" />
  <g
     inkscape:label="Layer 1"
     inkscape:groupmode="layer"
     id="layer1">
    <path
       style="fill:#000000;stroke-width:0.0776201;opacity:1"
       d="M 0.155231,7.2247468 C 0.72250362,7.2195782 1.4325448,7.263809 1.8881935,7.0843185 2.026397,6.2912751 1.9583747,5.3226633 1.8362266,4.50252 1.395959,4.3876076 0.97162768,4.450775 0.55530625,4.293951 0.43340444,3.9865494 0.28947257,3.6632474 0.3614995,3.3660376 0.85052686,3.4903015 1.3198277,3.8094604 1.867024,3.8094604 L 1.845544,2.6645638 1.824064,1.5196672 C 1.2907134,1.5010547 0.68322456,1.5070868 0.20373728,1.4012097 0.11804046,1.0075203 -0.05167643,0.64311287 0.06400039,0.25749504 0.40004914,0.12553166 0.7610509,0.08467381 1.047863,0.16131541 c 0.229031,0.12042553 0.4595695,0.0667937 0.659771,0 0,-0.12153756 3.992107,-0.10339697 4.211945,0.0191396 C 6.6375802,0.69643472 7.1367549,1.5094959 7.141042,2.3346784 7.16304,2.9557402 6.7872158,3.3021089 6.5360175,3.8154331 c 0,0 0.1086069,0.2212044 0.2882675,0.420938 0.4483374,0.4984291 0.9186573,1.916411 0.5353282,2.5803565 C 7.0453417,7.3610618 6.5893256,8.1935057 5.904763,8.3114267 5.5499799,8.3725407 5.2457491,8.4772505 4.9710929,8.4786737 3.2606764,8.4638099 1.8220431,8.4666667 0,8.4666667 0.04366427,7.9908545 0.155231,7.7111149 0.155231,7.2247468 Z M 6.388826,6.9124657 C 6.823477,6.9078657 7.141041,6.4366917 7.141041,5.7964019 7.0578651,5.1424938 6.8060999,4.6561431 6.36484,4.352803 6.36484,4.2183572 5.838073,4.268525 5.549829,4.430423 4.4895792,4.8675009 3.4889543,4.6324478 2.445024,4.4972994 2.1116022,5.5390382 2.3218426,6.1381107 2.343079,7.2247528 3.7758837,7.1844628 5.2747869,7.2199828 6.388826,6.9124657 Z M 5.382034,4.1199426 C 6.0290326,3.8290675 6.6618906,3.1056283 6.67532,2.4747627 c 0,-0.6697629 -0.2282176,-0.9003436 -0.669711,-0.9939037 -1.3068756,-0.2769495 -2.5178382,0 -3.840366,0 l 0.01104,1.1060865 c 0.00915,0.9168064 0.043935,1.3019491 0.1885967,1.4500322 0.9610469,0.3243634 2.0389242,0.3595173 3.0171543,0.082965 z"
       id="path1132"
       sodipodi:nodetypes="cccccccccccccccsssccccccccccccscscc" />
  </g>
</svg>
