<?xml version="1.0" encoding="UTF-8" standalone="no"?>
<!-- Created with Inkscape (http://www.inkscape.org/) -->

<svg
   width="20"
   height="48"
   viewBox="0 0 5.2916669 12.7"
   version="1.1"
   id="svg5"
   inkscape:version="1.1.1 (3bf5ae0d25, 2021-09-20)"
   sodipodi:docname="f.svg"
   xmlns:inkscape="http://www.inkscape.org/namespaces/inkscape"
   xmlns:sodipodi="http://sodipodi.sourceforge.net/DTD/sodipodi-0.dtd"
   xmlns="http://www.w3.org/2000/svg"
   xmlns:svg="http://www.w3.org/2000/svg">
  <sodipodi:namedview
     id="namedview7"
     pagecolor="#ffffff"
     bordercolor="#666666"
     borderopacity="1.0"
     inkscape:pageshadow="2"
     inkscape:pageopacity="0.0"
     inkscape:pagecheckerboard="0"
     inkscape:document-units="mm"
     showgrid="false"
     units="px"
     width="32px"
     showguides="true"
     inkscape:guide-bbox="true"
     inkscape:zoom="17.557358"
     inkscape:cx="11.761451"
     inkscape:cy="19.564447"
     inkscape:window-width="1889"
     inkscape:window-height="1058"
     inkscape:window-x="31"
     inkscape:window-y="0"
     inkscape:window-maximized="1"
     inkscape:current-layer="layer1" />
  <defs
     id="defs2" />
  <g
     inkscape:label="Layer 1"
     inkscape:groupmode="layer"
     id="layer1">
    <path
       style="opacity:1;fill:#000000;stroke-width:0.0776201"
       d="M 0.3061671,8.4666667 C 0.13471224,8.0732293 0.3367574,7.8695673 0.42822668,7.5183346 c 0.4404243,-0.1530055 0.61466922,0.353978 1.22946392,0.02957 0,0 0.1038364,-0.6811389 0.1038364,-1.8237829 V 4.0808064 h -0.58769 c -0.70239997,0 -0.8094699,-0.07587 -0.8094699,-0.573585 v -0.351812 l 1.3583499,-0.04486 0.0209,-1.009061 c 0.0314,-1.51465608 0.18711,-1.74799708 1.16367,-1.74398408 0.3764335,0.00157 0.6494727,0.0533693 0.6494727,0.0533693 0,0 0.2728282,0.46431996 0.3308275,0.82830308 -0.2219653,0.014535 -0.2523871,0.017539 -0.6499402,0.031327 -0.8845006,0.06028 -1.0546473,0.2483569 -1.0962568,0.9000964 -0.00891,0.1395028 0.00601,0.955857 0.00601,0.955857 0.5367794,0.027485 0.90096,0.022903 1.4770488,0.022903 v 0.337261 c 0,0.501044 -0.14391,0.594181 -0.91814,0.594181 H 2.072047 V 5.788444 c 0,1.655895 -0.026264,1.1532562 -0.012457,1.6834718 0.4674981,0.2679857 0.759571,0.00147 1.2472387,0.2442106 0.1600631,0.2634167 -0.028102,0.4595 0.2787784,0.7890206 -0.0816,0.132072 -3.1610999,0.09593 -3.2794499,-0.03849 z"
       id="path1132"
       sodipodi:nodetypes="cccscssccsccccsccsscscccsc" />
  </g>
</svg>
