<?xml version="1.0" encoding="UTF-8" standalone="no"?>
<!-- Created with Inkscape (http://www.inkscape.org/) -->

<svg
   width="27"
   height="48"
   viewBox="0 0 7.14375 12.7"
   version="1.1"
   id="svg5"
   inkscape:version="1.1.1 (3bf5ae0d25, 2021-09-20)"
   sodipodi:docname="g.svg"
   xmlns:inkscape="http://www.inkscape.org/namespaces/inkscape"
   xmlns:sodipodi="http://sodipodi.sourceforge.net/DTD/sodipodi-0.dtd"
   xmlns="http://www.w3.org/2000/svg"
   xmlns:svg="http://www.w3.org/2000/svg">
  <sodipodi:namedview
     id="namedview7"
     pagecolor="#ffffff"
     bordercolor="#666666"
     borderopacity="1.0"
     inkscape:pageshadow="2"
     inkscape:pageopacity="0.0"
     inkscape:pagecheckerboard="0"
     inkscape:document-units="mm"
     showgrid="false"
     units="px"
     width="32px"
     showguides="true"
     inkscape:guide-bbox="true"
     inkscape:zoom="12.414927"
     inkscape:cx="-3.262202"
     inkscape:cy="33.628873"
     inkscape:window-width="1889"
     inkscape:window-height="1058"
     inkscape:window-x="31"
     inkscape:window-y="0"
     inkscape:window-maximized="1"
     inkscape:current-layer="layer1">
    <sodipodi:guide
       position="0,4.2333333"
       orientation="0,1"
       id="guide824"
       inkscape:label=""
       inkscape:locked="false"
       inkscape:color="rgb(0,0,255)" />
  </sodipodi:namedview>
  <defs
     id="defs2" />
  <g
     inkscape:label="Layer 1"
     inkscape:groupmode="layer"
     id="layer1">
    <path
       style="opacity:1;fill:#000000;stroke-width:0.0776201"
       d="M 1.1336711,11.211545 C 0.81622108,11.036481 0.59358699,10.653538 0.49826108,10.500855 0.27558456,10.144194 0.2795056,9.7927748 0.36193178,9.5686536 c 0.1337,0 0.89831782,0.7450124 0.99917412,0.9434514 0.4050974,0.0194 2.8501564,0.02352 2.9793352,-0.04012 0.3764555,-0.185468 0.7167091,-0.4837757 0.57038,-0.8547654 -0.16665,-0.380398 -0.43359,-0.464777 -1.47036,-0.464777 C 1.9147466,9.1786391 0.45751338,8.976592 1.1192011,7.5612266 1.1805243,7.4300549 1.2402658,7.2210627 1.2636123,7.0102573 1.2710594,6.490867 1.1205414,6.0276247 1.1192011,5.5819136 1.0862361,4.4442034 1.5945707,3.2531221 2.840909,3.2429323 3.6765252,3.2361005 4.2658294,3.6827187 4.2658294,3.6827187 4.5973091,3.4961445 4.9405097,3.3634469 5.2030493,3.1235208 c 0,0 0.2628418,0.2361597 0.2628418,0.5178908 0,0.344999 -0.189004,0.5605911 -0.51652,0.543341 -0.4963973,-0.026145 -0.6310117,0.3679266 -0.6310117,0.3679266 0,0 0.2160717,0.6792234 0.2160717,1.1068554 0.015136,0.7822653 -0.2263415,1.4458148 -0.91095,1.843564 -0.2108,0.117715 -1.77569,0.01829 -1.77569,0.01829 0,0 -0.43157,0.257856 -0.40394,0.587964 0.0409,0.48917 0.26215,0.564921 1.66947,0.571692 0.9441504,-0.021235 2.2232116,0.019951 2.2469356,1.2486766 0.012126,0.4910958 -0.2738146,1.0023298 -0.8053256,1.2991398 -0.2449179,0.136769 -3.0198388,0.230595 -3.4213,-0.01732 z m 3.01271,-5.3579564 C 4.2079592,5.3694673 4.2230417,5.144954 3.9474923,4.7824405 3.7672052,4.9657601 3.7236528,5.0883574 3.4542294,5.1397663 c 0.025159,-0.232062 0.111716,-0.452871 0.1785915,-0.6729894 0,0 -0.3792586,-0.2059737 -0.6358684,-0.1879977 -0.9898351,0.06934 -1.223913,0.1153328 -1.4895114,0.7986074 -0.2687797,0.9690021 0.3210177,1.3032068 0.97025,1.513592 0.8683653,0.2023577 1.4249376,0.026104 1.66869,-0.73739 z"
       id="path1132"
       sodipodi:nodetypes="csccsccsccsccsscccccccsccccccsccc" />
  </g>
</svg>
