<?xml version="1.0" encoding="UTF-8" standalone="no"?>
<!-- Created with Inkscape (http://www.inkscape.org/) -->

<svg
   width="35"
   height="48"
   viewBox="0 0 9.2604164 12.7"
   version="1.1"
   id="svg5"
   inkscape:version="1.1.1 (3bf5ae0d25, 2021-09-20)"
   sodipodi:docname="H.svg"
   xmlns:inkscape="http://www.inkscape.org/namespaces/inkscape"
   xmlns:sodipodi="http://sodipodi.sourceforge.net/DTD/sodipodi-0.dtd"
   xmlns="http://www.w3.org/2000/svg"
   xmlns:svg="http://www.w3.org/2000/svg">
  <sodipodi:namedview
     id="namedview7"
     pagecolor="#ffffff"
     bordercolor="#666666"
     borderopacity="1.0"
     inkscape:pageshadow="2"
     inkscape:pageopacity="0.0"
     inkscape:pagecheckerboard="0"
     inkscape:document-units="mm"
     showgrid="false"
     units="px"
     width="32px"
     showguides="true"
     inkscape:guide-bbox="true"
     inkscape:zoom="6.2074635"
     inkscape:cx="37.616009"
     inkscape:cy="30.527767"
     inkscape:window-width="1889"
     inkscape:window-height="1058"
     inkscape:window-x="31"
     inkscape:window-y="0"
     inkscape:window-maximized="1"
     inkscape:current-layer="layer1">
    <sodipodi:guide
       position="0,4.2333333"
       orientation="0,1"
       id="guide824"
       inkscape:label=""
       inkscape:locked="false"
       inkscape:color="rgb(0,0,255)" />
  </sodipodi:namedview>
  <defs
     id="defs2" />
  <g
     inkscape:label="Layer 1"
     inkscape:groupmode="layer"
     id="layer1">
    <path
       style="opacity:1;fill:#000000;stroke-width:0.0776201"
       d="M 0.6178382,10.999107 C 0.1673162,10.775979 0.43116404,10.041631 0.9586682,10.017982 1.8796648,9.9766922 2.3115811,9.1117078 2.3060762,8.31034 2.297276,7.029268 2.217219,5.868183 2.2223591,4.5454678 2.1013235,4.4409199 1.9386262,4.4026002 1.9386262,4.4026002 1.6101264,4.5567849 1.1531623,4.6280008 0.84885238,4.636893 0.72289723,4.2502899 0.63923177,3.8901432 0.63407478,3.5453104 1.1387535,3.7409031 1.6652462,3.7342382 2.1333368,3.942435 2.154914,3.0053474 2.0891576,2.2083312 2.0694226,1.3565971 1.5120698,1.2675814 1.0064201,1.3721181 0.44708883,1.3362546 0.28022717,0.97888901 0.1483239,0.8028869 0.11045416,0.28596624 0.94150564,0.05678445 1.9648051,0.08332259 2.7329858,0.08260922 c 1.1674788,0 1.4347111,-0.01178257 1.866208,0.02779803 C 4.4375811,0.44900851 4.0903976,0.90527512 3.8972878,1.3182745 l -1.319542,0.045065 0.01699,1.2698742 c 0.010573,0.7902835 -0.00398,1.3583496 -0.00398,1.3583496 1.2138066,0.2673709 2.3913739,0.4158015 3.5420568,0.7405615 0.491977,-0.092841 0.481898,-0.2300596 0.481898,-0.2300596 C 6.4638413,3.0698531 6.5668167,2.477013 6.626,1.528905 6.6851833,0.58079702 7.1246666,0.08260522 8.0524066,0.08260522 c 0.3536422,0 0.6406173,0.1238246 0.6406173,0.1238246 C 8.5606729,0.55034198 8.5051314,0.93823398 8.432387,1.3274659 7.9746887,1.297763 7.5053958,1.339711 7.1854373,1.6156021 6.8368411,1.9161866 6.8815773,2.0826749 6.9032673,4.6621918 l 0.0212,2.522653 0.65977,0.02366 0.65977,0.02366 c 0.1860642,0.3704604 0.3664279,0.7512951 0.50454,1.137887 0,0.07301 -0.44711,0.09552 -1.89712,0.09552 -1.239584,0 -1.914546,0.02821 -1.94741,0.08139 -0.06964,0.112676 -0.315086,-0.06705 -0.269342,-0.234104 0.1177226,-0.429916 0.4315533,-0.4609955 0.4692789,-1.0674589 0,0 0.4121275,-0.027519 0.7726431,-0.038368 l 0.73739,-0.02219 C 6.6106222,6.4695836 6.6216264,5.7540407 6.6055,5.0389499 5.2588859,4.719854 3.8239765,4.6818713 2.5916133,4.428607 c -0.073282,-0.016922 -0.050822,1.46536 -0.043982,2.94338 0.010749,2.3178569 0.012986,3.129657 -0.3472413,3.417469 -0.1642594,0.131239 -0.4038843,0.153528 -0.7524337,0.159977 -0.3442208,0.0064 -0.58385151,0.169525 -0.830124,0.04968 -0.24925613,-0.121297 7.81e-6,-5e-6 5.9e-6,-6e-6 z"
       id="path1132"
       sodipodi:nodetypes="sssccccccccccccsccczsccssccccssscsccccssss" />
  </g>
</svg>
