<?xml version="1.0" encoding="UTF-8" standalone="no"?>
<!-- Created with Inkscape (http://www.inkscape.org/) -->

<svg
   width="19"
   height="48"
   viewBox="0 0 5.0270836 12.7"
   version="1.1"
   id="svg5"
   inkscape:version="1.1.1 (3bf5ae0d25, 2021-09-20)"
   sodipodi:docname="j.svg"
   xmlns:inkscape="http://www.inkscape.org/namespaces/inkscape"
   xmlns:sodipodi="http://sodipodi.sourceforge.net/DTD/sodipodi-0.dtd"
   xmlns="http://www.w3.org/2000/svg"
   xmlns:svg="http://www.w3.org/2000/svg">
  <sodipodi:namedview
     id="namedview7"
     pagecolor="#ffffff"
     bordercolor="#666666"
     borderopacity="1.0"
     inkscape:pageshadow="2"
     inkscape:pageopacity="0.0"
     inkscape:pagecheckerboard="0"
     inkscape:document-units="mm"
     showgrid="false"
     units="px"
     width="32px"
     showguides="true"
     inkscape:guide-bbox="true"
     inkscape:zoom="12.414927"
     inkscape:cx="-6.2424854"
     inkscape:cy="27.587758"
     inkscape:window-width="1889"
     inkscape:window-height="1058"
     inkscape:window-x="31"
     inkscape:window-y="0"
     inkscape:window-maximized="1"
     inkscape:current-layer="layer1">
    <sodipodi:guide
       position="0,4.2333333"
       orientation="0,1"
       id="guide824"
       inkscape:label=""
       inkscape:locked="false"
       inkscape:color="rgb(0,0,255)" />
  </sodipodi:namedview>
  <defs
     id="defs2" />
  <g
     inkscape:label="Layer 1"
     inkscape:groupmode="layer"
     id="layer1">
    <path
       style="opacity:1;fill:#000000;stroke-width:0.0776201"
       d="m 0.62814766,10.571974 c 0.59892764,0.04031 1.71169064,0.13903 1.78869614,-0.5872006 0.1602162,-1.5109822 0.050339,-3.6998509 0,-4.5019699 C 2.3899327,5.0539938 2.3407495,4.6086111 2.0288038,4.3961225 1.7716465,4.2209542 1.4426301,4.2396137 1.1658165,4.2430927 c 0,0 -0.24230362,-0.6893475 -0.27848271,-1.0888915 H 1.5777638 c 1.13775,0 1.1290579,0.160472 1.22728,2.1667123 0.071943,1.46948 0.1156031,2.4112567 0.076862,3.4130705 -0.025869,0.6473395 0.1461615,1.916178 -0.2320621,2.381384 C 2.3198932,11.5212 1.5150926,11.429713 1.0605742,11.426389 0.86243491,11.272677 0.72260339,10.793751 0.62814766,10.571974 Z M 1.6249738,1.0739662 C 1.585456,0.86914468 1.8715856,0.36153971 2.2190046,0.36480394 2.6488266,0.3688424 2.7938666,0.8468538 2.8048138,1.2913062 2.8142815,1.6756941 2.5541012,2.0501447 2.198291,2.0656386 1.639377,2.0899768 1.7163416,1.5475279 1.6249738,1.0739662 Z"
       id="path1132"
       sodipodi:nodetypes="csssccsscsccsssss" />
  </g>
</svg>
