<?xml version="1.0" encoding="UTF-8" standalone="no"?>
<!-- Created with Inkscape (http://www.inkscape.org/) -->

<svg
   width="29"
   height="48"
   viewBox="0 0 7.6729166 12.7"
   version="1.1"
   id="svg5"
   inkscape:version="1.1.1 (3bf5ae0d25, 2021-09-20)"
   sodipodi:docname="k.svg"
   xmlns:inkscape="http://www.inkscape.org/namespaces/inkscape"
   xmlns:sodipodi="http://sodipodi.sourceforge.net/DTD/sodipodi-0.dtd"
   xmlns="http://www.w3.org/2000/svg"
   xmlns:svg="http://www.w3.org/2000/svg">
  <sodipodi:namedview
     id="namedview7"
     pagecolor="#ffffff"
     bordercolor="#666666"
     borderopacity="1.0"
     inkscape:pageshadow="2"
     inkscape:pageopacity="0.0"
     inkscape:pagecheckerboard="0"
     inkscape:document-units="mm"
     showgrid="false"
     units="px"
     width="32px"
     showguides="true"
     inkscape:guide-bbox="true"
     inkscape:zoom="17.557358"
     inkscape:cx="2.4775937"
     inkscape:cy="26.22832"
     inkscape:window-width="1889"
     inkscape:window-height="1058"
     inkscape:window-x="31"
     inkscape:window-y="0"
     inkscape:window-maximized="1"
     inkscape:current-layer="layer1">
    <sodipodi:guide
       position="0,4.2333333"
       orientation="0,1"
       id="guide824"
       inkscape:label=""
       inkscape:locked="false"
       inkscape:color="rgb(0,0,255)" />
  </sodipodi:namedview>
  <defs
     id="defs2" />
  <g
     inkscape:label="Layer 1"
     inkscape:groupmode="layer"
     id="layer1">
    <path
       style="opacity:1;fill:#000000;stroke-width:0.0776201"
       d="m 1.0335308,7.3639187 c 0.2744132,0.1922396 0.5494972,0.171335 0.8927559,0.171335 v -2.949564 c 0,-1.91463 -0.071504,-2.8125364 -0.0776,-2.949564 C 1.8336653,1.2984703 1.4862993,1.1742477 1.1944767,1.1704047 0.96737607,1.1447847 0.75313334,1.0674282 0.5781849,0.98138091 0.45408698,0.63227343 0.52406419,0.33914116 0.71402257,0.03991952 0.92082515,0.1988491 1.1673516,0.23776761 1.4123867,0.23896362 c 0.6783775,0.0735911 0.9388488,0.38556896 0.9303308,0.87618768 -0.0034,0.1960918 0.049289,0.7538344 0.049289,2.3062364 0,1.323423 0.0191,2.406224 0.0423,2.406224 0.9925106,-0.7379522 1.7847083,-2.2698636 2.78974,-2.639084 0.6427888,-0.2361426 1.1767436,-0.2333646 1.66989,0.06048 -0.2598111,0.2395293 -0.4578521,0.5414107 -0.4616445,0.8588924 -0.4767553,-0.0021 -0.055735,0.012064 -0.7802355,0.012064 -0.9165626,0.013354 -1.2951379,0.1974238 -1.70765,0.777712 0.5234656,0.4883715 0.7480768,0.8999235 1.08665,1.47327 0.2014826,0.3411946 0.301537,0.6298816 0.64961,0.853821 0.2944148,0.1128091 0.5875153,0.1597076 0.8728397,0.2505006 0.2407821,0.3269902 0.1846118,0.5860133 0.1853203,0.9914204 h -0.62096 c -0.6847786,0 -0.8209564,-0.1485913 -1.00904,-0.620961 -0.2023358,-0.5081638 -0.3031041,-1.0550504 -0.5432,-1.515279 -0.082096,-0.1573668 -0.82545,-0.968564 -1.01063,-0.968564 -0.093,0 -0.37,0.208965 -0.66146,0.49899 l -0.50145,0.498991 C 2.3766167,6.7975103 2.3813147,7.140008 2.4624007,7.524663 2.8701694,7.496246 2.9258592,7.3517649 3.3705791,7.4079517 3.6313827,7.763811 3.6018916,8.0552538 3.7892062,8.3114266 c -0.2899454,0.155241 -0.0517,0.155241 -1.63002,0.155241 H 0.52916667 C 0.47940894,7.9925935 0.56036093,7.5896683 1.0335308,7.3639187 Z"
       id="path1132"
       sodipodi:nodetypes="ccssccccsscsccccscccsssssccccscc" />
  </g>
</svg>
