<?xml version="1.0" encoding="UTF-8" standalone="no"?>
<!-- Created with Inkscape (http://www.inkscape.org/) -->

<svg
   width="19"
   height="48"
   viewBox="0 0 5.0270836 12.7"
   version="1.1"
   id="svg5"
   inkscape:version="1.1.1 (3bf5ae0d25, 2021-09-20)"
   sodipodi:docname="l.svg"
   xmlns:inkscape="http://www.inkscape.org/namespaces/inkscape"
   xmlns:sodipodi="http://sodipodi.sourceforge.net/DTD/sodipodi-0.dtd"
   xmlns="http://www.w3.org/2000/svg"
   xmlns:svg="http://www.w3.org/2000/svg">
  <sodipodi:namedview
     id="namedview7"
     pagecolor="#ffffff"
     bordercolor="#666666"
     borderopacity="1.0"
     inkscape:pageshadow="2"
     inkscape:pageopacity="0.0"
     inkscape:pagecheckerboard="0"
     inkscape:document-units="mm"
     showgrid="false"
     units="px"
     width="32px"
     showguides="true"
     inkscape:guide-bbox="true"
     inkscape:zoom="12.414927"
     inkscape:cx="-8.8200277"
     inkscape:cy="12.2836"
     inkscape:window-width="1889"
     inkscape:window-height="1058"
     inkscape:window-x="31"
     inkscape:window-y="0"
     inkscape:window-maximized="1"
     inkscape:current-layer="layer1">
    <sodipodi:guide
       position="0,4.2333333"
       orientation="0,1"
       id="guide824"
       inkscape:label=""
       inkscape:locked="false"
       inkscape:color="rgb(0,0,255)" />
  </sodipodi:namedview>
  <defs
     id="defs2" />
  <g
     inkscape:label="Layer 1"
     inkscape:groupmode="layer"
     id="layer1">
    <path
       style="opacity:1;fill:#000000;stroke-width:0.0776201"
       d="M 0.47549332,8.4666727 C 0.3528111,8.1654705 0.50678368,7.8453183 0.64917955,7.5927255 1.0903421,7.4499196 1.4030754,7.4768289 1.8920433,7.4572847 c 0,0 0.029302,-1.9131147 0.0204,-2.864762 -0.0089,-0.9516473 0.2362338,-3.1097219 -0.44728,-3.228416 C 1.1923939,1.3167395 0.9471824,1.2941024 0.66214284,1.2604667 0.45341535,0.9502709 0.53372332,0.71805277 0.53372332,0.35504562 H 1.1970233 c 0.9337985,0.0346639 1.0837261,0.30866773 1.12194,0.93144108 0.1347017,2.1952364 0.01445,4.127198 -0.051727,6.199932 0.4180263,-0.015222 0.7672583,-0.00204 1.2246721,0.104615 0.1965904,0.2578752 0.056937,0.4447936 0.2794145,0.8605629 -0.8697859,0.1969047 -2.2637448,0.3298621 -3.29584998,0.01507 z"
       id="path1132"
       sodipodi:nodetypes="ccczscccscccsc" />
  </g>
</svg>
