<?xml version="1.0" encoding="UTF-8" standalone="no"?>
<!-- Created with Inkscape (http://www.inkscape.org/) -->

<svg
   width="45"
   height="48"
   viewBox="0 0 11.906247 12.7"
   version="1.1"
   id="svg5"
   inkscape:version="1.1.1 (3bf5ae0d25, 2021-09-20)"
   sodipodi:docname="M.svg"
   xmlns:inkscape="http://www.inkscape.org/namespaces/inkscape"
   xmlns:sodipodi="http://sodipodi.sourceforge.net/DTD/sodipodi-0.dtd"
   xmlns="http://www.w3.org/2000/svg"
   xmlns:svg="http://www.w3.org/2000/svg">
  <sodipodi:namedview
     id="namedview7"
     pagecolor="#ffffff"
     bordercolor="#666666"
     borderopacity="1.0"
     inkscape:pageshadow="2"
     inkscape:pageopacity="0.0"
     inkscape:pagecheckerboard="0"
     inkscape:document-units="mm"
     showgrid="false"
     units="px"
     width="32px"
     showguides="true"
     inkscape:guide-bbox="true"
     inkscape:zoom="12.414927"
     inkscape:cx="14.055661"
     inkscape:cy="23.157607"
     inkscape:window-width="1889"
     inkscape:window-height="1058"
     inkscape:window-x="31"
     inkscape:window-y="0"
     inkscape:window-maximized="1"
     inkscape:current-layer="layer1">
    <sodipodi:guide
       position="0,4.2333333"
       orientation="0,1"
       id="guide824"
       inkscape:label=""
       inkscape:locked="false"
       inkscape:color="rgb(0,0,255)" />
  </sodipodi:namedview>
  <defs
     id="defs2" />
  <g
     inkscape:label="Layer 1"
     inkscape:groupmode="layer"
     id="layer1">
    <path
       style="opacity:1;fill:#000000;stroke-width:0.0776201"
       d="m 2.8903031,2.3239557 c 0.00954,-0.724824 0.01289,-0.737391 0.19681,-0.737391 0.069154,0 0.1648239,0.081773 0.2589695,0.2007128 C 3.9771641,3.0625959 4.5266638,4.3062652 5.2286031,5.8209791 5.0413405,6.7643845 4.385645,7.5764186 4.1419129,8.466667 l -1e-4,9e-7 c 0,0.1755497 6.1179901,0.1547739 6.1854901,-0.021004 C 10.294065,8.0490817 10.139406,7.5384911 9.9546361,7.202981 9.4576206,7.178685 9.0087024,7.2445946 8.5094576,7.106657 8.4806058,5.5928744 8.4750966,2.8282158 8.5497246,1.5913342 8.733996,1.6029102 9.3858414,1.6451843 9.8495586,1.6245333 10.197969,1.1375524 10.348013,0.62677519 10.584403,0.29390926 9.7760124,0.25090828 9.0487939,0.18252998 8.197054,0.16430168 7.1376463,1.9243977 6.6056274,3.4425947 5.4916531,5.3123312 4.5716242,3.6292443 4.1241425,2.2670166 3.2042331,0.77155486 c -0.059357,-0.0964943 -0.14716,-0.2425628 -0.16156,-0.3492905 l -0.0262,-0.1940502 -2.44502996,-0.042753 v 0.4432838 c 0,0.68759234 0.14841,0.80257954 1.03587996,0.80257954 0.4438459,0 0.6888938,0.015712 0.8232319,0.1144439 0.048882,0.9400093 0.06921,6.207612 0.00372,7.6764368 0,0.3505984 -0.60929,0.7473318 -1.14772,0.7473318 -0.46801996,0 -0.55991996,0.091742 -0.55991996,0.558865 l -3e-5,0.372576 H 1.4163131 c 1.02606,0 1.32841,-0.22874 1.32841,-1.0049968 M 7.0760431,8.16875 C 6.9365731,8.3082231 6.7810931,8.2810491 6.7810931,8.1172 6.4885292,7.305505 6.1014985,6.611659 5.7352206,5.825977 6.2767575,4.6733559 7.3847981,2.5687985 8.1333533,1.4468135 c 0.084151,1.8936434 0.015239,3.4580187 -0.03671,5.728399 -0.2962676,0 -0.4980355,-0.028428 -0.7597533,0.1116366 C 7.1860573,7.5401859 7.1829556,7.8625473 7.0759531,8.1687498 Z M 5.0883731,7.1169981 C 5.2181255,6.8382356 5.2896632,6.592452 5.5174431,6.3990121 5.7425479,6.5827599 5.8464578,6.9080753 5.9837234,7.1754806 5.717696,7.2538308 5.3725648,7.2223551 5.0883731,7.1169981 Z"
       id="path1132"
       sodipodi:nodetypes="csccccccccccccssccssccsscsccccccccccccc" />
  </g>
</svg>
