<?xml version="1.0" encoding="UTF-8" standalone="no"?>
<!-- Created with Inkscape (http://www.inkscape.org/) -->

<svg
   width="45"
   height="48"
   viewBox="0 0 11.906247 12.7"
   version="1.1"
   id="svg5"
   inkscape:version="1.1.1 (3bf5ae0d25, 2021-09-20)"
   sodipodi:docname="M.svg"
   xmlns:inkscape="http://www.inkscape.org/namespaces/inkscape"
   xmlns:sodipodi="http://sodipodi.sourceforge.net/DTD/sodipodi-0.dtd"
   xmlns="http://www.w3.org/2000/svg"
   xmlns:svg="http://www.w3.org/2000/svg">
  <sodipodi:namedview
     id="namedview7"
     pagecolor="#ffffff"
     bordercolor="#666666"
     borderopacity="1.0"
     inkscape:pageshadow="2"
     inkscape:pageopacity="0.0"
     inkscape:pagecheckerboard="0"
     inkscape:document-units="mm"
     showgrid="false"
     units="px"
     width="32px"
     showguides="true"
     inkscape:guide-bbox="true"
     inkscape:zoom="12.414927"
     inkscape:cx="14.055661"
     inkscape:cy="23.157607"
     inkscape:window-width="1889"
     inkscape:window-height="1058"
     inkscape:window-x="31"
     inkscape:window-y="0"
     inkscape:window-maximized="1"
     inkscape:current-layer="layer1">
    <sodipodi:guide
       position="0,4.2333333"
       orientation="0,1"
       id="guide824"
       inkscape:label=""
       inkscape:locked="false"
       inkscape:color="rgb(0,0,255)" />
  </sodipodi:namedview>
  <defs
     id="defs2" />
  <g
     inkscape:label="Layer 1"
     inkscape:groupmode="layer"
     id="layer1">
    <path
       style="opacity:1;fill:#000000;stroke-width:0.0776201"
       d="m 2.7447231,9.8959812 c 0,0.7762568 -0.30235,1.0049968 -1.32841,1.0049968 H 0.72660314 l 3e-5,-0.372576 c 0,-0.467123 0.0919,-0.558865 0.55991996,-0.558865 0.53843,0 1.14772,-0.3967334 1.14772,-0.7473318 C 2.4997653,7.7533804 2.4794369,2.4857777 2.430555,1.5457684 2.2962169,1.447037 2.051169,1.4313245 1.6073231,1.4313245 c -0.88746996,0 -1.03587996,-0.1149872 -1.03587996,-0.80257954 v -0.4432838 l 2.44502996,0.042753 0.0262,0.1940502 c 0.0144,0.1067277 0.1022031,0.2527962 0.16156,0.3492905 C 4.1241425,2.2670166 4.5716242,3.6292443 5.4916531,5.3123312 6.6056274,3.4425947 7.1376463,1.9243977 8.197054,0.16430168 9.0487939,0.18252998 9.7760124,0.25090828 10.584403,0.29390926 10.348013,0.62677519 10.197969,1.1375524 9.8495586,1.6245333 9.3858414,1.6451843 8.733996,1.6029102 8.5497246,1.5913342 8.4750966,2.8282158 8.4806058,5.5928744 8.5094576,7.106657 c 0.4992448,0.1379376 0.948163,0.072028 1.4451785,0.096324 0.1847699,0.3355101 0.3394289,0.8461007 0.3726669,1.2426829 -0.0675,0.1757779 -6.1854901,0.1965537 -6.1854901,0.021004 l 1e-4,-9e-7 C 4.385645,7.5764186 5.0413405,6.7643845 5.2286031,5.8209791 4.5266638,4.3062652 3.9771641,3.0625959 3.3460826,1.7872775 3.251937,1.6683378 3.1562675,1.5865647 3.0871131,1.5865647 c -0.18392,0 -0.18727,0.012567 -0.19681,0.737391 m 4.18565,5.8447941 C 7.1829556,7.8625473 7.1860573,7.5401859 7.3368898,7.2868491 7.5986076,7.1467846 7.8003755,7.1752125 8.0966431,7.1752125 8.1485927,4.9048322 8.2175042,3.3404569 8.1333533,1.4468135 7.3847981,2.5687985 6.2767575,4.6733559 5.7352206,5.825977 6.1014985,6.611659 6.4885292,7.305505 6.7810931,8.1172 c 0,0.1638491 0.15548,0.1910231 0.29495,0.05155 z M 5.9837234,7.1754806 C 5.8464578,6.9080753 5.7425479,6.5827599 5.5174431,6.3990121 5.2896632,6.592452 5.2181255,6.8382356 5.0883731,7.1169981 5.3725648,7.2223551 5.717696,7.2538308 5.9837234,7.1754806 Z"
       id="path1132"
       sodipodi:nodetypes="cscssccssccssccccccccccccsccccccccccccc" />
  </g>
</svg>
