<?xml version="1.0" encoding="UTF-8" standalone="no"?>
<!-- Created with Inkscape (http://www.inkscape.org/) -->

<svg
   width="28"
   height="48"
   viewBox="0 0 7.4083333 12.7"
   version="1.1"
   id="svg5"
   inkscape:version="1.1.1 (3bf5ae0d25, 2021-09-20)"
   sodipodi:docname="n.svg"
   xmlns:inkscape="http://www.inkscape.org/namespaces/inkscape"
   xmlns:sodipodi="http://sodipodi.sourceforge.net/DTD/sodipodi-0.dtd"
   xmlns="http://www.w3.org/2000/svg"
   xmlns:svg="http://www.w3.org/2000/svg">
  <sodipodi:namedview
     id="namedview7"
     pagecolor="#ffffff"
     bordercolor="#666666"
     borderopacity="1.0"
     inkscape:pageshadow="2"
     inkscape:pageopacity="0.0"
     inkscape:pagecheckerboard="0"
     inkscape:document-units="mm"
     showgrid="false"
     units="px"
     width="32px"
     showguides="true"
     inkscape:guide-bbox="true"
     inkscape:zoom="12.414927"
     inkscape:cx="16.794299"
     inkscape:cy="23.801993"
     inkscape:window-width="1889"
     inkscape:window-height="1058"
     inkscape:window-x="31"
     inkscape:window-y="0"
     inkscape:window-maximized="1"
     inkscape:current-layer="layer1">
    <sodipodi:guide
       position="0,4.2333333"
       orientation="0,1"
       id="guide824"
       inkscape:label=""
       inkscape:locked="false"
       inkscape:color="rgb(0,0,255)" />
  </sodipodi:namedview>
  <defs
     id="defs2" />
  <g
     inkscape:label="Layer 1"
     inkscape:groupmode="layer"
     id="layer1">
    <path
       style="opacity:1;fill:#000000;stroke-width:0.0776201"
       d="M 0.57282672,8.3696497 C 0.43374067,8.108343 0.46462149,7.9024378 0.47646672,7.6128537 L 1.8348167,7.5679937 V 6.2245896 c 0,-1.520162 -0.058,-1.742717 -0.5101,-1.957254 C 1.1156853,4.1697993 1.0311498,4.2037239 0.85643962,4.2587786 0.49900558,3.9180051 0.76331847,3.6394369 0.47840191,3.4223551 0.55645824,2.9998739 1.0599906,3.0171313 1.4185504,3.1305395 1.976182,3.3069118 2.0701778,3.5925095 2.2991374,4.254623 2.7982472,3.5953907 3.1779567,3.2493891 3.939495,3.2301017 4.6179681,3.2464507 5.6055204,3.5358756 5.9763235,4.1043881 5.3841251,4.4806595 5.1871231,4.9449453 5.2258067,6.0080066 c 0.049648,1.3643677 0.2513611,1.5540783 1.0362747,1.6256498 0,0 0.092216,0.2941578 0.098985,0.4994393 l 0.011,0.333571 -0.49335,0.02337 c -0.93218,0.04416 -1.09395,-0.280176 -1.09395,-2.1931871 0,-1.754501 -0.20347,-2.138102 -1.13406,-2.138102 -0.6036665,0.1535424 -1.0839004,0.4403884 -1.35777,0.908407 -0.079348,0.1355986 -0.098907,2.1825258 -0.040771,2.4867422 0.4311337,0.034818 0.8097347,0.03406 1.2697434,0.062459 0,0 0.1330313,0.7571362 0.1792113,0.8503112 -0.7704848,0 -2.3929968,0 -3.12829318,-0.097017 z"
       id="path1132"
       sodipodi:nodetypes="cccscccscccscscsscscccc" />
  </g>
</svg>
