<?xml version="1.0" encoding="UTF-8" standalone="no"?>
<!-- Created with Inkscape (http://www.inkscape.org/) -->

<svg
   width="26"
   height="48"
   viewBox="0 0 6.8791667 12.7"
   version="1.1"
   id="svg5"
   inkscape:version="1.1.1 (3bf5ae0d25, 2021-09-20)"
   sodipodi:docname="p.svg"
   xmlns:inkscape="http://www.inkscape.org/namespaces/inkscape"
   xmlns:sodipodi="http://sodipodi.sourceforge.net/DTD/sodipodi-0.dtd"
   xmlns="http://www.w3.org/2000/svg"
   xmlns:svg="http://www.w3.org/2000/svg">
  <sodipodi:namedview
     id="namedview7"
     pagecolor="#ffffff"
     bordercolor="#666666"
     borderopacity="1.0"
     inkscape:pageshadow="2"
     inkscape:pageopacity="0.0"
     inkscape:pagecheckerboard="0"
     inkscape:document-units="mm"
     showgrid="false"
     units="px"
     width="32px"
     showguides="true"
     inkscape:guide-bbox="true"
     inkscape:zoom="17.557358"
     inkscape:cx="3.1610678"
     inkscape:cy="24.29181"
     inkscape:window-width="1889"
     inkscape:window-height="1058"
     inkscape:window-x="31"
     inkscape:window-y="0"
     inkscape:window-maximized="1"
     inkscape:current-layer="layer1">
    <sodipodi:guide
       position="0,4.2333333"
       orientation="0,1"
       id="guide824"
       inkscape:label=""
       inkscape:locked="false"
       inkscape:color="rgb(0,0,255)" />
  </sodipodi:namedview>
  <defs
     id="defs2" />
  <g
     inkscape:label="Layer 1"
     inkscape:groupmode="layer"
     id="layer1">
    <path
       style="opacity:1;fill:#000000;stroke-width:0.0776201"
       d="M 1.850627,10.94798 C 1.5330549,8.8596968 1.8721894,6.9694711 1.617827,4.8548026 1.5394849,4.2034973 0.93456798,4.1324299 0.49235709,4.0786016 0.49955244,3.7798174 0.42602296,3.4955749 0.30872812,3.2448187 1.2521737,2.636125 1.7259776,3.2429496 2.0579459,3.6931725 2.6174386,3.1271672 2.84606,3.0311171 3.6543568,3.0311171 c 1.6510362,0 1.8300752,1.8024133 1.7667052,2.9537604 C 5.2681173,7.5597989 5.1132737,8.366121 3.659217,8.4641395 2.9636371,8.5097227 2.5242344,8.0885881 2.180507,7.7024555 1.9641823,8.412083 2.0298613,9.37726 2.296907,10.023918 c 0.2964977,0.248452 0.5957749,0.277522 0.9194734,0.342639 0.2100927,0.185195 0.2017277,0.449338 0.3404373,0.64727 -0.5596835,0.149806 -1.3078462,0.145958 -1.7062507,-0.06584 z M 5.0155865,5.7429481 c 0,-1.612797 -0.492862,-1.6255365 -1.8453795,-1.6255365 h -1.1643 v 1.1985309 c -0.032647,0.5080704 0.076067,1.0236558 0.1552,1.471914 0.3648341,0.5215461 0.9322729,0.74484 1.47479,0.74484 1.3657388,0 1.3796895,-0.7982777 1.3796895,-1.7897484 z"
       id="path1132"
       sodipodi:nodetypes="cscccsccccccccsccccss" />
  </g>
</svg>
