<?xml version="1.0" encoding="UTF-8" standalone="no"?>
<!-- Created with Inkscape (http://www.inkscape.org/) -->

<svg
   width="30"
   height="48"
   viewBox="0 0 7.9374999 12.7"
   version="1.1"
   id="svg5"
   inkscape:version="1.1.1 (3bf5ae0d25, 2021-09-20)"
   sodipodi:docname="R.svg"
   xmlns:inkscape="http://www.inkscape.org/namespaces/inkscape"
   xmlns:sodipodi="http://sodipodi.sourceforge.net/DTD/sodipodi-0.dtd"
   xmlns="http://www.w3.org/2000/svg"
   xmlns:svg="http://www.w3.org/2000/svg">
  <sodipodi:namedview
     id="namedview7"
     pagecolor="#ffffff"
     bordercolor="#666666"
     borderopacity="1.0"
     inkscape:pageshadow="2"
     inkscape:pageopacity="0.0"
     inkscape:pagecheckerboard="0"
     inkscape:document-units="mm"
     showgrid="false"
     units="px"
     width="32px"
     showguides="true"
     inkscape:guide-bbox="true"
     inkscape:zoom="12.414927"
     inkscape:cx="11.961407"
     inkscape:cy="15.263884"
     inkscape:window-width="1889"
     inkscape:window-height="1058"
     inkscape:window-x="31"
     inkscape:window-y="0"
     inkscape:window-maximized="1"
     inkscape:current-layer="layer1">
    <sodipodi:guide
       position="0,4.2333333"
       orientation="0,1"
       id="guide824"
       inkscape:label=""
       inkscape:locked="false"
       inkscape:color="rgb(0,0,255)" />
  </sodipodi:namedview>
  <defs
     id="defs2" />
  <g
     inkscape:label="Layer 1"
     inkscape:groupmode="layer"
     id="layer1">
    <path
       style="opacity:1;fill:#000000;stroke-width:0.0776201"
       d="M 5.3677644,10.078591 C 5.2841224,9.3397444 5.2353643,8.6534048 5.2125644,8.0785661 5.1660798,6.9065824 5.2066444,5.6684399 4.6180844,4.6632814 l -2.12217,-0.043191 C 2.5700575,5.443531 2.2759176,6.5174608 2.6109868,7.2597793 3.2225101,7.3099126 3.4191386,7.2102945 4.1331292,7.3112438 4.2448599,7.7339369 4.3918555,8.1947212 4.3585144,8.5442867 2.2704181,8.9977258 2.128963,8.4666667 0.28351426,8.4666667 0.28738639,7.8122587 0.46357635,7.778667 0.5248898,7.3601856 0.67380173,7.2840819 0.98235231,7.263555 1.3956843,7.263555 H 2.1075644 V 4.6244714 C 1.1622537,4.4255747 1.0963222,4.8927005 0.6526467,4.8314369 0.57601447,4.3436938 0.33938047,3.970499 0.51017057,3.5750356 1.0476761,3.6386209 1.5825044,3.9425904 2.1412224,4.0362126 2.0977528,3.1377703 2.1075744,2.5122838 2.1075744,1.519667 1.6517731,1.5203453 1.195983,1.5199179 0.74020324,1.5152732 0.53807069,1.0839024 0.28822184,0.55123499 0.30340196,0.14489421 1.262172,0.21187228 2.3289502,0.2775272 3.1554444,0.27774508 c 1.4884399,3.9237e-4 2.1554077,-0.004951 2.40622,0.07762 0.8662616,0.28518675 1.4748813,1.29305182 1.5205788,1.98149852 0.099809,1.5036475 -0.659129,2.1291392 -1.7937188,2.3391873 0.015785,1.37909 0.4823161,1.8272286 0.38948,2.4322636 -0.1826474,1.1903571 -0.1279953,2.5453149 0.61752,2.6390835 0.38545,0 0.6557434,0.1617968 0.6909908,0.432944 0.039664,0.305124 0.088609,0.499978 0.088609,0.808977 h -0.5664 C 5.9358456,10.972571 5.4378401,10.697601 5.3677644,10.078591 Z M 6.6371738,2.7114568 C 6.4980576,1.7430832 5.9554044,1.7273241 5.2416444,1.5953954 4.2568527,1.4133703 3.5492044,1.5412798 2.4569844,1.5584774 2.4686524,2.3536461 2.5194914,3.1501858 2.4567351,3.9442919 3.3511825,4.3780842 3.8805911,4.3128041 4.4751444,4.313991 5.5750859,4.353795 6.8267455,4.0310457 6.6371738,2.7114568 Z"
       id="path1132"
       sodipodi:nodetypes="sscccccccsccccccccssscscsccssscccs" />
  </g>
</svg>
