<?xml version="1.0" encoding="UTF-8" standalone="no"?>
<!-- Created with Inkscape (http://www.inkscape.org/) -->

<svg
   width="35"
   height="48"
   viewBox="0 0 9.2604164 12.7"
   version="1.1"
   id="svg5"
   inkscape:version="1.1.1 (3bf5ae0d25, 2021-09-20)"
   sodipodi:docname="U.svg"
   xmlns:inkscape="http://www.inkscape.org/namespaces/inkscape"
   xmlns:sodipodi="http://sodipodi.sourceforge.net/DTD/sodipodi-0.dtd"
   xmlns="http://www.w3.org/2000/svg"
   xmlns:svg="http://www.w3.org/2000/svg">
  <sodipodi:namedview
     id="namedview7"
     pagecolor="#ffffff"
     bordercolor="#666666"
     borderopacity="1.0"
     inkscape:pageshadow="2"
     inkscape:pageopacity="0.0"
     inkscape:pagecheckerboard="0"
     inkscape:document-units="mm"
     showgrid="false"
     units="px"
     width="32px"
     showguides="true"
     inkscape:guide-bbox="true"
     inkscape:zoom="17.557358"
     inkscape:cx="11.818407"
     inkscape:cy="11.02102"
     inkscape:window-width="1889"
     inkscape:window-height="1058"
     inkscape:window-x="31"
     inkscape:window-y="0"
     inkscape:window-maximized="1"
     inkscape:current-layer="layer1">
    <sodipodi:guide
       position="0,4.2333333"
       orientation="0,1"
       id="guide824"
       inkscape:label=""
       inkscape:locked="false"
       inkscape:color="rgb(0,0,255)" />
  </sodipodi:namedview>
  <defs
     id="defs2" />
  <g
     inkscape:label="Layer 1"
     inkscape:groupmode="layer"
     id="layer1">
    <path
       style="opacity:1;fill:#000000;stroke-width:0.0776201"
       d="M 2.4053914,7.917464 C 2.0169846,6.6479311 2.0719965,5.2124886 2.0637914,4.1946927 l -0.0204,-2.7526442 C 1.5357405,1.4241087 1.0232663,1.4308869 0.52226658,1.3549451 0.46805436,0.86162599 0.21940141,0.49374857 0.21940141,0.00607598 H 2.1090614 l 2.03181,0.1570744 C 4.2314685,0.60099472 3.9743002,1.0630181 3.8663199,1.4246948 3.294889,1.3434374 3.067775,1.4032379 2.3928114,1.4032379 2.601378,2.454549 1.7876431,6.8547925 3.3604414,6.9918851 c 0.4053647,0.035334 0.7474879,0.1713325 1.08468,0.15524 0.5577258,-0.026617 1.4715683,-0.058997 1.808158,-0.4851968 0.2192271,-0.2775916 0.3294654,-0.7318708 0.3309821,-1.3365066 0.00397,-1.580973 0.00803,-2.3949618 -0.0388,-3.8833743 C 6.0447733,1.4143546 5.5460643,1.4138384 5.0463794,1.4536204 5.0951605,0.6626359 4.8042705,0.85678425 4.8768914,0.00607528 h 1.4314 c 0.795092,-0.01356872 1.5189697,0.07083652 2.248417,0.2096819 0.087133,0.41994598 0.046757,0.69795451 0.00709,1.14866982 -0.9626671,0.1764052 -0.9442403,-0.1299099 -1.66883,-0.11643 -0.017871,0.9326857 0.066667,2.2639698 0.0716,3.019003 0.00807,1.2351594 0.1440338,2.2785624 -0.2268,3.3881837 C 6.3368324,8.5803811 5.4572475,8.3368123 4.6182559,8.4126821 4.03189,8.465707 2.6074792,8.5108121 2.4053914,7.917464 Z"
       id="path1132"
       sodipodi:nodetypes="cccccccccsssscccccccscsc" />
  </g>
</svg>
