<?xml version="1.0" encoding="UTF-8" standalone="no"?>
<!-- Created with Inkscape (http://www.inkscape.org/) -->

<svg
   width="55"
   height="48"
   viewBox="0 0 14.552077 12.7"
   version="1.1"
   id="svg5"
   inkscape:version="1.1.1 (3bf5ae0d25, 2021-09-20)"
   sodipodi:docname="W.svg"
   xmlns:inkscape="http://www.inkscape.org/namespaces/inkscape"
   xmlns:sodipodi="http://sodipodi.sourceforge.net/DTD/sodipodi-0.dtd"
   xmlns="http://www.w3.org/2000/svg"
   xmlns:svg="http://www.w3.org/2000/svg">
  <sodipodi:namedview
     id="namedview7"
     pagecolor="#ffffff"
     bordercolor="#666666"
     borderopacity="1.0"
     inkscape:pageshadow="2"
     inkscape:pageopacity="0.0"
     inkscape:pagecheckerboard="0"
     inkscape:document-units="mm"
     showgrid="false"
     units="px"
     width="32px"
     showguides="true"
     inkscape:guide-bbox="true"
     inkscape:zoom="12.414927"
     inkscape:cx="14.700046"
     inkscape:cy="22.191029"
     inkscape:window-width="1889"
     inkscape:window-height="1058"
     inkscape:window-x="31"
     inkscape:window-y="0"
     inkscape:window-maximized="1"
     inkscape:current-layer="layer1">
    <sodipodi:guide
       position="0,4.2333333"
       orientation="0,1"
       id="guide824"
       inkscape:label=""
       inkscape:locked="false"
       inkscape:color="rgb(0,0,255)" />
  </sodipodi:namedview>
  <defs
     id="defs2" />
  <g
     inkscape:label="Layer 1"
     inkscape:groupmode="layer"
     id="layer1">
    <path
       style="opacity:1;fill:#000000;stroke-width:0.0776201"
       d="M 3.2811166,8.4667027 C 3.4460547,8.1147776 3.5450931,7.6950796 3.7096851,7.361922 4.0964401,7.3527226 4.4501505,7.1687077 4.6868928,6.9208119 3.8051569,5.6053936 2.9106243,2.8677791 2.2030468,1.6004666 1.7767289,1.4980194 1.4236996,1.5949594 0.9525106,1.5949594 0.93395426,1.1531822 0.73950428,0.70521844 0.4867906,0.42938732 c 0,-0.05199 0.708053,-0.07184 2.076338,-0.05822 l 2.076338,0.02067 C 4.6961565,0.77931947 4.5538025,1.1869082 4.3973112,1.4907197 3.8438224,1.6710104 3.3308331,1.5635527 2.7971707,1.6270778 3.0617977,2.2820778 4.402929,6.2549151 5.0042706,6.5626357 5.6053841,4.5288548 6.3039958,2.6521498 6.6602128,1.6276972 6.2450551,1.543604 5.8319184,1.613758 5.4362217,1.5855927 5.2817022,1.1617173 5.0814721,0.66427248 5.0116836,0.31404422 6.5141394,0.13121441 7.4498169,0.21898827 9.1414246,0.23659232 9.2047692,0.69337327 9.0895803,1.1853688 8.8387411,1.4804722 8.2857296,1.5226547 7.6740214,1.6167045 7.1921256,1.5507408 7.1329066,1.6620667 7.2353196,2.0424822 7.3980256,2.4157434 8.0858831,3.669899 8.535801,5.1252601 9.1331969,6.4056494 9.819373,4.488438 10.459181,2.6538872 11.043121,1.1775824 c 0.107198,-0.27101553 0.389688,-0.83909452 0.833363,-1.03803008 0.486086,-0.21795168 1.166273,-0.17276189 1.43062,0.13511744 -0.220782,0.26443572 -0.433272,0.71814227 -0.42998,1.12163634 -0.612316,-0.053462 -1.444538,-0.046844 -1.678761,0.4791003 -0.754151,1.6934378 -1.4580281,3.8156624 -2.0181255,5.4548373 -0.3494318,1.1364221 -0.8410252,1.250495 -1.707642,1.250495 0.023129,-0.4858512 0.030053,-1.09787 0.3069114,-1.4123322 0.3863167,0.019105 0.6514819,-0.00569 1.0514404,-0.02364 0.022294,-0.1332416 0.055857,-0.3670994 0.02916,-0.48022 C 8.3497539,5.498158 7.6526392,3.9100699 7.1621065,2.6372534 6.9932423,2.1990907 6.788091,2.0912042 6.6326365,2.5270034 5.977404,4.3638746 5.6351158,6.64373 4.4338145,8.2432397 c -0.357536,0.364302 -0.799829,0.5100729 -1.152727,0.223427 z"
       id="path1132"
       sodipodi:nodetypes="ccccccsccccccccccccssccscccccssccc" />
  </g>
</svg>
