<?xml version="1.0" encoding="UTF-8" standalone="no"?>
<!-- Created with Inkscape (http://www.inkscape.org/) -->

<svg
   width="28"
   height="48"
   viewBox="0 0 7.4083333 12.7"
   version="1.1"
   id="svg5"
   inkscape:version="1.1.1 (3bf5ae0d25, 2021-09-20)"
   sodipodi:docname="x.svg"
   xmlns:inkscape="http://www.inkscape.org/namespaces/inkscape"
   xmlns:sodipodi="http://sodipodi.sourceforge.net/DTD/sodipodi-0.dtd"
   xmlns="http://www.w3.org/2000/svg"
   xmlns:svg="http://www.w3.org/2000/svg">
  <sodipodi:namedview
     id="namedview7"
     pagecolor="#ffffff"
     bordercolor="#666666"
     borderopacity="1.0"
     inkscape:pageshadow="2"
     inkscape:pageopacity="0.0"
     inkscape:pagecheckerboard="0"
     inkscape:document-units="mm"
     showgrid="false"
     units="px"
     width="32px"
     showguides="true"
     inkscape:guide-bbox="true"
     inkscape:zoom="12.414927"
     inkscape:cx="-3.8260394"
     inkscape:cy="21.466095"
     inkscape:window-width="1889"
     inkscape:window-height="1058"
     inkscape:window-x="31"
     inkscape:window-y="0"
     inkscape:window-maximized="1"
     inkscape:current-layer="layer1">
    <sodipodi:guide
       position="0,4.2333333"
       orientation="0,1"
       id="guide824"
       inkscape:label=""
       inkscape:locked="false"
       inkscape:color="rgb(0,0,255)" />
  </sodipodi:namedview>
  <defs
     id="defs2" />
  <g
     inkscape:label="Layer 1"
     inkscape:groupmode="layer"
     id="layer1">
    <path
       style="opacity:1;fill:#000000;stroke-width:0.0776201"
       d="M 0.24704039,8.4666667 C 0.2325806,8.1063973 0.294085,7.9750974 0.42844999,7.633937 c 0,0 0.28556594,0.0068 0.60711011,0.0068 0.3036446,0 0.5965329,-0.08383 0.5965329,-0.08383 C 1.8719449,6.8310097 2.6213288,6.2040103 2.9608151,5.6320263 2.5559167,5.1916893 2.2913525,4.6574564 1.9321389,4.1741691 1.5405161,4.2395567 1.2000804,4.2330827 0.80412974,4.1493293 0.62335578,3.773381 0.60515605,3.5495266 0.60515605,3.1387741 H 2.0411281 c 1.093862,0 1.437385,0.02312 1.44191,0.09703 0.097056,0.3570667 -0.078243,0.5965756 -0.2092945,0.9241209 -0.4256205,0.050279 -0.35429,0.077348 -0.8513931,0.032183 0.033372,0.3476023 0.5363951,1.0586605 0.8203189,1.0608662 C 4.0614224,4.3212983 4.5759474,2.6810879 5.8057021,3.2416792 6.0245534,3.5903684 6.2297025,3.8616504 6.440146,4.1965485 4.8335071,4.1249967 4.1251558,4.3234212 3.4245497,5.6118009 4.420995,7.1080152 4.6891384,7.276224 6.5302179,7.54321 5.9721735,7.9284538 5.968434,8.3272832 5.63614,8.4943635 4.4968782,8.1012835 4.1830009,6.6860279 3.2025891,6.0883432 2.7028843,6.451296 2.2689025,6.9449441 2.1202264,7.5488144 2.5336704,7.6249004 2.82236,7.6586617 3.2528207,7.6087644 3.316652,7.9713538 3.6156305,8.150472 3.4138391,8.466667 2.7461452,8.6265904 1.1891102,8.6246991 0.24704039,8.4666667 Z"
       id="path1132"
       sodipodi:nodetypes="ccscccccscccccccccccccc" />
  </g>
</svg>
