<?xml version="1.0" encoding="UTF-8" standalone="no"?>
<!-- Created with Inkscape (http://www.inkscape.org/) -->

<svg
   width="29"
   height="48"
   viewBox="0 0 7.6729166 12.7"
   version="1.1"
   id="svg5"
   inkscape:version="1.1.1 (3bf5ae0d25, 2021-09-20)"
   sodipodi:docname="y.svg"
   xmlns:inkscape="http://www.inkscape.org/namespaces/inkscape"
   xmlns:sodipodi="http://sodipodi.sourceforge.net/DTD/sodipodi-0.dtd"
   xmlns="http://www.w3.org/2000/svg"
   xmlns:svg="http://www.w3.org/2000/svg">
  <sodipodi:namedview
     id="namedview7"
     pagecolor="#ffffff"
     bordercolor="#666666"
     borderopacity="1.0"
     inkscape:pageshadow="2"
     inkscape:pageopacity="0.0"
     inkscape:pagecheckerboard="0"
     inkscape:document-units="mm"
     showgrid="false"
     units="px"
     width="32px"
     showguides="true"
     inkscape:guide-bbox="true"
     inkscape:zoom="17.557358"
     inkscape:cx="4.5849723"
     inkscape:cy="20.931395"
     inkscape:window-width="1889"
     inkscape:window-height="1058"
     inkscape:window-x="31"
     inkscape:window-y="0"
     inkscape:window-maximized="1"
     inkscape:current-layer="layer1">
    <sodipodi:guide
       position="0,4.2333333"
       orientation="0,1"
       id="guide824"
       inkscape:label=""
       inkscape:locked="false"
       inkscape:color="rgb(0,0,255)" />
  </sodipodi:namedview>
  <defs
     id="defs2" />
  <g
     inkscape:label="Layer 1"
     inkscape:groupmode="layer"
     id="layer1">
    <path
       style="opacity:1;fill:#000000;stroke-width:0.0776201"
       d="m 0.91538711,10.868685 c -0.21438418,-0.236889 0.14605959,-0.66727 0.14605959,-0.66727 0.2902739,0.06349 0.6088559,0.01873 0.8121604,-0.122224 C 2.3675578,9.5397873 2.7637513,8.4666667 2.9601671,8.065649 2.6560789,6.6584142 1.86215,5.2184134 1.5200176,3.999192 1.1768055,4.0466334 0.80163167,4.0380225 0.43804442,3.9845178 0.16944182,3.6270195 0.24878682,3.4025969 0.29967369,3.0214179 1.4868822,2.853149 2.1941901,2.938141 3.5812671,2.938141 3.6400931,3.3023007 3.476124,3.6001995 3.4153781,3.9295185 2.9981038,3.9653221 2.7006056,4.0258316 2.0475627,4.0227951 2.1393995,4.3712239 2.5881028,6.3124405 3.2711771,7.09062 4.0372248,5.9643084 4.1648131,4.6880653 4.8230671,3.744216 5.3120315,3.0431057 5.7493063,2.7386841 6.6859471,2.9371905 6.61311,3.3121501 6.4241013,3.5664747 6.3755471,3.9766904 5.5042866,3.9023465 5.0824454,4.2947364 4.6679071,5.017145 3.7148203,6.6780724 3.3590243,8.7143538 2.3391171,10.603128 2.0520245,11.122265 0.91577711,10.868686 0.91577711,10.868686 Z"
       id="path1132"
       sodipodi:nodetypes="cccccccccccsccsccc" />
  </g>
</svg>
