<?xml version="1.0" encoding="UTF-8" standalone="no"?>
<!-- Created with Inkscape (http://www.inkscape.org/) -->

<svg
   width="21"
   height="48"
   viewBox="0 0 5.5562496 12.7"
   version="1.1"
   id="svg5"
   inkscape:version="1.1.1 (3bf5ae0d25, 2021-09-20)"
   sodipodi:docname="7.svg"
   xmlns:inkscape="http://www.inkscape.org/namespaces/inkscape"
   xmlns:sodipodi="http://sodipodi.sourceforge.net/DTD/sodipodi-0.dtd"
   xmlns="http://www.w3.org/2000/svg"
   xmlns:svg="http://www.w3.org/2000/svg">
  <sodipodi:namedview
     id="namedview7"
     pagecolor="#ffffff"
     bordercolor="#666666"
     borderopacity="1.0"
     inkscape:pageshadow="2"
     inkscape:pageopacity="0.0"
     inkscape:pagecheckerboard="0"
     inkscape:document-units="mm"
     showgrid="false"
     showguides="true"
     inkscape:guide-bbox="true"
     units="px"
     width="32px"
     inkscape:zoom="17.557358"
     inkscape:cx="12.843618"
     inkscape:cy="20.134009"
     inkscape:window-width="1889"
     inkscape:window-height="1058"
     inkscape:window-x="31"
     inkscape:window-y="0"
     inkscape:window-maximized="1"
     inkscape:current-layer="layer1">
    <sodipodi:guide
       position="0,4.2333331"
       orientation="0,1"
       id="guide824"
       inkscape:label=""
       inkscape:locked="false"
       inkscape:color="rgb(0,0,255)" />
  </sodipodi:namedview>
  <defs
     id="defs2" />
  <g
     inkscape:label="Layer 1"
     inkscape:groupmode="layer"
     id="layer1">
    <path
       style="opacity:1;fill:#000000;stroke:none;stroke-width:0.066814"
       d="M 0.31787102,2.9862678 C 0.59582097,2.9433078 0.73078097,2.8380738 0.85238097,2.5853838 0.44816102,2.1419395 0.46019102,1.4183435 1.253271,1.4180095 c 0.48974,-2.67e-4 0.86056,0.531439 1.26946,0.724865 0.38084,0.180264 1.13384,0.07076 1.53672,-0.02519 -0.53518,1.5699283 -1.56612,2.9640023 -2.09395,4.5433513 -0.13162,0.393734 -0.48774,1.917828 0.29131,1.917828 0.32873,0 0.58329,-0.382243 0.86725,-0.514735 -0.10423,-0.314026 -0.3775,-0.267055 -0.66814,-0.267256 -0.21314,-1.611553 0.81379,-3.339897 1.48394,-4.799248 0.2149955,-0.4670015 1.0110991,-1.8249789 1.0110991,-1.8249789 0,0 -0.2279082,-0.045612 -0.2575944,-0.1570379 C 4.3718773,1.440817 4.343411,1.7783365 3.792201,1.7810755 3.216261,1.7839755 2.787981,1.1583025 2.236101,1.0125814 0.90583097,0.66120645 -0.07365898,1.7324355 0.31787102,2.9862668"
       id="path1092"
       sodipodi:nodetypes="cccccsscccccscc" />
  </g>
</svg>
