<?xml version="1.0" encoding="UTF-8" standalone="no"?>
<!-- Created with Inkscape (http://www.inkscape.org/) -->

<svg
   width="38"
   height="48"
   viewBox="0 0 10.054166 12.7"
   version="1.1"
   id="svg5"
   inkscape:version="1.1.1 (3bf5ae0d25, 2021-09-20)"
   sodipodi:docname="B.svg"
   xmlns:inkscape="http://www.inkscape.org/namespaces/inkscape"
   xmlns:sodipodi="http://sodipodi.sourceforge.net/DTD/sodipodi-0.dtd"
   xmlns="http://www.w3.org/2000/svg"
   xmlns:svg="http://www.w3.org/2000/svg">
  <sodipodi:namedview
     id="namedview7"
     pagecolor="#ffffff"
     bordercolor="#666666"
     borderopacity="1.0"
     inkscape:pageshadow="2"
     inkscape:pageopacity="0.0"
     inkscape:pagecheckerboard="0"
     inkscape:document-units="mm"
     showgrid="false"
     showguides="true"
     inkscape:guide-bbox="true"
     units="px"
     width="32px"
     inkscape:zoom="11.313709"
     inkscape:cx="-2.5190679"
     inkscape:cy="10.650796"
     inkscape:window-width="1889"
     inkscape:window-height="1058"
     inkscape:window-x="31"
     inkscape:window-y="0"
     inkscape:window-maximized="1"
     inkscape:current-layer="layer1">
    <sodipodi:guide
       position="0,4.2333331"
       orientation="0,1"
       id="guide824"
       inkscape:label=""
       inkscape:locked="false"
       inkscape:color="rgb(0,0,255)" />
  </sodipodi:namedview>
  <defs
     id="defs2" />
  <g
     inkscape:label="Layer 1"
     inkscape:groupmode="layer"
     id="layer1">
    <path
       id="path1092"
       style="opacity:1;fill:#000000;stroke:none;stroke-width:0.252525"
       d="M 27.324219,3.3964844 C 23.634997,3.8712435 20.869241,5.9472633 18.814453,8.5195312 16.752099,7.4772839 15.368061,5.6308208 13.257812,4.6152344 9.5222068,2.8172544 6.3226637,4.5841972 2.78125,5.4160156 2.3188739,6.9950561 0.41782406,8.396729 0.95898438,10.212891 2.4185813,15.110366 11.127867,15.333246 14.144531,11.980469 12.748068,12.073147 11.496192,12.847317 10.103516,12.953125 7.4901311,13.151357 1.1159086,9.9686118 3.25,6.6933594 5.1270194,3.8122985 9.8443259,6.2521859 11.871094,7.6054688 c 4.560604,3.0457072 6.790153,10.2062772 5.375,15.4863282 -0.816412,3.046465 -3.157283,6.622115 -6.427735,7.458984 -5.1234276,1.311208 -9.2372555,-4.473844 -7.849609,-8.595703 0.7591203,-2.254888 4.7817403,-1.033007 5.859375,-0.08789 1.1429291,1.046212 2.450018,3.671633 0.7714844,4.759765 1.7166656,0.542929 2.8530726,-2.402008 2.6972656,-3.787109 -4.162318,-8.653791 -14.269255,0.134927 -10.6953125,6.3125 2.769192,4.168182 8.1879356,3.366698 11.9394535,1.109375 4.284344,-2.578031 6.412109,-9.533416 6.412109,-14.240235 0.388684,-2.220941 -1.961499,-6.3798031 -0.863281,-7.3730464 1.154947,-1.0445499 2.891283,-2.4080589 4.144531,-2.7148437 4.818433,-1.0517677 5.7493,3.131834 4.292969,6.8046871 -0.54389,1.371686 -3.884424,3.438547 -5.048828,5.050777 l 2.019531,-1.009765 c 1.793688,0.371214 3.650185,0.42107 5.251953,1.445312 1.900252,1.215404 3.634245,4.060338 3.267578,6.382813 -0.652777,4.133333 -4.584431,7.551918 -8.519531,4.488281 -0.778284,-0.605808 -1.644731,-1.294508 -2.234375,-2.09375 -0.690087,-0.934818 -1.157033,-2.120419 -0.992188,-3.259765 0.08922,-0.616627 0.567838,-1.323269 1.21875,-1.498047 2.836933,-0.761751 5.530571,0.622084 5.542969,4.130859 1.537879,-0.844697 2.05702,-3.650323 0.619141,-4.902344 -1.424317,-1.240085 -4.160794,-0.848968 -5.830078,0.183594 -0.724424,0.448104 -1.474062,0.81558 -1.859374,1.435549 -0.949215,1.527291 -1.369416,3.181337 -0.890625,5.050781 0.921464,3.600505 5.889872,4.253855 8.949218,2.998047 3.979544,-1.633333 6.490922,-7.130725 5.462891,-11.259766 -0.596984,-2.398232 -2.016742,-3.858266 -4.181641,-5.001953 -1.025518,-0.54189 -2.215004,-0.344027 -2.87025,-1.323003 0.250428,-0.31411 0.387085,-0.497389 0.548547,-0.90646 2.916791,-1.089099 4.209381,-5.8699035 2.13225,-8.1631148 -0.703505,-0.77675 -1.692409,-1.0953407 -2.789063,-1.0898418 z"
       transform="scale(0.26458333)"
       sodipodi:nodetypes="cccccccccccsccccccscsccccccssccsscccccccc" />
  </g>
</svg>
