<?xml version="1.0" encoding="UTF-8" standalone="no"?>
<!-- Created with Inkscape (http://www.inkscape.org/) -->

<svg
   width="19"
   height="48"
   viewBox="0 0 5.027083 12.7"
   version="1.1"
   id="svg5"
   inkscape:version="1.1.1 (3bf5ae0d25, 2021-09-20)"
   sodipodi:docname="e.svg"
   xmlns:inkscape="http://www.inkscape.org/namespaces/inkscape"
   xmlns:sodipodi="http://sodipodi.sourceforge.net/DTD/sodipodi-0.dtd"
   xmlns="http://www.w3.org/2000/svg"
   xmlns:svg="http://www.w3.org/2000/svg">
  <sodipodi:namedview
     id="namedview7"
     pagecolor="#ffffff"
     bordercolor="#666666"
     borderopacity="1.0"
     inkscape:pageshadow="2"
     inkscape:pageopacity="0.0"
     inkscape:pagecheckerboard="0"
     inkscape:document-units="mm"
     showgrid="false"
     showguides="true"
     inkscape:guide-bbox="true"
     units="px"
     width="32px"
     inkscape:zoom="8.7786791"
     inkscape:cx="-8.2586457"
     inkscape:cy="18.169021"
     inkscape:window-width="1889"
     inkscape:window-height="1058"
     inkscape:window-x="31"
     inkscape:window-y="0"
     inkscape:window-maximized="1"
     inkscape:current-layer="layer1">
    <sodipodi:guide
       position="0,4.2333331"
       orientation="0,1"
       id="guide824"
       inkscape:label=""
       inkscape:locked="false"
       inkscape:color="rgb(0,0,255)" />
  </sodipodi:namedview>
  <defs
     id="defs2" />
  <g
     inkscape:label="Layer 1"
     inkscape:groupmode="layer"
     id="layer1">
    <path
       style="opacity:1;fill:#000000;stroke:none;stroke-width:0.066814"
       d="M 0.18882855,6.3376519 0.33954588,6.4553578 C 0.48218017,6.3007625 0.55504176,6.1288447 0.79766301,5.9990734 0.64636338,6.2877521 0.55363857,6.7988679 0.60708857,7.1394189 c 0.0327,0.206389 0.0882,0.482464 0.18441,0.66814 C 1.7078178,9.5724099 3.6554881,7.7268598 4.4743738,7.0958713 4.54101,6.8373571 4.4403634,6.7697503 4.3280086,6.7155051 c 0,0 -0.7957705,1.0282371 -1.40583,1.1969518 -0.40731,0.1126434 -1.0666837,0.081886 -1.26345,-0.104898 -0.4724358,-0.4484691 -0.75834003,-1.074168 -0.45767,-1.803977 0.11826,-0.287367 0.35344,-0.675423 0.65945,-0.785866 0.38886,-0.140243 0.86791,0.158883 0.85455,0.585424 -0.01274,0.5416061 -0.7401055,1.2310038 -0.7401055,1.2310038 l 0.1780635,0.1791052 c 0.02429,0.029936 1.0332707,-0.8992982 1.242882,-1.677365 -0.81848,-1.64202 -2.46277003,-0.250953 -3.20708005,0.801768"
       id="path1092"
       sodipodi:nodetypes="cccccccssccccccc" />
  </g>
</svg>
