<?xml version="1.0" encoding="UTF-8" standalone="no"?>
<!-- Created with Inkscape (http://www.inkscape.org/) -->

<svg
   width="27"
   height="48"
   viewBox="0 0 7.1437494 12.7"
   version="1.1"
   id="svg5"
   inkscape:version="1.1.1 (3bf5ae0d25, 2021-09-20)"
   sodipodi:docname="G.svg"
   xmlns:inkscape="http://www.inkscape.org/namespaces/inkscape"
   xmlns:sodipodi="http://sodipodi.sourceforge.net/DTD/sodipodi-0.dtd"
   xmlns="http://www.w3.org/2000/svg"
   xmlns:svg="http://www.w3.org/2000/svg">
  <sodipodi:namedview
     id="namedview7"
     pagecolor="#ffffff"
     bordercolor="#666666"
     borderopacity="1.0"
     inkscape:pageshadow="2"
     inkscape:pageopacity="0.0"
     inkscape:pagecheckerboard="0"
     inkscape:document-units="mm"
     showgrid="false"
     showguides="true"
     inkscape:guide-bbox="true"
     units="px"
     width="32px"
     inkscape:zoom="17.557358"
     inkscape:cx="6.0658329"
     inkscape:cy="43.030392"
     inkscape:window-width="1889"
     inkscape:window-height="1058"
     inkscape:window-x="31"
     inkscape:window-y="0"
     inkscape:window-maximized="1"
     inkscape:current-layer="layer1">
    <sodipodi:guide
       position="0,4.2333331"
       orientation="0,1"
       id="guide824"
       inkscape:label=""
       inkscape:locked="false"
       inkscape:color="rgb(0,0,255)" />
  </sodipodi:namedview>
  <defs
     id="defs2" />
  <g
     inkscape:label="Layer 1"
     inkscape:groupmode="layer"
     id="layer1">
    <path
       id="path1092"
       style="opacity:1;fill:#382514;stroke:none;stroke-width:0.0668139"
       d="M 3.7446217,1.2546614 C 3.4359106,1.2483961 3.1018138,1.303397 2.7333141,1.4257104 1.5471943,1.9047869 0.77644446,2.4976027 0.39443868,4.1433739 0.11448866,5.3607914 0.07967164,6.7303221 0.84402362,7.7839786 1.4669728,8.6421793 3.0599649,8.8557634 3.9338448,8.2894532 4.0800604,8.1946993 4.4494092,8.1522821 4.6754891,8.0873745 4.6883663,9.113281 4.9809119,10.3766 4.691335,11.225629 4.595125,11.483731 4.2843389,11.892276 3.9549458,11.749628 3.4892509,11.54805 3.2117596,11.125611 3.3343109,10.757957 L 3.8019825,9.3549421 2.8666392,10.624632 c 0.02312,0.73029 0.037425,1.840236 1.0629842,1.574581 0.515136,-0.147659 0.9574778,-0.729102 1.2634888,-1.135331 C 5.6220166,10.152283 5.4437777,8.5779188 5.5393441,7.6847599 5.6779561,7.5591524 5.7711776,7.5491445 5.9482177,7.5477629 L 6.3408456,7.0165835 5.7398488,7.4175926 C 5.6524678,7.4758967 5.5203288,7.553485 5.4390919,7.5979427 5.1848654,7.2860373 5.5208545,6.6602911 5.6726695,6.3484066 H 5.3388397 C 5.2206686,6.8707656 5.0629563,7.3670688 4.6381071,7.6873427 l 0.020082,0.2683598 c -0.1413782,0.073578 -0.5522886,0.1270309 -0.5890382,0.129549 -0.4663619,0 -1.0742429,0.1000556 -1.51722,-0.06718 C 1.7060648,7.699303 1.151435,6.611431 0.88484801,5.8140729 0.765251,5.4566851 0.65240814,4.9966538 0.72332724,4.6043524 0.91764965,3.5294242 0.90078762,2.7140675 1.5937192,2.1892586 1.8496608,2.0080932 2.5079293,1.7057278 2.7999766,1.6551537 3.7480665,1.5239311 5.4078523,2.6188388 5.3176524,3.6757022 5.271617,4.2176173 4.9421936,4.518687 4.596766,4.7991479 4.4200577,4.9426217 4.2809985,4.986293 3.9425784,4.8947443 3.6386203,4.8125184 3.3816438,4.7356241 3.2009857,4.4777205 2.9341587,4.0968041 2.8565803,3.1099 2.8565803,3.1099 L 2.5328094,3.2746931 C 2.5771157,3.6084642 2.5755883,3.5459675 2.50597,4.2962221 2.4159146,5.2667204 3.7092284,5.3975833 3.9703435,5.2785941 4.2247666,5.1626545 4.3173731,5.0185063 4.6959403,4.9632896 5.3760502,4.8640907 5.7815868,3.768526 5.5951945,2.8904139 5.5305451,2.5858447 5.6601288,2.514494 5.7398488,2.4065291 5.153974,1.6876796 4.5335499,1.2706725 3.7446217,1.2546614 Z"
       sodipodi:nodetypes="scccscccscccccccsccccccccscccsssccsssscs" />
  </g>
</svg>
