<?xml version="1.0" encoding="UTF-8" standalone="no"?>
<!-- Created with Inkscape (http://www.inkscape.org/) -->

<svg
   width="38"
   height="48"
   viewBox="0 0 10.054166 12.7"
   version="1.1"
   id="svg5"
   inkscape:version="1.1.1 (3bf5ae0d25, 2021-09-20)"
   sodipodi:docname="H.svg"
   xmlns:inkscape="http://www.inkscape.org/namespaces/inkscape"
   xmlns:sodipodi="http://sodipodi.sourceforge.net/DTD/sodipodi-0.dtd"
   xmlns="http://www.w3.org/2000/svg"
   xmlns:svg="http://www.w3.org/2000/svg">
  <sodipodi:namedview
     id="namedview7"
     pagecolor="#ffffff"
     bordercolor="#666666"
     borderopacity="1.0"
     inkscape:pageshadow="2"
     inkscape:pageopacity="0.0"
     inkscape:pagecheckerboard="0"
     inkscape:document-units="mm"
     showgrid="false"
     showguides="true"
     inkscape:guide-bbox="true"
     units="px"
     width="32px"
     inkscape:zoom="17.557358"
     inkscape:cx="6.3506138"
     inkscape:cy="13.242311"
     inkscape:window-width="1889"
     inkscape:window-height="1058"
     inkscape:window-x="31"
     inkscape:window-y="0"
     inkscape:window-maximized="1"
     inkscape:current-layer="layer1">
    <sodipodi:guide
       position="0,4.2333331"
       orientation="0,1"
       id="guide824"
       inkscape:label=""
       inkscape:locked="false"
       inkscape:color="rgb(0,0,255)" />
  </sodipodi:namedview>
  <defs
     id="defs2" />
  <g
     inkscape:label="Layer 1"
     inkscape:groupmode="layer"
     id="layer1">
    <path
       id="path1092"
       style="opacity:1;fill:#000000;stroke:none;stroke-width:0.252525"
       d="m 19.722656,3.7167969 c -1.542954,0.1106078 -1.91646,1.9648437 -3.535156,1.9648437 -0.782816,0 -1.54419,-0.639311 -2.271484,-0.8847656 C 11.698003,4.0471339 5.8462783,3.050833 4.8535156,6.3710938 4.4009208,7.8847814 4.1125941,9.5960664 4.1191374,10.925779 c 0.012257,2.490725 4.8866704,2.506958 4.9980465,-0.138672 0.021708,-0.515642 -4.7393165,-0.448253 -4.7070277,0 C 4.3833957,9.3950154 4.5658956,7.5504837 5.1953125,6.3613281 8.2780562,4.8501454 11.662946,6.8427631 14.543738,7.5424765 15.497184,7.4078596 16.670969,6.6880208 17.571691,6.3275927 15.88228,9.9780978 14.908584,12.943482 15.191406,17.101562 15.443879,20.777825 16.514452,24.791931 14.373047,28.212891 9.6619205,35.740179 2.1928906,27.48065 3.4628906,21.535156 c 0.3147353,-1.473431 2.458555,-1.968204 3.6347656,-1.894531 2.9949358,0.24192 3.2108858,3.418541 2.2714844,5.541016 5.9410114,-1.448397 1.2890694,-11.483043 -5.9813874,-4.541859 -1.3312717,1.27098 -2.70616214,6.930276 -1.4404881,8.549672 4.9771176,6.36809 13.7260579,1.853453 14.7460939,-1.230469 l 2.219412,-5.90499 c 0,0 -0.809435,-8.429786 -1.009921,-12.6188814 -0.05361,-1.1202078 1.049826,-3.4382784 2.002835,-4.276339 z M 31.25,3.8476562 c -1.395766,0.068057 -2.596412,0.1357343 -3.445307,1.1328122 -1.985121,2.3316426 -3.942842,5.7542796 -4.041016,8.5859376 -0.0025,4.348485 -1.221383,11.00172 1.048828,14.898438 0.893934,1.537879 2.452035,2.396267 3.75,3.535156 1.299007,-0.851652 2.371087,-1.757667 3.314605,-3.029991 l 2.072114,-2.794228 -0.228516,-0.191406 -2.371847,2.838144 c -2.425983,0.288192 -4.302199,-2.373235 -4.358425,-5.138162 l -0.195509,-9.614045 c -0.06124,-3.011329 -0.111336,-6.9938259 1.523438,-8.9550741 0,0 1.463616,0.013233 2.075543,0.3284139 0.980413,0.5049738 2.461567,2.3141642 2.461567,2.3141642 0.426778,-0.5969735 1.447016,-1.42975 1.292963,-2.2441441 C 33.911064,4.2645556 32.625946,3.8227825 31.25,3.8476562 Z M 21.045309,14.443036 c -0.661354,1.617391 -1.395067,2.988872 -2.332418,3.668292 1.370576,0.903167 2.420857,3.087003 2.420857,3.087003 0.381455,-1.242483 1.095366,-2.354583 2.082311,-3.30483 -1.088317,-0.927456 -1.775389,-2.099904 -2.17075,-3.450465 z"
       transform="scale(0.26458333)"
       sodipodi:nodetypes="cscsssccccccsccssscscccscccscccsscscccccccc" />
  </g>
</svg>
