<?xml version="1.0" encoding="UTF-8" standalone="no"?>
<!-- Created with Inkscape (http://www.inkscape.org/) -->

<svg
   width="35"
   height="48"
   viewBox="0 0 9.2604158 12.7"
   version="1.1"
   id="svg5"
   inkscape:version="1.1.1 (3bf5ae0d25, 2021-09-20)"
   sodipodi:docname="K.svg"
   xmlns:inkscape="http://www.inkscape.org/namespaces/inkscape"
   xmlns:sodipodi="http://sodipodi.sourceforge.net/DTD/sodipodi-0.dtd"
   xmlns="http://www.w3.org/2000/svg"
   xmlns:svg="http://www.w3.org/2000/svg">
  <sodipodi:namedview
     id="namedview7"
     pagecolor="#ffffff"
     bordercolor="#666666"
     borderopacity="1.0"
     inkscape:pageshadow="2"
     inkscape:pageopacity="0.0"
     inkscape:pagecheckerboard="0"
     inkscape:document-units="mm"
     showgrid="false"
     showguides="true"
     inkscape:guide-bbox="true"
     units="px"
     width="32px"
     inkscape:zoom="11.313709"
     inkscape:cx="4.6403882"
     inkscape:cy="21.345786"
     inkscape:window-width="1889"
     inkscape:window-height="1058"
     inkscape:window-x="31"
     inkscape:window-y="0"
     inkscape:window-maximized="1"
     inkscape:current-layer="layer1">
    <sodipodi:guide
       position="0,4.2333331"
       orientation="0,1"
       id="guide824"
       inkscape:label=""
       inkscape:locked="false"
       inkscape:color="rgb(0,0,255)" />
  </sodipodi:namedview>
  <defs
     id="defs2" />
  <g
     inkscape:label="Layer 1"
     inkscape:groupmode="layer"
     id="layer1">
    <path
       id="path1092"
       style="opacity:1;fill:#000000;stroke:none;stroke-width:0.252525"
       d="m 26.996094,3.1972656 c -0.841705,0.087266 -1.709275,0.5559023 -2.882329,1.4173581 -2.293883,1.6845591 -2.335948,6.6688463 -2.050568,9.3797163 -0.421207,0.424702 -0.742796,1.064633 -1.690273,1.620161 -0.966325,0.566579 -1.781433,0.975261 -2.545735,1.932547 -0.393304,0.492612 -1.165192,0.98392 -1.554167,1.715587 -0.736218,-4.104026 -0.900246,-8.173938 -0.577669,-12.5790412 0.0987,-1.347827 0.975227,-1.998007 1.507813,-2.8203126 -0.461432,0.014935 -1.065264,-0.1727226 -1.065264,-0.1727226 0,0 -1.349109,1.3453324 -3.227746,1.6551445 C 10.927222,5.672715 8.392019,4.0550164 8.392019,3.8467665 c 0,0 -1.4259288,0.8368747 -2.0932933,1.7279227 C 5.4851404,6.6609675 4.7715483,7.378175 3.9477715,8.4391205 L 4.1513708,8.5913279 6.1601562,6.4238281 c 3.727065,2.0318586 5.5217198,1.3456915 8.5175778,-0.5410156 -0.262677,1.7053028 -2.037396,2.5035749 -2.08789,4.2929685 -0.123591,4.34798 0.574218,8.572088 0.574218,12.878907 0,2.019444 0.203157,4.231602 -0.960937,6.013671 -1.81818,2.779548 -5.9113686,2.403098 -7.9921875,0.21875 C 2.472779,27.460901 1.8782256,24.8451 2.1640625,22.445312 c 0.060298,-0.506243 0.2792156,-1.082486 0.7070311,-1.216798 3.1239299,-0.980751 4.2515993,-0.502481 5.2421874,1.826172 0.3672372,0.863293 -0.6036906,2.210561 -1.0097654,3.283205 l 1.756388,-0.873868 C 9.1150217,24.71478 9.853026,23.842385 10,23.064453 10.590374,19.939607 6.839625,20.263976 5.0820312,19.519531 l -2.5253906,1.515625 c -0.2194067,0.131678 -0.3786861,0.331764 -0.5039062,0.50586 -4.1776529,5.808269 0.4044426,12.851943 7.5761718,10.068359 4.6060728,-1.787879 5.9521598,-5.759268 6.3789058,-10.068359 0.06969,-0.705548 0.176482,-0.661449 0.251189,-1.598477 0.594461,-0.964227 1.136,-1.87843 1.946452,-2.031537 6.338813,-1.197498 3.156956,8.344702 4.130485,12.213998 0.987181,3.928743 4.353788,1.128011 5.773123,-0.857934 0.679253,-0.950417 1.409215,-1.360384 2.47883,-1.665504 -0.09293,-0.822566 -0.564981,-1.084667 -1.263672,-1.011718 -0.184777,1.010002 -0.3802,1.766659 -1.283203,2.115234 -4.793994,1.850569 -1.689714,-8.816425 -3.011719,-11.162109 -0.908953,-1.612008 -2.520277,-2.206144 -4.041016,-1.972657 0.521604,-0.380166 0.93227,-0.879062 1.265627,-1.101562 3.205405,-2.26526 1.954405,-6.2625835 2.154735,-9.6539852 0.324406,-0.2198953 0.341449,-0.3074125 0.973503,-0.6596117 1.031359,-0.574704 2.058081,0.3205475 3.119809,1.2237531 0.479773,0.4078281 1.041116,1.3890785 1.773438,1.28125 C 30.894099,6.568994 31.468293,5.5527779 31.849609,5.125 31.210397,4.1393622 28.830104,3.151557 26.996094,3.1972656 Z"
       transform="scale(0.26458333)"
       sodipodi:nodetypes="cscsscsccscscccccsccsssccscsscccscsccsccccscccc" />
  </g>
</svg>
