<?xml version="1.0" encoding="UTF-8" standalone="no"?>
<!-- Created with Inkscape (http://www.inkscape.org/) -->

<svg
   width="30"
   height="48"
   viewBox="0 0 7.9374993 12.7"
   version="1.1"
   id="svg5"
   inkscape:version="1.1.1 (3bf5ae0d25, 2021-09-20)"
   sodipodi:docname="L.svg"
   xmlns:inkscape="http://www.inkscape.org/namespaces/inkscape"
   xmlns:sodipodi="http://sodipodi.sourceforge.net/DTD/sodipodi-0.dtd"
   xmlns="http://www.w3.org/2000/svg"
   xmlns:svg="http://www.w3.org/2000/svg">
  <sodipodi:namedview
     id="namedview7"
     pagecolor="#ffffff"
     bordercolor="#666666"
     borderopacity="1.0"
     inkscape:pageshadow="2"
     inkscape:pageopacity="0.0"
     inkscape:pagecheckerboard="0"
     inkscape:document-units="mm"
     showgrid="false"
     showguides="true"
     inkscape:guide-bbox="true"
     units="px"
     width="32px"
     inkscape:zoom="17.557358"
     inkscape:cx="22.070519"
     inkscape:cy="16.260989"
     inkscape:window-width="1889"
     inkscape:window-height="1058"
     inkscape:window-x="31"
     inkscape:window-y="0"
     inkscape:window-maximized="1"
     inkscape:current-layer="layer1">
    <sodipodi:guide
       position="0,4.2333331"
       orientation="0,1"
       id="guide824"
       inkscape:label=""
       inkscape:locked="false"
       inkscape:color="rgb(0,0,255)" />
  </sodipodi:namedview>
  <defs
     id="defs2" />
  <g
     inkscape:label="Layer 1"
     inkscape:groupmode="layer"
     id="layer1">
    <path
       id="path1092"
       style="opacity:1;fill:#000000;stroke:none;stroke-width:0.0668139"
       d="M 4.2099479,1.2105311 C 3.5674417,1.2137362 2.592776,1.448584 2.2624741,1.7283456 1.7999157,2.1201269 1.3806748,2.3765686 1.2018627,2.9137864 0.72002902,4.361393 1.8227856,5.0039852 2.6384674,5.9869837 c 0.2145882,0.2586058 0.3830188,0.5273299 0.3135349,0.8656081 -0.03305,0.1609024 -0.220596,0.4216895 -0.220596,0.4216895 0,0 -1.1583242,-0.3749315 -1.82189085,-0.070939 C 0.47373475,7.4029818 0.05529719,7.8914487 0.35281892,8.3217249 0.56441725,8.6277386 0.92029968,8.6203657 1.2478547,8.5925093 1.6860367,8.5552448 1.7619015,8.4302342 1.9594392,8.2850346 L 2.3793136,7.9764072 C 2.6928454,8.1689349 2.7836273,8.3894294 3.185721,8.4493657 3.6313685,8.5157944 4.5537978,8.5929406 4.970108,8.4188765 5.2546779,8.2998944 5.5205821,8.0555877 5.7602816,7.8530724 6.1609288,7.5145775 6.6100706,7.1653209 6.7468459,6.9321637 6.7724152,6.8579073 6.6535078,6.8065239 6.6599274,6.7218226 6.0592674,6.8903942 5.783425,7.5625181 5.2569124,7.8618047 4.6850052,8.1868948 4.1201031,7.9038944 3.5862134,7.6871382 3.406533,7.6141889 2.8737158,7.3374551 2.8737158,7.3374551 c 0,0 0.2925752,-0.4136819 0.3083878,-0.6182164 C 3.221721,6.2067921 3.1360589,5.7493743 3.0518788,5.2521447 2.7505489,5.0921922 2.6249861,4.7800852 2.4198761,4.5173058 1.9842462,3.9584738 1.4664262,3.4992516 1.6964061,2.7122482 1.8164555,2.301433 1.9994539,1.9782825 2.3563141,1.8021204 3.3982901,1.2877547 4.9631153,1.6571738 5.5320123,2.7580632 5.7305501,3.1422599 5.854277,3.55668 5.6989274,4.0277531 5.4584084,4.7570884 4.5102775,4.5717354 4.1381175,4.1736576 3.7078375,3.7134429 3.9170724,3.244052 3.9872225,2.7132817 L 3.3190461,3.2476159 C 3.3003454,3.596051 3.2128291,3.9120601 3.3872589,4.2501388 3.840929,5.1280075 5.0443117,5.2171176 5.6770416,4.4997359 6.5259966,3.5669818 6.3326645,2.5391504 5.724584,1.7107589 5.377144,1.6773519 5.1159606,1.3933832 4.7892407,1.2771937 4.660958,1.2315597 4.4527121,1.2093201 4.2099479,1.2105311 Z m -3.0235881,6.220292 c 0.3833431,0 0.877344,0.1606889 1.0900616,0.4830596 0,0 -0.2302629,0.2348936 -0.3392031,0.2838188 -0.1498023,0.067276 -0.2835226,0.08183 -0.488859,0.060978 C 1.1545203,8.22884 0.77331647,8.2243064 0.71145335,7.7372643 0.67523094,7.452089 1.0386998,7.4308231 1.1863598,7.4308231 Z"
       sodipodi:nodetypes="ssssscsssscsssccsscsccsssscccccccsscssss" />
  </g>
</svg>
