<?xml version="1.0" encoding="UTF-8" standalone="no"?>
<!-- Created with Inkscape (http://www.inkscape.org/) -->

<svg
   width="51"
   height="48"
   viewBox="0 0 13.493745 12.7"
   version="1.1"
   id="svg5"
   inkscape:version="1.1.1 (3bf5ae0d25, 2021-09-20)"
   sodipodi:docname="M.svg"
   xmlns:inkscape="http://www.inkscape.org/namespaces/inkscape"
   xmlns:sodipodi="http://sodipodi.sourceforge.net/DTD/sodipodi-0.dtd"
   xmlns="http://www.w3.org/2000/svg"
   xmlns:svg="http://www.w3.org/2000/svg">
  <sodipodi:namedview
     id="namedview7"
     pagecolor="#ffffff"
     bordercolor="#666666"
     borderopacity="1.0"
     inkscape:pageshadow="2"
     inkscape:pageopacity="0.0"
     inkscape:pagecheckerboard="0"
     inkscape:document-units="mm"
     showgrid="false"
     showguides="true"
     inkscape:guide-bbox="true"
     units="px"
     width="32px"
     inkscape:zoom="17.557358"
     inkscape:cx="22.070519"
     inkscape:cy="27.481355"
     inkscape:window-width="1889"
     inkscape:window-height="1058"
     inkscape:window-x="31"
     inkscape:window-y="0"
     inkscape:window-maximized="1"
     inkscape:current-layer="layer1">
    <sodipodi:guide
       position="0,4.2333331"
       orientation="0,1"
       id="guide824"
       inkscape:label=""
       inkscape:locked="false"
       inkscape:color="rgb(0,0,255)" />
  </sodipodi:namedview>
  <defs
     id="defs2" />
  <g
     inkscape:label="Layer 1"
     inkscape:groupmode="layer"
     id="layer1">
    <path
       id="path1092"
       style="opacity:1;fill:#000000;stroke:none;stroke-width:0.252525"
       d="m 27.585938,3.8964844 c -1.520322,0.047594 -2.78897,1.7287223 -3.716797,2.8073537 -0.916641,1.0656282 -1.928294,1.7728411 -3.318486,2.3768517 0,0 -2.66377,-3.9142938 -5.126827,-4.7154554 C 11.987762,2.9018963 6.4977597,4.4279707 5.654114,5.0525533 2.4752831,7.4059611 0.19498839,12.368664 1.1796875,15.619141 c 1.2645098,4.174128 7.3249746,4.938005 10.3906245,2.4375 5.14647,-4.200506 -1.351906,-12.4256718 -5.2382808,-6.730469 1.0656378,0.197726 2.2806835,0.12302 3.2832032,0.542969 2.5479686,1.067172 3.4203146,4.681553 0.4960936,5.912109 C 6.5633344,19.273674 3.1575838,14.488375 2.7285156,11.578125 2.3540483,9.0382177 4.0672614,6.8625891 6.0550519,5.7911492 7.1171884,5.2186465 9.0871201,5.4308411 10.121094,5.5371094 c 2.722204,0.2792919 4.845855,2.2570236 6.517578,4.2734375 4.262627,5.1484851 3.731404,18.3958211 -3.988281,20.2246091 -3.689424,0.87399 -6.4708414,-1.616438 -9.5996098,-2.800781 -0.3787842,0.817677 -1.8785218,3.069839 -1.8785218,3.069839 0,0 2.868311,1.088325 3.6461,1.295395 3.5353323,0.940152 8.2022256,0.246068 11.1113286,-1.958984 6.815659,-5.164647 5.302734,-12.870667 5.302734,-20.0820312 1.248943,-0.7090748 1.973867,-1.5590074 2.857422,-2.4003932 3.108028,-2.9596911 2.697265,2.6289003 2.697265,5.1777354 v 14.394531 c 0,1.044191 -0.466895,5.825989 -0.466895,5.825989 0,0 3.320224,-2.564235 4.002051,-3.300599 -1.224756,-3.921212 -0.503907,-8.786734 -0.503907,-12.878906 0,-1.581818 -0.400173,-3.806017 0.150391,-5.302734 0.537865,-1.4585866 2.617312,-3.9647183 4.142578,-4.4023445 2.196962,-0.6305556 4.846164,1.0393267 6.81836,1.8769531 -5.855605,5.1277614 -6.999779,10.9638124 -6.126954,16.9179694 0.318237,1.935353 0.314058,4.164224 1.953125,5.615234 3.040402,2.688638 9.413213,-1.042755 10.370251,-4.879008 -0.497021,-0.623198 -1.001875,-1.249403 -1.001875,-1.249403 0,0 -1.355998,3.242786 -2.669157,4.106927 -2.79292,1.836869 -5.460296,-2.157539 -5.550781,-4.603516 -0.14445,-3.904781 -0.373753,-9.169949 1.689453,-12.625 0.849538,-1.9878394 5.930792,-5.7579928 5.930792,-5.7579928 0,0 -0.05686,-0.6877564 -0.04993,-1.0603668 -0.909089,0.3967173 -1.729356,1.1040402 -2.777343,1 -1.969701,-0.1952017 -3.214358,-2.2476682 -5.302735,-2.0605469 -3.098494,0.2777764 -5.237778,3.2006863 -7.576172,4.8476562 0,-1.3464646 0.273178,-3.1159209 -0.699218,-4.2128906 C 28.667128,4.0772846 28.135215,3.879289 27.585938,3.8964844 Z"
       transform="scale(0.26458333)"
       sodipodi:nodetypes="ssccssccccssccccccccsssccsccccccccscccccccs" />
  </g>
</svg>
