<?xml version="1.0" encoding="UTF-8" standalone="no"?>
<!-- Created with Inkscape (http://www.inkscape.org/) -->

<svg
   width="43"
   height="48"
   viewBox="0 0 11.377081 12.7"
   version="1.1"
   id="svg5"
   inkscape:version="1.1.1 (3bf5ae0d25, 2021-09-20)"
   sodipodi:docname="N.svg"
   xmlns:inkscape="http://www.inkscape.org/namespaces/inkscape"
   xmlns:sodipodi="http://sodipodi.sourceforge.net/DTD/sodipodi-0.dtd"
   xmlns="http://www.w3.org/2000/svg"
   xmlns:svg="http://www.w3.org/2000/svg">
  <sodipodi:namedview
     id="namedview7"
     pagecolor="#ffffff"
     bordercolor="#666666"
     borderopacity="1.0"
     inkscape:pageshadow="2"
     inkscape:pageopacity="0.0"
     inkscape:pagecheckerboard="0"
     inkscape:document-units="mm"
     showgrid="false"
     showguides="true"
     inkscape:guide-bbox="true"
     units="px"
     width="32px"
     inkscape:zoom="12.414927"
     inkscape:cx="19.130197"
     inkscape:cy="21.22445"
     inkscape:window-width="1889"
     inkscape:window-height="1058"
     inkscape:window-x="31"
     inkscape:window-y="0"
     inkscape:window-maximized="1"
     inkscape:current-layer="layer1">
    <sodipodi:guide
       position="0,4.2333331"
       orientation="0,1"
       id="guide824"
       inkscape:label=""
       inkscape:locked="false"
       inkscape:color="rgb(0,0,255)" />
  </sodipodi:namedview>
  <defs
     id="defs2" />
  <g
     inkscape:label="Layer 1"
     inkscape:groupmode="layer"
     id="layer1">
    <path
       id="path1092"
       style="opacity:1;fill:#000000;stroke:none;stroke-width:0.252525"
       d="M 11,3.3339844 C 5.6151701,3.4581257 -0.00639289,6.9872076 0.65429688,13.269531 0.90941499,15.674077 2.0289706,17.814895 4.4355469,18.720703 8.5744319,20.281057 14.858076,17.007347 13.587891,12.050781 12.954026,9.5866396 8.3072896,7.2818735 7.140625,10.535156 c 2.876258,0.365658 7.409632,3.270182 4.101563,6.353516 C 8.9542883,19.019227 5.7464773,16.753631 4.1757812,14.828125 1.3399262,11.352367 2.7851633,6.4471511 6.8886719,4.7226562 11.290196,2.8729086 16.640467,7.8824059 18.072266,11.615234 c 2.696236,7.030295 2.138058,13.131142 -3.679688,17.75586 -1.973032,1.568428 -5.1865989,0.13793 -6.9980468,-0.78125 C 6.513221,28.134793 4.3691406,26.857422 4.3691406,26.857422 3.3991714,27.30489 2.195802,28.237279 3.6875,30.589844 c 0,0 3.777873,0.988258 5.7641634,1.127175 1.5437686,0.107968 3.0950906,-0.54987 4.5013546,-1.195859 3.785276,-1.738826 6.185231,-5.033076 7.212998,-8.622722 0.447004,-1.556314 0.454833,-3.903633 1.207337,-5.311967 -0.909097,-2.999479 -2.212098,-5.988174 -1.129212,-8.633346 0.5609,-0.7534483 1.063876,-1.4218496 1.632812,-1.8339844 1.136036,-0.8229396 2.626846,-0.6655515 3.917969,-0.265625 1.781761,0.5519023 3.698163,1.5240098 5.534214,1.6401041 0.22872,0.7347986 -0.473644,1.2730241 -0.946324,1.8345053 -1.224806,1.454907 -2.779793,2.835025 -3.634765,4.490234 -1.830803,3.54596 -1.772317,11.867014 -0.04492,15.453125 1.323811,2.745112 4.534574,3.00672 7.198171,1.011483 3.035169,-2.273572 5.016944,-2.923137 4.879684,-6.420291 l -1.325902,0.05725 c -0.479581,2.375484 -1.637515,5.346431 -3.591796,5.742187 C 29.91601,30.663971 29.335366,18.901475 30.490234,13.3125 30.749531,12.089502 31.53887,10.143246 32.156487,9.0944754 32.894298,7.8416038 34.74628,6.7682405 36.019592,5.6015849 32.962002,5.7416221 31.943166,4.3981118 30.121091,3.7539062 27.937674,3.0959644 25.044352,3.7797572 23.361325,5.3652344 23.134892,5.5167892 22.90737,5.6950672 22.677731,5.8984375 22.13551,6.3786339 21.583829,7.0016588 21.019528,7.7578125 H 19.513672 C 18.503593,5.1835699 15.8158,3.9129615 13.275391,3.4902344 12.534858,3.3670336 11.769261,3.3162499 11,3.3339844 Z"
       transform="scale(0.26458333)"
       sodipodi:nodetypes="sccccccccscccsscccsscsccsccscscccscccs" />
  </g>
</svg>
