<?xml version="1.0" encoding="UTF-8" standalone="no"?>
<!-- Created with Inkscape (http://www.inkscape.org/) -->

<svg
   width="27"
   height="48"
   viewBox="0 0 7.1437494 12.7"
   version="1.1"
   id="svg5"
   inkscape:version="1.1.1 (3bf5ae0d25, 2021-09-20)"
   sodipodi:docname="P.svg"
   xmlns:inkscape="http://www.inkscape.org/namespaces/inkscape"
   xmlns:sodipodi="http://sodipodi.sourceforge.net/DTD/sodipodi-0.dtd"
   xmlns="http://www.w3.org/2000/svg"
   xmlns:svg="http://www.w3.org/2000/svg">
  <sodipodi:namedview
     id="namedview7"
     pagecolor="#ffffff"
     bordercolor="#666666"
     borderopacity="1.0"
     inkscape:pageshadow="2"
     inkscape:pageopacity="0.0"
     inkscape:pagecheckerboard="0"
     inkscape:document-units="mm"
     showgrid="false"
     showguides="true"
     inkscape:guide-bbox="true"
     units="px"
     width="32px"
     inkscape:zoom="22.627417"
     inkscape:cx="17.346213"
     inkscape:cy="15.445864"
     inkscape:window-width="1889"
     inkscape:window-height="1058"
     inkscape:window-x="31"
     inkscape:window-y="0"
     inkscape:window-maximized="1"
     inkscape:current-layer="layer1">
    <sodipodi:guide
       position="0,4.2333331"
       orientation="0,1"
       id="guide824"
       inkscape:label=""
       inkscape:locked="false"
       inkscape:color="rgb(0,0,255)" />
  </sodipodi:namedview>
  <defs
     id="defs2" />
  <g
     inkscape:label="Layer 1"
     inkscape:groupmode="layer"
     id="layer1">
    <path
       id="path1092"
       style="opacity:1;fill:#000000;stroke:none;stroke-width:0.252525"
       d="M 4.1623704,15.926982 C 3.2140663,15.081341 2.0714769,14.371279 2.1171875,12.507812 2.1668626,10.482726 3.3214822,8.9354747 4.9453125,7.6835938 8.3475068,5.0606953 14.915009,5.6596858 18.259766,8.7089844 c -0.735701,0.4956034 -2.25901,1.045701 -2.757817,1.2734375 -4.958515,2.2638711 -2.665232,10.1205411 -2.453125,14.3945311 0.04309,0.909091 -0.315967,1.845526 -0.326172,2.777344 -2.510097,0 -9.1205308,0.106047 -9.4765622,3.787109 -0.2731902,2.810294 4.3217769,1.085493 6.2714843,0.140625 0.4549249,-0.220466 0.8510579,-0.633134 1.2792969,-0.980469 1.996756,-0.340516 3.639684,1.842385 5.691406,2.144532 2.383824,0.351261 6.197078,-4.211344 6.335938,-6.353516 l -0.481999,0.02128 c -0.642486,2.12713 -1.571963,2.741741 -3.053158,4.017781 -1.639953,-1.322302 -3.573662,-1.705634 -5.554687,-2.271485 0.333354,-1.407323 1.618214,-2.175931 1.984375,-3.539062 0.838375,-3.125253 0.03806,-7.664946 -0.259766,-10.851563 -0.09164,-0.999094 -0.268165,-2.294992 0.456216,-2.891321 0.891778,-0.7341339 1.717989,-0.9754492 2.575034,-1.4485205 0.539499,0.5353107 0.9833,1.1397345 1.298828,1.8105465 1.348498,2.86793 -0.72525,5.325785 -0.248046,8.080078 C 24.082428,16.283494 24.77143,7.7409242 18.53125,5.6894531 16.848745,5.1363263 13.274135,4.757328 11.712891,4.7617188 8.8936131,4.7696477 6.1618473,5.2527002 3.8847656,7.5761719 2.4858835,9.0035529 0.74186742,11.429699 0.6484375,13.517578 c -0.15911811,3.580556 3.2942761,5.822591 6.5195313,4.292969 0.7405571,-0.35122 1.3229691,-1.157354 2.0410156,-1.572271 3.6491136,-2.10861 0.62147,-8.8300077 -3.5234375,-5.60937 -0.6212032,0.483333 -0.9514762,1.192543 -1.2949219,1.878906 l 0.9010699,-0.648667 c 2.3824935,-1.71512 5.1639421,1.405215 3.1711957,4.62523 -1.1484322,1.340487 -2.9835071,0.61704 -4.3005202,-0.557393 z m 3.530989,12.590596 c 1.1133051,0.02715 2.2882431,0.640042 2.6992186,1.525391 -0.783221,0.682056 -1.8543684,0.868456 -2.720703,1.052781 -1.0757291,0.21995 -2.847069,-0.623027 -1.8066406,-1.851562 0.4469669,-0.527841 1.1249849,-0.74371 1.828125,-0.726563 z"
       transform="scale(0.26458333)"
       sodipodi:nodetypes="ssscscccsccccccccscccssscssccscsscccss" />
  </g>
</svg>
