<?xml version="1.0" encoding="UTF-8" standalone="no"?>
<!-- Created with Inkscape (http://www.inkscape.org/) -->

<svg
   width="36"
   height="48"
   viewBox="0 0 9.5249991 12.7"
   version="1.1"
   id="svg5"
   inkscape:version="1.1.1 (3bf5ae0d25, 2021-09-20)"
   sodipodi:docname="R.svg"
   xmlns:inkscape="http://www.inkscape.org/namespaces/inkscape"
   xmlns:sodipodi="http://sodipodi.sourceforge.net/DTD/sodipodi-0.dtd"
   xmlns="http://www.w3.org/2000/svg"
   xmlns:svg="http://www.w3.org/2000/svg">
  <sodipodi:namedview
     id="namedview7"
     pagecolor="#ffffff"
     bordercolor="#666666"
     borderopacity="1.0"
     inkscape:pageshadow="2"
     inkscape:pageopacity="0.0"
     inkscape:pagecheckerboard="0"
     inkscape:document-units="mm"
     showgrid="false"
     showguides="true"
     inkscape:guide-bbox="true"
     units="px"
     width="32px"
     inkscape:zoom="12.414927"
     inkscape:cx="23.721444"
     inkscape:cy="21.546643"
     inkscape:window-width="1889"
     inkscape:window-height="1058"
     inkscape:window-x="31"
     inkscape:window-y="0"
     inkscape:window-maximized="1"
     inkscape:current-layer="layer1">
    <sodipodi:guide
       position="0,4.2333331"
       orientation="0,1"
       id="guide824"
       inkscape:label=""
       inkscape:locked="false"
       inkscape:color="rgb(0,0,255)" />
  </sodipodi:namedview>
  <defs
     id="defs2" />
  <g
     inkscape:label="Layer 1"
     inkscape:groupmode="layer"
     id="layer1">
    <path
       id="path1092"
       style="opacity:1;fill:#000000;stroke:none;stroke-width:0.252525"
       d="m 27.572266,4.1367188 c -0.116392,-7.64e-5 -0.233646,0.00464 -0.353516,0.013672 -2.330835,0.1760126 -4.621853,1.4825729 -6.4375,2.875 -0.757569,0.5815633 -2.873047,2.0859373 -2.873047,2.0859373 0,0 -2.749031,-2.810644 -3.822265,-3.4179687 C 9.9117139,3.3309845 4.0687286,4.3668045 0.95507812,7.9003906 1.696955,9.4757899 1.1725327,11.32789 1.8652344,12.433594 5.5759252,15.91854 11.34032,14.055089 15.189453,12.119141 c 0.360018,0.672874 0.667444,1.376639 0.917969,2.095703 0.919219,2.645202 1.309917,6.288328 0.976562,9.089844 -0.178656,1.496559 -0.447828,2.483666 -0.804687,3.951171 -0.630241,2.591731 -4.758732,4.239488 -6.7382814,4.136719 C 8.2581684,31.282477 6.9790489,30.783996 5.9335938,30.046875 5.0522835,29.425158 4.0938716,28.844386 3.5996094,27.849609 3.1519752,26.948678 2.4142444,25.593996 2.6054688,24.568359 3.4596996,19.986671 9.243376,21.350867 10.53125,24.820312 c 0.431462,1.163218 -0.500925,2.391775 -1.0425843,3.306084 0.2911249,0.239953 0.6991813,0.230301 0.7503893,0.593489 3.48737,-1.644697 2.654117,-7.842829 -1.2019456,-8.831213 -5.3964474,-1.384091 -10.4866323,6.098611 -7.0423887,10.060958 4.0717229,4.684214 12.1889733,2.602401 14.6259013,-2.345322 0.70109,-1.42343 1.453238,-2.613577 1.928206,-4.047667 0.825789,-2.487627 1.459155,-5.448513 1.027344,-8.080079 -0.308032,-1.889899 -1.219386,-3.66302 -1.449219,-5.554687 0,0 3.931596,-3.1593476 6.3125,-3.46875 1.290724,-0.1677318 3.021152,0.1491619 3.760585,1.220302 0.656471,0.9509616 1.387444,2.557878 0.958165,4.267979 -0.800504,3.198233 -5.050845,4.133965 -6.990234,6.3125 0.85353,0.252779 1.891846,0.157236 2.61914,0.730469 3.424252,2.708586 -0.120478,8.799735 1.669922,12.037109 1.813115,3.279798 6.216219,-0.755847 6.822266,-2.917968 -0.110819,0.05141 -0.240858,-0.103803 -0.240858,-0.103803 -0.733327,0.747673 -1.593098,1.537703 -2.268908,1.312787 -1.398992,-0.404546 -1.565794,-3.091497 -1.52539,-4.240234 0.111118,-3.211617 0.46875,-6.661628 -2.53125,-8.837891 1.707061,-1.357071 3.954368,-2.768525 4.93164,-4.798828 C 33.090315,8.4292417 31.180405,4.1390844 27.572266,4.1367188 Z M 5.3691406,6.3378906 c 0.4467502,-0.00458 0.9106289,0.034316 1.3945313,0.044922 3.7328361,0.08203 6.5666361,2.4270523 8.2812501,5.4726564 -1.852863,0.85402 -4.368233,1.14259 -6.0078126,0.951172 C 7.0421613,12.544013 -0.43273164,10.250847 3.2617188,7.0488281 3.9277424,6.4724384 4.6245571,6.3455305 5.3691406,6.3378906 Z"
       transform="scale(0.26458333)"
       sodipodi:nodetypes="scccccccccsccssccccsscccssccccccccccssccccs" />
  </g>
</svg>
