<?xml version="1.0" encoding="UTF-8" standalone="no"?>
<!-- Created with Inkscape (http://www.inkscape.org/) -->

<svg
   width="26"
   height="48"
   viewBox="0 0 6.8791661 12.7"
   version="1.1"
   id="svg5"
   inkscape:version="1.1.1 (3bf5ae0d25, 2021-09-20)"
   sodipodi:docname="S.svg"
   xmlns:inkscape="http://www.inkscape.org/namespaces/inkscape"
   xmlns:sodipodi="http://sodipodi.sourceforge.net/DTD/sodipodi-0.dtd"
   xmlns="http://www.w3.org/2000/svg"
   xmlns:svg="http://www.w3.org/2000/svg">
  <sodipodi:namedview
     id="namedview7"
     pagecolor="#ffffff"
     bordercolor="#666666"
     borderopacity="1.0"
     inkscape:pageshadow="2"
     inkscape:pageopacity="0.0"
     inkscape:pagecheckerboard="0"
     inkscape:document-units="mm"
     showgrid="false"
     showguides="true"
     inkscape:guide-bbox="true"
     units="px"
     width="32px"
     inkscape:zoom="12.414927"
     inkscape:cx="-4.873166"
     inkscape:cy="18.485811"
     inkscape:window-width="1889"
     inkscape:window-height="1058"
     inkscape:window-x="31"
     inkscape:window-y="0"
     inkscape:window-maximized="1"
     inkscape:current-layer="layer1">
    <sodipodi:guide
       position="0,4.2333331"
       orientation="0,1"
       id="guide824"
       inkscape:label=""
       inkscape:locked="false"
       inkscape:color="rgb(0,0,255)" />
  </sodipodi:namedview>
  <defs
     id="defs2" />
  <g
     inkscape:label="Layer 1"
     inkscape:groupmode="layer"
     id="layer1">
    <path
       style="opacity:1;fill:#000000;stroke:none;stroke-width:0.066814"
       d="m 1.5048506,4.0782121 c 0.3423451,0.3176023 0.8001008,0.5667748 1.2537708,0.7293332 0.76101,0.2727347 1.65832,0.2672559 2.22891,0.9317877 0.82649,0.9631235 0.10022,2.4099133 -1.11245,2.5248334 -1.01825,0.096479 -2.00308,-0.2760754 -2.72,-1.0016083 C 0.75420139,6.8563291 0.46556139,6.1700159 0.98604139,5.7104026 1.6455014,5.128386 3.4290396,6.2627353 2.6249914,7.0621829 2.7811862,7.0975889 2.9168021,7.1108269 2.9168021,7.1108269 3.1271528,6.8171314 3.358434,6.4556217 3.0519314,5.9263457 2.6116668,5.1660864 1.3735614,4.8995486 0.69741139,5.4903845 c -0.30213548,0.2998537 -0.47772,0.6861542 -0.47772,1.0372871 0,0.6671129 0.0921952,1.4540905 0.93539001,1.8137322 0.7958669,0.3394553 1.8300799,0.4980249 2.60575,0.3738238 1.4538132,-0.2327861 2.21421,-1.5935797 1.90687,-2.9893237 -0.26459,-1.202117 -1.64296,-1.6345371 -2.70864,-1.8560922 C 2.2842414,3.7294355 1.381968,3.5383278 1.2459514,2.719275 1.005808,1.2732003 4.3625527,1.2896294 3.9377289,2.967787 4.1702971,2.5803546 5.0753692,1.8701763 5.3251801,1.7071397 4.3466756,1.6120124 3.9726314,1.3082306 3.3572714,1.2018628 2.4526114,1.0453844 0.57474548,1.7544543 0.88022346,2.8786202 1.0171427,3.382486 1.033773,3.6411813 1.5048506,4.0782121 Z"
       id="path1092"
       sodipodi:nodetypes="sscsccccscsssccscccss" />
  </g>
</svg>
