<?xml version="1.0" encoding="UTF-8" standalone="no"?>
<!-- Created with Inkscape (http://www.inkscape.org/) -->

<svg
   width="46"
   height="48"
   viewBox="0 0 12.17083 12.7"
   version="1.1"
   id="svg5"
   inkscape:version="1.1.1 (3bf5ae0d25, 2021-09-20)"
   sodipodi:docname="U.svg"
   xmlns:inkscape="http://www.inkscape.org/namespaces/inkscape"
   xmlns:sodipodi="http://sodipodi.sourceforge.net/DTD/sodipodi-0.dtd"
   xmlns="http://www.w3.org/2000/svg"
   xmlns:svg="http://www.w3.org/2000/svg">
  <sodipodi:namedview
     id="namedview7"
     pagecolor="#ffffff"
     bordercolor="#666666"
     borderopacity="1.0"
     inkscape:pageshadow="2"
     inkscape:pageopacity="0.0"
     inkscape:pagecheckerboard="0"
     inkscape:document-units="mm"
     showgrid="false"
     showguides="true"
     inkscape:guide-bbox="true"
     units="px"
     width="32px"
     inkscape:zoom="8.7786791"
     inkscape:cx="-1.3099921"
     inkscape:cy="-9.0560322"
     inkscape:window-width="1889"
     inkscape:window-height="1058"
     inkscape:window-x="31"
     inkscape:window-y="0"
     inkscape:window-maximized="1"
     inkscape:current-layer="layer1">
    <sodipodi:guide
       position="0,4.2333331"
       orientation="0,1"
       id="guide824"
       inkscape:label=""
       inkscape:locked="false"
       inkscape:color="rgb(0,0,255)" />
  </sodipodi:namedview>
  <defs
     id="defs2" />
  <g
     inkscape:label="Layer 1"
     inkscape:groupmode="layer"
     id="layer1">
    <path
       id="path1092"
       style="opacity:1;fill:#000000;stroke:none;stroke-width:0.252525"
       d="M 10.80122,19.15411 C 10.062874,20.067574 7.2560496,19.685676 6.3496094,19.148411 3.0107261,17.16939 1.1500735,11.884388 3.6523438,8.6015625 6.0313863,5.4803493 11.281602,5.5032752 14.138672,7.6914062 c 1.251515,0.9583333 2.351249,2.2553477 3.162109,3.6015628 0.975504,1.619191 1.61578,3.932768 1.529297,5.808593 -0.374469,8.122257 -2.772962,8.87197 -8.080078,13.382813 2.815404,-0.03326 5.791136,-2.197256 7.574219,1.515625 1.803787,-0.0548 2.691546,-1.464334 3.937524,-2.64894 2.805666,-2.667469 5.370361,-5.389942 8.01267,-8.228856 0.0687,0.906347 0.108912,1.510621 0.157228,2.29187 0.15908,2.570457 -1.53952,5.678274 0.208984,8.066407 2.787836,1.679475 4.229877,-1.450151 5.904262,-2.867445 L 42.246094,23.3047 42.054688,23.076184 c -2.477446,2.094126 -4.680616,4.564202 -7.431641,6.283203 -0.834321,0.521332 -1.478522,-0.724709 -1.619141,-1.904297 -0.269934,-2.264647 -0.681558,-7.85262 0.978516,-9.595703 5.317805,-5.583712 7.104955,-7.800802 4.292969,-13.3847776 -8.841496,0 -8.617012,9.2413796 -8.11468,16.0376726 l -8.565008,8.667406 c -1.862342,-0.219775 -4.574482,-1.270226 -5.605469,-2.6875 0.976574,-1.167448 2.307648,-2.280326 3.041016,-3.441407 1.573791,-2.491654 2.299797,-5.811526 2.324223,-8.474604 0,-1.444698 -0.427183,-3.504267 -1.074887,-4.8631748 C 17.879221,4.6748472 10.86939,4.2138557 7.2148438,5.4863281 5.7820173,5.985067 4.5163987,6.537123 3.3987092,7.6834451 1.0424218,10.100095 -0.2086814,12.690907 0.76757812,16.595703 c 0.92424568,3.696971 7.33794538,5.976354 10.16463288,2.88925 3.183251,-3.476516 2.994194,-7.65607 -1.5083829,-8.5455 -1.7043152,-0.339974 -2.8739145,0.609345 -3.2207031,1.869141 l 0.7077982,0.562293 C 8.2491728,11.053581 13.870126,15.357334 10.80122,19.15411 Z M 37.451172,8.7675781 c 0.37016,3.6379559 -1.551095,6.3352369 -3.827803,8.6343289 -0.788616,-2.578407 -0.574718,-5.267635 -0.607744,-8.1284695 -0.01405,-1.2174227 0.439951,-3.2304797 1.976563,-3.3027344 1.490374,-0.07008 2.320058,1.4314973 2.458984,2.796875 z"
       transform="scale(0.26458333)"
       sodipodi:nodetypes="sscccsccsccccccscsccccscscscscccsscsss" />
  </g>
</svg>
