<?xml version="1.0" encoding="UTF-8" standalone="no"?>
<!-- Created with Inkscape (http://www.inkscape.org/) -->

<svg
   width="55"
   height="48"
   viewBox="0 0 14.552077 12.7"
   version="1.1"
   id="svg5"
   inkscape:version="1.1.1 (3bf5ae0d25, 2021-09-20)"
   sodipodi:docname="W.svg"
   xmlns:inkscape="http://www.inkscape.org/namespaces/inkscape"
   xmlns:sodipodi="http://sodipodi.sourceforge.net/DTD/sodipodi-0.dtd"
   xmlns="http://www.w3.org/2000/svg"
   xmlns:svg="http://www.w3.org/2000/svg">
  <sodipodi:namedview
     id="namedview7"
     pagecolor="#ffffff"
     bordercolor="#666666"
     borderopacity="1.0"
     inkscape:pageshadow="2"
     inkscape:pageopacity="0.0"
     inkscape:pagecheckerboard="0"
     inkscape:document-units="mm"
     showgrid="false"
     showguides="true"
     inkscape:guide-bbox="true"
     units="px"
     width="32px"
     inkscape:zoom="16"
     inkscape:cx="28.09375"
     inkscape:cy="18.53125"
     inkscape:window-width="1889"
     inkscape:window-height="1058"
     inkscape:window-x="31"
     inkscape:window-y="0"
     inkscape:window-maximized="1"
     inkscape:current-layer="layer1">
    <sodipodi:guide
       position="0,4.2333331"
       orientation="0,1"
       id="guide824"
       inkscape:label=""
       inkscape:locked="false"
       inkscape:color="rgb(0,0,255)" />
  </sodipodi:namedview>
  <defs
     id="defs2" />
  <g
     inkscape:label="Layer 1"
     inkscape:groupmode="layer"
     id="layer1">
    <path
       id="path1092"
       style="opacity:1;fill:#000000;stroke:none;stroke-width:0.252525"
       d="m 35.169922,4.2441406 c -1.837374,0.1811777 -2.978033,1.135634 -3.970703,2.3867188 -3.01555,3.8005666 -1.622415,9.6991476 0.685545,13.3476566 -3.059617,3.643195 -6.648997,6.990973 -9.11328,8.873047 L 16.472656,27.589845 C 20.309898,23.172758 21.829735,21.817394 22.023433,16.226563 22.161904,12.468488 20.948699,9.1252946 17.986328,6.6972656 12.357036,2.083377 0.54057715,5.6490183 0.9140625,13.955078 c 0.1207181,2.688639 0.9011347,5.545438 3.4375,6.882813 C 8.495754,23.023497 14.698254,20.266583 14.417969,14.964844 14.122308,9.3722635 8.0805366,10.859761 8.0568644,11.014271 c 0,0 -1.2193175,1.267593 -1.4338175,1.677135 3.8349401,-1.207722 7.5761831,2.280221 5.6699221,6.044922 -0.909596,1.90303 -3.7660351,1.191462 -5.1875002,0.38086 C 3.994105,17.343194 1.2696529,12.122597 4.0527344,9.0332031 10.68935,1.6655281 20.545582,11.536094 19.5625,19.257812 c -0.340395,4.009354 -2.923081,6.853507 -5.615234,10.353515 2.572981,0.05303 5.120393,1.008535 6.316605,3.573436 4.298026,-4.470599 8.753181,-8.47663 11.804501,-12.952296 2.807428,3.825638 6.19817,6.610128 5.111329,11.904297 C 47.282348,26.595391 48.939732,18.633851 49.949249,13.00508 50.726318,8.6723756 46.327691,4.0715568 46.327691,4.0715568 c 0,0 -3.216786,2.2916043 -3.593303,2.8113007 2.032718,0.3087623 2.438493,0.8471092 2.683707,1.384831 3.241311,7.1077625 3.392068,12.3763855 -6.218863,21.0897785 -0.390909,-3.207322 -0.778777,-6.215351 -2.41211,-9.089844 C 36.16135,19.166286 35.343869,18.167301 34.515638,17.177779 37.619249,14.591537 39.433863,9.736099 37.783216,6.1269981 37.11701,4.8126855 36.160518,4.1464611 35.169922,4.2441406 Z M 34.316406,16.9375 c -1.790076,-2.133723 -3.573779,-4.251372 -3.572265,-7.2539062 5.06e-4,-1.0138886 0.185306,-2.5328549 0.878906,-3.0527344 1.708141,-1.280317 4.698142,0.555924 5.184108,2.8802089 0.55498,2.6543617 -1.573344,6.0210637 -2.490749,7.4264317 z"
       transform="scale(0.26458333)"
       sodipodi:nodetypes="sscccccccsccccccccccsccsccccscsssc" />
  </g>
</svg>
