<?xml version="1.0" encoding="UTF-8" standalone="no"?>
<!-- Created with Inkscape (http://www.inkscape.org/) -->

<svg
   width="36"
   height="48"
   viewBox="0 0 9.5249991 12.7"
   version="1.1"
   id="svg5"
   inkscape:version="1.1.1 (3bf5ae0d25, 2021-09-20)"
   sodipodi:docname="X.svg"
   xmlns:inkscape="http://www.inkscape.org/namespaces/inkscape"
   xmlns:sodipodi="http://sodipodi.sourceforge.net/DTD/sodipodi-0.dtd"
   xmlns="http://www.w3.org/2000/svg"
   xmlns:svg="http://www.w3.org/2000/svg">
  <sodipodi:namedview
     id="namedview7"
     pagecolor="#ffffff"
     bordercolor="#666666"
     borderopacity="1.0"
     inkscape:pageshadow="2"
     inkscape:pageopacity="0.0"
     inkscape:pagecheckerboard="0"
     inkscape:document-units="mm"
     showgrid="false"
     showguides="true"
     inkscape:guide-bbox="true"
     units="px"
     width="32px"
     inkscape:zoom="12.414927"
     inkscape:cx="24.446378"
     inkscape:cy="13.975112"
     inkscape:window-width="1889"
     inkscape:window-height="1058"
     inkscape:window-x="31"
     inkscape:window-y="0"
     inkscape:window-maximized="1"
     inkscape:current-layer="layer1">
    <sodipodi:guide
       position="0,4.2333331"
       orientation="0,1"
       id="guide824"
       inkscape:label=""
       inkscape:locked="false"
       inkscape:color="rgb(0,0,255)" />
  </sodipodi:namedview>
  <defs
     id="defs2" />
  <g
     inkscape:label="Layer 1"
     inkscape:groupmode="layer"
     id="layer1">
    <path
       id="path1092"
       style="opacity:1;fill:#000000;stroke:none;stroke-width:0.252525"
       d="m 30.505859,3.1601562 c -1.285765,-0.00775 -2.682765,0.2698855 -3.234375,0.46875 -3.704545,1.3340902 -5.579623,4.0989878 -6.460937,7.7499998 H 20.306641 C 19.273813,7.1056741 15.176728,3.0481267 10.457031,3.5839844 8.1393834,4.0307712 6.1150123,4.6859522 4.2441406,5.6757812 0.4757397,7.6695431 0.36669912,12.909358 1.3395099,14.984484 2.6357113,17.749442 5.7891304,20.044907 10.451779,16.194803 12.161901,14.782698 11.584482,10.562731 9.953166,9.5117238 8.5112088,8.5844457 6.6966525,9.3046278 5.40625,10.115234 l 0.1072436,0.661668 C 7.9344219,10.26059 11.968518,13.251798 10.071293,15.623783 6.6678136,19.878945 -0.87443744,10.703522 4.2584572,6.8518324 5.5751265,5.8638126 7.3562026,5.1668212 9.0488281,5.3261719 15.159939,5.9014235 17.527344,10.729251 17.527344,16.177734 c -1.088133,0.0321 -2.961827,0.709325 -2.961827,0.709325 0,0 -1.063056,1.069915 -1.583095,1.814113 1.270201,0.302513 5.027026,0.140401 5.027026,0.140401 0,0 -0.692723,2.48896 -0.423515,4.355693 -1.129779,1.892248 -2.093727,4.770518 -4.353516,5.917968 -1.43543,0.728869 -3.201524,0.807953 -4.794917,0.578125 C 7.0098679,29.48744 4.4628906,27.982422 4.4628906,27.982422 l -2.0859375,2.083984 v 0.251953 c 9.1302629,4.170129 12.2031119,0.657665 15.2929689,-6.675781 0.779534,3.99834 2.842116,9.508007 7.939453,8.654297 3.919192,-0.656315 4.666638,-4.44253 8.080078,-6.523437 -0.133833,-0.437371 -0.763204,-1.403513 -0.763204,-1.403513 0,0 -1.514948,1.891813 -2.019999,2.413278 -1.648989,1.707829 -3.539537,3.07612 -6.054688,2.445313 -3.891416,-0.975757 -3.787109,-7.245912 -3.787109,-10.273438 2.82576,-0.03137 6.109905,-2.060124 6.564453,-5.050781 l -0.889494,-0.07474 c 0,0 -1.264922,1.785845 -1.893709,2.014195 -1.189325,0.431916 -3.78125,0.333984 -3.78125,0.333984 0,0 0.176701,-3.057489 0.503906,-4.546875 0.114137,-1.9272679 2.435585,-7.1122627 7.324219,-5.7929704 1.105523,0.095604 2.273598,0.6876254 3.260969,0.9115116 C 32.577891,5.6805068 32.880128,4.5447204 33.029504,3.6469109 32.299388,3.2471897 31.436248,3.1657623 30.505859,3.1601562 Z"
       transform="scale(0.26458333)"
       sodipodi:nodetypes="sccccssscccssccccccssccccccccccccscccccs" />
  </g>
</svg>
