<?xml version="1.0" encoding="UTF-8" standalone="no"?>
<!-- Created with Inkscape (http://www.inkscape.org/) -->

<svg
   width="43"
   height="48"
   viewBox="0 0 11.377081 12.7"
   version="1.1"
   id="svg5"
   inkscape:version="1.1.1 (3bf5ae0d25, 2021-09-20)"
   sodipodi:docname="Y.svg"
   xmlns:inkscape="http://www.inkscape.org/namespaces/inkscape"
   xmlns:sodipodi="http://sodipodi.sourceforge.net/DTD/sodipodi-0.dtd"
   xmlns="http://www.w3.org/2000/svg"
   xmlns:svg="http://www.w3.org/2000/svg">
  <sodipodi:namedview
     id="namedview7"
     pagecolor="#ffffff"
     bordercolor="#666666"
     borderopacity="1.0"
     inkscape:pageshadow="2"
     inkscape:pageopacity="0.0"
     inkscape:pagecheckerboard="0"
     inkscape:document-units="mm"
     showgrid="false"
     showguides="true"
     inkscape:guide-bbox="true"
     units="px"
     width="32px"
     inkscape:zoom="17.557358"
     inkscape:cx="22.526168"
     inkscape:cy="22.013562"
     inkscape:window-width="1889"
     inkscape:window-height="1058"
     inkscape:window-x="31"
     inkscape:window-y="0"
     inkscape:window-maximized="1"
     inkscape:current-layer="layer1">
    <sodipodi:guide
       position="0,4.2333331"
       orientation="0,1"
       id="guide824"
       inkscape:label=""
       inkscape:locked="false"
       inkscape:color="rgb(0,0,255)" />
  </sodipodi:namedview>
  <defs
     id="defs2" />
  <g
     inkscape:label="Layer 1"
     inkscape:groupmode="layer"
     id="layer1">
    <path
       id="path1092"
       style="opacity:1;fill:#000000;stroke:none;stroke-width:0.252525"
       d="M 36.376953,3.6601562 C 34.867759,3.8313513 33.388956,4.6053015 32.605469,5.75 c -3.13696,4.583194 -2.102555,10.490071 -2.200829,14.77092 -2.776839,2.136618 -5.153569,5.179106 -8.265963,8.143141 -1.654212,-0.308228 -4.348108,-1.17286 -5.699219,-2.21289 4.569112,-3.830792 5.586038,-9.241152 5.183594,-14 C 21.360831,9.3504484 19.395142,7.7143767 17.509155,5.7248993 15.221424,3.3116338 9.5592622,3.6089985 7.2890625,4.4511719 4.4463575,5.5048644 2.2866164,6.9192882 1.782589,8.9690999 1.151585,11.535308 0.46234597,15.678054 1.7441406,17.845703 c 0.9895353,1.534127 2.0464162,2.541079 3.78125,2.791016 1.5893443,0.228977 3.3230616,0.06761 4.7949214,-0.712891 1.639251,-0.869262 3.613577,-3.674797 3.164063,-5.601562 -0.777778,-3.34571 -5.2076047,-4.9710478 -7.4550781,-2.019532 l 0.474512,0.298124 c 0.8878727,-0.947348 2.156532,-0.303031 3.1602536,0.432345 1.8131335,1.389396 3.7690825,6.03818 -0.099609,6.275391 C 8.1654554,19.394374 6.6268957,19.022166 5.5253906,18.111328 3.5196177,16.452749 2.1198103,13.729532 2.3496094,10.787109 2.6183823,7.9807496 5.6525953,5.8148419 7.796875,5.7929688 15.221122,5.9778254 20.16874,12.049056 19.380859,19.373047 c -0.688271,2.648977 -1.432169,4.883918 -3.25,6.818359 -1.401524,1.360101 -3.485462,2.314182 -4.041015,4.292969 0.264527,0.187892 0.715758,0.383418 0.715758,0.383418 0,0 1.206656,-1.327328 1.809632,-1.637324 1.124397,-0.578063 2.093595,-0.02531 3.028996,0.476238 0.742044,0.39787 1.431434,1.525931 1.516734,2.509626 1.645919,-0.394521 2.309455,-2.004919 3.373271,-3.341536 2.301442,-3.16907 7.317732,-7.132653 7.932208,-7.358445 0.07857,3.972481 -0.390707,8.166188 -0.12074,12.307867 -1.348645,1.169574 -2.521921,2.640291 -3.544922,4.03125 -1.167028,1.58679 -2.810012,3.492353 -2.560547,5.486328 0.343515,2.747472 4.011878,1.511545 5.720704,0.587891 5.222145,-2.822673 2.346415,-8.572079 3.71875,-12.181637 1.161637,-2.614394 3.74644,-4.649322 5.558117,-6.439845 -0.181764,0.05106 -0.438532,-0.286821 -0.438532,-0.286821 0,0 -3.597588,3.58177 -4.738726,5.211041 h -0.251953 l -0.757813,-0.757813 c -0.05475,-2.087337 0.03829,-3.703553 0,-5.554687 v -4.798828 l -0.06647,-8.926187 c 0.138515,-1.6254769 -0.296234,-4.3445479 0.783832,-4.821009 4.308454,-1.9006352 4.589753,6.737115 0.814852,10.46546 0,0 0.294124,0.306572 0.235368,0.504388 C 37.909294,13.914459 40.467394,8.5615021 38.361328,4.7753906 37.938203,4.0159529 37.155174,3.5718788 36.376953,3.6601562 Z M 30.369141,34.212891 c -0.570527,2.50403 1.936243,9.151519 -0.857419,9.539062 -1.732601,0.24035 -3.226917,-1.243027 -2.898438,-3.421875 0.130891,-0.863439 0.177247,-1.96405 0.683594,-2.671875 1.216114,-1.700014 1.709859,-2.125929 3.072266,-3.445312 z"
       transform="scale(0.26458333)"
       sodipodi:nodetypes="sscccsscscssccccssccccccssccccscscccccccccscccscscscc" />
  </g>
</svg>
