<?xml version="1.0" encoding="UTF-8" standalone="no"?>
<!-- Created with Inkscape (http://www.inkscape.org/) -->

<svg
   width="23"
   height="48"
   viewBox="0 0 6.0854162 12.7"
   version="1.1"
   id="svg5"
   inkscape:version="1.1.1 (3bf5ae0d25, 2021-09-20)"
   sodipodi:docname="z.svg"
   xmlns:inkscape="http://www.inkscape.org/namespaces/inkscape"
   xmlns:sodipodi="http://sodipodi.sourceforge.net/DTD/sodipodi-0.dtd"
   xmlns="http://www.w3.org/2000/svg"
   xmlns:svg="http://www.w3.org/2000/svg">
  <sodipodi:namedview
     id="namedview7"
     pagecolor="#ffffff"
     bordercolor="#666666"
     borderopacity="1.0"
     inkscape:pageshadow="2"
     inkscape:pageopacity="0.0"
     inkscape:pagecheckerboard="0"
     inkscape:document-units="mm"
     showgrid="false"
     showguides="true"
     inkscape:guide-bbox="true"
     units="px"
     width="32px"
     inkscape:zoom="12.414927"
     inkscape:cx="15.827721"
     inkscape:cy="30.326397"
     inkscape:window-width="1889"
     inkscape:window-height="1058"
     inkscape:window-x="31"
     inkscape:window-y="0"
     inkscape:window-maximized="1"
     inkscape:current-layer="layer1">
    <sodipodi:guide
       position="0,4.2333331"
       orientation="0,1"
       id="guide824"
       inkscape:label=""
       inkscape:locked="false"
       inkscape:color="rgb(0,0,255)" />
  </sodipodi:namedview>
  <defs
     id="defs2" />
  <g
     inkscape:label="Layer 1"
     inkscape:groupmode="layer"
     id="layer1">
    <path
       id="path1092"
       style="opacity:1;fill:#000000;stroke:none;stroke-width:0.0668139"
       d="M 4.4720893,4.6565715 C 3.8880967,5.110192 3.3549312,5.2685858 2.8730119,5.1909401 2.518232,5.1260601 2.1689522,4.642651 1.7981422,4.759442 0.99628631,5.2530939 0.62240686,5.5669313 0.12795995,6.3438414 l 0.40049234,0.066663 c 0.14098,-0.3044724 0.55625521,-0.924829 0.92707521,-0.9808191 0.26993,-0.04076 0.6721984,0.2348733 0.9441284,0.2950723 0.32004,0.07082 0.7880586,-0.0988 1.0686685,-0.249597 L 3.4430038,5.6524108 C 2.8046769,6.2282679 2.5130692,6.6562899 1.9454208,7.2471453 1.4875462,7.7237389 0.96351912,7.7864111 0.79613603,8.4150449 l 0.196348,0.051622 c 0,0 0.19410967,-0.3237799 0.67181607,-0.3089704 0.6932332,0.021492 0.7885758,0.3875731 2.0045287,0.3875731 0.7907044,0 1.2696899,-0.6645587 1.2696899,-0.6645587 L 5.3644339,7.3240723 C 5.5299273,7.1077852 5.917898,6.6855661 5.917898,6.6855661 L 5.6899171,6.4401137 c 0,0 -0.5324075,0.7670752 -0.6154893,0.8659551 L 4.7913284,7.6429995 c 0,0 -0.3075175,0.3753175 -1.055837,0.3700028 C 2.9669279,8.007544 2.5398131,7.4326756 1.8648046,7.6135434 c 0,0 1.0873088,-1.2133328 1.6732828,-1.778186 C 3.9041254,5.4825128 4.6864653,4.8315759 4.6864653,4.8315759 4.6443907,4.7046839 4.5814619,4.6600106 4.4720893,4.6565715 Z"
       sodipodi:nodetypes="cccccccccsccsscsccscscscc" />
  </g>
</svg>
