<?xml version="1.0" encoding="UTF-8" standalone="no"?>
<!-- Created with Inkscape (http://www.inkscape.org/) -->

<svg
   width="32"
   height="48"
   viewBox="0 0 8.4666659 12.7"
   version="1.1"
   id="svg5"
   inkscape:version="1.1.1 (3bf5ae0d25, 2021-09-20)"
   sodipodi:docname="Z.svg"
   xmlns:inkscape="http://www.inkscape.org/namespaces/inkscape"
   xmlns:sodipodi="http://sodipodi.sourceforge.net/DTD/sodipodi-0.dtd"
   xmlns="http://www.w3.org/2000/svg"
   xmlns:svg="http://www.w3.org/2000/svg">
  <sodipodi:namedview
     id="namedview7"
     pagecolor="#ffffff"
     bordercolor="#666666"
     borderopacity="1.0"
     inkscape:pageshadow="2"
     inkscape:pageopacity="0.0"
     inkscape:pagecheckerboard="0"
     inkscape:document-units="mm"
     showgrid="false"
     showguides="true"
     inkscape:guide-bbox="true"
     units="px"
     width="32px"
     inkscape:zoom="17.557358"
     inkscape:cx="7.2049564"
     inkscape:cy="21.102264"
     inkscape:window-width="1889"
     inkscape:window-height="1058"
     inkscape:window-x="31"
     inkscape:window-y="0"
     inkscape:window-maximized="1"
     inkscape:current-layer="layer1">
    <sodipodi:guide
       position="0,4.2333331"
       orientation="0,1"
       id="guide824"
       inkscape:label=""
       inkscape:locked="false"
       inkscape:color="rgb(0,0,255)" />
  </sodipodi:namedview>
  <defs
     id="defs2" />
  <g
     inkscape:label="Layer 1"
     inkscape:groupmode="layer"
     id="layer1">
    <path
       id="path1092"
       style="opacity:1;fill:#000000;stroke:none;stroke-width:0.252525"
       d="M 26.744141,4.3476562 25.734375,4.6015625 C 25.42708,5.9424261 22.247236,7.7396745 21.1875,7.75 18.871821,7.6959528 16.960846,5.4918932 14.875,4.7949219 12.988638,4.1641149 9.7249311,4.5616004 7.8006982,4.6459973 5.6096158,4.8730837 4.706711,5.6031498 3.4775789,6.7222813 2.3578199,7.7418279 1.8354429,9.2790411 1.6699219,10.914062 1.4805675,12.491082 1.2252187,13.975731 2.515625,15.169922 4.1974392,16.726486 7.9236087,15.568998 8.5625,13.439453 8.36354,13.461177 8.122974,13.241996 8.122974,13.241996 8.3603335,13.395863 6.2947455,14.451174 4.48138,13.401593 2.6681369,12.352082 1.7371487,9.6943804 3.2324219,7.8476562 4.8909505,5.7993048 7.0860487,5.0602155 9.4798589,6.0632633 12.341839,7.2624821 14.822926,8.9676471 17.904297,9.3339844 19.343694,9.5051111 22.197266,8.640625 22.197266,8.640625 c -1.069967,3.001905 -4.388531,5.698234 -6.564454,8.1875 -3.123833,-1.147469 -5.036673,-0.137683 -5.8085932,1.914063 0.2734652,-0.03167 0.6151662,0.08441 0.6151662,0.08441 -0.203252,-0.114307 1.070223,-1.037639 2.162177,-0.336364 0.39974,0.256721 0.375728,0.792287 0.677735,1.03125 -2.9757,3.6335 -7.3340644,6.974277 -9.263672,10.837891 0.2789342,-0.04206 0.4718596,-0.02051 0.8727372,0.237245 1.3582185,-1.078549 2.5311814,-1.377676 4.1057784,-1.098573 2.0378834,0.360869 3.4936194,1.814789 5.3750004,2.433594 2.285284,0.751652 7.276698,0.250395 9.298828,-0.945313 3.79101,-2.241666 5.691178,-10.977061 -0.712891,-11.042969 -2.148487,-0.05959 -3.363196,1.667127 -4.755754,3.27772 l 0.58338,0.323962 c 1.386014,-1.501669 2.621948,-1.824903 4.503246,-0.881234 2.502539,1.255302 3.494248,5.544287 0.532409,7.08424 -0.901821,0.468885 -2.101935,1.26196 -3.134765,1.275391 -3.10356,0.04036 -6.10912,-3.135322 -9.147003,-3.534978 -0.666659,-0.0877 -3.1018067,-0.161782 -4.628559,0.483909 1.6477415,-3.000022 4.380482,-5.71336 6.625171,-8.280963 1.637283,0.91677 4.92397,-0.326057 5.421639,-2.084541 -0.380754,0.04079 -0.50611,-0.154799 -0.50611,-0.154799 0,0 -1.076817,0.704549 -2.210345,0.471035 -0.391139,-0.08058 -0.532994,-0.453661 -0.275961,-0.703367 l 6.738752,-7.6233273 c 1.318218,-1.4912558 3.53155,-3.3930595 4.042963,-5.2487505 z"
       transform="scale(0.26458333)"
       sodipodi:nodetypes="cccccsccccssssccccsccccssccccsssccccscsc" />
  </g>
</svg>
