<?xml version="1.0" encoding="UTF-8" standalone="no"?>
<!-- Created with Inkscape (http://www.inkscape.org/) -->

<svg
   width="22"
   height="42"
   viewBox="0 0 5.8208345 11.112501"
   version="1.1"
   id="svg5"
   sodipodi:docname="&amp;.svg"
   inkscape:version="1.1.1 (3bf5ae0d25, 2021-09-20)"
   xmlns:inkscape="http://www.inkscape.org/namespaces/inkscape"
   xmlns:sodipodi="http://sodipodi.sourceforge.net/DTD/sodipodi-0.dtd"
   xmlns="http://www.w3.org/2000/svg"
   xmlns:svg="http://www.w3.org/2000/svg">
  <sodipodi:namedview
     id="namedview7"
     pagecolor="#ffffff"
     bordercolor="#666666"
     borderopacity="1.0"
     inkscape:pageshadow="2"
     inkscape:pageopacity="0.0"
     inkscape:pagecheckerboard="0"
     inkscape:document-units="mm"
     showgrid="false"
     units="px"
     width="32px"
     showguides="true"
     inkscape:guide-bbox="true"
     inkscape:zoom="22.627417"
     inkscape:cx="9.7448153"
     inkscape:cy="19.202368"
     inkscape:window-width="1889"
     inkscape:window-height="1058"
     inkscape:window-x="31"
     inkscape:window-y="0"
     inkscape:window-maximized="1"
     inkscape:current-layer="layer1">
    <sodipodi:guide
       position="0.26458335,2.9104168"
       orientation="0,1"
       id="guide900"
       inkscape:label=""
       inkscape:locked="false"
       inkscape:color="rgb(0,0,255)" />
    <sodipodi:guide
       position="0.26458334,1.5875001"
       orientation="0,1"
       id="guide902"
       inkscape:label=""
       inkscape:locked="false"
       inkscape:color="rgb(0,0,255)" />
    <sodipodi:guide
       position="0.26458334,8.2020836"
       orientation="0,1"
       id="guide904"
       inkscape:label=""
       inkscape:locked="false"
       inkscape:color="rgb(0,0,255)" />
    <sodipodi:guide
       position="0.26458334,9.5250003"
       orientation="0,1"
       id="guide906"
       inkscape:label=""
       inkscape:locked="false"
       inkscape:color="rgb(0,0,255)" />
    <sodipodi:guide
       position="0.26458334,5.8208335"
       orientation="0,1"
       id="guide908"
       inkscape:label=""
       inkscape:locked="false"
       inkscape:color="rgb(0,0,255)" />
    <sodipodi:guide
       position="0.26458334,5.0270835"
       orientation="0,1"
       id="guide910"
       inkscape:label=""
       inkscape:locked="false"
       inkscape:color="rgb(0,0,255)" />
    <sodipodi:guide
       position="0.75123779,8.466667"
       orientation="0,1"
       id="guide2443"
       inkscape:label=""
       inkscape:locked="false"
       inkscape:color="rgb(0,0,255)" />
    <sodipodi:guide
       position="0.26458334,10.847917"
       orientation="-1,0"
       id="guide3539"
       inkscape:label=""
       inkscape:locked="false"
       inkscape:color="rgb(0,0,255)" />
    <sodipodi:guide
       position="0.26458334,2.6458334"
       orientation="0,1"
       id="guide8039"
       inkscape:label=""
       inkscape:locked="false"
       inkscape:color="rgb(0,0,255)" />
    <sodipodi:guide
       position="0.52916669,10.847917"
       orientation="-1,0"
       id="guide10061"
       inkscape:label=""
       inkscape:locked="false"
       inkscape:color="rgb(0,0,255)" />
    <sodipodi:guide
       position="0.26458337,1.8520802"
       orientation="0,1"
       id="guide19679"
       inkscape:label=""
       inkscape:locked="false"
       inkscape:color="rgb(0,0,255)" />
  </sodipodi:namedview>
  <defs
     id="defs2">
    <inkscape:perspective
       sodipodi:type="inkscape:persp3d"
       inkscape:vp_x="0 : 5.5562505 : 1"
       inkscape:vp_y="0 : 1000 : 0"
       inkscape:vp_z="8.4666685 : 5.5562505 : 1"
       inkscape:persp3d-origin="4.2333345 : 3.704167 : 1"
       id="perspective2796" />
  </defs>
  <g
     inkscape:label="Layer 1"
     inkscape:groupmode="layer"
     id="layer1">
    <path
       style="color:#000000;fill:#000000;stroke-linecap:round;stroke-linejoin:round;-inkscape-stroke:none"
       d="M 0.79296875,2.6464844 A 0.26460996,0.26460996 0 0 0 0.578125,3.0625 L 1.6191406,4.5332031 C 1.3842237,4.688217 1.1492183,4.8268995 0.90625,5.0566406 0.550379,5.393138 0.26367187,5.8904648 0.26367188,6.6152344 c 0,1.0065853 0.81771052,2.11314 2.11718752,2.1152344 0.7348891,0.00119 1.2474927,-0.3528017 1.65625,-0.7851563 l 1.0390625,1.46875 a 0.2645835,0.2645835 0 0 0 0.3691406,0.0625 0.2645835,0.2645835 0 0 0 0.0625,-0.3691406 L 4.4042969,7.5507812 c 0.018571,-0.028887 0.054801,-0.04692 0.072266,-0.076172 0.4008754,-0.671436 0.5507812,-1.4239247 0.5507812,-1.9179688 a 0.2645835,0.2645835 0 0 0 -0.265625,-0.265625 0.2645835,0.2645835 0 0 0 -0.2636718,0.265625 c 0,0.3463725 -0.1574821,0.9724202 -0.4375,1.5097656 L 2.3476563,4.6484375 C 2.967027,4.1460676 4.1445312,3.109375 4.1445312,3.109375 A 0.26460996,0.26460996 0 0 0 3.96875,2.6464844 Z M 1.3066406,3.1757813 H 3.2519531 C 2.8720035,3.5087232 2.4558326,3.8746492 2.0410156,4.2128906 Z M 1.9257812,4.9648437 3.734375,7.5195312 C 3.4103064,7.9023557 3.0056954,8.2021806 2.3808594,8.2011719 1.3845638,8.1995662 0.79296875,7.33382 0.79296875,6.6152344 c 0,-0.5967632 0.19579777,-0.9083482 0.47656245,-1.1738282 0.1819783,-0.1720713 0.4253676,-0.3224849 0.65625,-0.4765625 z"
       id="path52318" />
  </g>
</svg>
