<?xml version="1.0" encoding="UTF-8" standalone="no"?>
<!-- Created with Inkscape (http://www.inkscape.org/) -->

<svg
   width="20"
   height="42"
   viewBox="0 0 5.2916677 11.112501"
   version="1.1"
   id="svg5"
   sodipodi:docname="6.svg"
   inkscape:version="1.1.1 (3bf5ae0d25, 2021-09-20)"
   xmlns:inkscape="http://www.inkscape.org/namespaces/inkscape"
   xmlns:sodipodi="http://sodipodi.sourceforge.net/DTD/sodipodi-0.dtd"
   xmlns="http://www.w3.org/2000/svg"
   xmlns:svg="http://www.w3.org/2000/svg">
  <sodipodi:namedview
     id="namedview7"
     pagecolor="#ffffff"
     bordercolor="#666666"
     borderopacity="1.0"
     inkscape:pageshadow="2"
     inkscape:pageopacity="0.0"
     inkscape:pagecheckerboard="0"
     inkscape:document-units="mm"
     showgrid="false"
     units="px"
     width="32px"
     showguides="true"
     inkscape:guide-bbox="true"
     inkscape:zoom="11.313709"
     inkscape:cx="0.30935922"
     inkscape:cy="27.267805"
     inkscape:window-width="1889"
     inkscape:window-height="1058"
     inkscape:window-x="31"
     inkscape:window-y="0"
     inkscape:window-maximized="1"
     inkscape:current-layer="layer1">
    <sodipodi:guide
       position="0.26458335,2.9104168"
       orientation="0,1"
       id="guide900"
       inkscape:label=""
       inkscape:locked="false"
       inkscape:color="rgb(0,0,255)" />
    <sodipodi:guide
       position="0.26458334,1.5875001"
       orientation="0,1"
       id="guide902"
       inkscape:label=""
       inkscape:locked="false"
       inkscape:color="rgb(0,0,255)" />
    <sodipodi:guide
       position="0.26458334,8.2020836"
       orientation="0,1"
       id="guide904"
       inkscape:label=""
       inkscape:locked="false"
       inkscape:color="rgb(0,0,255)" />
    <sodipodi:guide
       position="0.26458334,9.5250003"
       orientation="0,1"
       id="guide906"
       inkscape:label=""
       inkscape:locked="false"
       inkscape:color="rgb(0,0,255)" />
    <sodipodi:guide
       position="0.26458334,5.8208335"
       orientation="0,1"
       id="guide908"
       inkscape:label=""
       inkscape:locked="false"
       inkscape:color="rgb(0,0,255)" />
    <sodipodi:guide
       position="0.26458334,5.0270835"
       orientation="0,1"
       id="guide910"
       inkscape:label=""
       inkscape:locked="false"
       inkscape:color="rgb(0,0,255)" />
    <sodipodi:guide
       position="0.75123779,8.466667"
       orientation="0,1"
       id="guide2443"
       inkscape:label=""
       inkscape:locked="false"
       inkscape:color="rgb(0,0,255)" />
    <sodipodi:guide
       position="0.26458334,10.847917"
       orientation="-1,0"
       id="guide3539"
       inkscape:label=""
       inkscape:locked="false"
       inkscape:color="rgb(0,0,255)" />
    <sodipodi:guide
       position="0.26458334,2.6458334"
       orientation="0,1"
       id="guide8039"
       inkscape:label=""
       inkscape:locked="false"
       inkscape:color="rgb(0,0,255)" />
    <sodipodi:guide
       position="0.52916669,10.847917"
       orientation="-1,0"
       id="guide10061"
       inkscape:label=""
       inkscape:locked="false"
       inkscape:color="rgb(0,0,255)" />
    <sodipodi:guide
       position="0.26458337,1.8520802"
       orientation="0,1"
       id="guide19679"
       inkscape:label=""
       inkscape:locked="false"
       inkscape:color="rgb(0,0,255)" />
  </sodipodi:namedview>
  <defs
     id="defs2">
    <inkscape:perspective
       sodipodi:type="inkscape:persp3d"
       inkscape:vp_x="0 : 5.5562505 : 1"
       inkscape:vp_y="0 : 1000 : 0"
       inkscape:vp_z="8.4666684 : 5.5562505 : 1"
       inkscape:persp3d-origin="4.2333344 : 3.704167 : 1"
       id="perspective2796" />
  </defs>
  <g
     inkscape:label="Layer 1"
     inkscape:groupmode="layer"
     id="layer1">
    <path
       style="color:#000000;fill:#000000;stroke-linecap:round;-inkscape-stroke:none"
       d="m 3.8359375,1.3222656 c -0.3250691,0 -0.6724289,0.1424884 -1.0507812,0.3691406 C 2.4068039,1.9180585 2.005163,2.2388467 1.6347656,2.6308594 0.89397084,3.4148847 0.26367188,4.4932325 0.26367188,5.6894531 c 0,0.9003189 0.28784968,1.6081111 0.77343752,2.0800781 0.4855878,0.4719671 1.1534412,0.6972657 1.8730469,0.6972657 0.6897383,0 1.2396296,-0.3318433 1.5917968,-0.7910157 0.3521673,-0.4591723 0.5253907,-1.0386128 0.5253906,-1.5898437 0,-1.2552106 -0.8921069,-2.1171875 -1.8515624,-2.1171875 -0.8252175,0 -1.5666394,0.5464482 -1.5878907,1.3164062 -0.016952,0.6141902 0.4362499,0.9616616 0.8868479,0.9616616 0.099403,9.397e-4 0.1690444,-0.084153 0.1717459,-0.1608803 0,-0.064553 -0.036652,-0.2011714 -0.1588566,-0.2006894 -0.040663,0 -0.3815482,-0.1839674 -0.3704403,-0.58642 0.011784,-0.4269443 0.4615072,-0.8007812 1.0585938,-0.8007812 0.642671,0 1.3222656,0.5776034 1.3222656,1.5878906 0,0.4377643 -0.1461135,0.9156669 -0.4160157,1.2675781 C 3.8121291,7.7054269 3.4363032,7.9375 2.9101563,7.9375 2.299628,7.9375 1.7787525,7.7526788 1.40625,7.390625 1.0337475,7.0285712 0.79296875,6.4801297 0.79296875,5.6894531 0.79296875,4.6821949 1.3433665,3.7097643 2.0195313,2.9941406 2.3576136,2.6363288 2.7261197,2.34253 3.0566406,2.1445313 3.3871615,1.9465325 3.6876374,1.8515625 3.8359375,1.8515625 3.9821139,1.8521388 4.10106,1.7340673 4.1015625,1.5878906 4.1021421,1.4409506 3.9828775,1.321686 3.8359375,1.3222656 Z"
       id="path69817"
       sodipodi:nodetypes="cssssssssscccsssssssssccc" />
  </g>
</svg>
