<?xml version="1.0" encoding="UTF-8" standalone="no"?>
<!-- Created with Inkscape (http://www.inkscape.org/) -->

<svg
   width="20"
   height="42"
   viewBox="0 0 5.2916677 11.112501"
   version="1.1"
   id="svg5"
   sodipodi:docname="9.svg"
   inkscape:version="1.1.1 (3bf5ae0d25, 2021-09-20)"
   xmlns:inkscape="http://www.inkscape.org/namespaces/inkscape"
   xmlns:sodipodi="http://sodipodi.sourceforge.net/DTD/sodipodi-0.dtd"
   xmlns="http://www.w3.org/2000/svg"
   xmlns:svg="http://www.w3.org/2000/svg">
  <sodipodi:namedview
     id="namedview7"
     pagecolor="#ffffff"
     bordercolor="#666666"
     borderopacity="1.0"
     inkscape:pageshadow="2"
     inkscape:pageopacity="0.0"
     inkscape:pagecheckerboard="0"
     inkscape:document-units="mm"
     showgrid="false"
     units="px"
     width="32px"
     showguides="true"
     inkscape:guide-bbox="true"
     inkscape:zoom="22.627417"
     inkscape:cx="5.9883105"
     inkscape:cy="19.776893"
     inkscape:window-width="1889"
     inkscape:window-height="1058"
     inkscape:window-x="31"
     inkscape:window-y="0"
     inkscape:window-maximized="1"
     inkscape:current-layer="layer1">
    <sodipodi:guide
       position="0.26458335,2.9104168"
       orientation="0,1"
       id="guide900"
       inkscape:label=""
       inkscape:locked="false"
       inkscape:color="rgb(0,0,255)" />
    <sodipodi:guide
       position="0.26458334,1.5875001"
       orientation="0,1"
       id="guide902"
       inkscape:label=""
       inkscape:locked="false"
       inkscape:color="rgb(0,0,255)" />
    <sodipodi:guide
       position="0.26458334,8.2020836"
       orientation="0,1"
       id="guide904"
       inkscape:label=""
       inkscape:locked="false"
       inkscape:color="rgb(0,0,255)" />
    <sodipodi:guide
       position="0.26458334,9.5250003"
       orientation="0,1"
       id="guide906"
       inkscape:label=""
       inkscape:locked="false"
       inkscape:color="rgb(0,0,255)" />
    <sodipodi:guide
       position="0.26458334,5.8208335"
       orientation="0,1"
       id="guide908"
       inkscape:label=""
       inkscape:locked="false"
       inkscape:color="rgb(0,0,255)" />
    <sodipodi:guide
       position="0.26458334,5.0270835"
       orientation="0,1"
       id="guide910"
       inkscape:label=""
       inkscape:locked="false"
       inkscape:color="rgb(0,0,255)" />
    <sodipodi:guide
       position="0.75123779,8.466667"
       orientation="0,1"
       id="guide2443"
       inkscape:label=""
       inkscape:locked="false"
       inkscape:color="rgb(0,0,255)" />
    <sodipodi:guide
       position="0.26458334,10.847917"
       orientation="-1,0"
       id="guide3539"
       inkscape:label=""
       inkscape:locked="false"
       inkscape:color="rgb(0,0,255)" />
    <sodipodi:guide
       position="0.26458334,2.6458334"
       orientation="0,1"
       id="guide8039"
       inkscape:label=""
       inkscape:locked="false"
       inkscape:color="rgb(0,0,255)" />
    <sodipodi:guide
       position="0.52916669,10.847917"
       orientation="-1,0"
       id="guide10061"
       inkscape:label=""
       inkscape:locked="false"
       inkscape:color="rgb(0,0,255)" />
    <sodipodi:guide
       position="0.26458337,1.8520802"
       orientation="0,1"
       id="guide19679"
       inkscape:label=""
       inkscape:locked="false"
       inkscape:color="rgb(0,0,255)" />
  </sodipodi:namedview>
  <defs
     id="defs2">
    <inkscape:perspective
       sodipodi:type="inkscape:persp3d"
       inkscape:vp_x="0 : 5.5562505 : 1"
       inkscape:vp_y="0 : 1000 : 0"
       inkscape:vp_z="8.4666684 : 5.5562505 : 1"
       inkscape:persp3d-origin="4.2333344 : 3.704167 : 1"
       id="perspective2796" />
  </defs>
  <g
     inkscape:label="Layer 1"
     inkscape:groupmode="layer"
     id="layer1">
    <path
       style="color:#000000;fill:#000000;stroke-linecap:round;stroke-linejoin:round;-inkscape-stroke:none"
       d="m 2.3808594,2.3808594 c -0.5065535,0 -1.0293972,0.162979 -1.4355469,0.515625 -0.40614973,0.352646 -0.68164062,0.9012086 -0.68164062,1.6015625 0,0.8339953 0.19214598,1.4333399 0.53710937,1.828125 0.34496335,0.3947851 0.83079795,0.5527343 1.31640625,0.5527343 0.3563358,0 0.7218239,-0.1480455 1.0253906,-0.375 0.3035667,-0.2269544 0.5625,-0.5484313 0.5625,-0.9472656 0,-0.7482713 -0.6640625,-1.1542969 -0.6640625,-1.1542969 a 0.26458335,0.26458335 0 0 0 -0.3652343,0.080078 0.26458335,0.26458335 0 0 0 0.080078,0.3652343 c 0,0 0.4199218,0.2863601 0.4199219,0.7089844 0,0.1502389 -0.1289868,0.3584942 -0.3496094,0.5234375 -0.2206226,0.1649436 -0.516247,0.2695315 -0.7089843,0.2695315 -0.3774606,0 -0.6849501,-0.1063743 -0.9179688,-0.3730469 C 0.96620015,5.7098899 0.79296875,5.25155 0.79296875,4.4980469 c 0,-0.5677018 0.20276772,-0.944791 0.49804685,-1.2011719 0.2952792,-0.2563809 0.6979499,-0.3867187 1.0898438,-0.3867187 1.0435156,0 1.5225662,0.2814025 1.7910156,0.6914062 0.2684494,0.4100037 0.3261719,1.0202173 0.3261719,1.6894531 0,0.8259783 -0.6013079,1.7806076 -1.328125,2.5078125 C 2.8065133,8.1624306 2.4155035,8.4702499 2.0742188,8.6816406 1.732934,8.8930314 1.4229808,8.9960938 1.3222656,8.9960938 a 0.26458335,0.26458335 0 0 0 -0.2636719,0.2636718 0.26458335,0.26458335 0 0 0 0.2636719,0.265625 c 0.3187921,0 0.6489559,-0.1577394 1.03125,-0.3945312 C 2.7358097,8.8940676 3.1533123,8.5656466 3.5449219,8.1738281 4.328141,7.3901911 5.0273437,6.3591685 5.0273437,5.2910156 5.0273437,4.5970753 4.9898276,3.8846176 4.6152344,3.3125 4.2406411,2.7403824 3.5276683,2.3808594 2.3808594,2.3808594 Z"
       id="path77524" />
  </g>
</svg>
