<?xml version="1.0" encoding="UTF-8" standalone="no"?>
<!-- Created with Inkscape (http://www.inkscape.org/) -->

<svg
   width="25"
   height="42"
   viewBox="0 0 6.6145836 11.112501"
   version="1.1"
   id="svg5"
   sodipodi:docname="E.svg"
   inkscape:version="1.1.1 (3bf5ae0d25, 2021-09-20)"
   xmlns:inkscape="http://www.inkscape.org/namespaces/inkscape"
   xmlns:sodipodi="http://sodipodi.sourceforge.net/DTD/sodipodi-0.dtd"
   xmlns="http://www.w3.org/2000/svg"
   xmlns:svg="http://www.w3.org/2000/svg">
  <sodipodi:namedview
     id="namedview7"
     pagecolor="#ffffff"
     bordercolor="#666666"
     borderopacity="1.0"
     inkscape:pageshadow="2"
     inkscape:pageopacity="0.0"
     inkscape:pagecheckerboard="0"
     inkscape:document-units="mm"
     showgrid="false"
     units="px"
     width="32px"
     showguides="true"
     inkscape:guide-bbox="true"
     inkscape:zoom="16"
     inkscape:cx="-4.46875"
     inkscape:cy="28.03125"
     inkscape:window-width="1889"
     inkscape:window-height="1058"
     inkscape:window-x="31"
     inkscape:window-y="0"
     inkscape:window-maximized="1"
     inkscape:current-layer="layer1">
    <sodipodi:guide
       position="0.26458335,2.9104168"
       orientation="0,1"
       id="guide900"
       inkscape:label=""
       inkscape:locked="false"
       inkscape:color="rgb(0,0,255)" />
    <sodipodi:guide
       position="0.26458334,1.5875001"
       orientation="0,1"
       id="guide902"
       inkscape:label=""
       inkscape:locked="false"
       inkscape:color="rgb(0,0,255)" />
    <sodipodi:guide
       position="0.26458334,8.2020836"
       orientation="0,1"
       id="guide904"
       inkscape:label=""
       inkscape:locked="false"
       inkscape:color="rgb(0,0,255)" />
    <sodipodi:guide
       position="0.26458334,9.5250003"
       orientation="0,1"
       id="guide906"
       inkscape:label=""
       inkscape:locked="false"
       inkscape:color="rgb(0,0,255)" />
    <sodipodi:guide
       position="0.26458334,5.8208335"
       orientation="0,1"
       id="guide908"
       inkscape:label=""
       inkscape:locked="false"
       inkscape:color="rgb(0,0,255)" />
    <sodipodi:guide
       position="0.26458334,5.0270835"
       orientation="0,1"
       id="guide910"
       inkscape:label=""
       inkscape:locked="false"
       inkscape:color="rgb(0,0,255)" />
    <sodipodi:guide
       position="0.75123779,8.466667"
       orientation="0,1"
       id="guide2443"
       inkscape:label=""
       inkscape:locked="false"
       inkscape:color="rgb(0,0,255)" />
    <sodipodi:guide
       position="0.26458334,10.847917"
       orientation="-1,0"
       id="guide3539"
       inkscape:label=""
       inkscape:locked="false"
       inkscape:color="rgb(0,0,255)" />
    <sodipodi:guide
       position="0.26458334,2.6458334"
       orientation="0,1"
       id="guide8039"
       inkscape:label=""
       inkscape:locked="false"
       inkscape:color="rgb(0,0,255)" />
    <sodipodi:guide
       position="0.52916669,10.847917"
       orientation="-1,0"
       id="guide10061"
       inkscape:label=""
       inkscape:locked="false"
       inkscape:color="rgb(0,0,255)" />
  </sodipodi:namedview>
  <defs
     id="defs2">
    <inkscape:perspective
       sodipodi:type="inkscape:persp3d"
       inkscape:vp_x="0 : 5.5562505 : 1"
       inkscape:vp_y="0 : 1000 : 0"
       inkscape:vp_z="8.4666669 : 5.5562505 : 1"
       inkscape:persp3d-origin="4.2333335 : 3.704167 : 1"
       id="perspective2796" />
  </defs>
  <g
     inkscape:label="Layer 1"
     inkscape:groupmode="layer"
     id="layer1">
    <path
       id="path12041"
       style="color:#000000;fill:#000000;stroke-width:3.77953;stroke-linecap:round;stroke-linejoin:round;-inkscape-stroke:none"
       d="M 19.001953 10.001953 C 19.001953 10.001953 6.1647575 9.9997922 2 10.464844 C 1.6234502 10.506891 0.9995386 10.648765 0.99609375 10.998047 C 0.99390329 11.553411 1.4446361 12.006097 2 12.003906 L 3.5136719 12.003906 L 3.5136719 30 L 2 30 C 1.4475221 29.997822 0.997993 30.443615 0.99609375 30.996094 C 0.9995386 31.444514 1.6031525 31.610432 2 31.644531 C 6.1272302 31.999166 23.001953 32 23.001953 32 C 23.777683 31.998376 24.255478 31.152143 23.857422 30.486328 L 20.853516 25.482422 C 20.716541 25.257504 20.495791 25.094818 20.240234 25.03125 C 19.984466 24.967478 19.714862 25.007873 19.488281 25.142578 C 19.012651 25.425423 18.856453 26.040787 19.140625 26.515625 L 21.238281 30 L 5.5136719 30 L 5.5136719 21.001953 L 10.21875 21.001953 L 9.65625 22.683594 A 1.0000001 1.0000001 0 0 0 10.291016 23.947266 A 1.0000001 1.0000001 0 0 0 11.552734 23.320312 L 13.767578 16.720703 A 1.0000001 1.0000001 0 0 0 13.132812 15.451172 A 1.0000001 1.0000001 0 0 0 11.869141 16.078125 L 10.888672 19.001953 L 5.5136719 19.001953 L 5.5136719 12.003906 L 17.996094 12.003906 L 17.996094 14.845703 C 17.993903 15.401067 18.446589 15.8518 19.001953 15.849609 C 19.554432 15.84771 20.000225 15.398181 19.998047 14.845703 L 19.998047 10.998047 C 19.996102 10.448472 19.551528 10.003898 19.001953 10.001953 z "
       transform="scale(0.26458333)" />
  </g>
</svg>
