<?xml version="1.0" encoding="UTF-8" standalone="no"?>
<!-- Created with Inkscape (http://www.inkscape.org/) -->

<svg
   width="20.5"
   height="42"
   viewBox="0 0 5.4239587 11.112501"
   version="1.1"
   id="svg5"
   sodipodi:docname="F.svg"
   inkscape:version="1.1.1 (3bf5ae0d25, 2021-09-20)"
   xmlns:inkscape="http://www.inkscape.org/namespaces/inkscape"
   xmlns:sodipodi="http://sodipodi.sourceforge.net/DTD/sodipodi-0.dtd"
   xmlns="http://www.w3.org/2000/svg"
   xmlns:svg="http://www.w3.org/2000/svg">
  <sodipodi:namedview
     id="namedview7"
     pagecolor="#ffffff"
     bordercolor="#666666"
     borderopacity="1.0"
     inkscape:pageshadow="2"
     inkscape:pageopacity="0.0"
     inkscape:pagecheckerboard="0"
     inkscape:document-units="mm"
     showgrid="false"
     units="px"
     width="32px"
     showguides="true"
     inkscape:guide-bbox="true"
     inkscape:zoom="16"
     inkscape:cx="13.15625"
     inkscape:cy="15.46875"
     inkscape:window-width="1889"
     inkscape:window-height="1058"
     inkscape:window-x="31"
     inkscape:window-y="0"
     inkscape:window-maximized="1"
     inkscape:current-layer="layer1">
    <sodipodi:guide
       position="0.26458335,2.9104168"
       orientation="0,1"
       id="guide900"
       inkscape:label=""
       inkscape:locked="false"
       inkscape:color="rgb(0,0,255)" />
    <sodipodi:guide
       position="0.26458334,1.5875001"
       orientation="0,1"
       id="guide902"
       inkscape:label=""
       inkscape:locked="false"
       inkscape:color="rgb(0,0,255)" />
    <sodipodi:guide
       position="0.26458334,8.2020836"
       orientation="0,1"
       id="guide904"
       inkscape:label=""
       inkscape:locked="false"
       inkscape:color="rgb(0,0,255)" />
    <sodipodi:guide
       position="0.26458334,9.5250003"
       orientation="0,1"
       id="guide906"
       inkscape:label=""
       inkscape:locked="false"
       inkscape:color="rgb(0,0,255)" />
    <sodipodi:guide
       position="0.26458334,5.8208335"
       orientation="0,1"
       id="guide908"
       inkscape:label=""
       inkscape:locked="false"
       inkscape:color="rgb(0,0,255)" />
    <sodipodi:guide
       position="0.26458334,5.0270835"
       orientation="0,1"
       id="guide910"
       inkscape:label=""
       inkscape:locked="false"
       inkscape:color="rgb(0,0,255)" />
    <sodipodi:guide
       position="0.75123779,8.466667"
       orientation="0,1"
       id="guide2443"
       inkscape:label=""
       inkscape:locked="false"
       inkscape:color="rgb(0,0,255)" />
    <sodipodi:guide
       position="0.26458334,10.847917"
       orientation="-1,0"
       id="guide3539"
       inkscape:label=""
       inkscape:locked="false"
       inkscape:color="rgb(0,0,255)" />
    <sodipodi:guide
       position="0.26458334,2.6458334"
       orientation="0,1"
       id="guide8039"
       inkscape:label=""
       inkscape:locked="false"
       inkscape:color="rgb(0,0,255)" />
    <sodipodi:guide
       position="0.52916669,10.847917"
       orientation="-1,0"
       id="guide10061"
       inkscape:label=""
       inkscape:locked="false"
       inkscape:color="rgb(0,0,255)" />
  </sodipodi:namedview>
  <defs
     id="defs2">
    <inkscape:perspective
       sodipodi:type="inkscape:persp3d"
       inkscape:vp_x="0 : 5.5562505 : 1"
       inkscape:vp_y="0 : 1000 : 0"
       inkscape:vp_z="8.4666673 : 5.5562505 : 1"
       inkscape:persp3d-origin="4.2333336 : 3.704167 : 1"
       id="perspective2796" />
  </defs>
  <g
     inkscape:label="Layer 1"
     inkscape:groupmode="layer"
     id="layer1">
    <path
       id="path13582"
       style="color:#000000;fill:#000000;stroke-width:3.77953;stroke-linecap:round;stroke-linejoin:round;-inkscape-stroke:none"
       d="M 2,10.001953 A 1.0000001,1.0000001 0 0 0 0.99609375,10.998047 1.0000001,1.0000001 0 0 0 2,12.003906 H 2.53125 V 34.998047 H 2 A 1.0000001,1.0000001 0 0 0 0.99609375,36.001953 1.0000001,1.0000001 0 0 0 2,36.998047 H 7.5292969 A 1.0000001,1.0000001 0 0 0 8.5253906,36.001953 1.0000001,1.0000001 0 0 0 7.5292969,34.998047 H 4.5332031 V 21.001953 h 5.9921879 c -0.255942,0.971699 -0.6724691,2.063247 -1.4140629,3.394531 -0.2717741,0.484841 -0.231398,0.900341 0.080078,1.085938 0.313668,0.186903 0.7308196,0.0317 0.9980469,-0.451172 2.125842,-3.81624 2.554943,-5.857996 3.023438,-8.03125 0.116469,-0.540241 -0.227229,-1.07154 -0.767579,-1.1875 -0.54024,-0.116469 -1.071539,0.227228 -1.1875,0.767578 -0.181044,0.839831 -0.256058,1.614689 -0.361328,2.421875 H 4.5332031 V 12.003906 H 17.708984 v 4 a 1.0000001,1.0000001 0 0 0 0.996094,1.003906 1.0000001,1.0000001 0 0 0 1.003906,-1.003906 v -5.005859 a 1.0001001,1.0001001 0 0 0 -1.003906,-0.996094 z"
       transform="scale(0.26458333)" />
  </g>
</svg>
