<?xml version="1.0" encoding="UTF-8" standalone="no"?>
<!-- Created with Inkscape (http://www.inkscape.org/) -->

<svg
   width="26"
   height="42"
   viewBox="0 0 6.8791672 11.112501"
   version="1.1"
   id="svg5"
   sodipodi:docname="H.svg"
   inkscape:version="1.1.1 (3bf5ae0d25, 2021-09-20)"
   xmlns:inkscape="http://www.inkscape.org/namespaces/inkscape"
   xmlns:sodipodi="http://sodipodi.sourceforge.net/DTD/sodipodi-0.dtd"
   xmlns="http://www.w3.org/2000/svg"
   xmlns:svg="http://www.w3.org/2000/svg">
  <sodipodi:namedview
     id="namedview7"
     pagecolor="#ffffff"
     bordercolor="#666666"
     borderopacity="1.0"
     inkscape:pageshadow="2"
     inkscape:pageopacity="0.0"
     inkscape:pagecheckerboard="0"
     inkscape:document-units="mm"
     showgrid="false"
     units="px"
     width="32px"
     showguides="true"
     inkscape:guide-bbox="true"
     inkscape:zoom="22.627417"
     inkscape:cx="6.4302523"
     inkscape:cy="24.859223"
     inkscape:window-width="1889"
     inkscape:window-height="1058"
     inkscape:window-x="31"
     inkscape:window-y="0"
     inkscape:window-maximized="1"
     inkscape:current-layer="layer1">
    <sodipodi:guide
       position="0.26458335,2.9104168"
       orientation="0,1"
       id="guide900"
       inkscape:label=""
       inkscape:locked="false"
       inkscape:color="rgb(0,0,255)" />
    <sodipodi:guide
       position="0.26458334,1.5875001"
       orientation="0,1"
       id="guide902"
       inkscape:label=""
       inkscape:locked="false"
       inkscape:color="rgb(0,0,255)" />
    <sodipodi:guide
       position="0.26458334,8.2020836"
       orientation="0,1"
       id="guide904"
       inkscape:label=""
       inkscape:locked="false"
       inkscape:color="rgb(0,0,255)" />
    <sodipodi:guide
       position="0.26458334,9.5250003"
       orientation="0,1"
       id="guide906"
       inkscape:label=""
       inkscape:locked="false"
       inkscape:color="rgb(0,0,255)" />
    <sodipodi:guide
       position="0.26458334,5.8208335"
       orientation="0,1"
       id="guide908"
       inkscape:label=""
       inkscape:locked="false"
       inkscape:color="rgb(0,0,255)" />
    <sodipodi:guide
       position="0.26458334,5.0270835"
       orientation="0,1"
       id="guide910"
       inkscape:label=""
       inkscape:locked="false"
       inkscape:color="rgb(0,0,255)" />
    <sodipodi:guide
       position="0.75123779,8.466667"
       orientation="0,1"
       id="guide2443"
       inkscape:label=""
       inkscape:locked="false"
       inkscape:color="rgb(0,0,255)" />
    <sodipodi:guide
       position="0.26458334,10.847917"
       orientation="-1,0"
       id="guide3539"
       inkscape:label=""
       inkscape:locked="false"
       inkscape:color="rgb(0,0,255)" />
    <sodipodi:guide
       position="0.26458334,2.6458334"
       orientation="0,1"
       id="guide8039"
       inkscape:label=""
       inkscape:locked="false"
       inkscape:color="rgb(0,0,255)" />
    <sodipodi:guide
       position="0.52916669,10.847917"
       orientation="-1,0"
       id="guide10061"
       inkscape:label=""
       inkscape:locked="false"
       inkscape:color="rgb(0,0,255)" />
  </sodipodi:namedview>
  <defs
     id="defs2">
    <inkscape:perspective
       sodipodi:type="inkscape:persp3d"
       inkscape:vp_x="0 : 5.5562505 : 1"
       inkscape:vp_y="0 : 1000 : 0"
       inkscape:vp_z="8.4666674 : 5.5562505 : 1"
       inkscape:persp3d-origin="4.2333337 : 3.704167 : 1"
       id="perspective2796" />
  </defs>
  <g
     inkscape:label="Layer 1"
     inkscape:groupmode="layer"
     id="layer1">
    <path
       id="path16768"
       style="color:#000000;fill:#000000;stroke-width:3.77953;stroke-linecap:round;stroke-linejoin:round;-inkscape-stroke:none"
       d="M 2.9960938 10.001953 A 1.0000006 1.0000006 0 0 0 2 10.998047 A 1.0000006 1.0000006 0 0 0 2.9960938 12.003906 L 5.5800781 12.003906 L 5.5800781 19.001953 L 2 19.001953 A 1.0000001 1.0000001 0 0 0 0.99609375 19.998047 A 1.0000001 1.0000001 0 0 0 2 21.001953 L 5.5800781 21.001953 L 5.5800781 30 L 3.4980469 30 A 1.0000006 1.0000006 0 0 0 2.5019531 30.996094 A 1.0000006 1.0000006 0 0 0 3.4980469 32 L 6.5839844 32 L 9.5 32 A 1.0000006 1.0000006 0 0 0 10.496094 30.996094 A 1.0000006 1.0000006 0 0 0 9.5 30 L 7.5820312 30 L 7.5820312 21.001953 L 20.5 21.001953 L 20.5 30 L 18.498047 30 A 1.0000006 1.0000006 0 0 0 17.501953 30.996094 A 1.0000006 1.0000006 0 0 0 18.498047 32 L 23.998047 32 A 1.0000006 1.0000006 0 0 0 25.001953 30.996094 A 1.0000006 1.0000006 0 0 0 23.998047 30 L 22.5 30 L 22.5 12.003906 L 23.998047 12.003906 A 1.0000006 1.0000006 0 0 0 25.001953 10.998047 A 1.0000006 1.0000006 0 0 0 23.998047 10.001953 L 18.498047 10.001953 A 1.0000006 1.0000006 0 0 0 17.501953 10.998047 A 1.0000006 1.0000006 0 0 0 18.498047 12.003906 L 20.5 12.003906 L 20.5 19.001953 L 7.5820312 19.001953 L 7.5820312 12.003906 L 9.5 12.003906 A 1.0000006 1.0000006 0 0 0 10.496094 10.998047 A 1.0000006 1.0000006 0 0 0 9.5 10.001953 L 2.9960938 10.001953 z "
       transform="scale(0.26458333)" />
  </g>
</svg>
