<?xml version="1.0" encoding="UTF-8" standalone="no"?>
<!-- Created with Inkscape (http://www.inkscape.org/) -->

<svg
   width="27"
   height="42"
   viewBox="0 0 7.1437514 11.112501"
   version="1.1"
   id="svg5"
   sodipodi:docname="M.svg"
   inkscape:version="1.1.1 (3bf5ae0d25, 2021-09-20)"
   xmlns:inkscape="http://www.inkscape.org/namespaces/inkscape"
   xmlns:sodipodi="http://sodipodi.sourceforge.net/DTD/sodipodi-0.dtd"
   xmlns="http://www.w3.org/2000/svg"
   xmlns:svg="http://www.w3.org/2000/svg">
  <sodipodi:namedview
     id="namedview7"
     pagecolor="#ffffff"
     bordercolor="#666666"
     borderopacity="1.0"
     inkscape:pageshadow="2"
     inkscape:pageopacity="0.0"
     inkscape:pagecheckerboard="0"
     inkscape:document-units="mm"
     showgrid="false"
     units="px"
     width="32px"
     showguides="true"
     inkscape:guide-bbox="true"
     inkscape:zoom="22.627417"
     inkscape:cx="9.9657862"
     inkscape:cy="20.042058"
     inkscape:window-width="1889"
     inkscape:window-height="1058"
     inkscape:window-x="31"
     inkscape:window-y="0"
     inkscape:window-maximized="1"
     inkscape:current-layer="layer1">
    <sodipodi:guide
       position="0.26458335,2.9104168"
       orientation="0,1"
       id="guide900"
       inkscape:label=""
       inkscape:locked="false"
       inkscape:color="rgb(0,0,255)" />
    <sodipodi:guide
       position="0.26458334,1.5875001"
       orientation="0,1"
       id="guide902"
       inkscape:label=""
       inkscape:locked="false"
       inkscape:color="rgb(0,0,255)" />
    <sodipodi:guide
       position="0.26458334,8.2020836"
       orientation="0,1"
       id="guide904"
       inkscape:label=""
       inkscape:locked="false"
       inkscape:color="rgb(0,0,255)" />
    <sodipodi:guide
       position="0.26458334,9.5250003"
       orientation="0,1"
       id="guide906"
       inkscape:label=""
       inkscape:locked="false"
       inkscape:color="rgb(0,0,255)" />
    <sodipodi:guide
       position="0.26458334,5.8208335"
       orientation="0,1"
       id="guide908"
       inkscape:label=""
       inkscape:locked="false"
       inkscape:color="rgb(0,0,255)" />
    <sodipodi:guide
       position="0.26458334,5.0270835"
       orientation="0,1"
       id="guide910"
       inkscape:label=""
       inkscape:locked="false"
       inkscape:color="rgb(0,0,255)" />
    <sodipodi:guide
       position="0.75123779,8.466667"
       orientation="0,1"
       id="guide2443"
       inkscape:label=""
       inkscape:locked="false"
       inkscape:color="rgb(0,0,255)" />
    <sodipodi:guide
       position="0.26458334,10.847917"
       orientation="-1,0"
       id="guide3539"
       inkscape:label=""
       inkscape:locked="false"
       inkscape:color="rgb(0,0,255)" />
    <sodipodi:guide
       position="0.26458334,2.6458334"
       orientation="0,1"
       id="guide8039"
       inkscape:label=""
       inkscape:locked="false"
       inkscape:color="rgb(0,0,255)" />
    <sodipodi:guide
       position="0.52916669,10.847917"
       orientation="-1,0"
       id="guide10061"
       inkscape:label=""
       inkscape:locked="false"
       inkscape:color="rgb(0,0,255)" />
    <sodipodi:guide
       position="0.26458337,1.8520802"
       orientation="0,1"
       id="guide19679"
       inkscape:label=""
       inkscape:locked="false"
       inkscape:color="rgb(0,0,255)" />
  </sodipodi:namedview>
  <defs
     id="defs2">
    <inkscape:perspective
       sodipodi:type="inkscape:persp3d"
       inkscape:vp_x="0 : 5.5562505 : 1"
       inkscape:vp_y="0 : 1000 : 0"
       inkscape:vp_z="8.4666684 : 5.5562505 : 1"
       inkscape:persp3d-origin="4.2333344 : 3.704167 : 1"
       id="perspective2796" />
  </defs>
  <g
     inkscape:label="Layer 1"
     inkscape:groupmode="layer"
     id="layer1">
    <path
       id="path25435"
       style="color:#000000;fill:#000000;stroke-width:3.77953;stroke-linecap:round;stroke-linejoin:round;-inkscape-stroke:none"
       d="M 2,4.9980469 A 1.0000006,1.0000006 0 0 0 0.99609375,6.0019531 1.0000006,1.0000006 0 0 0 2,6.9980469 H 2.5019531 V 34.001953 H 2 A 1.0000006,1.0000006 0 0 0 0.99609375,34.998047 1.0000006,1.0000006 0 0 0 2,36.001953 H 6.0019531 A 1.0000006,1.0000006 0 0 0 6.9980469,34.998047 1.0000006,1.0000006 0 0 0 6.0019531,34.001953 H 4.5039062 V 8.3964844 L 12.017578,24.736328 9.109375,30.552734 A 1.0001006,1.0001006 0 0 0 10.001953,32 h 5.994141 a 1.0001006,1.0001006 0 0 0 0.916015,-1.416016 L 14.240234,24.765625 20.5,12.238281 V 30 H 19.001953 A 1.0000001,1.0000001 0 0 0 17.996094,30.996094 1.0000001,1.0000001 0 0 0 19.001953,32 h 2.501953 3.498047 A 1.0000001,1.0000001 0 0 0 25.998047,30.996094 1.0000001,1.0000001 0 0 0 25.001953,30 H 22.5 V 12.003906 h 1.521484 a 1.0000006,1.0000006 0 0 0 1.003907,-1.005859 1.0000006,1.0000006 0 0 0 -1.003907,-0.996094 h -2.517578 -1.505859 a 1.0001006,1.0001006 0 0 0 -0.894531,0.554688 L 13.162109,22.441406 5.4101562,5.5800781 A 1.0001006,1.0001006 0 0 0 4.5039062,4.9980469 Z M 13.087891,27.0625 14.439453,30 h -2.820312 z"
       transform="scale(0.26458333)" />
  </g>
</svg>
