<?xml version="1.0" encoding="UTF-8" standalone="no"?>
<!-- Created with Inkscape (http://www.inkscape.org/) -->

<svg
   width="34.5"
   height="42"
   viewBox="0 0 9.1281269 11.112501"
   version="1.1"
   id="svg5"
   sodipodi:docname="W.svg"
   inkscape:version="1.1.1 (3bf5ae0d25, 2021-09-20)"
   xmlns:inkscape="http://www.inkscape.org/namespaces/inkscape"
   xmlns:sodipodi="http://sodipodi.sourceforge.net/DTD/sodipodi-0.dtd"
   xmlns="http://www.w3.org/2000/svg"
   xmlns:svg="http://www.w3.org/2000/svg">
  <sodipodi:namedview
     id="namedview7"
     pagecolor="#ffffff"
     bordercolor="#666666"
     borderopacity="1.0"
     inkscape:pageshadow="2"
     inkscape:pageopacity="0.0"
     inkscape:pagecheckerboard="0"
     inkscape:document-units="mm"
     showgrid="false"
     units="px"
     width="32px"
     showguides="true"
     inkscape:guide-bbox="true"
     inkscape:zoom="16"
     inkscape:cx="12.96875"
     inkscape:cy="26.03125"
     inkscape:window-width="1889"
     inkscape:window-height="1058"
     inkscape:window-x="31"
     inkscape:window-y="0"
     inkscape:window-maximized="1"
     inkscape:current-layer="layer1">
    <sodipodi:guide
       position="0.26458335,2.9104168"
       orientation="0,1"
       id="guide900"
       inkscape:label=""
       inkscape:locked="false"
       inkscape:color="rgb(0,0,255)" />
    <sodipodi:guide
       position="0.26458334,1.5875001"
       orientation="0,1"
       id="guide902"
       inkscape:label=""
       inkscape:locked="false"
       inkscape:color="rgb(0,0,255)" />
    <sodipodi:guide
       position="0.26458334,8.2020836"
       orientation="0,1"
       id="guide904"
       inkscape:label=""
       inkscape:locked="false"
       inkscape:color="rgb(0,0,255)" />
    <sodipodi:guide
       position="0.26458334,9.5250003"
       orientation="0,1"
       id="guide906"
       inkscape:label=""
       inkscape:locked="false"
       inkscape:color="rgb(0,0,255)" />
    <sodipodi:guide
       position="0.26458334,5.8208335"
       orientation="0,1"
       id="guide908"
       inkscape:label=""
       inkscape:locked="false"
       inkscape:color="rgb(0,0,255)" />
    <sodipodi:guide
       position="0.26458334,5.0270835"
       orientation="0,1"
       id="guide910"
       inkscape:label=""
       inkscape:locked="false"
       inkscape:color="rgb(0,0,255)" />
    <sodipodi:guide
       position="0.75123779,8.466667"
       orientation="0,1"
       id="guide2443"
       inkscape:label=""
       inkscape:locked="false"
       inkscape:color="rgb(0,0,255)" />
    <sodipodi:guide
       position="0.26458334,10.847917"
       orientation="-1,0"
       id="guide3539"
       inkscape:label=""
       inkscape:locked="false"
       inkscape:color="rgb(0,0,255)" />
    <sodipodi:guide
       position="0.26458334,2.6458334"
       orientation="0,1"
       id="guide8039"
       inkscape:label=""
       inkscape:locked="false"
       inkscape:color="rgb(0,0,255)" />
    <sodipodi:guide
       position="0.52916669,10.847917"
       orientation="-1,0"
       id="guide10061"
       inkscape:label=""
       inkscape:locked="false"
       inkscape:color="rgb(0,0,255)" />
    <sodipodi:guide
       position="0.26458337,1.8520802"
       orientation="0,1"
       id="guide19679"
       inkscape:label=""
       inkscape:locked="false"
       inkscape:color="rgb(0,0,255)" />
  </sodipodi:namedview>
  <defs
     id="defs2">
    <inkscape:perspective
       sodipodi:type="inkscape:persp3d"
       inkscape:vp_x="0 : 5.5562505 : 1"
       inkscape:vp_y="0 : 1000 : 0"
       inkscape:vp_z="8.4666686 : 5.5562505 : 1"
       inkscape:persp3d-origin="4.2333345 : 3.704167 : 1"
       id="perspective2796" />
  </defs>
  <g
     inkscape:label="Layer 1"
     inkscape:groupmode="layer"
     id="layer1">
    <path
       id="path42904"
       style="color:#000000;fill:#000000;stroke-width:3.77953;stroke-linecap:round;stroke-linejoin:round;-inkscape-stroke:none"
       d="m 3.9882812,9.9960938 a 1.0000001,1.0000001 0 0 0 -0.044922,0.00586 H 2 A 1.0000001,1.0000001 0 0 0 0.99609375,10.998047 1.0000001,1.0000001 0 0 0 2,12.003906 H 3.2128906 L 8.7324219,34.998047 H 8.0019531 a 1.0000001,1.0000001 0 0 0 -1.0039062,1.003906 1.0000001,1.0000001 0 0 0 1.0039062,0.996094 h 5.9160159 c 0.05548,0.0044 0.109858,0.0047 0.164062,0 h 1.914063 A 1.0000001,1.0000001 0 0 0 17,36.001953 1.0000001,1.0000001 0 0 0 15.996094,34.998047 h -0.730469 l 2.302734,-9.597656 1.228516,4.90039 c -0.292922,-0.0091 -0.577207,-0.0113 -0.851563,-0.0078 -0.552491,0.0059 -0.952106,0.121596 -0.945312,0.71875 0.0039,0.366716 0.567516,0.626953 1.011719,0.626953 2.232554,0 6.154718,1.357422 9.988281,1.357422 0.552478,0.0022 1.107476,-0.443615 1.109375,-0.996094 0.02428,-0.999999 -0.556815,-1.326346 -1.09375,-1.279297 -0.309923,0.02716 -0.627884,0.04325 -0.951172,0.05273 l 3.757813,-18.769532 h 1.679687 a 1.0000001,1.0000001 0 0 0 0.996094,-1.005859 1.0000001,1.0000001 0 0 0 -0.996094,-0.996094 h -2.458984 a 1.0000001,1.0000001 0 0 0 -0.08203,0 h -2.957032 a 1.0000001,1.0000001 0 0 0 -1.005859,0.996094 1.0000001,1.0000001 0 0 0 1.005859,1.005859 h 1.773438 l -3.748047,18.740235 c -1.382113,-0.06625 -2.800471,-0.206286 -4.138672,-0.314453 l -2.310547,-9.228516 2.392578,-9.966797 c 0.150565,-0.629413 -0.327447,-1.233563 -0.97461,-1.232429 H 15 c -0.647991,0.0025 -1.122342,0.611184 -0.966797,1.240235 l 2.488281,9.966796 -3.308593,13.789063 H 10.785156 L 5.2714844,12.003906 H 6.9980469 A 1.0000001,1.0000001 0 0 0 8.0019531,10.998047 1.0000001,1.0000001 0 0 0 6.9980469,10.001953 h -2.953125 a 1.0000001,1.0000001 0 0 0 -0.056641,-0.00586 z M 16.277344,12.003906 h 2.457031 l -1.203125,5.003906 z"
       transform="scale(0.26458333)" />
  </g>
</svg>
