<?xml version="1.0" encoding="UTF-8" standalone="no"?>
<!-- Created with Inkscape (http://www.inkscape.org/) -->

<svg
   width="26"
   height="42"
   viewBox="0 0 6.8791681 11.112501"
   version="1.1"
   id="svg5"
   sodipodi:docname="Y.svg"
   inkscape:version="1.1.1 (3bf5ae0d25, 2021-09-20)"
   xmlns:inkscape="http://www.inkscape.org/namespaces/inkscape"
   xmlns:sodipodi="http://sodipodi.sourceforge.net/DTD/sodipodi-0.dtd"
   xmlns="http://www.w3.org/2000/svg"
   xmlns:svg="http://www.w3.org/2000/svg">
  <sodipodi:namedview
     id="namedview7"
     pagecolor="#ffffff"
     bordercolor="#666666"
     borderopacity="1.0"
     inkscape:pageshadow="2"
     inkscape:pageopacity="0.0"
     inkscape:pagecheckerboard="0"
     inkscape:document-units="mm"
     showgrid="false"
     units="px"
     width="32px"
     showguides="true"
     inkscape:guide-bbox="true"
     inkscape:zoom="11.313709"
     inkscape:cx="-4.0216698"
     inkscape:cy="11.623068"
     inkscape:window-width="1889"
     inkscape:window-height="1058"
     inkscape:window-x="31"
     inkscape:window-y="0"
     inkscape:window-maximized="1"
     inkscape:current-layer="layer1">
    <sodipodi:guide
       position="0.26458335,2.9104168"
       orientation="0,1"
       id="guide900"
       inkscape:label=""
       inkscape:locked="false"
       inkscape:color="rgb(0,0,255)" />
    <sodipodi:guide
       position="0.26458334,1.5875001"
       orientation="0,1"
       id="guide902"
       inkscape:label=""
       inkscape:locked="false"
       inkscape:color="rgb(0,0,255)" />
    <sodipodi:guide
       position="0.26458334,8.2020836"
       orientation="0,1"
       id="guide904"
       inkscape:label=""
       inkscape:locked="false"
       inkscape:color="rgb(0,0,255)" />
    <sodipodi:guide
       position="0.26458334,9.5250003"
       orientation="0,1"
       id="guide906"
       inkscape:label=""
       inkscape:locked="false"
       inkscape:color="rgb(0,0,255)" />
    <sodipodi:guide
       position="0.26458334,5.8208335"
       orientation="0,1"
       id="guide908"
       inkscape:label=""
       inkscape:locked="false"
       inkscape:color="rgb(0,0,255)" />
    <sodipodi:guide
       position="0.26458334,5.0270835"
       orientation="0,1"
       id="guide910"
       inkscape:label=""
       inkscape:locked="false"
       inkscape:color="rgb(0,0,255)" />
    <sodipodi:guide
       position="0.75123779,8.466667"
       orientation="0,1"
       id="guide2443"
       inkscape:label=""
       inkscape:locked="false"
       inkscape:color="rgb(0,0,255)" />
    <sodipodi:guide
       position="0.26458334,10.847917"
       orientation="-1,0"
       id="guide3539"
       inkscape:label=""
       inkscape:locked="false"
       inkscape:color="rgb(0,0,255)" />
    <sodipodi:guide
       position="0.26458334,2.6458334"
       orientation="0,1"
       id="guide8039"
       inkscape:label=""
       inkscape:locked="false"
       inkscape:color="rgb(0,0,255)" />
    <sodipodi:guide
       position="0.52916669,10.847917"
       orientation="-1,0"
       id="guide10061"
       inkscape:label=""
       inkscape:locked="false"
       inkscape:color="rgb(0,0,255)" />
    <sodipodi:guide
       position="0.26458337,1.8520802"
       orientation="0,1"
       id="guide19679"
       inkscape:label=""
       inkscape:locked="false"
       inkscape:color="rgb(0,0,255)" />
  </sodipodi:namedview>
  <defs
     id="defs2">
    <inkscape:perspective
       sodipodi:type="inkscape:persp3d"
       inkscape:vp_x="0 : 5.5562505 : 1"
       inkscape:vp_y="0 : 1000 : 0"
       inkscape:vp_z="8.4666686 : 5.5562505 : 1"
       inkscape:persp3d-origin="4.2333346 : 3.704167 : 1"
       id="perspective2796" />
  </defs>
  <g
     inkscape:label="Layer 1"
     inkscape:groupmode="layer"
     id="layer1">
    <path
       id="path48415"
       style="color:#000000;fill:#000000;stroke-width:3.77953;stroke-linecap:round;stroke-linejoin:round;-inkscape-stroke:none"
       d="m 17.326172,5.2988281 c -0.192203,9.36e-5 -0.388436,0.00195 -0.585938,0.00195 -0.406349,0 -0.745836,0.2712741 -0.74414,0.7011719 0.0018,0.5276066 0.357754,0.6365662 0.814453,0.6347657 1.352692,0 2.612766,0.3462316 3.642578,0.5957031 0.04155,0.010066 0.08503,0.019145 0.126953,0.029297 L 11.537109,19.761719 6.3691406,12.003906 H 6.9980469 A 1.0000001,1.0000001 0 0 0 8.0019531,10.998047 1.0000001,1.0000001 0 0 0 6.9980469,10.001953 H 2 A 1.0000001,1.0000001 0 0 0 0.99609375,10.998047 1.0000001,1.0000001 0 0 0 2,12.003906 h 1.96875 l 6.527344,9.8125 V 34.998047 H 8.9980469 a 1.0000001,1.0000001 0 0 0 -0.9960938,1.003906 1.0000001,1.0000001 0 0 0 0.9960938,0.996094 h 5.5000001 a 1.0000001,1.0000001 0 0 0 1.003906,-0.996094 1.0000001,1.0000001 0 0 0 -1.003906,-1.003906 h -2 V 21.845703 L 22.744141,7.6816406 c 0.430723,0.050613 0.894605,0.082031 1.40039,0.082031 0.555364,0.00219 0.859613,-0.2102594 0.857422,-0.765625 -0.0019,-0.5524789 -0.451428,-0.9982719 -1.003906,-0.9960938 -1.28711,0 -2.18458,-0.2221302 -3.21875,-0.4726562 -0.904899,-0.21921 -2.107706,-0.2311236 -3.453125,-0.2304685 z"
       transform="scale(0.26458333)" />
  </g>
</svg>
